<svg xmlns="http://www.w3.org/2000/svg" xmlns:xlink="http://www.w3.org/1999/xlink" width="99.001" height="98.908" viewBox="0 0 99.001 98.908">
  <defs>
    <clipPath id="clip-path">
      <rect id="Rect치ngulo_413149" data-name="Rect치ngulo 413149" width="38.198" height="48.392" fill="#12263f"/>
    </clipPath>
  </defs>
  <g id="Grupo_1115994" data-name="Grupo 1115994" transform="translate(-960.71 -3933)">
    <g id="Grupo_1115345" data-name="Grupo 1115345" transform="translate(574.043 -1404)">
      <rect id="Rect치ngulo_412780" data-name="Rect치ngulo 412780" width="93.637" height="93.545" rx="20" transform="translate(389.349 5339.695)" fill="#b0c2e5"/>
      <g id="Grupo_1114814" data-name="Grupo 1114814" transform="translate(386.667 5337)">
        <path id="Trazado_875775" data-name="Trazado 875775" d="M245.284,301.406A1.288,1.288,0,0,1,244,300.118v-3.863a6.445,6.445,0,0,1,6.438-6.438h30.644a9.024,9.024,0,0,0,9.013-9.013V250.216a6.445,6.445,0,0,1,6.438-6.438h3.863a1.288,1.288,0,1,1,0,2.575h-3.863a3.867,3.867,0,0,0-3.863,3.863V280.8a11.6,11.6,0,0,1-11.588,11.588H250.434a3.867,3.867,0,0,0-3.863,3.863v3.863a1.288,1.288,0,0,1-1.288,1.288" transform="translate(-202.679 -202.498)" fill="#12263f"/>
        <path id="Trazado_875777" data-name="Trazado 875777" d="M1.288,57.628A1.288,1.288,0,0,1,0,56.34V52.477a6.445,6.445,0,0,1,6.438-6.438H37.082A9.024,9.024,0,0,0,46.1,37.026V6.438A6.445,6.445,0,0,1,52.533,0H56.4a1.288,1.288,0,0,1,0,2.575H52.533a3.867,3.867,0,0,0-3.863,3.863V37.026A11.6,11.6,0,0,1,37.082,48.614H6.438a3.867,3.867,0,0,0-3.863,3.863V56.34a1.288,1.288,0,0,1-1.288,1.288" transform="translate(57.684 57.628) rotate(180)" fill="#12263f"/>
      </g>
    </g>
    <g id="Grupo_1115590" data-name="Grupo 1115590" transform="translate(991.111 3958.258)">
      <g id="Grupo_1115589" data-name="Grupo 1115589" clip-path="url(#clip-path)">
        <path id="Trazado_875989" data-name="Trazado 875989" d="M28.245,3.717c3.1,2.942,6.034,6.09,9.114,9.065l.8,1.637.042,30.55a3.848,3.848,0,0,1-3.728,3.423H3.727A3.88,3.88,0,0,1,0,44.817V3.729A3.8,3.8,0,0,1,3.735.161c6.276.366,13.116-.5,19.325-.008,2.208.173,3.65,2.107,5.185,3.564m-5.267-.972H3.581a1.362,1.362,0,0,0-.844,1.286V44.362a1.394,1.394,0,0,0,.618,1.208l30.965.086a1.362,1.362,0,0,0,1.286-.844V15.372H25.793c-.853,0-2.815-1.971-2.815-2.815Zm2.586,1.978v7.227c0,.226.875.837.989.837h6.922Z" transform="translate(0 0)" fill="#12263f"/>
        <path id="Trazado_875990" data-name="Trazado 875990" d="M55.936,133.788H51.6c-.062,0-.815-.736-.693-.981l0-15.681c.1-.814.505-1.074,1.289-1.145,6.43-.582,13.727.457,20.249,0a1.2,1.2,0,0,1,1.293,1.293c-.46,6.57.587,13.924,0,20.4-.081.9-.424,1.129-1.3,1.29-4.849-.343-10.3.444-15.072,0-.393-.036-1.438-.49-1.438-.844ZM53.5,121.008h2.434v-2.434H53.5Zm17.648-2.434H58.523v2.434H71.15ZM53.5,126.181h2.434v-2.434H53.5Zm17.648-2.434H58.523v2.434H71.15ZM53.5,131.2h2.434v-2.434H53.5Zm17.648-2.434H58.523V131.2H71.15Zm0,5.021H58.523v2.434H71.15Z" transform="translate(-43.151 -98.181)" fill="#12263f"/>
      </g>
    </g>
  </g>
</svg>
