<svg xmlns="http://www.w3.org/2000/svg" xmlns:xlink="http://www.w3.org/1999/xlink" width="99.001" height="98.908" viewBox="0 0 99.001 98.908">
  <defs>
    <clipPath id="clip-path">
      <rect id="Rect치ngulo_413148" data-name="Rect치ngulo 413148" width="48.747" height="53.224" fill="#12263f"/>
    </clipPath>
  </defs>
  <g id="Grupo_1115344" data-name="Grupo 1115344" transform="translate(-386.667 -5337)">
    <rect id="Rect치ngulo_412780" data-name="Rect치ngulo 412780" width="93.637" height="93.545" rx="20" transform="translate(389.349 5339.695)" fill="#b0c2e5"/>
    <g id="Grupo_1114814" data-name="Grupo 1114814" transform="translate(386.667 5337)">
      <path id="Trazado_875775" data-name="Trazado 875775" d="M245.284,301.406A1.288,1.288,0,0,1,244,300.118v-3.863a6.445,6.445,0,0,1,6.438-6.438h30.644a9.024,9.024,0,0,0,9.013-9.013V250.216a6.445,6.445,0,0,1,6.438-6.438h3.863a1.288,1.288,0,1,1,0,2.575h-3.863a3.867,3.867,0,0,0-3.863,3.863V280.8a11.6,11.6,0,0,1-11.588,11.588H250.434a3.867,3.867,0,0,0-3.863,3.863v3.863a1.288,1.288,0,0,1-1.288,1.288" transform="translate(-202.679 -202.498)" fill="#12263f"/>
      <path id="Trazado_875777" data-name="Trazado 875777" d="M1.288,57.628A1.288,1.288,0,0,1,0,56.34V52.477a6.445,6.445,0,0,1,6.438-6.438H37.082A9.024,9.024,0,0,0,46.1,37.026V6.438A6.445,6.445,0,0,1,52.533,0H56.4a1.288,1.288,0,0,1,0,2.575H52.533a3.867,3.867,0,0,0-3.863,3.863V37.026A11.6,11.6,0,0,1,37.082,48.614H6.438a3.867,3.867,0,0,0-3.863,3.863V56.34a1.288,1.288,0,0,1-1.288,1.288" transform="translate(57.684 57.628) rotate(180)" fill="#12263f"/>
    </g>
    <g id="Grupo_1115588" data-name="Grupo 1115588" transform="translate(414.919 5357.522)">
      <g id="Grupo_1115588-2" data-name="Grupo 1115588" clip-path="url(#clip-path)">
        <path id="Trazado_875979" data-name="Trazado 875979" d="M56.488,245.947l23.128-.031c1.71.379,1.125,2.375-.531,2.27-7.062-.455-14.856.59-21.832,0-1.572-.133-2.215-1.413-.765-2.238" transform="translate(-48.269 -213.192)" fill="#12263f"/>
        <path id="Trazado_875980" data-name="Trazado 875980" d="M65.247,123.146v11.377a1.6,1.6,0,0,1-.48.584,1.213,1.213,0,0,1-1.782-.983V123.146H59.193c-1.185,0-1.637-1.887-.371-2.234l10.359-.037a1.126,1.126,0,0,1,.787,1.869,3.234,3.234,0,0,1-.8.4Z" transform="translate(-50.337 -104.791)" fill="#12263f"/>
        <path id="Trazado_875981" data-name="Trazado 875981" d="M56.715,292.151l23.588.041a1.153,1.153,0,0,1,0,1.99l-23.353.072a1.074,1.074,0,0,1-.235-2.1" transform="translate(-48.496 -253.275)" fill="#12263f"/>
        <path id="Trazado_875982" data-name="Trazado 875982" d="M144.446,204.049l11.267-.019a1.127,1.127,0,0,1-.121,2.25c-3.42.383-7.538-.276-11.032-.012a1.114,1.114,0,0,1-.114-2.218" transform="translate(-124.38 -176.88)" fill="#12263f"/>
        <path id="Trazado_875983" data-name="Trazado 875983" d="M295.725,14.659c2.92-.485,2.892,2.724,0,2.261.428,2.89-2.771,2.957-2.261,0-2.992.444-2.981-2.708,0-2.261-.51-2.956,2.688-2.891,2.261,0" transform="translate(-252.472 -10.808)" fill="#12263f"/>
        <path id="Trazado_875984" data-name="Trazado 875984" d="M167.563,161.638a21.29,21.29,0,0,1,4.755.1,1.094,1.094,0,0,1-.137,2.118c-1.47.229-3.491-.131-5.021-.02a1.144,1.144,0,0,1,.4-2.2" transform="translate(-144.303 -140.058)" fill="#12263f"/>
        <path id="Trazado_875985" data-name="Trazado 875985" d="M2.442,27.323a2.335,2.335,0,0,0-.312,1.22V71c.063.753.254,1.385,1.128,1.4l33.282,0a1.051,1.051,0,0,0,1.025-.572c.3-6.957-.1-14,.2-20.957a1.158,1.158,0,0,1,2.163.7c-.312,6.365.411,13.116.006,19.435-.132,2.053-1.124,3.452-3.262,3.658H3.129a3.424,3.424,0,0,1-3.057-2.4L0,27.61a3.326,3.326,0,0,1,2.24-2.684c7.532-.4,15.155-.056,22.721-.173a1.141,1.141,0,1,1-.269,2.266l-21.433-.01a1.215,1.215,0,0,0-.817.314" transform="translate(0 -21.438)" fill="#12263f"/>
        <path id="Trazado_875986" data-name="Trazado 875986" d="M167.293,120.765a15.423,15.423,0,0,1,3.1.042,1.148,1.148,0,0,1,.1,1.956,5.474,5.474,0,0,1-3.385,0,1.149,1.149,0,0,1,.19-2" transform="translate(-144.438 -104.645)" fill="#12263f"/>
        <path id="Trazado_875987" data-name="Trazado 875987" d="M169.125,7.943l7.245,2.667a1.093,1.093,0,0,1,0,2.048l-7.245,2.667L166.5,22.481a1.152,1.152,0,0,1-1.937.436l-2.927-7.551c-2.156-1.023-4.605-1.594-6.778-2.536-1.024-.444-1.512-1.014-.7-2.063,2.468-1.089,5.117-1.777,7.547-2.929.988-2.153,1.566-4.644,2.535-6.779.228-.5.336-.941.964-1.041A1.15,1.15,0,0,1,166.457.7ZM165.5,18.887a35.778,35.778,0,0,1,2-5.251l5.05-2-5.05-2a54.717,54.717,0,0,1-2.067-5.253c-.282-.005-1.5,4.624-2.121,5.2-.915.85-3.958,1.3-5.133,2.054,0,.277,4.5,1.469,5.133,2.054.536.5,1.446,3.641,1.821,4.566.073.179.163.6.365.631" transform="translate(-133.289 0)" fill="#12263f"/>
        <path id="Trazado_875988" data-name="Trazado 875988" d="M274.991,112.507c1.014.53,2.839.795,3.739,1.384.839.549.591,1.545-.222,2.005-.735.416-3.129.937-3.549,1.374-.37.386-.943,2.833-1.368,3.556a1.1,1.1,0,0,1-1.89.228c-.588-.717-.973-2.906-1.433-3.822-.823-.508-3.61-1.044-4.1-1.691-1.5-1.986,3.355-2.345,4.058-3.134.412-.462.909-2.71,1.327-3.463a1.262,1.262,0,0,1,.868-.741c1.536-.3,1.888,3.359,2.568,4.305m-.169,2.429c-.381-.479-1.179-.385-1.6-.859a4.375,4.375,0,0,1-.53-1.4c-.209-.162-.5.993-.562,1.1-.416.774-1.108.6-1.7,1.1,1.407.373,1.671.923,2.2,2.194.323-1.255.839-1.959,2.195-2.13" transform="translate(-230.503 -93.788)" fill="#12263f"/>
      </g>
    </g>
  </g>
</svg>
