<svg xmlns="http://www.w3.org/2000/svg" xmlns:xlink="http://www.w3.org/1999/xlink" width="505" height="255" viewBox="0 0 505 255">
  <defs>
    <clipPath id="clip-path">
      <rect id="Rectángulo_413189" data-name="Rectángulo 413189" width="452.206" height="253.82" fill="none"/>
    </clipPath>
  </defs>
  <g id="Grupo_1115599" data-name="Grupo 1115599" transform="translate(-284.711 -7548)">
    <rect id="Rectángulo_412881" data-name="Rectángulo 412881" width="505" height="255" transform="translate(284.711 7548)" fill="none"/>
    <g id="Grupo_1115598" data-name="Grupo 1115598" transform="translate(311.107 7548.128)">
      <g id="Grupo_1115597" data-name="Grupo 1115597" clip-path="url(#clip-path)">
        <path id="Trazado_876029" data-name="Trazado 876029" d="M275.407,237.267c-65.909-29.291-75.069-29.423-135.888-7.841-65.888,23.38-104.254,5.187-107.8-28.036C25.691,144.8,152.9,158.943,141.821,86.874c-8.161-53.1,27.695-77.934,75.122-85.18,46.928-7.17,79.772,7.714,74.575,58.505-2.874,28.1-13.236,46.023,24.34,57.82,38.87,12.2,99.364,5.779,109.871,58.925,10.414,52.672-88.707,87.708-150.323,60.324" transform="translate(-4.907 0)" fill="#d5c6ea"/>
        <path id="Trazado_876030" data-name="Trazado 876030" d="M142.579,250.792s-18.379-2.3-13.73-20.355,2.069-27.49-11.894-41.02-13.95-24.97-8.158-37.577-21.531-26.679-9.229-37.671c19.651-17.552,12.561-28.141,3.222-36.665C92.3,67.925,90.178,48.995,106.473,50.664s25.939,27.908,25.792,38.976,1.112,21.617,18.5,29.027,21.932,16.12,23.667,30.868S172.934,163.78,187,182.5Z" transform="translate(-14.726 -7.872)" fill="#969924"/>
        <path id="Trazado_876031" data-name="Trazado 876031" d="M193.065,250.36c-24.426-19.26-69.352-133.373-69.8-134.516l.807-.317c.447,1.148,45.286,115.042,69.532,134.164Z" transform="translate(-19.192 -17.988)" fill="#c2c23c"/>
        <path id="Trazado_876032" data-name="Trazado 876032" d="M145.968,174.558c-2.685.409-6.037-.909-10-3.937l.532-.679c4.522,3.449,8.127,4.579,10.709,3.35,4.265-2.032,4.462-9.877,4.467-9.953l.865.008c-.009.345-.225,8.462-4.964,10.718a5.6,5.6,0,0,1-1.609.493" transform="translate(-21.17 -25.432)" fill="#c2c23c"/>
        <path id="Trazado_876033" data-name="Trazado 876033" d="M132.565,143.412c-2.685.409-6.036-.905-10-3.932l.533-.684c4.528,3.464,8.132,4.588,10.707,3.355,4.265-2.028,4.471-9.878,4.471-9.959l.863.013c0,.351-.219,8.467-4.959,10.723a5.8,5.8,0,0,1-1.612.484" transform="translate(-19.083 -20.582)" fill="#c2c23c"/>
        <path id="Trazado_876034" data-name="Trazado 876034" d="M124.43,125.432c-2.685.409-6.038-.919-10-3.942l.529-.684c4.523,3.46,8.133,4.583,10.71,3.356,4.264-2.033,4.466-9.884,4.466-9.959l.865.019c-.005.339-.218,8.45-4.959,10.712a5.615,5.615,0,0,1-1.608.5" transform="translate(-17.816 -17.781)" fill="#c2c23c"/>
        <path id="Trazado_876035" data-name="Trazado 876035" d="M140.305,160.759c-2.243.342-5.04-.76-8.343-3.275l.535-.679c3.72,2.839,6.689,3.78,8.8,2.764,3.482-1.656,3.659-8.119,3.66-8.184l.86.014c0,.285-.181,7.056-4.15,8.942a4.629,4.629,0,0,1-1.36.417" transform="translate(-20.546 -23.571)" fill="#c2c23c"/>
        <path id="Trazado_876036" data-name="Trazado 876036" d="M152.976,189.939c-2.685.409-6.038-.915-10-3.939l.529-.688c4.52,3.466,8.123,4.585,10.7,3.357,4.263-2.027,4.471-9.879,4.469-9.959l.866.019c0,.344-.22,8.456-4.958,10.717a5.626,5.626,0,0,1-1.612.494" transform="translate(-22.261 -27.825)" fill="#c2c23c"/>
        <path id="Trazado_876037" data-name="Trazado 876037" d="M159.8,208.271c-2.682.409-6.039-.908-10-3.931l.531-.684c4.525,3.454,8.136,4.582,10.709,3.349,4.265-2.027,4.466-9.872,4.469-9.953l.864.014c0,.333-.218,8.456-4.959,10.712a5.651,5.651,0,0,1-1.609.493" transform="translate(-23.323 -30.681)" fill="#c2c23c"/>
        <path id="Trazado_876038" data-name="Trazado 876038" d="M167.934,221.8c-1.941.3-4.357-.654-7.2-2.83l.534-.679c3.169,2.428,5.689,3.218,7.47,2.375,2.961-1.409,3.1-6.914,3.1-6.968l.867.018c0,.243-.16,6.084-3.594,7.722a4.439,4.439,0,0,1-1.179.362" transform="translate(-25.026 -33.272)" fill="#c2c23c"/>
        <path id="Trazado_876039" data-name="Trazado 876039" d="M139.893,178.117S91.427,190.5,84.861,178.9s-2.714-29.2-22.214-36.435-30.435-22.273-37.175-16.332c-8.687,7.659,2.465,18.446,14.654,27.756,14.218,10.866,13.266,24.258,12.068,31.5-3,18.211,18.489,18.714,22.984,40.091,1.843,8.75,23.676,33.056,61.553,6.318Z" transform="translate(-3.485 -19.427)" fill="#c2c23c"/>
        <path id="Trazado_876040" data-name="Trazado 876040" d="M147.309,242.706c-17.643-1.254-73-40.488-73.551-40.882l.306-.406c.555.4,55.8,39.556,73.317,40.8Z" transform="translate(-11.484 -31.36)" fill="#969924"/>
        <path id="Trazado_876041" data-name="Trazado 876041" d="M102.41,221.216c-1.2,1.048-3.239,1.5-6.074,1.34l.065-.488c3.232.177,5.338-.442,6.252-1.841,1.51-2.313-.676-6.058-.7-6.1l.428-.272c.1.165,2.352,4.043.674,6.612a3.494,3.494,0,0,1-.649.745" transform="translate(-14.999 -33.298)" fill="#969924"/>
        <path id="Trazado_876042" data-name="Trazado 876042" d="M86.74,210.871c-1.2,1.048-3.238,1.5-6.074,1.344l.064-.491c3.239.182,5.342-.439,6.252-1.839,1.511-2.311-.672-6.06-.695-6.1l.429-.268c.1.165,2.356,4.043.677,6.613a3.612,3.612,0,0,1-.653.74" transform="translate(-12.56 -31.687)" fill="#969924"/>
        <path id="Trazado_876043" data-name="Trazado 876043" d="M77.5,205.029c-1.2,1.048-3.243,1.493-6.075,1.337l.061-.49c3.236.182,5.342-.442,6.255-1.839,1.51-2.313-.676-6.062-.7-6.1l.431-.268c.1.161,2.353,4.037.675,6.609a3.539,3.539,0,0,1-.648.746" transform="translate(-11.12 -30.777)" fill="#969924"/>
        <path id="Trazado_876044" data-name="Trazado 876044" d="M95.54,216.706c-1.006.876-2.705,1.25-5.065,1.122l.066-.489c2.66.147,4.4-.358,5.139-1.507,1.234-1.887-.56-4.976-.578-5.008l.428-.267c.082.134,1.965,3.369.558,5.519a2.893,2.893,0,0,1-.549.629" transform="translate(-14.087 -32.784)" fill="#969924"/>
        <path id="Trazado_876045" data-name="Trazado 876045" d="M110.342,226.2c-1.2,1.048-3.241,1.5-6.074,1.339l.061-.492c3.235.187,5.337-.438,6.252-1.836,1.51-2.31-.673-6.062-.7-6.1l.432-.268c.1.163,2.353,4.039.677,6.611a3.56,3.56,0,0,1-.651.746" transform="translate(-16.234 -34.074)" fill="#969924"/>
        <path id="Trazado_876046" data-name="Trazado 876046" d="M119.041,232.63c-1.2,1.047-3.24,1.5-6.074,1.343l.062-.49c3.235.179,5.344-.443,6.253-1.841,1.511-2.312-.674-6.057-.695-6.1l.429-.269c.1.158,2.354,4.038.674,6.608a3.523,3.523,0,0,1-.649.745" transform="translate(-17.589 -35.075)" fill="#969924"/>
        <path id="Trazado_876047" data-name="Trazado 876047" d="M126.878,236.656c-.871.758-2.338,1.082-4.373.968l.065-.49c2.269.131,3.739-.3,4.373-1.266,1.049-1.605-.484-4.233-.5-4.26l.431-.268c.068.116,1.692,2.906.476,4.769a2.8,2.8,0,0,1-.474.546" transform="translate(-19.074 -36.019)" fill="#969924"/>
        <path id="Trazado_876048" data-name="Trazado 876048" d="M380.4,229.1s12.52,2.875,13.791-9.989,5.2-18.4,17.515-23.888,15.033-12.942,14.263-22.534,20.378-12.25,14.983-22.339c-8.62-16.113-1.481-21.322,6.633-24.649,9.115-3.741,15-15.566,3.992-18.36s-23.542,12-26.082,19.246-5.871,13.816-18.96,14.5-18.125,5.278-22.767,14.47-2.42,9.634-16.037,18.477Z" transform="translate(-57.256 -16.659)" fill="#969924"/>
        <path id="Trazado_876049" data-name="Trazado 876049" d="M350.175,217.333c20.5-6.729,76.935-70.361,77.5-71l-.451-.4c-.564.641-56.893,64.152-77.24,70.833Z" transform="translate(-54.492 -22.722)" fill="#c2c23c"/>
        <path id="Trazado_876050" data-name="Trazado 876050" d="M411.128,178.482c1.651.906,4.149.845,7.451-.183l-.185-.569c-3.766,1.17-6.384,1.048-7.773-.367-2.294-2.34-.555-7.5-.54-7.547l-.565-.2c-.076.227-1.868,5.566.681,8.164a3.866,3.866,0,0,0,.93.7" transform="translate(-63.655 -26.409)" fill="#c2c23c"/>
        <path id="Trazado_876051" data-name="Trazado 876051" d="M427.273,161.386c1.651.906,4.147.849,7.452-.179l-.184-.572c-3.773,1.179-6.389,1.052-7.773-.364-2.295-2.337-.559-7.5-.54-7.552l-.566-.2c-.081.23-1.873,5.567.677,8.166a4.062,4.062,0,0,0,.935.7" transform="translate(-66.168 -23.747)" fill="#c2c23c"/>
        <path id="Trazado_876052" data-name="Trazado 876052" d="M436.855,151.613c1.651.906,4.152.839,7.453-.187l-.181-.571c-3.771,1.176-6.39,1.048-7.776-.365-2.293-2.34-.556-7.5-.537-7.55l-.567-.194c-.078.222-1.87,5.556.679,8.158a3.9,3.9,0,0,0,.93.708" transform="translate(-67.661 -22.226)" fill="#c2c23c"/>
        <path id="Trazado_876053" data-name="Trazado 876053" d="M418.449,170.963c1.38.757,3.464.705,6.215-.147l-.187-.569c-3.1.963-5.258.869-6.39-.295-1.874-1.907-.45-6.16-.435-6.2l-.564-.2c-.067.187-1.563,4.639.574,6.813a3.183,3.183,0,0,0,.786.6" transform="translate(-64.851 -25.465)" fill="#c2c23c"/>
        <path id="Trazado_876054" data-name="Trazado 876054" d="M402.9,186.834c1.651.906,4.151.842,7.451-.184l-.181-.574c-3.769,1.18-6.383,1.05-7.773-.363-2.293-2.336-.559-7.5-.539-7.551l-.569-.2c-.079.226-1.87,5.561.678,8.162a3.893,3.893,0,0,0,.932.706" transform="translate(-62.373 -27.709)" fill="#c2c23c"/>
        <path id="Trazado_876055" data-name="Trazado 876055" d="M394.087,197.148c1.65.905,4.151.846,7.453-.178l-.182-.572c-3.771,1.173-6.391,1.048-7.773-.367-2.3-2.337-.558-7.495-.541-7.548l-.566-.2c-.078.218-1.871,5.559.68,8.158a3.933,3.933,0,0,0,.93.7" transform="translate(-61.001 -29.316)" fill="#c2c23c"/>
        <path id="Trazado_876056" data-name="Trazado 876056" d="M386.157,204.223c1.194.655,2.994.612,5.365-.128l-.186-.57c-2.643.827-4.472.741-5.432-.232-1.593-1.623-.373-5.241-.361-5.278l-.569-.194c-.056.159-1.346,4,.5,5.886a3.123,3.123,0,0,0,.682.517" transform="translate(-59.864 -30.8)" fill="#c2c23c"/>
        <path id="Trazado_876057" data-name="Trazado 876057" d="M372.544,203.547s35.267,9.012,40.044.57,1.975-21.246,16.165-26.512S450.9,161.4,455.8,165.721c6.32,5.573-1.794,13.423-10.664,20.2-10.346,7.907-9.653,17.652-8.782,22.924,2.187,13.251-13.454,13.618-16.724,29.173-1.341,6.366-17.228,24.053-44.789,4.6Z" transform="translate(-58.005 -25.649)" fill="#c2c23c"/>
        <path id="Trazado_876058" data-name="Trazado 876058" d="M373.036,250.546c12.838-.913,53.118-29.462,53.521-29.748l-.223-.3c-.4.288-40.606,28.784-53.35,29.691Z" transform="translate(-58.073 -34.332)" fill="#969924"/>
        <path id="Trazado_876059" data-name="Trazado 876059" d="M414.6,234.91c.876.762,2.357,1.089,4.419.974l-.046-.355c-2.352.129-3.884-.322-4.55-1.34-1.1-1.684.492-4.408.507-4.435l-.312-.2c-.07.121-1.712,2.942-.491,4.813a2.554,2.554,0,0,0,.473.541" transform="translate(-64.409 -35.742)" fill="#969924"/>
        <path id="Trazado_876060" data-name="Trazado 876060" d="M426,227.381c.876.762,2.356,1.092,4.42.978l-.046-.357c-2.357.133-3.888-.319-4.55-1.338-1.1-1.681.49-4.41.506-4.438l-.312-.2c-.073.12-1.716,2.942-.493,4.813a2.606,2.606,0,0,0,.475.538" transform="translate(-66.184 -34.57)" fill="#969924"/>
        <path id="Trazado_876061" data-name="Trazado 876061" d="M432.731,223.129c.876.762,2.36,1.087,4.421.973l-.045-.355c-2.355.133-3.887-.322-4.551-1.338-1.1-1.684.492-4.411.507-4.437l-.313-.194c-.07.117-1.711,2.937-.491,4.809a2.562,2.562,0,0,0,.472.543" transform="translate(-67.232 -33.908)" fill="#969924"/>
        <path id="Trazado_876062" data-name="Trazado 876062" d="M419.764,231.627a5.184,5.184,0,0,0,3.685.816l-.047-.355c-1.936.106-3.2-.261-3.74-1.1-.9-1.373.408-3.621.42-3.644l-.312-.194c-.059.1-1.429,2.451-.406,4.016a2.113,2.113,0,0,0,.4.458" transform="translate(-65.236 -35.367)" fill="#969924"/>
        <path id="Trazado_876063" data-name="Trazado 876063" d="M408.831,238.538c.876.762,2.359,1.087,4.419.974l-.044-.359c-2.354.136-3.883-.318-4.549-1.336-1.1-1.681.49-4.411.507-4.438l-.315-.2c-.072.118-1.712,2.939-.492,4.81a2.576,2.576,0,0,0,.474.543" transform="translate(-63.511 -36.307)" fill="#969924"/>
        <path id="Trazado_876064" data-name="Trazado 876064" d="M402.5,243.214c.875.762,2.358,1.091,4.42.978l-.046-.356c-2.355.13-3.889-.323-4.55-1.34-1.1-1.682.491-4.407.506-4.436l-.312-.2c-.069.115-1.713,2.938-.491,4.809a2.566,2.566,0,0,0,.473.541" transform="translate(-62.525 -37.035)" fill="#969924"/>
        <path id="Trazado_876065" data-name="Trazado 876065" d="M397.073,246.144a4.453,4.453,0,0,0,3.181.7l-.047-.356c-1.651.095-2.721-.22-3.182-.921-.763-1.169.353-3.081.364-3.1l-.315-.194c-.051.084-1.232,2.115-.347,3.47a1.981,1.981,0,0,0,.346.4" transform="translate(-61.719 -37.722)" fill="#969924"/>
        <path id="Trazado_876066" data-name="Trazado 876066" d="M452.206,284.467c0,4.821-101.23,8.728-226.1,8.728S0,289.288,0,284.467s101.229-8.729,226.1-8.729,226.1,3.908,226.1,8.729" transform="translate(0 -42.932)" fill="#427788"/>
        <path id="Trazado_876067" data-name="Trazado 876067" d="M142.71,254.54h211.6L392.2,100.795H184.462Z" transform="translate(-22.22 -15.694)" fill="#142480"/>
        <path id="Trazado_876068" data-name="Trazado 876068" d="M354.7,255.131H141.575l.252-.91,41.9-154.293H392.949Zm-211.222-1.457H353.565l37.523-152.288H184.845Z" transform="translate(-22.043 -15.559)" fill="#142480"/>
        <path id="Trazado_876069" data-name="Trazado 876069" d="M133.639,254.54h211.6l37.893-153.746H175.39Z" transform="translate(-20.807 -15.694)" fill="#355ddc"/>
        <path id="Trazado_876070" data-name="Trazado 876070" d="M345.633,255.131H132.505l.251-.91,41.9-154.293H383.878Zm-211.222-1.457H344.494l37.523-152.288H175.775Z" transform="translate(-20.631 -15.559)" fill="#355ddc"/>
        <path id="Trazado_876071" data-name="Trazado 876071" d="M152.2,245.8H334.26L367.806,113.51H188.125Z" transform="translate(-23.698 -17.673)" fill="#e7f4fa"/>
        <path id="Trazado_876072" data-name="Trazado 876072" d="M334.651,246.388H151.075l.246-.916,36.069-132.828H368.563Zm-181.669-1.457H333.524l33.17-130.83H188.51Z" transform="translate(-23.522 -17.539)" fill="#e7f4fa"/>
        <path id="Trazado_876073" data-name="Trazado 876073" d="M495.654,259.837h-29.43a.847.847,0,0,1-.844-.844V228.307a.846.846,0,0,1,.844-.844h29.43a2.107,2.107,0,0,1,2.1,2.1v28.173a2.107,2.107,0,0,1-2.1,2.1" transform="translate(-72.459 -35.416)" fill="#5fb7ff"/>
        <path id="Trazado_876074" data-name="Trazado 876074" d="M491.612,255.795H472.094a.847.847,0,0,1-.844-.844V234.176a.847.847,0,0,1,.844-.844h19.518a2.107,2.107,0,0,1,2.1,2.1v18.261a2.107,2.107,0,0,1-2.1,2.1" transform="translate(-73.373 -36.329)" fill="#e5f2f8"/>
        <path id="Trazado_876075" data-name="Trazado 876075" d="M437.822,271.708h15.642A22.378,22.378,0,0,0,475.777,249.4V215.787H415.51V249.4a22.378,22.378,0,0,0,22.312,22.312" transform="translate(-64.694 -33.598)" fill="#5fb7ff"/>
        <rect id="Rectángulo_413153" data-name="Rectángulo 413153" width="2.054" height="29.343" transform="translate(362.882 182.189)" fill="#fff"/>
        <rect id="Rectángulo_413154" data-name="Rectángulo 413154" width="10.526" height="14.525" transform="translate(358.518 203.352)" fill="#fff"/>
        <path id="Trazado_876076" data-name="Trazado 876076" d="M392.649,63.837,382.21,77.484l2.215-15.861Z" transform="translate(-59.509 -9.595)" fill="#b0c2e5"/>
        <path id="Trazado_876077" data-name="Trazado 876077" d="M428.442,59.682h-44.7a8.634,8.634,0,0,1-8.559-7.494L373.351,38.4a8.634,8.634,0,0,1,8.559-9.774h48.37a8.634,8.634,0,0,1,8.559,9.774L437,52.188a8.634,8.634,0,0,1-8.559,7.494" transform="translate(-58.118 -4.457)" fill="#b0c2e5"/>
        <path id="Trazado_876078" data-name="Trazado 876078" d="M402.858,46.465a2.992,2.992,0,1,1-2.991-2.991,2.991,2.991,0,0,1,2.991,2.991" transform="translate(-61.793 -6.769)" fill="#f0f8ff"/>
        <path id="Trazado_876079" data-name="Trazado 876079" d="M414.588,46.465a2.992,2.992,0,1,1-2.992-2.991,2.991,2.991,0,0,1,2.992,2.991" transform="translate(-63.619 -6.769)" fill="#f0f8ff"/>
        <path id="Trazado_876080" data-name="Trazado 876080" d="M426.317,46.465a2.992,2.992,0,1,1-2.991-2.991,2.991,2.991,0,0,1,2.991,2.991" transform="translate(-65.445 -6.769)" fill="#f0f8ff"/>
        <path id="Trazado_876081" data-name="Trazado 876081" d="M459.547,27.95a7.813,7.813,0,0,0-7.79-7.79h-5.079a7.813,7.813,0,0,0-7.79,7.79v8.435c0,.192.043.371.057.56H459.49c.013-.188.057-.368.057-.56Z" transform="translate(-68.334 -3.139)" fill="#fec000"/>
        <path id="Trazado_876082" data-name="Trazado 876082" d="M459.4,46.36H437.971a1.937,1.937,0,1,1,0-3.874H459.4a1.937,1.937,0,0,1,0,3.874" transform="translate(-67.89 -6.615)" fill="#fec000"/>
        <path id="Trazado_876083" data-name="Trazado 876083" d="M450.718,23.93h0a2.2,2.2,0,0,1-2.2-2.194V18.378a2.2,2.2,0,0,1,4.39,0v3.358a2.2,2.2,0,0,1-2.2,2.194" transform="translate(-69.834 -2.52)" fill="#fec000"/>
        <path id="Rectángulo_413155" data-name="Rectángulo 413155" d="M2.861,0H65.826a2.861,2.861,0,0,1,2.861,2.861V14.946a2.86,2.86,0,0,1-2.86,2.86H2.86A2.86,2.86,0,0,1,0,14.946V2.861A2.861,2.861,0,0,1,2.861,0Z" transform="translate(10.881 192.482)" fill="#97b8ff"/>
        <path id="Rectángulo_413156" data-name="Rectángulo 413156" d="M2.863,0H9.212a2.863,2.863,0,0,1,2.863,2.863V9.214a2.86,2.86,0,0,1-2.86,2.86H2.86A2.86,2.86,0,0,1,0,9.214V2.863A2.863,2.863,0,0,1,2.863,0Z" transform="translate(14.751 195.199)" fill="#fff"/>
        <rect id="Rectángulo_413157" data-name="Rectángulo 413157" width="44.374" height="0.578" transform="translate(31.047 196.95)" fill="#fff"/>
        <rect id="Rectángulo_413158" data-name="Rectángulo 413158" width="44.374" height="0.578" transform="translate(31.047 200.403)" fill="#fff"/>
        <rect id="Rectángulo_413159" data-name="Rectángulo 413159" width="44.374" height="0.577" transform="translate(31.047 203.861)" fill="#fff"/>
        <rect id="Rectángulo_413160" data-name="Rectángulo 413160" width="2.302" height="11.112" transform="matrix(0.688, -0.726, 0.726, 0.688, 15.843, 197.994)" fill="#ff4650"/>
        <rect id="Rectángulo_413161" data-name="Rectángulo 413161" width="11.112" height="2.302" transform="translate(16.096 204.347) rotate(-48.077)" fill="#ff4650"/>
        <rect id="Rectángulo_413162" data-name="Rectángulo 413162" width="41.704" height="27.725" transform="translate(226.333 43.843)" fill="#ffb31a"/>
        <path id="Trazado_876084" data-name="Trazado 876084" d="M268.071,51.928l20.852,17.427,20.853-17.427V79.653h-41.7Z" transform="translate(-41.738 -8.085)" fill="#ff8f18"/>
        <path id="Trazado_876085" data-name="Trazado 876085" d="M262.573,51.315a4.911,4.911,0,1,0,4.914-4.95,4.938,4.938,0,0,0-4.914,4.95" transform="translate(-40.882 -7.219)" fill="#4c6ef4"/>
        <path id="Trazado_876086" data-name="Trazado 876086" d="M267.554,50.6h-.014l-.922.44-.189-.849,1.284-.6h.94v4.845h-1.1Z" transform="translate(-41.483 -7.723)" fill="#fff"/>
        <path id="Trazado_876087" data-name="Trazado 876087" d="M201.3,223.457a6.8,6.8,0,0,0,6.8,6.81H357.544a6.808,6.808,0,0,0,6.809-6.81V129.742a6.807,6.807,0,0,0-6.809-6.808H208.1a6.8,6.8,0,0,0-6.8,6.808Z" transform="translate(-31.343 -19.141)" fill="#cee8ef"/>
        <path id="Trazado_876088" data-name="Trazado 876088" d="M208.1,122.935H357.544a6.806,6.806,0,0,1,6.808,6.808v12.64H201.3v-12.64a6.8,6.8,0,0,1,6.8-6.808" transform="translate(-31.343 -19.141)" fill="#b7d9f7"/>
        <path id="Trazado_876089" data-name="Trazado 876089" d="M374.873,133.906a3.381,3.381,0,1,0,3.384-3.383,3.379,3.379,0,0,0-3.384,3.383" transform="translate(-58.367 -20.322)" fill="#fff"/>
        <path id="Trazado_876090" data-name="Trazado 876090" d="M364.757,133.906a3.384,3.384,0,1,0,3.39-3.383,3.384,3.384,0,0,0-3.39,3.383" transform="translate(-56.792 -20.322)" fill="#fff"/>
        <path id="Trazado_876091" data-name="Trazado 876091" d="M355,133.906a3.378,3.378,0,1,0,3.383-3.383A3.379,3.379,0,0,0,355,133.906" transform="translate(-55.273 -20.322)" fill="#fff"/>
        <path id="Trazado_876092" data-name="Trazado 876092" d="M209.1,223.457a6.8,6.8,0,0,0,6.8,6.81H365.342a6.807,6.807,0,0,0,6.808-6.81V129.742a6.807,6.807,0,0,0-6.808-6.808H215.9a6.8,6.8,0,0,0-6.8,6.808Z" transform="translate(-32.557 -19.141)" fill="#fff"/>
        <path id="Trazado_876093" data-name="Trazado 876093" d="M215.9,122.935H365.342a6.806,6.806,0,0,1,6.808,6.808v12.64H209.1v-12.64a6.8,6.8,0,0,1,6.8-6.808" transform="translate(-32.557 -19.141)" fill="#b0c2e5"/>
        <path id="Trazado_876094" data-name="Trazado 876094" d="M382.671,133.906a3.381,3.381,0,1,0,3.384-3.383,3.379,3.379,0,0,0-3.384,3.383" transform="translate(-59.581 -20.322)" fill="#fff"/>
        <path id="Trazado_876095" data-name="Trazado 876095" d="M372.554,133.906a3.384,3.384,0,1,0,3.39-3.383,3.384,3.384,0,0,0-3.39,3.383" transform="translate(-58.006 -20.322)" fill="#fff"/>
        <path id="Trazado_876096" data-name="Trazado 876096" d="M362.8,133.906a3.378,3.378,0,1,0,3.383-3.383,3.379,3.379,0,0,0-3.383,3.383" transform="translate(-56.487 -20.322)" fill="#fff"/>
        <path id="Trazado_876097" data-name="Trazado 876097" d="M348.052,230.305H229.029l-3.642-64.383h126.3Z" transform="translate(-35.092 -25.834)" fill="#ffa60e"/>
        <path id="Trazado_876098" data-name="Trazado 876098" d="M304.568,173.493c0,8.066,8,14.612,17.89,14.612l40.559.368,1.606-29.59H322.458c-9.885,0-17.89,6.54-17.89,14.61" transform="translate(-47.421 -24.738)" fill="#ffa60e"/>
        <rect id="Rectángulo_413163" data-name="Rectángulo 413163" width="120.658" height="50.843" transform="translate(193.118 146.978)" fill="#d7d4ff"/>
        <path id="Trazado_876099" data-name="Trazado 876099" d="M226.272,228.138H339.96V177.293L223.1,176.408Z" transform="translate(-34.736 -27.466)" fill="#d7d4ff"/>
        <rect id="Rectángulo_413164" data-name="Rectángulo 413164" width="118.344" height="50.845" transform="translate(192.999 144.006)" fill="#fff"/>
        <path id="Trazado_876100" data-name="Trazado 876100" d="M236.533,234l114.014-32.727-13.186-48.986L223.347,185.01Z" transform="translate(-34.775 -23.71)" fill="#b0c9f5"/>
        <rect id="Rectángulo_413165" data-name="Rectángulo 413165" width="112.859" height="50.845" transform="translate(193.842 149.827)" fill="#fff"/>
        <path id="Trazado_876101" data-name="Trazado 876101" d="M223.77,184.4l-.673-11.883h43.98c9.121,0,16.7,5.121,18.337,11.883H355.48l-3.8,64.384H227.525l-2.752-46.675,0-.048L223.731,184.4Z" transform="translate(-34.736 -26.861)" fill="#fec000"/>
        <path id="Trazado_876102" data-name="Trazado 876102" d="M229.524,209.711a7.65,7.65,0,0,1-7.649,7.652H166.4a7.649,7.649,0,0,1-7.647-7.652V42.044A7.651,7.651,0,0,1,166.4,34.39h55.477a7.652,7.652,0,0,1,7.649,7.654Z" transform="translate(-24.717 -5.354)" fill="#471d79"/>
        <rect id="Rectángulo_413166" data-name="Rectángulo 413166" width="18.217" height="18.219" transform="translate(140.252 51.814)" fill="#97b8ff"/>
        <rect id="Rectángulo_413167" data-name="Rectángulo 413167" width="18.217" height="18.219" transform="translate(160.671 51.814)" fill="#97b8ff"/>
        <rect id="Rectángulo_413168" data-name="Rectángulo 413168" width="18.221" height="18.219" transform="translate(180.775 51.814)" fill="#97b8ff"/>
        <rect id="Rectángulo_413169" data-name="Rectángulo 413169" width="18.217" height="18.217" transform="translate(140.252 72.936)" fill="#97b8ff"/>
        <rect id="Rectángulo_413170" data-name="Rectángulo 413170" width="18.217" height="18.217" transform="translate(160.671 72.936)" fill="#97b8ff"/>
        <rect id="Rectángulo_413171" data-name="Rectángulo 413171" width="18.221" height="18.217" transform="translate(180.775 72.936)" fill="#97b8ff"/>
        <rect id="Rectángulo_413172" data-name="Rectángulo 413172" width="18.217" height="18.22" transform="translate(140.252 94.055)" fill="#97b8ff"/>
        <rect id="Rectángulo_413173" data-name="Rectángulo 413173" width="18.217" height="18.22" transform="translate(160.671 94.055)" fill="#97b8ff"/>
        <rect id="Rectángulo_413174" data-name="Rectángulo 413174" width="18.221" height="18.22" transform="translate(180.775 94.055)" fill="#97b8ff"/>
        <rect id="Rectángulo_413175" data-name="Rectángulo 413175" width="18.217" height="18.222" transform="translate(140.252 115.174)" fill="#97b8ff"/>
        <rect id="Rectángulo_413176" data-name="Rectángulo 413176" width="18.217" height="18.222" transform="translate(160.671 115.174)" fill="#97b8ff"/>
        <rect id="Rectángulo_413177" data-name="Rectángulo 413177" width="18.221" height="18.222" transform="translate(180.775 115.174)" fill="#97b8ff"/>
        <rect id="Rectángulo_413178" data-name="Rectángulo 413178" width="18.217" height="18.22" transform="translate(140.252 136.296)" fill="#97b8ff"/>
        <rect id="Rectángulo_413179" data-name="Rectángulo 413179" width="18.217" height="18.22" transform="translate(160.671 136.296)" fill="#97b8ff"/>
        <rect id="Rectángulo_413180" data-name="Rectángulo 413180" width="18.221" height="18.22" transform="translate(180.775 136.296)" fill="#97b8ff"/>
        <rect id="Rectángulo_413181" data-name="Rectángulo 413181" width="18.217" height="18.217" transform="translate(140.252 157.418)" fill="#97b8ff"/>
        <rect id="Rectángulo_413182" data-name="Rectángulo 413182" width="18.217" height="18.217" transform="translate(160.671 157.418)" fill="#97b8ff"/>
        <rect id="Rectángulo_413183" data-name="Rectángulo 413183" width="18.221" height="18.217" transform="translate(180.775 157.418)" fill="#97b8ff"/>
        <rect id="Rectángulo_413184" data-name="Rectángulo 413184" width="18.217" height="18.22" transform="translate(140.252 178.539)" fill="#97b8ff"/>
        <rect id="Rectángulo_413185" data-name="Rectángulo 413185" width="18.217" height="18.22" transform="translate(160.671 178.539)" fill="#97b8ff"/>
        <rect id="Rectángulo_413186" data-name="Rectángulo 413186" width="18.221" height="18.22" transform="translate(180.775 178.539)" fill="#97b8ff"/>
        <rect id="Rectángulo_413187" data-name="Rectángulo 413187" width="58.744" height="4.107" transform="translate(140.252 43.506)" fill="#fec000"/>
        <path id="Trazado_876103" data-name="Trazado 876103" d="M257.967,173.921l-17.829,17.252H176.893v-81.35h81.074v64.1Z" transform="translate(-27.542 -17.099)" fill="#ff4650"/>
        <rect id="Rectángulo_413188" data-name="Rectángulo 413188" width="81.074" height="9.08" transform="translate(149.351 92.724)" fill="#ed3748"/>
        <path id="Trazado_876104" data-name="Trazado 876104" d="M251.8,202.994l17.829-17.252H251.8Z" transform="translate(-39.205 -28.92)" fill="#ed3748"/>
        <path id="Trazado_876105" data-name="Trazado 876105" d="M249.88,130.75a1.132,1.132,0,0,1-1.087,1.169h-59.34a1.172,1.172,0,0,1,0-2.337h59.34a1.133,1.133,0,0,1,1.087,1.168" transform="translate(-29.328 -20.176)" fill="#e6f0ff"/>
        <path id="Trazado_876106" data-name="Trazado 876106" d="M249.88,139.992a1.132,1.132,0,0,1-1.087,1.169h-59.34a1.172,1.172,0,0,1,0-2.337h59.34a1.133,1.133,0,0,1,1.087,1.168" transform="translate(-29.328 -21.615)" fill="#e6f0ff"/>
        <path id="Trazado_876107" data-name="Trazado 876107" d="M249.88,151.545a1.133,1.133,0,0,1-1.087,1.169h-59.34a1.172,1.172,0,0,1,0-2.339h59.34a1.133,1.133,0,0,1,1.087,1.169" transform="translate(-29.328 -23.413)" fill="#e6f0ff"/>
        <path id="Trazado_876108" data-name="Trazado 876108" d="M249.88,160.788a1.13,1.13,0,0,1-1.087,1.168h-59.34a1.171,1.171,0,0,1,0-2.335h59.34a1.13,1.13,0,0,1,1.087,1.168" transform="translate(-29.328 -24.853)" fill="#e6f0ff"/>
        <path id="Trazado_876109" data-name="Trazado 876109" d="M249.88,172.341a1.131,1.131,0,0,1-1.087,1.166h-59.34a1.171,1.171,0,0,1,0-2.335h59.34a1.132,1.132,0,0,1,1.087,1.169" transform="translate(-29.328 -26.651)" fill="#e6f0ff"/>
        <path id="Trazado_876110" data-name="Trazado 876110" d="M249.88,181.581a1.133,1.133,0,0,1-1.087,1.169h-59.34a1.173,1.173,0,0,1,0-2.339h59.34a1.133,1.133,0,0,1,1.087,1.169" transform="translate(-29.328 -28.09)" fill="#e6f0ff"/>
        <path id="Trazado_876111" data-name="Trazado 876111" d="M333.948,279.7H32.367v-17.57H337.923Z" transform="translate(-5.04 -40.813)" fill="#142480"/>
        <path id="Trazado_876112" data-name="Trazado 876112" d="M334.409,280.3H31.487V261.269h307.22ZM32.966,278.833H333.22l3.65-16.107H32.966Z" transform="translate(-4.902 -40.679)" fill="#142480"/>
        <path id="Trazado_876113" data-name="Trazado 876113" d="M126.144,209.907s-7.088-4.379-8.142-8.581S120.1,195.5,120.1,195.5s7.373,9.231,10.046,13.078c3.383,4.869-4,1.326-4,1.326" transform="translate(-18.339 -30.44)" fill="#ffbe9e"/>
        <path id="Trazado_876114" data-name="Trazado 876114" d="M115.712,190.357c-5.073,3.969,3.62,14.814,3.62,14.814l6.164-3.208s-4.837-15.476-9.784-11.606" transform="translate(-17.769 -29.542)" fill="#e08b03"/>
        <path id="Trazado_876115" data-name="Trazado 876115" d="M99.523,235.835l22.417-15.813-.442-3.238-21.313-1.618Z" transform="translate(-15.496 -33.501)" fill="#5a7fe5"/>
        <path id="Trazado_876116" data-name="Trazado 876116" d="M118.629,193.076c-1.441-4.616-8.388-4.855-14.038-4-3.809.577-6.26,1.814-6.683,6.571-.269,3.034.565,16.3,2.424,19.818,0,0,6.487,3.631,20.945-.823,0,0,.433-11.7-2.648-21.568" transform="translate(-15.236 -29.378)" fill="#feb801"/>
        <path id="Trazado_876117" data-name="Trazado 876117" d="M99.763,220.712s13.757,2.665,22.36-1.438l-.588-2.191A43.24,43.24,0,0,1,99.981,218.2Z" transform="translate(-15.533 -33.8)" fill="#305dde"/>
        <path id="Trazado_876118" data-name="Trazado 876118" d="M107.78,218.748H109l.289,3.664h-2.016Z" transform="translate(-16.703 -34.059)" fill="#5a7fe5"/>
        <path id="Trazado_876119" data-name="Trazado 876119" d="M117.99,218.2l.886-.278,1.516,3.36-1.819.571Z" transform="translate(-18.371 -33.93)" fill="#5a7fe5"/>
        <path id="Trazado_876120" data-name="Trazado 876120" d="M106.478,181.877s5.818,1.25,5.495,1.726.241,1.433.257,2.36a5.272,5.272,0,0,0,1.583,3.087c.626.712-.488,1.561-1.479,1.748-4.271.8-6.968-.793-6.065-2.176,2.029-3.106.209-6.744.209-6.744" transform="translate(-16.519 -28.318)" fill="#ffbe9e"/>
        <path id="Trazado_876121" data-name="Trazado 876121" d="M112.216,185.945c-.014-.927-.583-1.885-.257-2.36s-5.954-1.824-5.954-1.824a4.524,4.524,0,0,1,1.115,2.44c1.744,2.358,4.232,3.088,5.806,3.7a4.75,4.75,0,0,1-.711-1.957" transform="translate(-16.505 -28.3)" fill="#ff9c81"/>
        <path id="Trazado_876122" data-name="Trazado 876122" d="M112.2,173.8c2.29,1.73,4.243,7.705,1.846,10.551-1.316,1.564-6.1-.1-8.349-3.5a7.348,7.348,0,0,1,.188-5.733c.537-1.25,3.934-3.117,6.315-1.319" transform="translate(-16.382 -26.944)" fill="#ffbe9e"/>
        <path id="Trazado_876123" data-name="Trazado 876123" d="M114.394,178.082c0,.366-.514-3.614-2.753-3.884-.909-.11-.7.849-1.761.927-.9.067-3.606-1.748-2.565,3.625.05.258-.2.561-.313.794-.148.285.311.939.3,1.26s-.937-.641-.919-.332c.028.469.838,1.775.165,1.954-.327.087-.724-.438-.963-.615a11.819,11.819,0,0,1-2-1.484,5.108,5.108,0,0,1-1.142-2.556,4.828,4.828,0,0,1,.233-2.757,3.552,3.552,0,0,1,2.1-1.918,13.568,13.568,0,0,0,1.687-.455c.458-.225.961-.283,1.424-.508a1.994,1.994,0,0,0,.746-.713,2.726,2.726,0,0,1,2.217-1.059,2.265,2.265,0,0,1,1.981,1.379c.173.448.236,1.019.666,1.231.156.077.341.09.49.182a.9.9,0,0,1,.3.385,3.758,3.758,0,0,1,.2,2.556,3.289,3.289,0,0,0-.185,1.03c.023.322.092.632.089.958" transform="translate(-15.936 -26.524)" fill="#53424d"/>
        <path id="Trazado_876124" data-name="Trazado 876124" d="M108.364,181.672s-1.653-1.455-2.564-1.036.368,2.9,2.25,2.56.822-1.131.314-1.524" transform="translate(-16.426 -28.113)" fill="#ffbe9e"/>
        <path id="Trazado_876125" data-name="Trazado 876125" d="M124.587,283.247s.859,1.006,1.871,2.366,1.769,2.779.354,3.43-3.135-.947-3.691-1.893-1.187-.843-1.952-1.472-.362-2.961-.362-2.961Z" transform="translate(-18.792 -44.019)" fill="#53424d"/>
        <path id="Trazado_876126" data-name="Trazado 876126" d="M109.875,228.815c2.069,2.617,8.954,44.773,8.954,44.773,2.069,1.738,5.171,0,5.171,0,2.242-21.5-.532-53.423-.532-53.423s-15.662,11.267-13.593,8.65" transform="translate(-17.078 -34.279)" fill="#5a7fe5"/>
        <path id="Trazado_876127" data-name="Trazado 876127" d="M100.325,284.067s-.86,1.006-1.871,2.365-1.769,2.779-.354,3.43,3.135-.946,3.691-1.893,1.186-.843,1.952-1.472.362-2.961.362-2.961Z" transform="translate(-15.153 -44.146)" fill="#53424d"/>
        <path id="Trazado_876128" data-name="Trazado 876128" d="M113.494,229.7c-2.069,2.616-8.954,44.773-8.954,44.773-2.069,1.739-5.171,0-5.171,0-2.241-21.5.185-53.088.185-53.088s16.009,10.932,13.94,8.316" transform="translate(-15.324 -34.469)" fill="#5a7fe5"/>
        <path id="Trazado_876129" data-name="Trazado 876129" d="M110.921,181.023c-.042-.022.048.019.064.025a.931.931,0,0,0,.215.052c.288.025.418-.165.485-.409.042-.154.283-.069.241.084a.753.753,0,0,1-1.153.451c-.145-.074,0-.276.148-.2" transform="translate(-17.238 -28.121)" fill="#201714"/>
        <path id="Trazado_876130" data-name="Trazado 876130" d="M114.073,179.915a.865.865,0,0,0,.241.157c.283.121.44-.054.541-.3.059-.148.3-.065.241.084-.119.3-.335.562-.7.5a1.036,1.036,0,0,1-.518-.279c-.119-.111.079-.27.2-.16" transform="translate(-17.725 -27.977)" fill="#201714"/>
        <path id="Trazado_876131" data-name="Trazado 876131" d="M114.433,178.351a.761.761,0,0,0-.9.526c-.069.186-.35.057-.28-.127a1.052,1.052,0,0,1,1.234-.7.154.154,0,0,1-.052.3" transform="translate(-17.631 -27.718)" fill="#4d2f20"/>
        <path id="Trazado_876132" data-name="Trazado 876132" d="M111.5,179.576a.761.761,0,0,0-1.011.263c-.117.16-.351-.04-.236-.2a1.054,1.054,0,0,1,1.379-.341c.176.09.044.368-.133.278" transform="translate(-17.162 -27.897)" fill="#4d2f20"/>
        <path id="Trazado_876133" data-name="Trazado 876133" d="M112.934,179.678a1.528,1.528,0,0,0,.055.854c.16.38.624.5.9.8.384.407.082.711-.442.925-.127.052-.209-.106-.082-.158,1.174-.48-.309-.946-.551-1.432a1.626,1.626,0,0,1-.1-1.006c.02-.112.233-.1.212.015" transform="translate(-17.545 -27.961)" fill="#7c4930"/>
        <path id="Trazado_876134" data-name="Trazado 876134" d="M112.451,183.482s.035,1.058.907.968.866-1.041.866-1.041Z" transform="translate(-17.508 -28.557)" fill="#faffff"/>
        <path id="Trazado_876135" data-name="Trazado 876135" d="M110.458,183.234a.6.6,0,1,0,.29-.794.6.6,0,0,0-.29.794" transform="translate(-17.189 -28.397)" fill="#ff9c81"/>
        <path id="Trazado_876136" data-name="Trazado 876136" d="M116,180.989a.6.6,0,1,0,.186.835.6.6,0,0,0-.186-.835" transform="translate(-17.917 -28.165)" fill="#ff9c81"/>
        <path id="Trazado_876137" data-name="Trazado 876137" d="M120.465,202.764H132.45l-7.507,11.66h-11.3Z" transform="translate(-17.693 -31.57)" fill="#ff4650"/>
        <path id="Trazado_876138" data-name="Trazado 876138" d="M100.017,212.195s-3.723-7.454-2.409-11.581,4.844-3.85,4.844-3.85-.7,10.091,1.764,14.078-4.2,1.353-4.2,1.353" transform="translate(-15.154 -30.635)" fill="#ffbe9e"/>
        <path id="Trazado_876139" data-name="Trazado 876139" d="M101.3,190.106c-6.4.706-4.716,14.5-4.716,14.5l6.93.515s4.029-15.706-2.214-15.018" transform="translate(-15.006 -29.596)" fill="#e08b03"/>
        <path id="Trazado_876140" data-name="Trazado 876140" d="M101.819,215.238c3.338.919,12.474.013,12.474.013l-1.561-2.2-11.238-2.279s-3.073,3.53.325,4.466" transform="translate(-15.604 -32.817)" fill="#ffbe9e"/>
        <path id="Trazado_876141" data-name="Trazado 876141" d="M114.245,212.54a3.875,3.875,0,0,0,.482-.788,4.906,4.906,0,0,1,1.215-1.184c.251-.191.553-.89.946-.784.643.172-.176,1.2-.272,1.48a.656.656,0,0,0,.165.747.824.824,0,0,0,.523.1,16.871,16.871,0,0,0,1.707-.252c.3-.048.59-.076.887-.106a3.172,3.172,0,0,1,.727-.1.306.306,0,0,1,.259.388c-.065.162-.235.137-.377.177-.318.09-.633.19-.948.292-.069.022-.4.079-.427.154-.139.369.745.227.886.211a1.768,1.768,0,0,1,1.055.106.168.168,0,0,1,.1.1c.013.076-.069.132-.141.16-.42.171-.892.185-1.309.366-.068.03-.143.076-.149.149-.023.3.57.324.764.35.122.017.273.049.3.169a.205.205,0,0,1-.094.207.594.594,0,0,1-.227.08,5.816,5.816,0,0,1-.708.138c-.115.009-.454.006-.475.162a.11.11,0,0,0,.032.084.607.607,0,0,0,.3.141c.107.034.223.1.236.214.015.138-.133.235-.264.28a5.156,5.156,0,0,1-1.5.176q-.793.029-1.585-.014a17.558,17.558,0,0,1-2.091-.24,2.753,2.753,0,0,1-1.7-.764,3.162,3.162,0,0,1-.526-1.135.953.953,0,0,1,.129-.687.22.22,0,0,1,.069-.068.231.231,0,0,1,.122-.013,6.561,6.561,0,0,0,.953.052,1.643,1.643,0,0,0,.931-.344" transform="translate(-17.442 -32.661)" fill="#ffbe9e"/>
        <path id="Trazado_876142" data-name="Trazado 876142" d="M130.724,210.337c-.276-.154-.675-.8-1.049-.642-.612.262.345,1.16.48,1.426a.657.657,0,0,1-.057.763.815.815,0,0,1-.5.17,16.805,16.805,0,0,1-1.726-.007c-.3-.006-.594.008-.893.022a3.189,3.189,0,0,0-.735,0,.306.306,0,0,0-.2.42c.088.151.252.1.4.122.328.045.654.1.98.154.072.012.405.022.445.093.19.344-.705.33-.847.334a1.766,1.766,0,0,0-1.028.255.165.165,0,0,0-.08.117c0,.077.087.12.161.138.441.109.91.056,1.348.176.072.019.152.054.169.126.065.29-.518.4-.707.455-.118.034-.263.088-.276.21a.2.2,0,0,0,.122.192.6.6,0,0,0,.236.047,5.9,5.9,0,0,0,.721.036c.115-.008.45-.059.493.092a.106.106,0,0,1-.019.088.614.614,0,0,1-.277.182c-.1.049-.206.133-.2.245,0,.139.165.213.3.24a5.187,5.187,0,0,0,1.507-.039,4.378,4.378,0,0,0,1.6-.516c2.622-1.5.139-4.624-.356-4.9" transform="translate(-19.604 -32.645)" fill="#ffbe9e"/>
        <path id="Trazado_876143" data-name="Trazado 876143" d="M452.429,217.823s7.894-3.842,9.444-8.136-1.58-6.326-1.58-6.326S454.4,212.245,449.787,214s2.642,3.826,2.642,3.826" transform="translate(-69.792 -31.663)" fill="#fbb99d"/>
        <path id="Trazado_876144" data-name="Trazado 876144" d="M443.681,218.711c-.068.135-1.006.244-1.149.279a16.878,16.878,0,0,1-3.774.828,3.615,3.615,0,0,1-1.781-.4,4.545,4.545,0,0,1-.861-.648c-.1-.094-.238-.2-.368-.145a.29.29,0,0,0-.138.312c.037.307.3.53.465.79a.991.991,0,0,1,.218.664c-.055.192-.313.311-.483.368a5.974,5.974,0,0,1-1.7.248c-.462.019-1-.055-1.039.543a1.58,1.58,0,0,1-.208.56.391.391,0,0,0-.034.294.719.719,0,0,0,.073.122.768.768,0,0,1,.116.289.661.661,0,0,0,.051.2.311.311,0,0,0,.22.139,5.933,5.933,0,0,0,.671.089c.265.015.528.073.794.07.22,0,.425-.047.647-.046a27.571,27.571,0,0,0,3.142-.35,19.467,19.467,0,0,0,3.054-.979c.594-.286,2.081-3.234,2.081-3.234" transform="translate(-67.389 -34.038)" fill="#fbb99d"/>
        <path id="Trazado_876145" data-name="Trazado 876145" d="M452.3,218.881c-2.984,2.1-12.7,3.392-12.7,3.392l.994-2.664,10.429-5.168s4.26,2.335,1.277,4.439" transform="translate(-68.446 -33.388)" fill="#fbb99d"/>
        <path id="Trazado_876146" data-name="Trazado 876146" d="M460.987,195.332c6.652,1.355,3.243,14.739,3.243,14.739l-7.321-.125s-2.407-15.935,4.078-14.614" transform="translate(-71.072 -30.401)" fill="#ff4650"/>
        <path id="Trazado_876147" data-name="Trazado 876147" d="M437.193,284.385s.631,3.918.322,4.541c-.918,1.856-7.9,2.635-10.328,1.545-.34-.152-.717-.73-.063-1.531s4.514-2.033,4.142-3.649,5.927-.906,5.927-.906" transform="translate(-66.447 -44.254)" fill="#ffa60e"/>
        <path id="Trazado_876148" data-name="Trazado 876148" d="M442.671,223.523l11.32,5.415c-1.177,4.39-4.374,11.064-6.466,15.2l.031.005L443.4,252.02a8.273,8.273,0,0,0-.86,2.633l-2.99,19.932a2.861,2.861,0,0,1-1.5,2.158,8.808,8.808,0,0,1-6.566.636c-4.075-1.26-1.261-25.668-.315-28.658,1.679-5.307,5.987-14.118,6.071-14.348Z" transform="translate(-66.848 -34.802)" fill="#fec000"/>
        <path id="Trazado_876149" data-name="Trazado 876149" d="M472.944,283.424s2.409,3.133,2.32,3.84-8.119,6.81-8.119,6.81a1.1,1.1,0,0,1-.744-1.319c.2-1.051,2.937-4.175,1.893-5.406s4.65-3.925,4.65-3.925" transform="translate(-72.614 -44.129)" fill="#e0880a"/>
        <path id="Trazado_876150" data-name="Trazado 876150" d="M474.852,287.28c-1.716-.222-8.885,6.428-7.988,7.207,1.326,1.15,6.329-2.334,7.726-4.453,1.558-2.361.262-2.754.262-2.754" transform="translate(-72.678 -44.728)" fill="#ffa60e"/>
        <path id="Trazado_876151" data-name="Trazado 876151" d="M452.2,227.556l11.472-1.508a97.011,97.011,0,0,1,1.646,16.416l.03-.012v9.035a8.379,8.379,0,0,0,.46,2.744l6.564,18.939a3.027,3.027,0,0,1-.311,2.66,9.348,9.348,0,0,1-5.434,3.972c-4.134,1.022-12.91-21.726-13.462-24.828-.977-5.5-1.276-15.429-1.308-15.672Z" transform="translate(-70.354 -35.195)" fill="#fec000"/>
        <path id="Trazado_876152" data-name="Trazado 876152" d="M460.9,198.18c-1.208-5.295-8.146-3.69-12.881-2.709-3.192.662-4.994,2.661-4.834,10.644.069,3.491-1.233,12.035.325,16.065,0,0,6.629,4.086,18.744-1.051A79.809,79.809,0,0,0,460.9,198.18" transform="translate(-68.934 -30.276)" fill="#ff4650"/>
        <path id="Trazado_876153" data-name="Trazado 876153" d="M427.141,203.464s10.613,2.8,14.554.667,2.974-5.669,2.974-5.669-10.262,2.434-14.79.7-2.737,4.3-2.737,4.3" transform="translate(-66.451 -30.9)" fill="#fbb99d"/>
        <path id="Trazado_876154" data-name="Trazado 876154" d="M450.456,200.165c-.215,6.662-13.732,5.57-13.732,5.57l-1.087-7.107s15.029-4.958,14.818,1.537" transform="translate(-67.828 -30.644)" fill="#ff4650"/>
        <path id="Trazado_876155" data-name="Trazado 876155" d="M432.334,194.229c-.042-.143.556-.851.635-.972a16.618,16.618,0,0,1,2.148-3.128,3.537,3.537,0,0,1,1.542-.912,4.439,4.439,0,0,1,1.051-.116c.138,0,.3-.019.361-.143a.284.284,0,0,0-.111-.316,2.048,2.048,0,0,0-.864-.253c-.186-.046-.507-.144-.6-.329a.719.719,0,0,1,.1-.588,5.858,5.858,0,0,1,1.049-1.318c.318-.324.752-.632.38-1.087a1.529,1.529,0,0,1-.226-.541.388.388,0,0,0-.174-.232.661.661,0,0,0-.134-.038.76.76,0,0,1-.278-.129.643.643,0,0,0-.174-.111.3.3,0,0,0-.25.047,5.9,5.9,0,0,0-.54.388c-.2.167-.427.3-.615.483-.156.149-.274.32-.432.469a27.093,27.093,0,0,0-2.016,2.362,19.13,19.13,0,0,0-1.53,2.752c-.234.6.682,3.714.682,3.714" transform="translate(-67.202 -28.649)" fill="#fbb99d"/>
        <path id="Trazado_876156" data-name="Trazado 876156" d="M425.384,199.416c.726-3.509,6.816-10.96,6.816-10.96l1.078,2.575-4,10.706s-4.619,1.189-3.9-2.321" transform="translate(-66.22 -29.342)" fill="#fbb99d"/>
        <path id="Trazado_876157" data-name="Trazado 876157" d="M457.243,195.492c0,.714-1.466,1.293-3.275,1.293s-3.275-.579-3.275-1.293,1.467-1.293,3.275-1.293,3.275.576,3.275,1.293" transform="translate(-70.172 -30.236)" fill="#fbb99d"/>
        <path id="Trazado_876158" data-name="Trazado 876158" d="M451.267,191.064s1.26,1.481-.555,3.679c0,0,4.265,2.54,6.536-.022a6.541,6.541,0,0,1-.687-4.59Z" transform="translate(-70.175 -29.603)" fill="#fbb99d"/>
        <path id="Trazado_876159" data-name="Trazado 876159" d="M448.933,178.586a20.521,20.521,0,0,0-1.123,5.539c-.176,4.2,1.026,6.587,6.1,5.205,4.984-1.358-2.541-11.489-4.975-10.744" transform="translate(-69.721 -27.799)" fill="#fbb99d"/>
        <path id="Trazado_876160" data-name="Trazado 876160" d="M451.661,191.7a12.36,12.36,0,0,0,2.475-.287,1.461,1.461,0,0,0,.433.4,5.239,5.239,0,0,1-2.908-.115" transform="translate(-70.323 -29.803)" fill="#dc8162"/>
        <path id="Trazado_876161" data-name="Trazado 876161" d="M451.032,184.242c1.127.592,1.3,4.935,3.608,5.238,3.277.43,5.79-5.558,5.4-8.649-.382-3.03-1.547-4.433-5.315-5.23-3.468-.733-7.384.685-7.09,2.768a2.5,2.5,0,0,0,1.489,1.942c1.1.582-.6,2.613,1.907,3.931" transform="translate(-69.694 -27.31)" fill="#53424d"/>
        <path id="Trazado_876162" data-name="Trazado 876162" d="M452.035,187.5s1.9-1.973,1.1-2.866c-1.146-1.268-2.421,1.651-2.421,1.651Z" transform="translate(-70.175 -28.697)" fill="#fbb99d"/>
        <path id="Trazado_876163" data-name="Trazado 876163" d="M442.664,227.9s12.381,2.534,20.122-1.367l-.529-2.084a35.857,35.857,0,0,1-19.15,1.044Z" transform="translate(-68.922 -34.947)" fill="#e08b03"/>
        <path id="Trazado_876164" data-name="Trazado 876164" d="M449.835,226.137h1.1l.26,3.484h-1.814Z" transform="translate(-69.968 -35.209)" fill="#fec000"/>
        <path id="Trazado_876165" data-name="Trazado 876165" d="M459.023,225.612l.8-.264,1.365,3.195-1.638.543Z" transform="translate(-71.469 -35.086)" fill="#fec000"/>
        <path id="Trazado_876166" data-name="Trazado 876166" d="M445.026,229.562c-.713,1.9-2.7,6.6-5.434,5.488-.366-.149-.205-.751.165-.6,2.268.92,4.069-3.454,4.669-5.053.139-.371.74-.21.6.165" transform="translate(-68.412 -35.684)" fill="#e08b03"/>
        <path id="Trazado_876167" data-name="Trazado 876167" d="M284.95,290.7s-2.028,2.635-2.06,3.214c-.095,1.723,4.561,5.02,6.734,5.169.3.021.805-.257.662-1.1s-2.4-3.258-1.479-4.3-3.857-2.98-3.857-2.98" transform="translate(-44.045 -45.261)" fill="#ffa60e"/>
        <path id="Trazado_876168" data-name="Trazado 876168" d="M314.524,281.831s-.641,3.263-.411,3.8c.685,1.586,6.322,2.46,8.333,1.624.281-.117.605-.589.1-1.281s-3.6-1.847-3.242-3.191-4.781-.948-4.781-.948" transform="translate(-48.899 -43.872)" fill="#ffa60e"/>
        <path id="Trazado_876169" data-name="Trazado 876169" d="M309.973,255.8s-19.719-.545-22.8-.675c-4.535-.192-5.815-1.9-3.47-6.564,1.613-3.21,29.377-4.56,32.348.708,3.644,6.465-6.074,6.531-6.074,6.531" transform="translate(-43.992 -38.26)" fill="#ff4650"/>
        <path id="Trazado_876170" data-name="Trazado 876170" d="M320.856,276.82c1.092-5.662,2.222-23.4-.154-27.206-2.568-4.11-7.693-.046-7.92,6.331-.147,4.131-.458,18.131-.277,21.933.044.923,2.471,1.393,3.918,1.308.035,0,4.117-.729,4.433-2.366" transform="translate(-48.648 -38.606)" fill="#ff4650"/>
        <path id="Trazado_876171" data-name="Trazado 876171" d="M291.919,265.193s-13.381-5.339-15.975-7.014c-3.812-2.463-4.694-8.153-.307-10.99,3.017-1.95,27.757,10.958,27.528,17-.209,5.481-11.245,1-11.245,1" transform="translate(-42.459 -38.456)" fill="#ff4650"/>
        <path id="Trazado_876172" data-name="Trazado 876172" d="M291.173,290.313c3.81-4.329,13.775-19.051,13.653-23.532-.132-4.845-6.609-3.938-10.035,1.444-2.22,3.487-9.583,15.4-11.353,18.769-.43.817,1.424,2.453,2.715,3.113.031.016,3.918,1.457,5.02.207" transform="translate(-44.121 -41.045)" fill="#ff4650"/>
        <path id="Trazado_876173" data-name="Trazado 876173" d="M293.915,253.6a5.094,5.094,0,0,1,3.7,2.852c.161.323.645.039.485-.283a5.593,5.593,0,0,0-4.189-3.13c-.358-.043-.355.518,0,.561" transform="translate(-45.72 -39.397)" fill="#171726"/>
        <path id="Trazado_876174" data-name="Trazado 876174" d="M290.369,224.418s-3.683-1.955-5.049-.637c-.774.748-.816,2.905-.186,4.167,1.213,2.423,5.128,7.46,9.234,9.684,1.5.815,5.243-1.549,3.755-4.071a47.367,47.367,0,0,0-7.755-9.142" transform="translate(-44.327 -34.771)" fill="#305dde"/>
        <path id="Trazado_876175" data-name="Trazado 876175" d="M289.092,225.78c-1.407-3.841-8.344-2.32-13.082-1.367-3.194.643-4.939,2.2-4.494,8.077.175,2.309.369,9.368,1.652,12.872.23.631,1.208,1.165,1.731,1.586,3,2.422,18.444-.935,17.662-4.505a65.278,65.278,0,0,0-3.468-16.664" transform="translate(-42.264 -34.767)" fill="#4c6ef4"/>
        <path id="Trazado_876176" data-name="Trazado 876176" d="M309.486,251.348l-18.437,4.9-9.539-4.093,27.572-8.113Z" transform="translate(-43.831 -37.996)" fill="#a8a8a8"/>
        <path id="Trazado_876177" data-name="Trazado 876177" d="M309.4,250.215l-18.557,4.927-9.54-4.093,27.572-8.112Z" transform="translate(-43.799 -37.825)" fill="#cbccd1"/>
        <path id="Trazado_876178" data-name="Trazado 876178" d="M310.057,250.647l-16.222,4.245-8.4-3.6,24.275-7.143Z" transform="translate(-44.442 -38.013)" fill="#bdbec1"/>
        <path id="Trazado_876179" data-name="Trazado 876179" d="M292.808,254.761l.924.369,17.513-5.264.049-15.347-17.5,4.7Z" transform="translate(-45.59 -36.514)" fill="#b8b9bc"/>
        <path id="Trazado_876180" data-name="Trazado 876180" d="M293.9,255.177l17.512-5.264,1.414-15.093-18,4.691Z" transform="translate(-45.76 -36.561)" fill="#cbccd1"/>
        <path id="Trazado_876181" data-name="Trazado 876181" d="M281.3,252.545l.174.93,9.539,4.093L291,256.6Z" transform="translate(-43.799 -39.321)" fill="#b8b9bc"/>
        <path id="Trazado_876182" data-name="Trazado 876182" d="M294.875,239.465l-.7-.294,17.333-4.651,1.365.254Z" transform="translate(-45.802 -36.514)" fill="#c4c5c6"/>
        <path id="Trazado_876183" data-name="Trazado 876183" d="M270.158,240.934c-.034.6-2.3,6.792-.986,8.322.95,1.109,5.149-.894,5.149-.894s-1.575-1.223.816-6.061c2.014-4.078-4.978-1.367-4.978-1.367" transform="translate(-41.846 -37.376)" fill="#fbb99d"/>
        <path id="Trazado_876184" data-name="Trazado 876184" d="M269.57,250.847c2.379,2.351,11.655,6.163,11.655,6.163l-.361-2.178-8.912-7.237s-4.758.9-2.381,3.252" transform="translate(-41.868 -38.55)" fill="#fbb99d"/>
        <path id="Trazado_876185" data-name="Trazado 876185" d="M282.371,255.362a3.162,3.162,0,0,0,.656-.339,3.956,3.956,0,0,1,1.323-.307c.251-.027.747-.38.972-.145.369.385-.616.747-.8.9a.526.526,0,0,0-.2.58.667.667,0,0,0,.319.283,13.474,13.474,0,0,0,1.273.534c.223.089.436.193.651.3a2.537,2.537,0,0,1,.54.23.245.245,0,0,1,.017.373c-.111.084-.217,0-.331-.035-.255-.07-.512-.133-.77-.193-.057-.014-.306-.111-.356-.071-.248.194.416.464.518.512a1.418,1.418,0,0,1,.679.509.134.134,0,0,1,.023.11c-.023.058-.1.063-.163.052-.359-.057-.687-.243-1.047-.292a.169.169,0,0,0-.164.041c-.138.192.256.458.377.556.077.062.167.146.138.241a.163.163,0,0,1-.15.1.473.473,0,0,1-.188-.039,4.825,4.825,0,0,1-.542-.2c-.082-.041-.313-.185-.393-.086a.089.089,0,0,0-.013.071.5.5,0,0,0,.147.22.24.24,0,0,1,.073.244c-.046.1-.187.106-.3.082a4.114,4.114,0,0,1-1.1-.5q-.553-.309-1.079-.666c-.656-.448-1.222-1.038-1.916-1.425a1.424,1.424,0,0,1-.3-.2.924.924,0,0,1-.244-.619,1.461,1.461,0,0,1,.447-1.172c.1-.091.3-.292.433-.265.1.019.23.166.312.225a3.046,3.046,0,0,0,.367.236,1.317,1.317,0,0,0,.78.15" transform="translate(-43.6 -39.624)" fill="#fbb99d"/>
        <path id="Trazado_876186" data-name="Trazado 876186" d="M276.9,230.254c.244-2.319-.385-4.6-2.363-4.916-1.123-.177-2.969,1.163-3.633,2.5-1.274,2.572-3.039,9.1-2.308,13.984.267,1.791,4.635,3.441,5.818.574,1.553-3.763,2.142-8.879,2.486-12.144" transform="translate(-41.793 -35.082)" fill="#305dde"/>
        <path id="Trazado_876187" data-name="Trazado 876187" d="M278.353,224.468s3.47,4.689,7.505,3.362c1.875-.617,1.983-2.292.463-3.376-1.5-1.065-7.968.014-7.968.014" transform="translate(-43.339 -34.874)" fill="#fbb99d"/>
        <path id="Trazado_876188" data-name="Trazado 876188" d="M285.478,209.045a6.106,6.106,0,0,0-1.636-1.512,4.71,4.71,0,0,0-3.1-.641,5.784,5.784,0,0,0-4.75,4.879,6.421,6.421,0,0,0,1.42,4.6,5.4,5.4,0,0,0,4.257,1.829,4.663,4.663,0,0,0,1.973-.225,4.17,4.17,0,0,0,1.909-1.666,6.627,6.627,0,0,0,1-2.586,6.125,6.125,0,0,0-1.073-4.678" transform="translate(-42.964 -32.207)" fill="#53424d"/>
        <path id="Trazado_876189" data-name="Trazado 876189" d="M287.035,224a10.219,10.219,0,0,1-2.128-5.3c-.039-.738-1.18-.8-.944-1.172s-3.638-1.034-3.638-1.034.68,4.462-1.971,6.808Z" transform="translate(-43.339 -33.708)" fill="#fbb99d"/>
        <path id="Trazado_876190" data-name="Trazado 876190" d="M285.207,219.025c0-.9-.971-1.838-.683-2.3s-4.451-1.266-4.451-1.266a5.07,5.07,0,0,1,.807,2.357,8.649,8.649,0,0,0,4.6,2.462Z" transform="translate(-43.607 -33.547)" fill="#dc8162"/>
        <path id="Trazado_876191" data-name="Trazado 876191" d="M283.36,208.005c1.722,1.176,5.528,6.309,3.086,9.338-1.043,1.294-4.735.2-6.961-2.279-.915-1.016-1.355-3.518-.6-5.856a3.053,3.053,0,0,1,4.479-1.2" transform="translate(-43.362 -32.3)" fill="#fbb99d"/>
        <path id="Trazado_876192" data-name="Trazado 876192" d="M277.046,206.148a2.768,2.768,0,0,1,1.1.9c.275.377.647,1.053.461,1.523a5.335,5.335,0,0,1-.65.933c-.188.279-.309.6-.5.87a6.243,6.243,0,0,1-1.307,1.172,1.417,1.417,0,0,1-1.445.1,3.1,3.1,0,0,1-1.946-1.683,2.76,2.76,0,0,1,.8-2.535,4.661,4.661,0,0,0,.377-.507,2.555,2.555,0,0,1,2.9-.85c.072.025.142.052.21.083" transform="translate(-42.452 -32.063)" fill="#53424d"/>
        <path id="Trazado_876193" data-name="Trazado 876193" d="M285.824,210.057c-.223.6-.4-.264-1.8-.6a2.74,2.74,0,0,0-.534-.057,1.213,1.213,0,0,0-.447.057.7.7,0,0,0-.426.71,3.08,3.08,0,0,1-.653,1.748,4.366,4.366,0,0,0-.831,1.9,2.432,2.432,0,0,1-.095.611,1.746,1.746,0,0,0-.12.769c.019.254.092.5.131.751a.95.95,0,0,1-.266.908,1.869,1.869,0,0,1-.345.281,2.066,2.066,0,0,1-.859.319,2,2,0,0,1-1.82-.773,5.466,5.466,0,0,1-.858-3.462,16.151,16.151,0,0,1,.236-2.454,3.728,3.728,0,0,1,1.021-1.979,5.133,5.133,0,0,1,2.642-1.4,5.351,5.351,0,0,1,1.526-.095c2.421.209,3.679,2.294,3.5,2.764" transform="translate(-43.112 -32.272)" fill="#53424d"/>
        <path id="Trazado_876194" data-name="Trazado 876194" d="M281.7,215.777s-1.435-1.073-2.135-.668.514,2.345,2,1.934.574-.98.137-1.266" transform="translate(-43.496 -33.478)" fill="#fbb99d"/>
        <path id="Trazado_876195" data-name="Trazado 876195" d="M283.767,214.9c-.034-.022.039.021.052.027a.752.752,0,0,0,.179.063c.243.048.371-.1.45-.3.05-.127.247-.033.2.093a.644.644,0,0,1-1.022.279c-.117-.076.028-.235.144-.159" transform="translate(-44.153 -33.418)" fill="#1e100c"/>
        <path id="Trazado_876196" data-name="Trazado 876196" d="M286.552,214.247a.77.77,0,0,0,.191.155c.229.128.378-.006.487-.21.064-.121.262-.028.2.093a.559.559,0,0,1-.641.365.9.9,0,0,1-.416-.284c-.09-.1.092-.223.182-.119" transform="translate(-44.584 -33.341)" fill="#1e100c"/>
        <path id="Trazado_876197" data-name="Trazado 876197" d="M286.992,212.946a.652.652,0,0,0-.815.366c-.076.151-.3.016-.226-.134a.9.9,0,0,1,1.113-.485.132.132,0,0,1-.072.253" transform="translate(-44.52 -33.109)" fill="#513d38"/>
        <path id="Trazado_876198" data-name="Trazado 876198" d="M284.394,213.721a.652.652,0,0,0-.883.132c-.115.126-.3-.066-.182-.19a.9.9,0,0,1,1.2-.166c.142.093,0,.317-.138.225" transform="translate(-44.108 -33.216)" fill="#513d38"/>
        <path id="Trazado_876199" data-name="Trazado 876199" d="M285.6,213.926a1.309,1.309,0,0,0-.031.731c.1.338.485.486.7.764.29.382.006.612-.46.746-.111.033-.166-.11-.054-.142,1.043-.3-.177-.832-.339-1.268a1.386,1.386,0,0,1,.009-.864c.028-.094.207-.062.179.032" transform="translate(-44.428 -33.294)" fill="#dc8162"/>
        <path id="Trazado_876200" data-name="Trazado 876200" d="M286.25,218.1s.442-.79-.236-1.11a.871.871,0,0,0-1.094.378Z" transform="translate(-44.361 -33.772)" fill="#faffff"/>
        <path id="Trazado_876201" data-name="Trazado 876201" d="M283.138,216.639a.511.511,0,1,0,.318-.649.51.51,0,0,0-.318.649" transform="translate(-44.08 -33.625)" fill="#f3a498"/>
        <path id="Trazado_876202" data-name="Trazado 876202" d="M287.863,215.675a.517.517,0,1,0,.083.727.517.517,0,0,0-.083-.727" transform="translate(-44.689 -33.563)" fill="#f3a498"/>
        <path id="Trazado_876203" data-name="Trazado 876203" d="M281.385,217.1c-.4.6-1.092,2.126.267,1.95.968-.125.369-1.182.017-1.653-.084-.113.1-.236.182-.123.522.7.981,2-.35,2-1.45,0-.759-1.605-.28-2.318.079-.117.243.027.165.143" transform="translate(-43.694 -33.774)" fill="#fb8245"/>
      </g>
    </g>
  </g>
</svg>
