<svg xmlns="http://www.w3.org/2000/svg" xmlns:xlink="http://www.w3.org/1999/xlink" width="99" height="98.908" viewBox="0 0 99 98.908">
  <defs>
    <clipPath id="clip-path">
      <rect id="Rect치ngulo_413152" data-name="Rect치ngulo 413152" width="59.081" height="46.098" transform="translate(0 0)" fill="#12263f"/>
    </clipPath>
  </defs>
  <g id="Grupo_1115997" data-name="Grupo 1115997" transform="translate(8119.21 7690.815)">
    <g id="Grupo_1115348" data-name="Grupo 1115348" transform="translate(-8505.878 -13027.815)">
      <rect id="Rect치ngulo_412780" data-name="Rect치ngulo 412780" width="93.637" height="93.545" rx="20" transform="translate(389.349 5339.695)" fill="#b0c2e5"/>
      <g id="Grupo_1114814" data-name="Grupo 1114814" transform="translate(386.667 5337)">
        <path id="Trazado_875775" data-name="Trazado 875775" d="M245.284,301.406A1.288,1.288,0,0,1,244,300.118v-3.863a6.445,6.445,0,0,1,6.438-6.438h30.644a9.024,9.024,0,0,0,9.013-9.013V250.216a6.445,6.445,0,0,1,6.438-6.438h3.863a1.288,1.288,0,1,1,0,2.575h-3.863a3.867,3.867,0,0,0-3.863,3.863V280.8a11.6,11.6,0,0,1-11.588,11.588H250.434a3.867,3.867,0,0,0-3.863,3.863v3.863a1.288,1.288,0,0,1-1.288,1.288" transform="translate(-202.679 -202.498)" fill="#12263f"/>
        <path id="Trazado_875777" data-name="Trazado 875777" d="M1.288,57.628A1.288,1.288,0,0,1,0,56.34V52.477a6.445,6.445,0,0,1,6.438-6.438H37.082A9.024,9.024,0,0,0,46.1,37.026V6.438A6.445,6.445,0,0,1,52.533,0H56.4a1.288,1.288,0,0,1,0,2.575H52.533a3.867,3.867,0,0,0-3.863,3.863V37.026A11.6,11.6,0,0,1,37.082,48.614H6.438a3.867,3.867,0,0,0-3.863,3.863V56.34a1.288,1.288,0,0,1-1.288,1.288" transform="translate(57.684 57.628) rotate(180)" fill="#12263f"/>
      </g>
    </g>
    <g id="Grupo_1115596" data-name="Grupo 1115596" transform="translate(-8099.251 -7664.409)">
      <g id="Grupo_1115595" data-name="Grupo 1115595" transform="translate(0 -0.001)" clip-path="url(#clip-path)">
        <path id="Trazado_876004" data-name="Trazado 876004" d="M3.511.041,55.168,0a4.545,4.545,0,0,1,3.913,4.062V42.025A4.613,4.613,0,0,1,55.8,45.98c-17.275.239-34.595.026-51.887.107A4.545,4.545,0,0,1,0,42.025V4.062A4.631,4.631,0,0,1,3.511.041M57.3,7.39V4.215a3.094,3.094,0,0,0-2.437-2.437c-17.078.093-34.2-.186-51.251.141a3.3,3.3,0,0,0-1.839,2.3V7.39ZM38.844,9.162H1.777v5.612H38.844Zm1.772,5.612H57.3V9.162H40.616ZM18.465,16.546H1.777v5.612H18.465Zm20.379,0H20.237v5.612H38.844Zm1.772,5.612H57.3V16.546H40.616ZM18.465,23.929H1.777v5.612H18.465Zm20.379,0H20.237v5.612H38.844Zm1.772,5.612H57.3V23.929H40.616ZM1.777,36.925H18.465V31.313H1.777Zm37.067-5.612H20.237v5.612H38.844Zm1.772,5.612H57.3V31.313H40.616ZM18.465,38.7H1.777v3.175c0,.767,1.389,2.437,2.141,2.437H18.465Zm20.379,0H20.237v5.612H38.844Zm18.46,0H40.616v5.612H55.162c.752,0,2.141-1.67,2.141-2.437Z" transform="translate(0 0)" fill="#12263f"/>
        <path id="Trazado_876005" data-name="Trazado 876005" d="M133.568,26.578a1.22,1.22,0,0,1-.763.2H107.245a.905.905,0,1,1-.3-1.785H133.1a.9.9,0,0,1,.467,1.587" transform="translate(-90.484 -21.3)" fill="#12263f"/>
        <path id="Trazado_876006" data-name="Trazado 876006" d="M150.737,224.873a10.461,10.461,0,0,1,2.564.037.9.9,0,0,1-.086,1.7,14.139,14.139,0,0,1-2.479-.026.968.968,0,0,1,0-1.715" transform="translate(-128.035 -191.612)" fill="#12263f"/>
        <path id="Trazado_876007" data-name="Trazado 876007" d="M190.981,226.4a7.111,7.111,0,0,1-2.814.15.9.9,0,0,1,0-1.706,12.245,12.245,0,0,1,2.329-.027.953.953,0,0,1,.483,1.582" transform="translate(-159.854 -191.584)" fill="#12263f"/>
        <path id="Trazado_876008" data-name="Trazado 876008" d="M289.648,175.811a.909.909,0,1,1-.909-.909.909.909,0,0,1,.909.909" transform="translate(-245.323 -149.073)" fill="#12263f"/>
        <path id="Trazado_876009" data-name="Trazado 876009" d="M188.33,274.8a28.6,28.6,0,0,1,4.22,0,.9.9,0,0,1,.029,1.737,40.89,40.89,0,0,1-4.4-.021c-.631-.209-.577-1.5.155-1.717" transform="translate(-160.014 -234.154)" fill="#12263f"/>
        <path id="Trazado_876010" data-name="Trazado 876010" d="M150.828,274.875a8.937,8.937,0,0,1,2.414.033.912.912,0,0,1-.086,1.7,14.141,14.141,0,0,1-2.479-.026.914.914,0,0,1,.151-1.712" transform="translate(-127.975 -234.226)" fill="#12263f"/>
        <path id="Trazado_876011" data-name="Trazado 876011" d="M314.69,275.922a.914.914,0,1,1-.913-.914.914.914,0,0,1,.913.914" transform="translate(-266.661 -234.396)" fill="#12263f"/>
        <path id="Trazado_876012" data-name="Trazado 876012" d="M289.642,275.878a.906.906,0,1,1-.906-.906.905.905,0,0,1,.906.906" transform="translate(-245.325 -234.365)" fill="#12263f"/>
        <path id="Trazado_876013" data-name="Trazado 876013" d="M25.516,174.858a22.777,22.777,0,0,1,3.485,0,.945.945,0,0,1-.122,1.741,22.375,22.375,0,0,1-3.362-.028.933.933,0,0,1,0-1.71" transform="translate(-21.271 -148.977)" fill="#12263f"/>
        <path id="Trazado_876014" data-name="Trazado 876014" d="M25.11,226.411a1.083,1.083,0,0,1,.177-1.451,12.965,12.965,0,0,1,3.522-.107.892.892,0,0,1,.028,1.737,13.787,13.787,0,0,1-3.727-.179" transform="translate(-21.23 -191.589)" fill="#12263f"/>
        <path id="Trazado_876015" data-name="Trazado 876015" d="M339.677,225.768a.913.913,0,1,1-.913-.913.913.913,0,0,1,.913.913" transform="translate(-287.958 -191.649)" fill="#12263f"/>
        <path id="Trazado_876016" data-name="Trazado 876016" d="M314.648,225.811a.909.909,0,1,1-.909-.909.909.909,0,0,1,.909.909" transform="translate(-266.632 -191.689)" fill="#12263f"/>
        <path id="Trazado_876017" data-name="Trazado 876017" d="M289.648,225.811a.909.909,0,1,1-.909-.909.909.909,0,0,1,.909.909" transform="translate(-245.323 -191.689)" fill="#12263f"/>
        <path id="Trazado_876018" data-name="Trazado 876018" d="M25.11,276.411a1.083,1.083,0,0,1,.177-1.451,12.965,12.965,0,0,1,3.522-.107.892.892,0,0,1,.028,1.737,13.787,13.787,0,0,1-3.727-.179" transform="translate(-21.23 -234.205)" fill="#12263f"/>
        <path id="Trazado_876019" data-name="Trazado 876019" d="M195.475,175a.941.941,0,0,1-.335,1.583c-1.1-.153-6.922.289-7.417-.183a.952.952,0,0,1,.483-1.583c1.084.152,6.769-.29,7.269.182" transform="translate(-159.77 -148.964)" fill="#12263f"/>
        <path id="Trazado_876020" data-name="Trazado 876020" d="M150.737,174.879a13.8,13.8,0,0,1,2.6,0,.945.945,0,0,1-.122,1.741,14.136,14.136,0,0,1-2.479-.026.968.968,0,0,1,0-1.715" transform="translate(-128.035 -149.001)" fill="#12263f"/>
        <path id="Trazado_876021" data-name="Trazado 876021" d="M45.793,76.544a1.308,1.308,0,0,1-.768.192l-19.718-.083c-.8-.551-.575-1.824.507-1.7l19.508,0c.728.035.972,1.118.471,1.595" transform="translate(-21.163 -63.876)" fill="#12263f"/>
        <path id="Trazado_876022" data-name="Trazado 876022" d="M186.67,76.235a1.325,1.325,0,0,1-.768.192c-.612.053-3.894.078-4.177-.192-.45-.428-.342-1.451.335-1.583a32.048,32.048,0,0,1,4.276,0c.673.131.788,1.153.335,1.583" transform="translate(-154.657 -63.567)" fill="#12263f"/>
        <path id="Trazado_876023" data-name="Trazado 876023" d="M300.55,74.652c.452.454.149,1.63-.622,1.6-3.506-.348-7.834.436-11.239,0a.9.9,0,0,1,0-1.787c3.591.243,7.544-.3,11.09,0,.229.019.608.026.771.189" transform="translate(-245.349 -63.387)" fill="#12263f"/>
        <path id="Trazado_876024" data-name="Trazado 876024" d="M187.763,124.789a1.324,1.324,0,0,1,.768-.192,25.233,25.233,0,0,1,3.843.009.926.926,0,0,1,0,1.766,29.947,29.947,0,0,1-4.128,0,.953.953,0,0,1-.483-1.582" transform="translate(-159.81 -106.138)" fill="#12263f"/>
        <path id="Trazado_876025" data-name="Trazado 876025" d="M150.737,124.879a13.8,13.8,0,0,1,2.6,0,.945.945,0,0,1-.122,1.741,14.139,14.139,0,0,1-2.479-.026.968.968,0,0,1,0-1.715" transform="translate(-128.035 -106.384)" fill="#12263f"/>
        <path id="Trazado_876026" data-name="Trazado 876026" d="M314.677,125.768a.913.913,0,1,1-.913-.913.913.913,0,0,1,.913.913" transform="translate(-266.65 -106.417)" fill="#12263f"/>
        <path id="Trazado_876027" data-name="Trazado 876027" d="M289.649,125.769a.909.909,0,1,1-.909-.909.909.909,0,0,1,.909.909" transform="translate(-245.325 -106.421)" fill="#12263f"/>
        <path id="Trazado_876028" data-name="Trazado 876028" d="M25.516,124.858a22.777,22.777,0,0,1,3.485,0,.945.945,0,0,1-.122,1.741,22.375,22.375,0,0,1-3.362-.028.933.933,0,0,1,0-1.71" transform="translate(-21.271 -106.361)" fill="#12263f"/>
      </g>
    </g>
  </g>
</svg>
