<svg id="Grupo_1115851" data-name="Grupo 1115851" xmlns="http://www.w3.org/2000/svg" xmlns:xlink="http://www.w3.org/1999/xlink" width="402.521" height="330.871" viewBox="0 0 402.521 330.871">
  <defs>
    <clipPath id="clip-path">
      <rect id="Rectángulo_413752" data-name="Rectángulo 413752" width="402.521" height="330.871" fill="none"/>
    </clipPath>
    <clipPath id="clip-path-2">
      <rect id="Rectángulo_413652" data-name="Rectángulo 413652" width="400" height="283.225" transform="translate(0.289 38.871)" fill="none"/>
    </clipPath>
    <clipPath id="clip-path-3">
      <path id="Trazado_877321" data-name="Trazado 877321" d="M371.99,285.943a21.424,21.424,0,0,0-5.486.772v0a35.655,35.655,0,0,0-9.458,3.868,13.828,13.828,0,0,0,8.992.8,23.729,23.729,0,0,0,9.62-4.99,14.5,14.5,0,0,0-3.574-.447h-.094m5.236-8.646a19.9,19.9,0,0,0-6.869,1.364l0,0a34.936,34.936,0,0,0-8.9,4.7,13.74,13.74,0,0,0,8.924-.088,20.963,20.963,0,0,0,8.955-5.816,13.517,13.517,0,0,0-2.079-.162h-.033m-28.2-4.551a28.564,28.564,0,0,0,1.625,8.655l0,0a20.583,20.583,0,0,0,4.291,7.655,16.736,16.736,0,0,0-.742-9.52,15.047,15.047,0,0,0-5.176-6.916Zm33.038-4.418a18.88,18.88,0,0,0-8.186,2.149,35.419,35.419,0,0,0-8.453,5.619,13.849,13.849,0,0,0,8.948-.989,23.488,23.488,0,0,0,8.4-6.76c-.222-.012-.443-.019-.665-.019h-.044m-27.486,6.849a20.38,20.38,0,0,0,5.013,7.1,16.643,16.643,0,0,0-1.7-9.292,14.96,14.96,0,0,0-5.8-6.3,28.033,28.033,0,0,0,2.487,8.492m2.714-6.744a20.626,20.626,0,0,0,5.764,6.593,16.688,16.688,0,0,0-2.673-9.107,15.113,15.113,0,0,0-6.466-5.713,28.166,28.166,0,0,0,3.375,8.227m19.551-9.109h0a35.5,35.5,0,0,0-7.647,6.664,13.838,13.838,0,0,0,8.741-2.141,23.427,23.427,0,0,0,7.449-7.8,18.279,18.279,0,0,0-8.542,3.277m-16.708.139h0a20.628,20.628,0,0,0,6.576,5.779,16.724,16.724,0,0,0-3.839-8.672,15.11,15.11,0,0,0-7.156-4.823,27.977,27.977,0,0,0,4.419,7.717m17.711-8.981h.007a35.139,35.139,0,0,0-6.872,7.327,13.738,13.738,0,0,0,8.4-2.981,20.853,20.853,0,0,0,6.565-8.431,18.113,18.113,0,0,0-8.1,4.084M361.8,252.348a20.321,20.321,0,0,0,7.062,5.054,16.7,16.7,0,0,0-4.65-8.2,14.972,14.972,0,0,0-7.536-4.07,27.756,27.756,0,0,0,5.124,7.216m2.587-7.062a17.7,17.7,0,0,0,5.7,4.677,14.973,14.973,0,0,0-3.641-7.222,12.4,12.4,0,0,0-6.094-3.945,22.654,22.654,0,0,0,4.035,6.49m11.935-2.482h0a27.006,27.006,0,0,0-4.39,7.338c2.619-.64,4.633-2.475,6.317-4.289a17.383,17.383,0,0,0,3.973-8.135,18.7,18.7,0,0,0-5.9,5.087m-10.5-5.1h0a13.985,13.985,0,0,0,4.991,3.338,13.318,13.318,0,0,0-3.537-5.6,10.89,10.89,0,0,0-5.208-2.839,18.548,18.548,0,0,0,3.754,5.1m9.047-2.936h0a21.374,21.374,0,0,0-2.924,6.255,10.937,10.937,0,0,0,4.716-3.973,15.193,15.193,0,0,0,2.6-6.76,14.468,14.468,0,0,0-4.392,4.477m-6.7-15.1a31.9,31.9,0,0,0,.555,8.534v0a35.845,35.845,0,0,0,2.35,7.912c.031.065.059.129.09.192.021-.066.041-.134.061-.2a20.3,20.3,0,0,0-3.049-16.435Z" fill="none"/>
    </clipPath>
    <linearGradient id="linear-gradient" x1="-9.454" y1="1.535" x2="-9.426" y2="1.535" gradientUnits="objectBoundingBox">
      <stop offset="0" stop-color="#949aff"/>
      <stop offset="0.999" stop-color="#a600ff"/>
      <stop offset="1" stop-color="#a600ff"/>
    </linearGradient>
    <clipPath id="clip-path-5">
      <path id="Trazado_877323" data-name="Trazado 877323" d="M289,264.719a21.468,21.468,0,0,0-5.486.771,35.68,35.68,0,0,0-9.457,3.87,13.83,13.83,0,0,0,8.991.8,23.715,23.715,0,0,0,9.62-4.989,14.5,14.5,0,0,0-3.573-.447H289m5.237-8.647a19.859,19.859,0,0,0-6.87,1.365l0,0a34.936,34.936,0,0,0-8.9,4.7,13.746,13.746,0,0,0,8.924-.089,20.934,20.934,0,0,0,8.955-5.817,13.5,13.5,0,0,0-2.077-.161h-.034m-28.2-4.673a28.587,28.587,0,0,0,1.629,8.78,20.58,20.58,0,0,0,4.291,7.656,16.728,16.728,0,0,0-.742-9.52A15.049,15.049,0,0,0,266.033,251.4Zm33.04-4.293a18.867,18.867,0,0,0-8.184,2.148v0a35.416,35.416,0,0,0-8.453,5.618,13.849,13.849,0,0,0,8.948-.99,23.486,23.486,0,0,0,8.4-6.759c-.223-.012-.445-.019-.667-.019h-.044m-27.484,6.85h0a20.345,20.345,0,0,0,5.013,7.1,16.63,16.63,0,0,0-1.7-9.291,14.96,14.96,0,0,0-5.8-6.3,28.041,28.041,0,0,0,2.487,8.492m2.714-6.745h0a20.652,20.652,0,0,0,5.763,6.6,16.686,16.686,0,0,0-2.671-9.107,15.115,15.115,0,0,0-6.467-5.713,28.115,28.115,0,0,0,3.375,8.225m19.551-9.109h0a35.5,35.5,0,0,0-7.647,6.664,13.837,13.837,0,0,0,8.741-2.141,23.424,23.424,0,0,0,7.448-7.8,18.308,18.308,0,0,0-8.541,3.276m-16.708.14h0a20.6,20.6,0,0,0,6.577,5.778,16.72,16.72,0,0,0-3.84-8.67,15.117,15.117,0,0,0-7.156-4.824,28.042,28.042,0,0,0,4.419,7.717m17.711-8.98h.007a35.14,35.14,0,0,0-6.872,7.327,13.738,13.738,0,0,0,8.4-2.981,20.847,20.847,0,0,0,6.565-8.429,18.127,18.127,0,0,0-8.1,4.083m-16.047,1.866a20.3,20.3,0,0,0,7.061,5.054,16.678,16.678,0,0,0-4.649-8.2,14.959,14.959,0,0,0-7.537-4.07,27.766,27.766,0,0,0,5.125,7.216m2.587-7.063a17.7,17.7,0,0,0,5.7,4.678,14.954,14.954,0,0,0-3.641-7.223,12.4,12.4,0,0,0-6.093-3.944,22.625,22.625,0,0,0,4.034,6.489m11.935-2.481h0a27.036,27.036,0,0,0-4.39,7.338c2.62-.639,4.634-2.476,6.316-4.288a17.36,17.36,0,0,0,3.974-8.136,18.7,18.7,0,0,0-5.9,5.087m-10.5-5.1h0a13.985,13.985,0,0,0,4.99,3.338,13.35,13.35,0,0,0-3.537-5.6,10.915,10.915,0,0,0-5.209-2.84,18.562,18.562,0,0,0,3.755,5.1m9.047-2.935a21.348,21.348,0,0,0-2.924,6.255,10.93,10.93,0,0,0,4.716-3.973,15.188,15.188,0,0,0,2.6-6.76,14.525,14.525,0,0,0-4.392,4.478m-6.7-15.108a32.015,32.015,0,0,0,.554,8.538v0a35.98,35.98,0,0,0,2.352,7.911c.031.065.058.13.09.193.021-.068.04-.135.06-.2a20.3,20.3,0,0,0-3.05-16.439Z" fill="none"/>
    </clipPath>
    <linearGradient id="linear-gradient-2" x1="-7.205" y1="1.828" x2="-7.178" y2="1.828" xlink:href="#linear-gradient"/>
    <clipPath id="clip-path-7">
      <path id="Trazado_877325" data-name="Trazado 877325" d="M24.8,282.677a14.455,14.455,0,0,0-3.573.447v0a23.738,23.738,0,0,0,9.621,4.989,13.831,13.831,0,0,0,8.991-.8,35.648,35.648,0,0,0-9.457-3.868,21.411,21.411,0,0,0-5.486-.772h-.1M17.546,274.2h0Zm2.076-.161a13.45,13.45,0,0,0-2.073.16,20.947,20.947,0,0,0,8.953,5.816,13.749,13.749,0,0,0,8.925.088,34.918,34.918,0,0,0-8.9-4.7,19.859,19.859,0,0,0-6.87-1.365h-.035m23.063,2.245a16.736,16.736,0,0,0-.742,9.52,20.594,20.594,0,0,0,4.291-7.656,28.605,28.605,0,0,0,1.628-8.749v-.03a15.052,15.052,0,0,0-5.177,6.915M14.112,265.091a23.48,23.48,0,0,0,8.4,6.76,13.849,13.849,0,0,0,8.948.99,35.4,35.4,0,0,0-8.453-5.619,18.868,18.868,0,0,0-8.186-2.15c-.237,0-.474.006-.709.019m24.883,4.645h0a16.643,16.643,0,0,0-1.7,9.292,20.36,20.36,0,0,0,5.014-7.1,28.06,28.06,0,0,0,2.486-8.491,14.954,14.954,0,0,0-5.8,6.3m-2.5-7.067a16.706,16.706,0,0,0-2.672,9.107,20.654,20.654,0,0,0,5.764-6.594,28.133,28.133,0,0,0,3.375-8.226,15.11,15.11,0,0,0-6.467,5.713M18.943,260.6a13.847,13.847,0,0,0,8.74,2.141,35.5,35.5,0,0,0-7.647-6.664,18.294,18.294,0,0,0-8.542-3.277,23.437,23.437,0,0,0,7.449,7.8m15.064-7.279h0a16.717,16.717,0,0,0-3.839,8.671,20.623,20.623,0,0,0,6.576-5.778,28.087,28.087,0,0,0,4.419-7.718,15.117,15.117,0,0,0-7.156,4.824M10.935,243.173a20.84,20.84,0,0,0,6.554,8.4H17.5a13.723,13.723,0,0,0,8.4,2.981,35.135,35.135,0,0,0-6.872-7.326,18.122,18.122,0,0,0-8.089-4.082Zm21.719,2.779a16.691,16.691,0,0,0-4.649,8.2,20.318,20.318,0,0,0,7.062-5.053,27.744,27.744,0,0,0,5.124-7.217,14.958,14.958,0,0,0-7.537,4.071m-2.239-6.462h0a14.949,14.949,0,0,0-3.64,7.222,17.7,17.7,0,0,0,5.7-4.677,22.694,22.694,0,0,0,4.035-6.489,12.4,12.4,0,0,0-6.1,3.944m-11.8,3.111h0c1.684,1.814,3.7,3.649,6.316,4.289a26.977,26.977,0,0,0-4.389-7.338,18.684,18.684,0,0,0-5.9-5.087,17.371,17.371,0,0,0,3.974,8.135m10.975-10.408h0a13.318,13.318,0,0,0-3.537,5.6,13.971,13.971,0,0,0,4.991-3.338,18.568,18.568,0,0,0,3.754-5.1,10.89,10.89,0,0,0-5.208,2.839M20.2,233.8h0a10.929,10.929,0,0,0,4.715,3.974A21.316,21.316,0,0,0,22,231.521a14.489,14.489,0,0,0-4.392-4.477,15.177,15.177,0,0,0,2.6,6.76m5.157-9.353h0a19.135,19.135,0,0,0,.273,8.4c.019.069.039.137.06.2.031-.063.06-.128.09-.192a35.916,35.916,0,0,0,2.351-7.912,31.951,31.951,0,0,0,.555-8.546,19.174,19.174,0,0,0-3.33,8.049" fill="none"/>
    </clipPath>
    <linearGradient id="linear-gradient-3" x1="-0.296" y1="1.58" x2="-0.269" y2="1.58" xlink:href="#linear-gradient"/>
    <clipPath id="clip-path-9">
      <path id="Trazado_877327" data-name="Trazado 877327" d="M69.784,274.154l0,0a16.464,16.464,0,0,0,10.574,1.863,42.462,42.462,0,0,0-9.671-7.365,21.667,21.667,0,0,0-10.417-3.2,28.212,28.212,0,0,0,9.512,8.7m17.254-9.943h0a19.9,19.9,0,0,0-3.792,10.708,24.5,24.5,0,0,0,7.294-7.47,34.05,34.05,0,0,0,4.584-9.583,17.907,17.907,0,0,0-8.085,6.345m-19.743-.7,0-.007a16.347,16.347,0,0,0,10.228,2.865,41.57,41.57,0,0,0-8.771-8.15,21.524,21.524,0,0,0-9.945-4.157,24.924,24.924,0,0,0,8.49,9.449m17.526-7.952h0a19.794,19.794,0,0,0-4.827,10.148,24.2,24.2,0,0,0,7.952-6.61,33.3,33.3,0,0,0,5.48-8.988,17.812,17.812,0,0,0-8.605,5.449M65.233,252.9a16.476,16.476,0,0,0,9.975,3.9,42.18,42.18,0,0,0-7.978-9.066,21.735,21.735,0,0,0-9.559-5.194,27.936,27.936,0,0,0,7.562,10.36m18.9-6.23h0a19.869,19.869,0,0,0-5.884,9.637,24.553,24.553,0,0,0,8.659-5.795,33.512,33.512,0,0,0,6.419-8.408,17.972,17.972,0,0,0-9.195,4.566m.03-11.51h0a19.876,19.876,0,0,0-7.089,8.777,24.534,24.534,0,0,0,9.34-4.607,33.367,33.367,0,0,0,7.46-7.5,17.989,17.989,0,0,0-9.711,3.331M64.61,238.867h0a16.466,16.466,0,0,0,9.381,5.159,42.26,42.26,0,0,0-6.726-10.018,21.771,21.771,0,0,0-8.8-6.4,27.9,27.9,0,0,0,6.148,11.26m20.284-12.586h0a19.854,19.854,0,0,0-7.874,7.985,24.167,24.167,0,0,0,9.673-3.624,33.054,33.054,0,0,0,8.115-6.708q-.57-.042-1.14-.042a18.106,18.106,0,0,0-8.774,2.39m-19.16,1.781h0a16.322,16.322,0,0,0,8.732,6.019,41.851,41.851,0,0,0-5.631-10.539,21.563,21.563,0,0,0-8.041-7.191,24.805,24.805,0,0,0,4.94,11.712M92.271,215.52a14.933,14.933,0,0,0-7.948,2.652v0a17.78,17.78,0,0,0-6.412,7.173A21.059,21.059,0,0,0,85.9,221.73a26.958,26.958,0,0,0,6.64-6.21Zm-6.641-6-.007.014a15.848,15.848,0,0,0-5.793,5.342,16.627,16.627,0,0,0,6.77-2.309,22.074,22.074,0,0,0,5.89-4.7c-.231-.02-.468-.029-.71-.029a13.572,13.572,0,0,0-6.15,1.682m-15.824,8.567h0m0,0c1.374,2.6,3.119,5.335,5.933,6.879a32.182,32.182,0,0,0-2.777-9.786c-1.295-2.72-2.795-5.616-5.208-7.665a20.674,20.674,0,0,0,2.052,10.572m4.545-9.615h0a13,13,0,0,0,4.19,6.021,25.419,25.419,0,0,0-1.427-8.089,17.229,17.229,0,0,0-3.663-6.5,18.069,18.069,0,0,0,.9,8.569m8.815-9.152h0a22.738,22.738,0,0,0-2.279,9.733c0,.085,0,.167,0,.252.055-.063.107-.128.162-.194a42.78,42.78,0,0,0,5.146-8.363,38.076,38.076,0,0,0,3.277-9.646,22.81,22.81,0,0,0-6.311,8.217" fill="none"/>
    </clipPath>
    <linearGradient id="linear-gradient-4" x1="-0.328" y1="2.162" x2="-0.317" y2="2.162" xlink:href="#linear-gradient"/>
    <clipPath id="clip-path-11">
      <path id="Trazado_877329" data-name="Trazado 877329" d="M318.478,275.583v0a29.219,29.219,0,0,0-7.047,4.524,11.325,11.325,0,0,0,7.365-.7,19.441,19.441,0,0,0,7.012-5.453c-.259-.018-.519-.028-.779-.028a15.585,15.585,0,0,0-6.551,1.653m-13.561-1.917,0,0a16.856,16.856,0,0,0,4.6,5.531,13.714,13.714,0,0,0-2.015-7.562,12.325,12.325,0,0,0-5.2-4.8,23.488,23.488,0,0,0,2.619,6.834m15.475-5.144h0a28.613,28.613,0,0,0-6.472,5.113,11.258,11.258,0,0,0,7.179-1.4,17.169,17.169,0,0,0,6.352-6.019,14.793,14.793,0,0,0-7.058,2.3m-13.23-.453h0a16.71,16.71,0,0,0,5.1,4.978,13.619,13.619,0,0,0-2.756-7.235,12.25,12.25,0,0,0-5.609-4.216,22.988,22.988,0,0,0,3.268,6.474m14.853-6.666v0a29.1,29.1,0,0,0-5.978,5.787,11.349,11.349,0,0,0,7.065-2.129,19.256,19.256,0,0,0,5.765-6.7,14.958,14.958,0,0,0-6.852,3.039m-13.668.825h0a16.933,16.933,0,0,0,5.626,4.457,13.67,13.67,0,0,0-3.508-6.943A12.392,12.392,0,0,0,304.4,256.1a23.035,23.035,0,0,0,3.945,6.129m.957-7.654h0a16.88,16.88,0,0,0,6.16,3.679,13.7,13.7,0,0,0-4.384-6.418,12.393,12.393,0,0,0-6.486-2.823,23.018,23.018,0,0,0,4.711,5.561m13.443-2.605,0,.005a29.046,29.046,0,0,0-5.172,6.508,11.36,11.36,0,0,0,6.726-3.025,19.238,19.238,0,0,0,4.834-7.376v-.022a15,15,0,0,0-6.391,3.91M309.58,248.6h0a16.693,16.693,0,0,0,6.443,3.022,13.672,13.672,0,0,0-4.967-5.918,12.266,12.266,0,0,0-6.679-2.158,22.8,22.8,0,0,0,5.2,5.054m12.656-3.893a28.788,28.788,0,0,0-4.448,6.928,11.262,11.262,0,0,0,6.329-3.653,17.094,17.094,0,0,0,4.036-7.77,14.848,14.848,0,0,0-5.917,4.495m-11.623-2.188a14.48,14.48,0,0,0,5.29,2.921,12.257,12.257,0,0,0-4.009-5.279,10.177,10.177,0,0,0-5.5-2.273,18.577,18.577,0,0,0,4.219,4.631m9.249-3.779v0a22.146,22.146,0,0,0-2.447,6.567,10.862,10.862,0,0,0,4.454-4.4,14.244,14.244,0,0,0,1.992-7.148,15.324,15.324,0,0,0-4,4.978m-13.006-6.1a15.162,15.162,0,0,0,3.783,3.552,11.463,11.463,0,0,0,4.518,1.948,10.935,10.935,0,0,0-3.684-3.988,8.934,8.934,0,0,0-4.6-1.512Zm0,0h0Zm10.639-.155v0a17.507,17.507,0,0,0-1.425,5.476,8.956,8.956,0,0,0,3.209-3.9,12.432,12.432,0,0,0,1.09-5.834,11.9,11.9,0,0,0-2.874,4.262m-5.928-4.389v0a29.426,29.426,0,0,0,3.072,6.027c.034.048.067.1.1.142.008-.057.013-.115.018-.174a16.626,16.626,0,0,0-4.91-12.8,26.273,26.273,0,0,0,1.719,6.8" fill="none"/>
    </clipPath>
    <linearGradient id="linear-gradient-5" x1="-11.263" y1="1.844" x2="-11.226" y2="1.844" xlink:href="#linear-gradient"/>
    <clipPath id="clip-path-13">
      <path id="Trazado_877331" data-name="Trazado 877331" d="M108.585,246.419a28.362,28.362,0,0,0-17.276,12.242h0A14.34,14.34,0,0,0,73.722,277.49a30.9,30.9,0,0,0-20.072,0c-14.536,5.158-19.018,19.731-19.47,21.313-.489-.49-7.908-8.209-18.188-6.251a20.136,20.136,0,0,0-15.7,16.306h255.1c2.782-13.714-5.26-27.266-18.028-31.284a26.768,26.768,0,0,0-24.535,4.736,26.276,26.276,0,0,0-44.318-11.11,14.26,14.26,0,0,0-25.759-3.766,28.33,28.33,0,0,0-34.164-21.015" fill="none"/>
    </clipPath>
    <clipPath id="clip-path-14">
      <path id="Trazado_877332" data-name="Trazado 877332" d="M235.665,262.167h0A14.342,14.342,0,0,0,218.074,281,30.892,30.892,0,0,0,198,281c-14.536,5.158-19.017,19.732-19.469,21.313-.491-.489-7.909-8.209-18.189-6.251a20.132,20.132,0,0,0-15.7,16.306h255.1c2.781-13.713-5.259-27.265-18.028-31.284a26.768,26.768,0,0,0-24.534,4.736,26.281,26.281,0,0,0-44.32-11.112,14.259,14.259,0,0,0-25.757-3.765,28.482,28.482,0,0,0-22.6-21.351,28.114,28.114,0,0,0-4.94-.436,28.531,28.531,0,0,0-23.906,13.013" fill="none"/>
    </clipPath>
    <clipPath id="clip-path-16">
      <path id="Trazado_877335" data-name="Trazado 877335" d="M331.574,248.868q-4.845,0-28.727,55.42h8.138q7.083-21.2,15.085-42.085c.279-.731.736-.6.492.173q-6.765,21.084-14.279,41.912h9.946q13.806-53.926,9.592-55.38a.749.749,0,0,0-.239-.04h-.008" fill="none"/>
    </clipPath>
    <clipPath id="clip-path-18">
      <path id="Trazado_877337" data-name="Trazado 877337" d="M273.164,304.288h0Zm16.1-114.078c-3.44,0-8.516,29.716-16.1,114.078h11.769l.006-3.961.064-6.94q.193-13.879.658-27.755.916-27.75,2.61-55.447c.087-1.427.568-1.45.523.026q-.867,27.736-1.737,55.478-.426,13.866-.851,27.726l-.186,6.932-.087,3.941h10.59c-1.046-84.207-3.8-113.946-7.235-114.078Z" fill="none"/>
    </clipPath>
    <clipPath id="clip-path-20">
      <path id="Trazado_877339" data-name="Trazado 877339" d="M261.969,304.283v0h8.153q-1.824-30.324-2.068-60.746c-.009-.835.469-.88.52-.019,1.216,20.242,2.056,40.508,2.3,60.766h6.1l0,0q-5.947-78.321-9.441-78.319h-.009c-2.2.07-4.807,31.37-5.564,78.319" fill="none"/>
    </clipPath>
    <linearGradient id="linear-gradient-6" x1="-4.666" y1="1.373" x2="-4.647" y2="1.373" gradientUnits="objectBoundingBox">
      <stop offset="0" stop-color="#26e6ff"/>
      <stop offset="0.485" stop-color="#4188ff"/>
      <stop offset="0.834" stop-color="#534cff"/>
      <stop offset="1" stop-color="#5a35ff"/>
    </linearGradient>
    <clipPath id="clip-path-22">
      <path id="Trazado_877341" data-name="Trazado 877341" d="M247.336,252.068v0q-3.6.733,3.167,52.214h8.261q-5.138-19.922-9.034-40.149c-.118-.618.343-.747.509-.118,3.538,13.341,6.781,26.758,9.559,40.267h5.9q-14.457-52.229-18.255-52.228a.548.548,0,0,0-.107.011" fill="none"/>
    </clipPath>
    <linearGradient id="linear-gradient-7" x1="-5.29" y1="1.448" x2="-5.267" y2="1.448" xlink:href="#linear-gradient-6"/>
    <clipPath id="clip-path-24">
      <path id="Trazado_877343" data-name="Trazado 877343" d="M288.8,304.286h6.769q10.971-34.253,23.043-68.153c.387-1.088.85-.969.494.166q-10.734,34.142-22.371,67.987h9.011q22.434-83.766,18.642-84.966a.373.373,0,0,0-.115-.018q-4.239,0-35.473,84.984" fill="none"/>
    </clipPath>
    <clipPath id="clip-path-26">
      <path id="Trazado_877345" data-name="Trazado 877345" d="M122.816,248.868q-4.845,0-28.726,55.417l0,0h8.135q7.084-21.2,15.085-42.085c.278-.731.736-.6.492.173q-6.762,21.082-14.279,41.912h9.946q13.808-53.926,9.592-55.38a.744.744,0,0,0-.239-.04h-.008" fill="none"/>
    </clipPath>
    <linearGradient id="linear-gradient-8" x1="-1.491" y1="1.35" x2="-1.473" y2="1.35" xlink:href="#linear-gradient-6"/>
    <clipPath id="clip-path-28">
      <path id="Trazado_877347" data-name="Trazado 877347" d="M64.406,304.288l0,0c0-.005,0,0,0,0Zm16.1-114.077c-3.441,0-8.517,29.714-16.1,114.077H76.182l0-3.961.065-6.94q.193-13.879.657-27.755.918-27.75,2.61-55.447c.087-1.427.567-1.45.523.026q-.869,27.736-1.737,55.478-.424,13.866-.851,27.726l-.185,6.932-.09,3.942h10.59c-1.045-84.207-3.8-113.946-7.235-114.078Z" fill="none"/>
    </clipPath>
    <clipPath id="clip-path-30">
      <path id="Trazado_877349" data-name="Trazado 877349" d="M53.212,304.285h8.149q-1.827-30.324-2.068-60.746c-.008-.835.469-.88.52-.019,1.216,20.242,2.057,40.508,2.3,60.766h6.108q-5.948-78.321-9.442-78.321h0c-2.2.07-4.807,31.367-5.563,78.321" fill="none"/>
    </clipPath>
    <clipPath id="clip-path-32">
      <path id="Trazado_877351" data-name="Trazado 877351" d="M38.579,252.068v0q-3.6.733,3.166,52.214h8.261q-5.137-19.922-9.033-40.149c-.118-.618.343-.747.509-.118,3.538,13.341,6.78,26.758,9.559,40.267h5.9q-14.459-52.229-18.256-52.229a.546.546,0,0,0-.106.011" fill="none"/>
    </clipPath>
    <clipPath id="clip-path-34">
      <path id="Trazado_877353" data-name="Trazado 877353" d="M80.046,304.286h6.769q10.971-34.253,23.043-68.153c.387-1.088.851-.969.494.166Q99.617,270.44,87.98,304.286h9.011q22.434-83.766,18.643-84.966a.38.38,0,0,0-.116-.018q-4.237,0-35.472,84.984" fill="none"/>
    </clipPath>
    <linearGradient id="linear-gradient-9" x1="-0.813" y1="1.246" x2="-0.799" y2="1.246" xlink:href="#linear-gradient-6"/>
    <clipPath id="clip-path-36">
      <rect id="Rectángulo_413701" data-name="Rectángulo 413701" width="7.269" height="10.755" transform="translate(294.765 125.202)" fill="none"/>
    </clipPath>
    <linearGradient id="linear-gradient-10" x1="-40.551" y1="19.123" x2="-40.413" y2="19.123" gradientUnits="objectBoundingBox">
      <stop offset="0" stop-color="#ff697d"/>
      <stop offset="1" stop-color="#de2276"/>
    </linearGradient>
    <clipPath id="clip-path-37">
      <rect id="Rectángulo_413703" data-name="Rectángulo 413703" width="7.27" height="16.347" transform="translate(308.447 119.61)" fill="none"/>
    </clipPath>
    <linearGradient id="linear-gradient-11" x1="-42.427" y1="12.924" x2="-42.29" y2="12.924" gradientUnits="objectBoundingBox">
      <stop offset="0" stop-color="#435df1"/>
      <stop offset="0.327" stop-color="#4333f1"/>
      <stop offset="1" stop-color="#4c008c"/>
    </linearGradient>
    <clipPath id="clip-path-38">
      <rect id="Rectángulo_413705" data-name="Rectángulo 413705" width="7.27" height="29.514" transform="translate(322.129 106.443)" fill="none"/>
    </clipPath>
    <linearGradient id="linear-gradient-12" x1="-44.309" y1="7.604" x2="-44.172" y2="7.604" gradientUnits="objectBoundingBox">
      <stop offset="0" stop-color="#69479b"/>
      <stop offset="1" stop-color="#4c008c"/>
    </linearGradient>
    <clipPath id="clip-path-40">
      <path id="Trazado_877369" data-name="Trazado 877369" d="M189.9,72.578a4.952,4.952,0,1,1,0,9.9h0a4.956,4.956,0,0,1-4.952-4.952l0,0a4.953,4.953,0,0,1,4.95-4.954m-.007-6.306a11.27,11.27,0,0,0-11.261,11.261l0,0H162.19a2.315,2.315,0,0,0-2.317,2.315h0V95.013a2.317,2.317,0,0,0,2.317,2.317h55.416a2.316,2.316,0,0,0,2.316-2.316h0V79.849a2.316,2.316,0,0,0-2.314-2.316h-16.44A11.271,11.271,0,0,0,189.9,66.272h-.008" fill="none"/>
    </clipPath>
    <linearGradient id="linear-gradient-13" x1="-2.312" y1="4.876" x2="-2.297" y2="4.876" xlink:href="#linear-gradient-12"/>
    <clipPath id="clip-path-42">
      <rect id="Rectángulo_413711" data-name="Rectángulo 413711" width="60.05" height="7.351" transform="translate(159.873 89.978)" fill="none"/>
    </clipPath>
    <clipPath id="clip-path-44">
      <rect id="Rectángulo_413713" data-name="Rectángulo 413713" width="203.125" height="148.555" transform="translate(79.557 164.168)" fill="none"/>
    </clipPath>
    <clipPath id="clip-path-45">
      <rect id="Rectángulo_413712" data-name="Rectángulo 413712" width="203.114" height="148.554" transform="translate(79.557 164.169)" fill="none"/>
    </clipPath>
    <clipPath id="clip-path-46">
      <rect id="Rectángulo_413715" data-name="Rectángulo 413715" width="308.439" height="9.365" transform="translate(27.114 299.604)" fill="none"/>
    </clipPath>
    <clipPath id="clip-path-47">
      <rect id="Rectángulo_413714" data-name="Rectángulo 413714" width="308.439" height="9.364" transform="translate(27.114 299.604)" fill="none"/>
    </clipPath>
    <clipPath id="clip-path-48">
      <path id="Trazado_877377" data-name="Trazado 877377" d="M282.759,193.408l55.208,55.207a4.915,4.915,0,0,0,6.951,0l0,0,3.48-3.48a4.917,4.917,0,0,0,0-6.953l-55.207-55.208Z" fill="none"/>
    </clipPath>
    <linearGradient id="linear-gradient-14" x1="-2.813" y1="1.694" x2="-2.802" y2="1.694" xlink:href="#linear-gradient-12"/>
    <clipPath id="clip-path-50">
      <rect id="Rectángulo_413720" data-name="Rectángulo 413720" width="65.826" height="65.826" transform="translate(210.635 110.85)" fill="none"/>
    </clipPath>
    <clipPath id="clip-path-51">
      <rect id="Rectángulo_413719" data-name="Rectángulo 413719" width="65.825" height="65.825" transform="translate(210.635 110.85)" fill="none"/>
    </clipPath>
    <clipPath id="clip-path-52">
      <path id="Trazado_877380" data-name="Trazado 877380" d="M218.464,168.847a35.472,35.472,0,1,1,25.085,10.391,35.472,35.472,0,0,1-25.085-10.391m-2.79-52.957a39.419,39.419,0,1,0,27.875-11.546,39.422,39.422,0,0,0-27.875,11.546" fill="none"/>
    </clipPath>
    <linearGradient id="linear-gradient-15" x1="-2.314" y1="2.74" x2="-2.303" y2="2.74" xlink:href="#linear-gradient-12"/>
    <clipPath id="clip-path-54">
      <rect id="Rectángulo_413724" data-name="Rectángulo 413724" width="61.048" height="61.049" transform="translate(210.635 110.849)" fill="none"/>
    </clipPath>
    <clipPath id="clip-path-55">
      <rect id="Rectángulo_413723" data-name="Rectángulo 413723" width="61.047" height="61.047" transform="translate(210.636 110.851)" fill="none"/>
    </clipPath>
    <clipPath id="clip-path-56">
      <path id="Trazado_877383" data-name="Trazado 877383" d="M349.716,315.541c-1.535.628-2.979,1.379-3.11,1.95h0c-.286,1.266,10.06,1.38,12.649,1.03l-.409-2.026a40.263,40.263,0,0,1-6.123.531c-2.3-.1-3.013-.58-3.005-1.486Z" fill="none"/>
    </clipPath>
    <linearGradient id="linear-gradient-16" x1="-26.774" y1="4.602" x2="-26.697" y2="4.602" xlink:href="#linear-gradient-10"/>
    <clipPath id="clip-path-58">
      <path id="Trazado_877393" data-name="Trazado 877393" d="M342.094,202.9h-.047c-5.53,0-11.882,1.555-12.968,2.562h0c-1.437,1.333-2.555,3.666-2.825,8.438-.077,1.333-1.063,5,.725,9.457,3.153,7.864,1.221,17.62,1.221,17.62l21.428.79s.452-14.366,1.184-18.949c2.21-13.829-.017-18.28-3.871-19.361a18.63,18.63,0,0,0-4.223-.558Z" fill="none"/>
    </clipPath>
    <linearGradient id="linear-gradient-17" x1="-11.685" y1="3.292" x2="-11.649" y2="3.292" xlink:href="#linear-gradient-10"/>
    <clipPath id="clip-path-60">
      <path id="Trazado_877396" data-name="Trazado 877396" d="M335.4,180.118a12.909,12.909,0,0,0-3.671.628h0c-2.9.934-5.641,3.161-5.194,6.486a6.6,6.6,0,0,0,.13.681c.465,1.888,1.942,2.985,1.793,5.045a8.617,8.617,0,0,0,1.163,5.333c2.278,3.86-.87,3-.237,8.928.311,2.912,3.073,4.11,8.529,4.03s11.46-.158,11.3-4.267a7.549,7.549,0,0,0-1.5-4.082c-1.049-1.587-1.947-2.918-1.377-4.874a11.352,11.352,0,0,0,.627-2.454c.124-2.063-1.356-2.728-2.5-4.065-1.234-1.437-.51-3.866-.924-5.6-.958-4.014-4.146-5.7-7.615-5.79Z" fill="none"/>
    </clipPath>
    <linearGradient id="linear-gradient-18" x1="-14.004" y1="4.83" x2="-13.961" y2="4.83" xlink:href="#linear-gradient-12"/>
    <clipPath id="clip-path-61">
      <path id="Trazado_877397" data-name="Trazado 877397" d="M339.14,237s-1.061,38.9-.2,43.484,10.2,24.889,10.2,24.889c6.085-1.106,7.348-2.923,7.348-2.923-2.252-8.889-8.059-23.467-8.059-24.553s6.207-17.891,5.156-26.864c-.524-4.479-3.916-10.375-3.737-14.871Z" fill="none"/>
    </clipPath>
    <linearGradient id="linear-gradient-19" x1="-18.365" y1="1.368" x2="-18.311" y2="1.368" xlink:href="#linear-gradient-11"/>
    <clipPath id="clip-path-62">
      <path id="Trazado_877398" data-name="Trazado 877398" d="M328.688,236.9a219.955,219.955,0,0,0-4.438,25.016c-1.739,14.381-1.184,18.647-.869,20.939s8.244,23.941,8.244,23.941a13.829,13.829,0,0,0,8.173-1.9s-2.669-12.327-4.961-18.016a56.5,56.5,0,0,1-2.541-6.953s9.8-16.9,11.451-26.932c1.625-9.874-3.169-15.908-3.32-16.095Z" fill="none"/>
    </clipPath>
    <linearGradient id="linear-gradient-20" x1="-14.107" y1="1.339" x2="-14.064" y2="1.339" xlink:href="#linear-gradient-11"/>
    <clipPath id="clip-path-63">
      <path id="Trazado_877399" data-name="Trazado 877399" d="M328.729,320.807V320.8c-.2.9,4.555,1.263,8.632,1.3h1.911q1.557-.029,3.109-.183l-.441-2.186a43.317,43.317,0,0,1-6.61.574c-2.485-.107-3.252-.626-3.243-1.6-1.658.679-3.217,1.489-3.359,2.106" fill="none"/>
    </clipPath>
    <linearGradient id="linear-gradient-21" x1="-23.714" y1="3.59" x2="-23.642" y2="3.59" xlink:href="#linear-gradient-10"/>
    <clipPath id="clip-path-64">
      <path id="Trazado_877400" data-name="Trazado 877400" d="M329.943,48.559V68.3h10.27a9.869,9.869,0,1,0,0-19.739Z" fill="none"/>
    </clipPath>
    <clipPath id="clip-path-66">
      <rect id="Rectángulo_413737" data-name="Rectángulo 413737" width="5.152" height="25.548" transform="translate(338.603 253.003)" fill="none"/>
    </clipPath>
  </defs>
  <g id="Grupo_1115988" data-name="Grupo 1115988" clip-path="url(#clip-path)">
    <g id="Grupo_1115852" data-name="Grupo 1115852">
      <g id="Grupo_1115851-2" data-name="Grupo 1115851" clip-path="url(#clip-path-2)">
        <path id="Trazado_877315" data-name="Trazado 877315" d="M386.236,306.478H15.1C-5.2,272.55,2.9,230.512,30.286,209.9c21.238-15.984,51.729-17.311,77.26-3.449a23.041,23.041,0,0,1,38.63-20c1.565-3.546,11.417-24.924,35.181-32.422,21.542-6.8,45.945.515,62.084,18.625A40.262,40.262,0,0,1,306.9,203.009c24.676-10.369,52.408-7.391,71.051,8.278,25.2,21.181,30.611,62.876,8.278,95.2" fill="#b0c2e5"/>
        <path id="Trazado_877316" data-name="Trazado 877316" d="M136,186.483a61.156,61.156,0,1,1-61.156-61.156A61.155,61.155,0,0,1,136,186.483" fill="#b0c2e5"/>
        <path id="Trazado_877317" data-name="Trazado 877317" d="M243.863,142.509a61.156,61.156,0,1,1-61.156-61.16,61.155,61.155,0,0,1,61.156,61.16" fill="#d4ebf8"/>
        <path id="Trazado_877318" data-name="Trazado 877318" d="M134.243,137.54a19.561,19.561,0,1,1-19.561-19.561,19.561,19.561,0,0,1,19.561,19.561" fill="#b0c2e5"/>
        <path id="Trazado_877319" data-name="Trazado 877319" d="M206.892,260.474a31.125,31.125,0,1,1-31.125-31.125,31.125,31.125,0,0,1,31.125,31.125" fill="#c0dfed"/>
      </g>
    </g>
    <path id="Trazado_877320" data-name="Trazado 877320" d="M387.613,167.544V304.075H15.927Z" fill="#b0c9f5"/>
    <g id="Grupo_1115854" data-name="Grupo 1115854">
      <g id="Grupo_1115853" data-name="Grupo 1115853" clip-path="url(#clip-path-3)">
        <rect id="Rectángulo_413653" data-name="Rectángulo 413653" width="36.92" height="72.465" transform="translate(349.024 219.662)" fill="url(#linear-gradient)"/>
      </g>
    </g>
    <g id="Grupo_1115856" data-name="Grupo 1115856">
      <g id="Grupo_1115855" data-name="Grupo 1115855" clip-path="url(#clip-path-2)">
        <path id="Trazado_877322" data-name="Trazado 877322" d="M369.217,266.107c.113-.024.22-.053.331-.073.353-.077.7-.152,1.057-.26a19.464,19.464,0,0,0,2.764-.977,19.211,19.211,0,0,0,2.691-1.432,16.367,16.367,0,0,0,2.549-1.959,15.969,15.969,0,0,1-2.577,1.843,18.931,18.931,0,0,1-2.7,1.309,22.49,22.49,0,0,1-2.746.855c-.359.088-.731.16-1.092.222l-.286.053c-.287.053-.586.085-.879.121.687-2.536,1.281-5.033,1.808-7.607.367-.1.735-.208,1.1-.329.051-.019.1-.036.151-.053.4-.139.8-.268,1.2-.44a20.572,20.572,0,0,0,2.648-1.271,20.168,20.168,0,0,0,2.535-1.7,16.364,16.364,0,0,0,2.34-2.21,15.747,15.747,0,0,1-2.381,2.093,19.474,19.474,0,0,1-2.55,1.585,23.6,23.6,0,0,1-2.647,1.15c-.425.156-.866.284-1.3.422l-.042.012c-.319.091-.637.168-.957.248.434-2.332.759-4.718.964-7.081.3-.165.59-.335.883-.513.345-.207.687-.434,1.022-.668a21.973,21.973,0,0,0,1.943-1.538,20.983,20.983,0,0,0,1.808-1.82,17.8,17.8,0,0,0,1.627-2.121,17.1,17.1,0,0,1-1.683,2.02,19.908,19.908,0,0,1-1.851,1.7,21.77,21.77,0,0,1-1.966,1.422c-.271.173-.547.342-.825.5-.3.168-.608.332-.914.486a81.409,81.409,0,0,0,.271-8.863c.165-.132.33-.27.492-.411a18.358,18.358,0,0,0,2.292-2.381,39.4,39.4,0,0,0,2.314-3.623,38.722,38.722,0,0,1-2.377,3.523,17.687,17.687,0,0,1-2.117,2.114q-.3.253-.61.492c-.053-1.935-.108-2.9-.278-4.84-.161-1.834-.267-2.751-.533-4.581.093.769.137,1.155.212,1.924-.093-.768-.144-1.151-.256-1.918.225,1.835.31,2.752.428,4.586.125,1.935.159,2.9.168,4.833-.211-.151-.421-.306-.628-.464-.771-.583-1.526-1.207-2.254-1.873-.973-.888-2.8-2.844-2.8-2.844s1.785,2.011,2.743,2.937c.782.754,1.6,1.468,2.435,2.13.167.133.336.264.5.392a80.853,80.853,0,0,1-.471,8.814c-.271-.209-.542-.423-.809-.637-.246-.2-.489-.4-.73-.611-.588-.5-1.173-1.045-1.745-1.59s-1.127-1.117-1.667-1.7-1.072-1.184-1.564-1.822c.471.663.979,1.292,1.5,1.906s1.056,1.218,1.608,1.8,1.123,1.155,1.7,1.7c.291.275.588.551.887.813.254.225.508.446.765.666-.259,2.341-.637,4.7-1.122,7.008-.267-.191-.535-.377-.8-.574l-.036-.026c-.356-.28-.725-.548-1.071-.828-.713-.579-1.452-1.2-2.142-1.824s-1.37-1.3-2.017-1.993a23.6,23.6,0,0,1-1.852-2.179,24.414,24.414,0,0,0,1.782,2.261c.627.719,1.29,1.425,1.963,2.09s1.372,1.323,2.092,1.937c.308.286.641.543.96.812l.121.1c.3.241.6.473.9.709-.582,2.536-1.227,5-1.965,7.493-.225-.19-.457-.379-.671-.576l-.212-.2c-.271-.243-.549-.5-.808-.75-.651-.638-1.325-1.328-1.947-2.021s-1.23-1.432-1.8-2.185a23.718,23.718,0,0,1-1.608-2.358,24.534,24.534,0,0,0,1.533,2.432c.547.781,1.129,1.549,1.733,2.277s1.228,1.456,1.888,2.132c.241.268.5.515.753.766.083.076.157.157.238.238.242.241.5.471.749.706-1.094,3.3-2.319,6.481-3.716,9.66-.137-.21-.274-.42-.407-.632-.168-.267-.331-.542-.49-.815-.391-.669-.768-1.37-1.132-2.07s-.7-1.421-1.023-2.146-.627-1.465-.886-2.224c.229.776.5,1.534.8,2.282s.6,1.492.935,2.22.685,1.457,1.049,2.156c.185.356.375.714.573,1.059.12.213.243.424.366.636-1,2.164-2.123,4.31-3.331,6.365-.153-.216-.308-.428-.457-.648l-.025-.036c-.244-.382-.5-.758-.739-1.137-.483-.783-.979-1.609-1.424-2.431s-.867-1.682-1.253-2.549a23.57,23.57,0,0,1-1.036-2.667,24.471,24.471,0,0,0,.944,2.723c.356.887.752,1.772,1.169,2.623s.862,1.7,1.34,2.523c.2.372.427.724.641,1.084.027.044.055.089.081.136.165.271.338.536.509.8-1.38,2.251-2.8,4.4-4.317,6.563-.128-.219-.263-.438-.379-.66-.044-.084-.089-.17-.136-.255-.174-.321-.353-.652-.513-.98-.4-.821-.809-1.7-1.166-2.563s-.686-1.767-.975-2.67a23.911,23.911,0,0,1-.737-2.771,24.7,24.7,0,0,0,.642,2.818c.257.922.552,1.845.88,2.736s.674,1.789,1.073,2.65c.138.335.3.654.455.976.052.1.1.2.145.3.13.271.275.539.416.808a98.226,98.226,0,0,1-9.887,11.069l.813.867a99.328,99.328,0,0,0,9.938-11.3c.3.051.6.1.9.14.115.014.226.021.338.038.36.041.719.084,1.088.1a20.326,20.326,0,0,0,5.97-.527,16.568,16.568,0,0,0,3.063-1.038,16.082,16.082,0,0,1-3.05.917,19.135,19.135,0,0,1-2.989.371,22.418,22.418,0,0,1-2.886-.075c-.369-.033-.746-.085-1.109-.142l-.288-.043c-.249-.036-.5-.093-.75-.145,1.522-2.2,2.94-4.392,4.319-6.683.317.018.635.034.954.037h.16c.422,0,.846.007,1.275-.028a20.646,20.646,0,0,0,2.922-.343,20.4,20.4,0,0,0,2.955-.789,16.347,16.347,0,0,0,2.935-1.328,15.879,15.879,0,0,1-2.936,1.2,19.869,19.869,0,0,1-2.931.67,23.545,23.545,0,0,1-2.881.228c-.453.011-.912-.012-1.369-.022h-.045c-.266-.014-.53-.038-.793-.062,1.206-2.09,2.326-4.271,3.32-6.469.241-.045.483-.091.724-.143.392-.083.791-.186,1.184-.3a22.426,22.426,0,0,0,2.336-.815,20.892,20.892,0,0,0,2.3-1.124,17.893,17.893,0,0,0,2.226-1.462,17.191,17.191,0,0,1-2.246,1.348,20.033,20.033,0,0,1-2.3,1,21.839,21.839,0,0,1-2.322.7c-.313.074-.629.144-.941.2-.249.044-.5.082-.747.119,1.386-3.226,2.6-6.456,3.677-9.8.341-.055.681-.106,1.018-.178" fill="#56548c"/>
      </g>
    </g>
    <g id="Grupo_1115858" data-name="Grupo 1115858">
      <g id="Grupo_1115857" data-name="Grupo 1115857" clip-path="url(#clip-path-5)">
        <rect id="Rectángulo_413655" data-name="Rectángulo 413655" width="36.924" height="72.463" transform="translate(266.033 198.44)" fill="url(#linear-gradient-2)"/>
      </g>
    </g>
    <g id="Grupo_1115860" data-name="Grupo 1115860">
      <g id="Grupo_1115859" data-name="Grupo 1115859" clip-path="url(#clip-path-2)">
        <path id="Trazado_877324" data-name="Trazado 877324" d="M286.228,244.881c.113-.024.22-.053.331-.073.353-.077.705-.152,1.057-.26a20.078,20.078,0,0,0,5.455-2.409,16.358,16.358,0,0,0,2.548-1.959,15.913,15.913,0,0,1-2.576,1.843,18.931,18.931,0,0,1-2.7,1.309,22.319,22.319,0,0,1-2.746.855c-.359.088-.731.16-1.092.223l-.286.052c-.287.053-.586.085-.879.121.687-2.536,1.281-5.033,1.808-7.607.367-.1.734-.208,1.1-.329.05-.019.1-.036.151-.053.4-.139.8-.268,1.2-.44a20.57,20.57,0,0,0,2.648-1.271,20.168,20.168,0,0,0,2.535-1.7,16.368,16.368,0,0,0,2.34-2.21,15.749,15.749,0,0,1-2.381,2.093,19.484,19.484,0,0,1-2.551,1.585,23.23,23.23,0,0,1-2.647,1.15c-.425.156-.866.284-1.3.423l-.042.011c-.319.091-.637.168-.957.248.434-2.332.759-4.718.964-7.081.3-.165.59-.335.883-.513.345-.207.687-.434,1.022-.668a22.3,22.3,0,0,0,1.943-1.537,20.981,20.981,0,0,0,1.808-1.82,18,18,0,0,0,1.627-2.122,17.1,17.1,0,0,1-1.683,2.02,19.906,19.906,0,0,1-1.851,1.705,21.77,21.77,0,0,1-1.966,1.422c-.271.173-.547.342-.825.5-.3.169-.608.332-.914.486a81.425,81.425,0,0,0,.271-8.863c.165-.132.33-.27.492-.411a18.359,18.359,0,0,0,2.292-2.381,39.494,39.494,0,0,0,2.311-3.617,38.729,38.729,0,0,1-2.377,3.523,17.685,17.685,0,0,1-2.117,2.114c-.2.168-.4.333-.61.492-.053-1.935-.108-2.9-.278-4.84-.161-1.834-.268-2.751-.533-4.581.093.769.136,1.154.211,1.924-.093-.768-.144-1.151-.256-1.918.224,1.835.31,2.752.428,4.586.125,1.936.159,2.9.167,4.833q-.316-.228-.627-.464c-.771-.583-1.526-1.207-2.254-1.873-.973-.888-2.8-2.844-2.8-2.844s1.785,2.012,2.743,2.937c.782.755,1.6,1.468,2.435,2.13.167.133.336.264.5.392a80.863,80.863,0,0,1-.471,8.815c-.271-.21-.542-.423-.809-.638-.246-.2-.489-.4-.73-.611-.588-.5-1.173-1.045-1.745-1.59s-1.127-1.117-1.667-1.7-1.072-1.184-1.564-1.822c.471.663.979,1.292,1.5,1.906s1.056,1.218,1.608,1.8,1.123,1.154,1.695,1.7c.291.275.588.551.887.813.255.225.509.446.766.666-.259,2.342-.637,4.7-1.122,7.008-.267-.191-.535-.377-.8-.574l-.035-.026c-.356-.28-.725-.548-1.071-.828-.713-.579-1.452-1.2-2.142-1.824s-1.37-1.3-2.017-1.993a23.6,23.6,0,0,1-1.852-2.179,24.42,24.42,0,0,0,1.782,2.261c.627.719,1.29,1.425,1.963,2.09s1.372,1.323,2.092,1.938c.308.286.64.542.96.811l.121.1c.3.241.6.473.9.709-.582,2.536-1.227,5-1.965,7.493-.225-.189-.457-.379-.671-.576l-.212-.2c-.271-.243-.549-.5-.808-.75-.651-.638-1.325-1.328-1.947-2.02s-1.23-1.433-1.8-2.186a23.883,23.883,0,0,1-1.607-2.358,24.353,24.353,0,0,0,1.533,2.432c.547.781,1.129,1.549,1.733,2.277s1.228,1.456,1.888,2.132c.241.268.5.515.753.766.083.076.157.157.238.238.241.241.5.471.749.706-1.094,3.3-2.319,6.481-3.716,9.66-.137-.21-.274-.419-.407-.632-.168-.267-.33-.542-.49-.815-.391-.668-.768-1.37-1.132-2.07s-.7-1.421-1.023-2.146-.628-1.465-.886-2.224c.229.776.5,1.534.8,2.282s.6,1.492.935,2.221.685,1.456,1.049,2.155c.185.356.375.714.573,1.059.121.214.244.424.367.636-1,2.164-2.123,4.31-3.331,6.365-.153-.216-.308-.428-.457-.648l-.025-.036c-.244-.382-.5-.757-.739-1.137-.483-.783-.979-1.609-1.424-2.431s-.867-1.682-1.253-2.549a23.576,23.576,0,0,1-1.036-2.667,24.413,24.413,0,0,0,.944,2.723c.356.887.752,1.772,1.169,2.623s.862,1.7,1.34,2.523c.2.372.427.724.641,1.084.028.044.056.089.081.136.166.271.339.536.51.8-1.38,2.251-2.8,4.4-4.318,6.563-.128-.219-.263-.438-.379-.659-.044-.085-.089-.171-.136-.256-.174-.321-.353-.652-.513-.98-.4-.821-.809-1.7-1.166-2.563s-.686-1.767-.975-2.669a24.079,24.079,0,0,1-.737-2.772,24.5,24.5,0,0,0,.642,2.818c.257.922.552,1.845.88,2.736s.674,1.789,1.072,2.65c.139.335.3.654.456.976.052.1.1.2.145.3.13.272.275.539.416.808a98.131,98.131,0,0,1-9.887,11.069l.813.867a99.244,99.244,0,0,0,9.938-11.3c.3.051.6.1.9.141.115.013.226.021.338.038.36.041.719.084,1.088.1a20.225,20.225,0,0,0,5.97-.527,16.569,16.569,0,0,0,3.063-1.038,16.086,16.086,0,0,1-3.05.917,19.14,19.14,0,0,1-2.989.372,22.418,22.418,0,0,1-2.886-.076c-.369-.033-.746-.085-1.109-.142l-.288-.043c-.249-.036-.5-.093-.75-.145,1.522-2.2,2.94-4.392,4.319-6.682.317.017.635.033.954.036h.16c.422,0,.846.007,1.275-.028A20.9,20.9,0,0,0,286,261.092a16.488,16.488,0,0,0,2.935-1.329,15.882,15.882,0,0,1-2.936,1.2,19.6,19.6,0,0,1-2.931.67,23.545,23.545,0,0,1-2.881.228c-.453.011-.912-.011-1.369-.022h-.045c-.266-.014-.53-.038-.793-.062,1.206-2.09,2.325-4.271,3.32-6.469.241-.045.482-.091.724-.143.392-.083.791-.185,1.184-.3a22.205,22.205,0,0,0,2.337-.815,20.886,20.886,0,0,0,2.3-1.123,18.015,18.015,0,0,0,2.226-1.463,17.189,17.189,0,0,1-2.246,1.348,20.031,20.031,0,0,1-2.3,1,22.144,22.144,0,0,1-2.322.7c-.313.074-.629.144-.942.2-.249.044-.5.082-.746.119,1.386-3.226,2.6-6.456,3.677-9.8.34-.055.681-.106,1.018-.178" fill="#56548c"/>
      </g>
    </g>
    <g id="Grupo_1115862" data-name="Grupo 1115862">
      <g id="Grupo_1115861" data-name="Grupo 1115861" clip-path="url(#clip-path-7)">
        <rect id="Rectángulo_413657" data-name="Rectángulo 413657" width="36.927" height="72.461" transform="translate(10.935 216.402)" fill="url(#linear-gradient-3)"/>
      </g>
    </g>
    <g id="Grupo_1115864" data-name="Grupo 1115864">
      <g id="Grupo_1115863" data-name="Grupo 1115863" clip-path="url(#clip-path-2)">
        <path id="Trazado_877326" data-name="Trazado 877326" d="M27.67,262.848c-.113-.024-.22-.053-.331-.073-.353-.077-.7-.152-1.057-.26a20.078,20.078,0,0,1-5.455-2.409,16.366,16.366,0,0,1-2.549-1.959,15.966,15.966,0,0,0,2.577,1.843,18.931,18.931,0,0,0,2.7,1.309,22.491,22.491,0,0,0,2.746.855c.359.088.731.16,1.092.223l.286.052c.287.053.586.085.879.121-.687-2.536-1.281-5.033-1.808-7.607-.368-.1-.735-.208-1.1-.329-.051-.019-.1-.036-.151-.053-.4-.139-.8-.268-1.2-.44a20.57,20.57,0,0,1-2.648-1.271,20.166,20.166,0,0,1-2.535-1.7,16.365,16.365,0,0,1-2.34-2.21,15.748,15.748,0,0,0,2.381,2.093,19.538,19.538,0,0,0,2.55,1.585,23.233,23.233,0,0,0,2.647,1.15c.425.156.866.284,1.3.422l.042.012c.319.091.637.168.957.248-.434-2.332-.759-4.718-.964-7.081-.3-.165-.59-.335-.883-.513-.345-.207-.687-.434-1.022-.668a22.294,22.294,0,0,1-1.943-1.537,20.981,20.981,0,0,1-1.808-1.82,18,18,0,0,1-1.627-2.122,17.1,17.1,0,0,0,1.683,2.02,19.909,19.909,0,0,0,1.851,1.705,21.771,21.771,0,0,0,1.966,1.422c.271.173.548.342.825.5.3.169.608.332.914.486a81.414,81.414,0,0,1-.271-8.863c-.165-.132-.33-.27-.492-.411a18.357,18.357,0,0,1-2.292-2.381,39.355,39.355,0,0,1-2.32-3.625,38.722,38.722,0,0,0,2.377,3.523,17.613,17.613,0,0,0,2.117,2.114q.3.252.61.492c.053-1.935.108-2.9.278-4.84.161-1.834.267-2.751.533-4.581-.093.769-.137,1.155-.212,1.924.093-.768.144-1.151.256-1.918-.225,1.835-.31,2.752-.428,4.586-.125,1.935-.159,2.9-.168,4.833.211-.151.421-.306.628-.464.771-.583,1.526-1.207,2.254-1.873.973-.888,2.8-2.844,2.8-2.844s-1.785,2.012-2.743,2.937c-.782.755-1.6,1.468-2.435,2.13-.167.133-.336.264-.5.392a81.119,81.119,0,0,0,.471,8.815c.271-.21.542-.423.809-.638.246-.2.489-.4.73-.611.588-.5,1.173-1.045,1.745-1.59s1.127-1.117,1.667-1.7,1.072-1.184,1.564-1.822c-.471.663-.979,1.292-1.5,1.906s-1.056,1.218-1.608,1.8-1.123,1.155-1.695,1.7c-.291.275-.588.551-.887.813-.255.225-.509.446-.766.666.259,2.342.637,4.7,1.122,7.008.267-.191.535-.377.8-.574l.036-.026c.356-.28.725-.548,1.071-.828.713-.579,1.452-1.2,2.142-1.824s1.37-1.3,2.017-1.993a23.6,23.6,0,0,0,1.852-2.179,24.418,24.418,0,0,1-1.782,2.261c-.627.719-1.29,1.425-1.963,2.09s-1.372,1.323-2.092,1.938c-.308.286-.641.542-.96.811l-.121.1c-.3.241-.6.473-.9.709.582,2.536,1.227,5,1.965,7.493.225-.189.457-.379.671-.576.07-.064.141-.13.213-.2.27-.243.548-.5.807-.75.651-.638,1.325-1.328,1.947-2.02s1.23-1.433,1.8-2.186a23.889,23.889,0,0,0,1.607-2.358,24.357,24.357,0,0,1-1.533,2.432c-.547.781-1.129,1.549-1.733,2.277s-1.228,1.456-1.888,2.132c-.241.268-.5.515-.753.766-.083.076-.157.157-.238.238-.242.241-.5.471-.748.706,1.093,3.3,2.318,6.481,3.715,9.66.137-.21.274-.419.407-.632.168-.267.33-.542.49-.815.391-.668.768-1.37,1.132-2.07s.7-1.421,1.023-2.146.627-1.465.886-2.224c-.229.776-.5,1.534-.8,2.282s-.6,1.492-.935,2.221-.685,1.456-1.049,2.155c-.185.356-.375.714-.573,1.059-.12.214-.243.424-.366.636,1,2.164,2.123,4.31,3.331,6.365.153-.216.308-.428.457-.648l.025-.036c.244-.382.5-.757.739-1.137.483-.783.979-1.609,1.424-2.431s.867-1.682,1.253-2.549a23.571,23.571,0,0,0,1.036-2.667,24.477,24.477,0,0,1-.944,2.723c-.356.887-.752,1.772-1.169,2.623s-.862,1.7-1.34,2.523c-.2.372-.426.724-.64,1.084-.028.044-.056.089-.082.136-.165.271-.338.536-.509.8,1.38,2.251,2.8,4.4,4.317,6.563.128-.219.263-.438.379-.66.044-.084.089-.17.136-.255.174-.321.353-.652.513-.98.4-.821.809-1.7,1.166-2.563s.686-1.767.975-2.669a24.088,24.088,0,0,0,.734-2.745,24.706,24.706,0,0,1-.642,2.818c-.257.922-.552,1.845-.88,2.736s-.674,1.789-1.073,2.65c-.138.335-.3.654-.455.976-.052.1-.1.2-.145.3-.13.272-.275.539-.416.808a98.225,98.225,0,0,0,9.887,11.069l-.813.867a99.243,99.243,0,0,1-9.938-11.3c-.3.051-.6.1-.9.141-.115.013-.226.021-.338.038-.36.041-.719.084-1.088.1a20.224,20.224,0,0,1-5.97-.527A16.568,16.568,0,0,1,29.4,286a16.083,16.083,0,0,0,3.05.917,19.14,19.14,0,0,0,2.989.372,22.424,22.424,0,0,0,2.886-.076c.369-.033.746-.085,1.109-.142l.288-.043c.249-.036.5-.093.75-.145-1.522-2.2-2.94-4.392-4.319-6.682-.317.017-.635.033-.954.036h-.16c-.422,0-.846.007-1.275-.028a20.9,20.9,0,0,1-5.877-1.131,16.488,16.488,0,0,1-2.935-1.329,15.879,15.879,0,0,0,2.936,1.2,19.589,19.589,0,0,0,2.931.67,23.545,23.545,0,0,0,2.881.228c.453.011.912-.011,1.369-.022h.045c.266-.014.53-.038.793-.062-1.206-2.09-2.326-4.271-3.32-6.469-.241-.045-.483-.091-.724-.143-.392-.083-.791-.185-1.184-.3a22.194,22.194,0,0,1-2.336-.815,20.882,20.882,0,0,1-2.3-1.123,18.016,18.016,0,0,1-2.226-1.463,17.191,17.191,0,0,0,2.246,1.348,20.211,20.211,0,0,0,2.3,1,22.14,22.14,0,0,0,2.322.7c.313.074.629.144.942.2.248.044.5.082.746.119-1.386-3.226-2.6-6.456-3.677-9.8-.341-.055-.681-.106-1.018-.178" fill="#56548c"/>
      </g>
    </g>
    <g id="Grupo_1115866" data-name="Grupo 1115866">
      <g id="Grupo_1115865" data-name="Grupo 1115865" clip-path="url(#clip-path-9)">
        <rect id="Rectángulo_413659" data-name="Rectángulo 413659" width="92.286" height="58.363" transform="matrix(0.26, -0.966, 0.966, 0.26, 36.237, 270.835)" fill="url(#linear-gradient-4)"/>
      </g>
    </g>
    <g id="Grupo_1115868" data-name="Grupo 1115868">
      <g id="Grupo_1115867" data-name="Grupo 1115867" clip-path="url(#clip-path-2)">
        <path id="Trazado_877328" data-name="Trazado 877328" d="M73.937,244.143c-.122-.063-.236-.129-.358-.186-.382-.2-.762-.392-1.133-.624a23.24,23.24,0,0,1-2.873-1.978,22.985,22.985,0,0,1-2.65-2.476,19.449,19.449,0,0,1-2.322-3.038,18.972,18.972,0,0,0,2.39,2.913,22.594,22.594,0,0,0,2.694,2.336,26.677,26.677,0,0,0,2.892,1.83c.384.212.79.409,1.184.592l.312.149c.315.15.648.279.973.41-.006-3.124.083-6.178.272-9.3-.39-.234-.781-.466-1.162-.717a1.828,1.828,0,0,0-.158-.108c-.414-.282-.838-.554-1.237-.873a24.559,24.559,0,0,1-2.65-2.278,24.086,24.086,0,0,1-2.386-2.739,19.5,19.5,0,0,1-2-3.262,18.771,18.771,0,0,0,2.089,3.14,23.347,23.347,0,0,0,2.441,2.609,27.9,27.9,0,0,0,2.685,2.138c.439.31.907.594,1.363.887l.045.027c.338.2.68.39,1.022.579.223-2.812.587-5.655,1.08-8.433-.291-.28-.575-.567-.856-.861-.33-.345-.655-.711-.968-1.084a25.959,25.959,0,0,1-1.757-2.366,24.958,24.958,0,0,1-1.516-2.649,21.339,21.339,0,0,1-1.225-2.945,20.558,20.558,0,0,0,1.31,2.84,23.6,23.6,0,0,0,1.6,2.531,25.576,25.576,0,0,0,1.82,2.241c.258.282.523.562.794.827.294.287.6.569.9.842a96.8,96.8,0,0,1,2.427-10.266c-.149-.2-.3-.412-.439-.624a21.733,21.733,0,0,1-1.9-3.443,46.913,46.913,0,0,1-1.539-4.868,46.3,46.3,0,0,0,1.643,4.78,21.082,21.082,0,0,0,1.779,3.083q.267.382.549.754c.658-2.207,1.021-3.3,1.814-5.475.752-2.057,1.157-3.077,2.028-5.1-.346.855-.513,1.284-.838,2.145.344-.853.522-1.278.887-2.125-.825,2.038-1.206,3.067-1.909,5.137-.742,2.185-1.079,3.286-1.685,5.5.289-.109.578-.222.865-.338,1.065-.431,2.127-.916,3.167-1.455,1.392-.721,4.1-2.4,4.1-2.4s-2.672,1.76-4.058,2.527c-1.132.627-2.3,1.192-3.456,1.7-.233.1-.467.2-.7.294a96.477,96.477,0,0,0-2.181,10.272c.375-.157.753-.319,1.126-.483.343-.151.687-.314,1.027-.477.831-.4,1.67-.838,2.5-1.288s1.639-.934,2.44-1.437,1.6-1.029,2.36-1.609c-.746.616-1.524,1.181-2.311,1.726s-1.589,1.073-2.4,1.569-1.646.98-2.472,1.427c-.419.227-.845.452-1.27.662-.361.18-.722.356-1.086.53-.426,2.769-.721,5.6-.876,8.4.366-.137.732-.268,1.1-.412l.049-.019c.5-.212,1-.4,1.486-.62,1-.445,2.038-.925,3.024-1.434s1.976-1.073,2.934-1.667a27.992,27.992,0,0,0,2.8-1.931,28.658,28.658,0,0,1-2.746,2.048c-.942.633-1.921,1.238-2.9,1.794s-1.986,1.1-3,1.58c-.443.233-.9.426-1.354.635-.057.025-.114.05-.171.079-.414.187-.832.36-1.249.538-.115,3.093-.135,6.12-.056,9.215.316-.149.642-.294.948-.456.1-.053.2-.107.3-.159.386-.2.783-.4,1.161-.613.945-.531,1.931-1.117,2.86-1.719s1.856-1.266,2.743-1.954a28.316,28.316,0,0,0,2.555-2.215,28.865,28.865,0,0,1-2.512,2.321c-.87.728-1.776,1.431-2.694,2.081s-1.86,1.294-2.827,1.867c-.36.234-.731.438-1.1.648-.119.062-.23.132-.347.2-.353.2-.716.388-1.079.58.239,4.124.662,8.162,1.285,12.245.222-.2.445-.4.664-.6.275-.255.546-.521.814-.785.656-.647,1.305-1.336,1.94-2.029s1.244-1.415,1.838-2.149,1.173-1.489,1.705-2.282c-.5.821-1.055,1.607-1.621,2.375s-1.152,1.529-1.76,2.262-1.236,1.461-1.871,2.152c-.322.352-.651.7-.984,1.04-.205.209-.412.412-.618.618.48,2.8,1.109,5.608,1.862,8.342.242-.2.486-.4.724-.6l.04-.034c.4-.364.814-.714,1.2-1.078.8-.749,1.622-1.546,2.387-2.351s1.516-1.666,2.227-2.542a28.293,28.293,0,0,0,2.015-2.743A29.157,29.157,0,0,1,85.99,259.3c-.683.909-1.411,1.8-2.152,2.652s-1.518,1.691-2.32,2.484c-.342.367-.714.7-1.07,1.048-.045.042-.091.086-.136.131-.273.26-.554.51-.833.764.89,3.011,1.852,5.925,2.932,8.874.215-.211.437-.422.64-.641q.115-.126.234-.252c.3-.314.606-.641.892-.967.716-.82,1.454-1.7,2.131-2.584s1.333-1.819,1.945-2.766a28.772,28.772,0,0,0,1.7-2.956,29.562,29.562,0,0,1-1.607,3.038c-.581.98-1.2,1.949-1.856,2.872s-1.327,1.848-2.05,2.714c-.263.342-.546.659-.825.982-.091.1-.172.2-.261.306-.234.272-.482.535-.727.8a116.772,116.772,0,0,0,7.941,15.771l-1.2.745a118.132,118.132,0,0,1-7.94-16.045c-.36-.033-.724-.064-1.081-.117-.136-.019-.266-.045-.4-.061-.427-.063-.852-.125-1.28-.227a24.047,24.047,0,0,1-6.7-2.449,19.68,19.68,0,0,1-3.2-2.139,19.057,19.057,0,0,0,3.22,2,22.556,22.556,0,0,0,3.32,1.35,26.789,26.789,0,0,0,3.339.806c.434.076.883.133,1.318.179l.344.04c.3.035.605.048.908.064-1.07-2.995-2.022-5.953-2.9-9.01-.369-.079-.739-.158-1.108-.253-.062-.018-.122-.034-.184-.05-.485-.133-.975-.253-1.456-.426a24.711,24.711,0,0,1-3.252-1.3,24.352,24.352,0,0,1-3.151-1.819,19.558,19.558,0,0,1-2.961-2.432,18.91,18.91,0,0,0,3,2.291,23.452,23.452,0,0,0,3.16,1.675,27.9,27.9,0,0,0,3.24,1.152c.516.152,1.051.268,1.579.4l.052.011c.31.066.62.12.93.174-.739-2.773-1.352-5.624-1.815-8.457-.264-.126-.527-.253-.789-.388-.426-.217-.852-.457-1.269-.707a26.253,26.253,0,0,1-2.432-1.659,24.85,24.85,0,0,1-2.3-2,21.4,21.4,0,0,1-2.1-2.368,20.3,20.3,0,0,0,2.165,2.243,23.771,23.771,0,0,0,2.336,1.862,26.172,26.172,0,0,0,2.451,1.519c.337.182.679.36,1.021.521.271.128.547.249.821.368-.6-4.134-.991-8.22-1.2-12.391-.375-.167-.751-.332-1.115-.519" fill="#56548c"/>
      </g>
    </g>
    <g id="Grupo_1115870" data-name="Grupo 1115870">
      <g id="Grupo_1115869" data-name="Grupo 1115869" clip-path="url(#clip-path-11)">
        <rect id="Rectángulo_413661" data-name="Rectángulo 413661" width="26.84" height="59.411" transform="translate(302.298 221.298)" fill="url(#linear-gradient-5)"/>
      </g>
    </g>
    <g id="Grupo_1115872" data-name="Grupo 1115872">
      <g id="Grupo_1115871" data-name="Grupo 1115871" clip-path="url(#clip-path-2)">
        <path id="Trazado_877330" data-name="Trazado 877330" d="M317.6,258.576c.087-.036.169-.075.256-.108.273-.114.546-.227.813-.366a16.484,16.484,0,0,0,4.038-2.755,13.364,13.364,0,0,0,1.762-1.958,13.147,13.147,0,0,1-1.8,1.869,15.473,15.473,0,0,1-1.979,1.455,18.28,18.28,0,0,1-2.086,1.1c-.276.124-.565.237-.847.342l-.222.085c-.224.085-.46.156-.691.227.177-2.145.284-4.247.326-6.4.281-.138.561-.277.838-.428.038-.024.076-.044.114-.065.3-.171.606-.335.9-.532a16.915,16.915,0,0,0,1.946-1.418,16.422,16.422,0,0,0,1.789-1.75,13.419,13.419,0,0,0,1.557-2.129,12.935,12.935,0,0,1-1.607,2.042,16.137,16.137,0,0,1-1.82,1.657,19.182,19.182,0,0,1-1.963,1.32c-.318.189-.656.358-.985.534l-.033.016c-.243.121-.488.231-.734.341,0-1.943-.091-3.915-.277-5.85.215-.176.426-.358.635-.545.246-.219.489-.453.724-.691a18.141,18.141,0,0,0,1.337-1.528,16.939,16.939,0,0,0,1.187-1.736,14.55,14.55,0,0,0,.995-1.951,13.954,13.954,0,0,1-1.056,1.878,16.688,16.688,0,0,1-1.237,1.65,17.94,17.94,0,0,1-1.373,1.439c-.194.179-.391.357-.591.523-.218.182-.441.359-.664.528a66.209,66.209,0,0,0-1.1-7.183c.114-.131.227-.266.336-.4a14.96,14.96,0,0,0,1.493-2.261,32.163,32.163,0,0,0,1.325-3.258,31.7,31.7,0,0,1-1.392,3.192,14.479,14.479,0,0,1-1.392,2.019c-.133.166-.273.328-.418.486-.331-1.551-.52-2.324-.945-3.859-.4-1.454-.624-2.177-1.11-3.612.189.606.281.91.457,1.518-.189-.6-.287-.906-.492-1.507.454,1.445.659,2.172,1.028,3.633.389,1.541.56,2.316.855,3.87q-.289-.136-.576-.279-1.063-.532-2.1-1.174c-.916-.572-2.68-1.876-2.68-1.876s1.739,1.355,2.648,1.959c.742.493,1.511.945,2.279,1.355.154.083.31.163.464.241a66.092,66.092,0,0,1,.932,7.175c-.249-.129-.5-.26-.747-.394-.227-.122-.454-.253-.679-.383-.549-.32-1.1-.668-1.643-1.021s-1.074-.732-1.6-1.122-1.04-.8-1.532-1.236c.478.464.981.9,1.491,1.313s1.033.824,1.564,1.21,1.077.763,1.619,1.116c.275.179.555.357.836.524.239.144.476.285.716.424.139,1.925.186,3.885.138,5.815-.244-.115-.487-.225-.73-.344l-.033-.016c-.329-.172-.666-.333-.986-.508-.661-.36-1.348-.748-2-1.152s-1.3-.845-1.922-1.306a19.22,19.22,0,0,1-1.816-1.48,19.845,19.845,0,0,0,1.773,1.557c.612.486,1.251.957,1.892,1.392s1.3.862,1.974,1.251c.292.184.6.342.895.511.038.021.075.041.113.064.274.151.552.293.828.439-.092,2.13-.246,4.21-.47,6.331-.209-.12-.425-.238-.626-.366l-.2-.125c-.254-.156-.516-.318-.762-.485-.62-.418-1.265-.873-1.869-1.339s-1.2-.971-1.777-1.493a19.415,19.415,0,0,1-1.646-1.662,19.882,19.882,0,0,0,1.6,1.733c.558.548,1.141,1.08,1.735,1.578s1.207.991,1.838,1.437c.235.18.479.341.721.506.078.048.15.1.227.156.231.159.471.306.709.457-.391,2.819-.9,5.569-1.557,8.339-.142-.149-.284-.3-.422-.449-.175-.189-.347-.388-.516-.583-.415-.481-.823-.99-1.221-1.5s-.776-1.041-1.143-1.578-.724-1.088-1.045-1.661c.3.591.635,1.162.982,1.72s.707,1.113,1.084,1.651.768,1.072,1.166,1.581c.2.259.409.519.619.769.129.154.259.306.39.458-.484,1.892-1.07,3.79-1.738,5.625-.156-.151-.312-.3-.465-.454l-.025-.026c-.255-.272-.52-.536-.765-.806-.506-.559-1.029-1.151-1.51-1.747s-.949-1.227-1.39-1.867a19.516,19.516,0,0,1-1.232-2,19.985,19.985,0,0,0,1.166,2.054c.42.661.87,1.317,1.333,1.94s.948,1.245,1.455,1.834c.215.271.452.52.677.778.028.032.057.064.085.1.174.194.353.382.53.571-.776,2.019-1.6,3.967-2.5,5.932-.136-.157-.277-.314-.4-.475-.048-.062-.1-.124-.147-.186-.189-.233-.382-.473-.559-.714-.447-.6-.9-1.249-1.321-1.891s-.816-1.323-1.184-2.007a19.717,19.717,0,0,1-1.006-2.124,20.18,20.18,0,0,0,.936,2.175c.345.7.719,1.4,1.117,2.075s.809,1.341,1.258,1.976c.162.249.338.483.513.72.057.072.108.148.162.224.145.2.3.394.456.59a80.335,80.335,0,0,1-6.322,10.392l.785.578a81.355,81.355,0,0,0,6.327-10.588c.249,0,.5,0,.748-.021.094-.006.185-.017.279-.019.3-.02.591-.04.891-.085a16.582,16.582,0,0,0,4.733-1.313,13.575,13.575,0,0,0,2.313-1.292,13.149,13.149,0,0,1-2.321,1.193,15.541,15.541,0,0,1-2.354.744,18.492,18.492,0,0,1-2.338.369c-.3.028-.613.042-.914.05l-.239.009c-.207.008-.419,0-.627-.006.9-2,1.717-3.976,2.487-6.028.258-.033.516-.068.775-.113l.129-.024c.34-.064.683-.12,1.023-.212a16.987,16.987,0,0,0,2.3-.711,16.675,16.675,0,0,0,2.264-1.075,13.5,13.5,0,0,0,2.168-1.507,13.015,13.015,0,0,1-2.187,1.407,16.218,16.218,0,0,1-2.263.976,19.3,19.3,0,0,1-2.288.613c-.363.075-.737.126-1.107.186h-.036c-.217.028-.432.048-.648.069.661-1.863,1.238-3.788,1.712-5.707.189-.072.375-.145.563-.223.3-.126.61-.267.91-.416a18.119,18.119,0,0,0,1.763-1,17.244,17.244,0,0,0,1.688-1.247,14.713,14.713,0,0,0,1.577-1.511,14.126,14.126,0,0,1-1.611,1.422,16.465,16.465,0,0,1-1.706,1.149,17.753,17.753,0,0,1-1.768.909c-.241.107-.486.21-.729.3-.194.073-.39.141-.584.207.637-2.806,1.133-5.59,1.505-8.443.267-.1.534-.187.794-.3" fill="#56548c"/>
      </g>
    </g>
    <g id="Grupo_1115874" data-name="Grupo 1115874">
      <g id="Grupo_1115873" data-name="Grupo 1115873" clip-path="url(#clip-path-13)">
        <rect id="Rectángulo_413663" data-name="Rectángulo 413663" width="257.879" height="63.211" transform="translate(0.289 245.647)" fill="#b0c2e5"/>
      </g>
    </g>
    <g id="Grupo_1115876" data-name="Grupo 1115876">
      <g id="Grupo_1115875" data-name="Grupo 1115875" clip-path="url(#clip-path-14)">
        <rect id="Rectángulo_413664" data-name="Rectángulo 413664" width="257.878" height="63.211" transform="translate(144.643 249.155)" fill="#b0c2e5"/>
      </g>
    </g>
    <g id="Grupo_1115878" data-name="Grupo 1115878">
      <g id="Grupo_1115877" data-name="Grupo 1115877" clip-path="url(#clip-path-2)">
        <path id="Trazado_877333" data-name="Trazado 877333" d="M41.109,221.35a5.162,5.162,0,1,1-5.162-5.162,5.162,5.162,0,0,1,5.162,5.162Z" fill="#f9fbfc"/>
        <path id="Trazado_877334" data-name="Trazado 877334" d="M67.044,138.5a14.2,14.2,0,1,1-14.2-14.2,14.2,14.2,0,0,1,14.2,14.2" fill="#f9fbfc"/>
      </g>
    </g>
    <g id="Grupo_1115880" data-name="Grupo 1115880">
      <g id="Grupo_1115879" data-name="Grupo 1115879" clip-path="url(#clip-path-16)">
        <rect id="Rectángulo_413666" data-name="Rectángulo 413666" width="55.235" height="63.887" transform="translate(278.851 262.721) rotate(-30)" fill="#dbe4f4"/>
      </g>
    </g>
    <g id="Grupo_1115882" data-name="Grupo 1115882">
      <g id="Grupo_1115881" data-name="Grupo 1115881" clip-path="url(#clip-path-2)">
        <path id="Trazado_877336" data-name="Trazado 877336" d="M326.07,262.2c.279-.731.736-.6.492.172q-6.764,21.086-14.279,41.912h-1.3q7.084-21.2,15.085-42.084" fill="#1e3f72"/>
      </g>
    </g>
    <g id="Grupo_1115884" data-name="Grupo 1115884">
      <g id="Grupo_1115883" data-name="Grupo 1115883" clip-path="url(#clip-path-18)">
        <rect id="Rectángulo_413668" data-name="Rectángulo 413668" width="77.271" height="110.475" transform="translate(223.766 218.726) rotate(-30.001)" fill="#dbe4f4"/>
      </g>
    </g>
    <g id="Grupo_1115886" data-name="Grupo 1115886">
      <g id="Grupo_1115885" data-name="Grupo 1115885" clip-path="url(#clip-path-2)">
        <path id="Trazado_877338" data-name="Trazado 877338" d="M288.277,210.182c.087-1.428.568-1.45.523.026q-.868,27.737-1.736,55.478-.426,13.866-.851,27.727l-.186,6.931-.09,3.942h-1l.006-3.961.064-6.94q.193-13.88.657-27.755.92-27.749,2.61-55.447" fill="#1e3f72"/>
      </g>
    </g>
    <g id="Grupo_1115888" data-name="Grupo 1115888">
      <g id="Grupo_1115887" data-name="Grupo 1115887" clip-path="url(#clip-path-20)">
        <rect id="Rectángulo_413670" data-name="Rectángulo 413670" width="52.164" height="75.336" transform="translate(228.054 245.545) rotate(-30.001)" fill="url(#linear-gradient-6)"/>
      </g>
    </g>
    <g id="Grupo_1115890" data-name="Grupo 1115890">
      <g id="Grupo_1115889" data-name="Grupo 1115889" clip-path="url(#clip-path-2)">
        <path id="Trazado_877340" data-name="Trazado 877340" d="M270.876,304.285h-.751q-1.824-30.324-2.068-60.746c-.009-.835.47-.88.52-.019,1.216,20.241,2.057,40.507,2.3,60.766" fill="#4f5aff"/>
      </g>
    </g>
    <g id="Grupo_1115892" data-name="Grupo 1115892">
      <g id="Grupo_1115891" data-name="Grupo 1115891" clip-path="url(#clip-path-22)">
        <rect id="Rectángulo_413672" data-name="Rectángulo 413672" width="44.095" height="55.613" transform="translate(222.32 265.114) rotate(-30)" fill="url(#linear-gradient-7)"/>
      </g>
    </g>
    <g id="Grupo_1115894" data-name="Grupo 1115894">
      <g id="Grupo_1115893" data-name="Grupo 1115893" clip-path="url(#clip-path-2)">
        <path id="Trazado_877342" data-name="Trazado 877342" d="M259.8,304.286h-1.034q-5.137-19.922-9.033-40.149c-.118-.618.343-.747.509-.117,3.538,13.34,6.78,26.756,9.559,40.266" fill="#4f5aff"/>
      </g>
    </g>
    <g id="Grupo_1115896" data-name="Grupo 1115896">
      <g id="Grupo_1115895" data-name="Grupo 1115895" clip-path="url(#clip-path-24)">
        <rect id="Rectángulo_413674" data-name="Rectángulo 413674" width="75.501" height="92.655" transform="matrix(0.866, -0.5, 0.5, 0.866, 252.005, 240.548)" fill="#dbe4f4"/>
      </g>
    </g>
    <g id="Grupo_1115898" data-name="Grupo 1115898">
      <g id="Grupo_1115897" data-name="Grupo 1115897" clip-path="url(#clip-path-2)">
        <path id="Trazado_877344" data-name="Trazado 877344" d="M318.619,236.132c.388-1.088.851-.969.494.166q-10.734,34.141-22.371,67.987h-1.166q10.971-34.252,23.043-68.153" fill="#1e3f72"/>
      </g>
    </g>
    <g id="Grupo_1115900" data-name="Grupo 1115900">
      <g id="Grupo_1115899" data-name="Grupo 1115899" clip-path="url(#clip-path-26)">
        <rect id="Rectángulo_413676" data-name="Rectángulo 413676" width="55.236" height="63.887" transform="translate(70.092 262.723) rotate(-30)" fill="url(#linear-gradient-8)"/>
      </g>
    </g>
    <g id="Grupo_1115902" data-name="Grupo 1115902">
      <g id="Grupo_1115901" data-name="Grupo 1115901" clip-path="url(#clip-path-2)">
        <path id="Trazado_877346" data-name="Trazado 877346" d="M117.312,262.2c.278-.731.736-.6.492.172q-6.764,21.086-14.279,41.912h-1.3q7.084-21.2,15.085-42.084" fill="#4f5aff"/>
      </g>
    </g>
    <g id="Grupo_1115904" data-name="Grupo 1115904">
      <g id="Grupo_1115903" data-name="Grupo 1115903" clip-path="url(#clip-path-28)">
        <rect id="Rectángulo_413678" data-name="Rectángulo 413678" width="77.273" height="110.477" transform="matrix(0.866, -0.5, 0.5, 0.866, 15.008, 218.726)" fill="#dbe4f4"/>
      </g>
    </g>
    <g id="Grupo_1115906" data-name="Grupo 1115906">
      <g id="Grupo_1115905" data-name="Grupo 1115905" clip-path="url(#clip-path-2)">
        <path id="Trazado_877348" data-name="Trazado 877348" d="M79.519,210.182c.087-1.428.568-1.45.523.026q-.869,27.735-1.736,55.478-.426,13.866-.851,27.727l-.188,6.93-.09,3.942h-1l0-3.961.064-6.94q.193-13.879.657-27.755.919-27.748,2.61-55.447" fill="#1e3f72"/>
      </g>
    </g>
    <g id="Grupo_1115908" data-name="Grupo 1115908">
      <g id="Grupo_1115907" data-name="Grupo 1115907" clip-path="url(#clip-path-30)">
        <rect id="Rectángulo_413680" data-name="Rectángulo 413680" width="52.165" height="75.338" transform="matrix(0.866, -0.5, 0.5, 0.866, 19.297, 245.542)" fill="#dbe4f4"/>
      </g>
    </g>
    <g id="Grupo_1115910" data-name="Grupo 1115910">
      <g id="Grupo_1115909" data-name="Grupo 1115909" clip-path="url(#clip-path-2)">
        <path id="Trazado_877350" data-name="Trazado 877350" d="M62.118,304.285h-.754Q59.54,273.961,59.3,243.539c-.009-.835.469-.88.52-.019,1.216,20.241,2.057,40.507,2.3,60.766" fill="#1e3f72"/>
      </g>
    </g>
    <g id="Grupo_1115912" data-name="Grupo 1115912">
      <g id="Grupo_1115911" data-name="Grupo 1115911" clip-path="url(#clip-path-32)">
        <rect id="Rectángulo_413682" data-name="Rectángulo 413682" width="44.089" height="55.606" transform="matrix(0.866, -0.5, 0.5, 0.866, 13.567, 265.117)" fill="#dbe4f4"/>
      </g>
    </g>
    <g id="Grupo_1115914" data-name="Grupo 1115914">
      <g id="Grupo_1115913" data-name="Grupo 1115913" clip-path="url(#clip-path-2)">
        <path id="Trazado_877352" data-name="Trazado 877352" d="M51.04,304.286H50.006q-5.137-19.922-9.033-40.149c-.118-.618.343-.747.509-.117,3.537,13.34,6.78,26.756,9.559,40.266" fill="#1e3f72"/>
      </g>
    </g>
    <g id="Grupo_1115916" data-name="Grupo 1115916">
      <g id="Grupo_1115915" data-name="Grupo 1115915" clip-path="url(#clip-path-34)">
        <rect id="Rectángulo_413684" data-name="Rectángulo 413684" width="75.501" height="92.656" transform="matrix(0.866, -0.5, 0.5, 0.866, 43.247, 240.548)" fill="url(#linear-gradient-9)"/>
      </g>
    </g>
    <g id="Grupo_1115918" data-name="Grupo 1115918">
      <g id="Grupo_1115917" data-name="Grupo 1115917" clip-path="url(#clip-path-2)">
        <path id="Trazado_877354" data-name="Trazado 877354" d="M109.858,236.132c.388-1.088.851-.969.494.166q-10.734,34.141-22.371,67.987H86.815q10.969-34.252,23.043-68.153" fill="#4f5aff"/>
        <path id="Trazado_877355" data-name="Trazado 877355" d="M354.529,77.454v69.272a1.22,1.22,0,0,1-1.219,1.221H247.023a1.22,1.22,0,0,1-1.221-1.219V77.454a1.227,1.227,0,0,1,1.221-1.229H353.308a1.227,1.227,0,0,1,1.221,1.229" fill="#b0c2e5"/>
        <path id="Trazado_877356" data-name="Trazado 877356" d="M354.529,77.454v7.524H245.8V77.454a1.227,1.227,0,0,1,1.221-1.229h106.29a1.227,1.227,0,0,1,1.221,1.229" fill="#606bf1"/>
        <path id="Trazado_877357" data-name="Trazado 877357" d="M253.388,80.621a1.809,1.809,0,1,1-1.809-1.809,1.809,1.809,0,0,1,1.809,1.809" fill="#ec827d"/>
        <path id="Trazado_877358" data-name="Trazado 877358" d="M261.231,80.621a1.809,1.809,0,1,1-1.809-1.809,1.809,1.809,0,0,1,1.809,1.809" fill="#fbd15b"/>
        <path id="Trazado_877359" data-name="Trazado 877359" d="M269.08,80.621a1.809,1.809,0,1,1-1.809-1.809h0a1.809,1.809,0,0,1,1.809,1.809" fill="#b1b2f3"/>
        <rect id="Rectángulo_413685" data-name="Rectángulo 413685" width="58.534" height="52.853" transform="translate(289.656 89.586)" fill="#fff"/>
        <rect id="Rectángulo_413686" data-name="Rectángulo 413686" width="20.678" height="1.349" transform="translate(254.226 96.611)" fill="#fff"/>
        <rect id="Rectángulo_413687" data-name="Rectángulo 413687" width="30.955" height="1.35" transform="translate(254.226 103.34)" fill="#fff"/>
        <rect id="Rectángulo_413688" data-name="Rectángulo 413688" width="30.955" height="1.349" transform="translate(254.226 107.73)" fill="#fff"/>
        <rect id="Rectángulo_413689" data-name="Rectángulo 413689" width="30.955" height="1.349" transform="translate(254.226 112.119)" fill="#fff"/>
        <rect id="Rectángulo_413690" data-name="Rectángulo 413690" width="30.955" height="1.35" transform="translate(254.226 116.507)" fill="#fff"/>
        <rect id="Rectángulo_413691" data-name="Rectángulo 413691" width="30.955" height="1.349" transform="translate(254.226 120.896)" fill="#fff"/>
        <rect id="Rectángulo_413692" data-name="Rectángulo 413692" width="30.955" height="1.349" transform="translate(254.226 125.285)" fill="#fff"/>
        <rect id="Rectángulo_413693" data-name="Rectángulo 413693" width="30.955" height="1.349" transform="translate(254.226 129.674)" fill="#fff"/>
        <rect id="Rectángulo_413694" data-name="Rectángulo 413694" width="20.357" height="1.35" transform="translate(254.226 134.062)" fill="#fff"/>
        <rect id="Rectángulo_413695" data-name="Rectángulo 413695" width="7.27" height="39.89" transform="translate(294.765 96.067)" fill="#bee1f4"/>
        <rect id="Rectángulo_413696" data-name="Rectángulo 413696" width="7.27" height="39.89" transform="translate(308.447 96.067)" fill="#bee1f4"/>
        <rect id="Rectángulo_413697" data-name="Rectángulo 413697" width="7.27" height="39.89" transform="translate(322.129 96.067)" fill="#bee1f4"/>
        <rect id="Rectángulo_413698" data-name="Rectángulo 413698" width="7.27" height="39.89" transform="translate(335.811 96.067)" fill="#bee1f4"/>
      </g>
    </g>
    <g id="Grupo_1115920" data-name="Grupo 1115920">
      <g id="Grupo_1115919" data-name="Grupo 1115919" clip-path="url(#clip-path-36)">
        <rect id="Rectángulo_413700" data-name="Rectángulo 413700" width="7.269" height="10.755" transform="translate(294.765 125.202)" fill="url(#linear-gradient-10)"/>
      </g>
    </g>
    <g id="Grupo_1115922" data-name="Grupo 1115922">
      <g id="Grupo_1115921" data-name="Grupo 1115921" clip-path="url(#clip-path-37)">
        <rect id="Rectángulo_413702" data-name="Rectángulo 413702" width="7.27" height="16.347" transform="translate(308.447 119.61)" fill="url(#linear-gradient-11)"/>
      </g>
    </g>
    <g id="Grupo_1115924" data-name="Grupo 1115924">
      <g id="Grupo_1115923" data-name="Grupo 1115923" clip-path="url(#clip-path-38)">
        <rect id="Rectángulo_413704" data-name="Rectángulo 413704" width="7.27" height="29.514" transform="translate(322.129 106.443)" fill="url(#linear-gradient-12)"/>
      </g>
    </g>
    <rect id="Rectángulo_413706" data-name="Rectángulo 413706" width="7.27" height="23.48" transform="translate(335.811 112.477)" fill="#fbd15b"/>
    <g id="Grupo_1115926" data-name="Grupo 1115926">
      <g id="Grupo_1115925" data-name="Grupo 1115925" clip-path="url(#clip-path-2)">
        <path id="Trazado_877360" data-name="Trazado 877360" d="M282.672,183.493l-.259,113.347a6.465,6.465,0,0,1-6.468,6.437L86,302.837a6.478,6.478,0,0,1-6.438-6.468l.314-135.208a6.469,6.469,0,0,1,6.468-6.438l55.48.129a17.9,17.9,0,0,1,11,4.59L165.537,172.2a17.961,17.961,0,0,0,11.007,4.59l99.7.231a6.47,6.47,0,0,1,6.438,6.468" fill="#f4c44e"/>
        <path id="Trazado_877361" data-name="Trazado 877361" d="M250.141,259.353H129.656a6.177,6.177,0,0,1-6.177-6.176V90.132a6.177,6.177,0,0,1,6.177-6.176H250.141a6.177,6.177,0,0,1,6.176,6.176V253.177a6.177,6.177,0,0,1-6.176,6.176" fill="#878cf0"/>
        <rect id="Rectángulo_413707" data-name="Rectángulo 413707" width="111.174" height="140.101" transform="translate(134.311 92.841)" fill="#fff"/>
        <path id="Trazado_877362" data-name="Trazado 877362" d="M229.126,128.321H150.672a1.763,1.763,0,0,1,0-3.525h78.455a1.763,1.763,0,0,1,0,3.525" fill="#dbe4f4"/>
        <path id="Trazado_877363" data-name="Trazado 877363" d="M229.126,114.3H150.672a1.763,1.763,0,0,1-.084-3.525h78.539a1.763,1.763,0,0,1,0,3.525" fill="#dbe4f4"/>
        <path id="Trazado_877364" data-name="Trazado 877364" d="M229.126,142.341H150.672a1.763,1.763,0,0,1-.084-3.525h78.539a1.763,1.763,0,0,1,0,3.525" fill="#dbe4f4"/>
        <path id="Trazado_877365" data-name="Trazado 877365" d="M229.126,156.36H150.672a1.763,1.763,0,1,1-.084-3.525q.042,0,.084,0h78.455a1.763,1.763,0,0,1,0,3.525" fill="#dbe4f4"/>
        <path id="Trazado_877366" data-name="Trazado 877366" d="M229.126,170.38H150.672a1.763,1.763,0,0,1,0-3.525h78.455a1.763,1.763,0,0,1,0,3.525" fill="#dbe4f4"/>
        <path id="Trazado_877367" data-name="Trazado 877367" d="M229.126,184.4H150.672a1.763,1.763,0,0,1,0-3.525h78.455a1.763,1.763,0,0,1,0,3.525" fill="#dbe4f4"/>
        <path id="Trazado_877368" data-name="Trazado 877368" d="M194.119,198.418H150.672a1.763,1.763,0,0,1,0-3.525H194.12a1.763,1.763,0,1,1,.084,3.525q-.042,0-.084,0" fill="#bee1f4"/>
      </g>
    </g>
    <g id="Grupo_1115928" data-name="Grupo 1115928">
      <g id="Grupo_1115927" data-name="Grupo 1115927" clip-path="url(#clip-path-40)">
        <rect id="Rectángulo_413709" data-name="Rectángulo 413709" width="67.533" height="56.922" transform="matrix(0.866, -0.5, 0.5, 0.866, 146.424, 74.037)" fill="url(#linear-gradient-13)"/>
      </g>
    </g>
    <g id="Grupo_1115945" data-name="Grupo 1115945">
      <g id="Grupo_1115944" data-name="Grupo 1115944" clip-path="url(#clip-path-2)">
        <g id="Grupo_1115933" data-name="Grupo 1115933" style="mix-blend-mode: multiply;isolation: isolate">
          <g id="Grupo_1115932" data-name="Grupo 1115932">
            <g id="Grupo_1115931" data-name="Grupo 1115931" clip-path="url(#clip-path-42)">
              <g id="Grupo_1115930" data-name="Grupo 1115930">
                <g id="Grupo_1115929" data-name="Grupo 1115929" clip-path="url(#clip-path-42)">
                  <path id="Trazado_877370" data-name="Trazado 877370" d="M217.606,92.295H162.19a2.317,2.317,0,0,1-2.317-2.317v5.034a2.317,2.317,0,0,0,2.317,2.317h55.416a2.317,2.317,0,0,0,2.317-2.317V89.978a2.317,2.317,0,0,1-2.317,2.317" fill="#d1d3d4"/>
                </g>
              </g>
            </g>
          </g>
        </g>
        <g id="Grupo_1115938" data-name="Grupo 1115938" style="mix-blend-mode: multiply;isolation: isolate">
          <g id="Grupo_1115937" data-name="Grupo 1115937">
            <g id="Grupo_1115936" data-name="Grupo 1115936" clip-path="url(#clip-path-44)">
              <g id="Grupo_1115935" data-name="Grupo 1115935">
                <g id="Grupo_1115934" data-name="Grupo 1115934" clip-path="url(#clip-path-45)">
                  <path id="Trazado_877371" data-name="Trazado 877371" d="M282.672,192.938l-.259,113.347a6.465,6.465,0,0,1-6.468,6.437L86,312.281a6.477,6.477,0,0,1-6.438-6.467l.314-135.208a6.469,6.469,0,0,1,6.468-6.438l55.48.129a17.9,17.9,0,0,1,11,4.59l12.714,12.762a17.961,17.961,0,0,0,11.007,4.59l99.7.231a6.47,6.47,0,0,1,6.438,6.468" fill="#f1f2f2"/>
                </g>
              </g>
            </g>
          </g>
        </g>
        <path id="Trazado_877372" data-name="Trazado 877372" d="M385.155,322.1H31.8a4.682,4.682,0,0,1,0-9.364h353.36a4.682,4.682,0,0,1,0,9.364" fill="#e6f3f9"/>
        <g id="Grupo_1115943" data-name="Grupo 1115943" style="mix-blend-mode: multiply;isolation: isolate">
          <g id="Grupo_1115942" data-name="Grupo 1115942">
            <g id="Grupo_1115941" data-name="Grupo 1115941" clip-path="url(#clip-path-46)">
              <g id="Grupo_1115940" data-name="Grupo 1115940">
                <g id="Grupo_1115939" data-name="Grupo 1115939" clip-path="url(#clip-path-47)">
                  <path id="Trazado_877373" data-name="Trazado 877373" d="M330.871,308.969H31.8a4.682,4.682,0,1,1,0-9.364H330.871a4.682,4.682,0,1,1,0,9.364" fill="#e6f3f9"/>
                </g>
              </g>
            </g>
          </g>
        </g>
        <path id="Trazado_877374" data-name="Trazado 877374" d="M282.672,198.594l-.259,113.347a6.465,6.465,0,0,1-6.468,6.437L86,317.934a6.476,6.476,0,0,1-6.438-6.467l.314-135.208a6.469,6.469,0,0,1,6.468-6.438l55.48.129a17.9,17.9,0,0,1,11,4.59L165.533,187.3a17.961,17.961,0,0,0,11.007,4.59l99.7.231a6.47,6.47,0,0,1,6.438,6.468" fill="#fbd15b"/>
        <path id="Trazado_877375" data-name="Trazado 877375" d="M279.844,293.521l-.035,16.683a6.3,6.3,0,0,1-6.3,6.266l-185.073-.423a6.324,6.324,0,0,1-6.275-6.3l.035-16.225Z" fill="#fbd15b"/>
        <path id="Trazado_877376" data-name="Trazado 877376" d="M79.871,184.816a6.469,6.469,0,0,1,6.468-6.438l55.48.129a17.9,17.9,0,0,1,11,4.59l12.714,12.761a17.957,17.957,0,0,0,11.007,4.591l99.7.231a6.465,6.465,0,0,1,6.419,6.077l.019-8.163a6.47,6.47,0,0,0-6.438-6.468l-99.7-.231a17.957,17.957,0,0,1-11.007-4.591l-12.72-12.761a17.9,17.9,0,0,0-11-4.59l-55.48-.129a6.469,6.469,0,0,0-6.468,6.438l-.314,78.179c0-59.016.314-69.625.314-69.625" fill="#f7d98d"/>
      </g>
    </g>
    <g id="Grupo_1115947" data-name="Grupo 1115947">
      <g id="Grupo_1115946" data-name="Grupo 1115946" clip-path="url(#clip-path-48)">
        <rect id="Rectángulo_413717" data-name="Rectángulo 413717" width="95.546" height="95.546" transform="translate(248.978 216.755) rotate(-45)" fill="url(#linear-gradient-14)"/>
      </g>
    </g>
    <rect id="Rectángulo_413718" data-name="Rectángulo 413718" width="7.422" height="25.243" transform="translate(267.501 172.966) rotate(-45.005)" fill="#a5b7c6"/>
    <g id="Grupo_1115954" data-name="Grupo 1115954">
      <g id="Grupo_1115953" data-name="Grupo 1115953" clip-path="url(#clip-path-2)">
        <path id="Trazado_877378" data-name="Trazado 877378" d="M243.548,110.052a13.963,13.963,0,1,1,0-.005m0-1.763a35.474,35.474,0,1,0,25.084,10.391,35.474,35.474,0,0,0-25.084-10.391" fill="#fff"/>
        <g id="Grupo_1115952" data-name="Grupo 1115952" style="mix-blend-mode: multiply;isolation: isolate">
          <g id="Grupo_1115951" data-name="Grupo 1115951">
            <g id="Grupo_1115950" data-name="Grupo 1115950" clip-path="url(#clip-path-50)">
              <g id="Grupo_1115949" data-name="Grupo 1115949">
                <g id="Grupo_1115948" data-name="Grupo 1115948" clip-path="url(#clip-path-51)">
                  <path id="Trazado_877379" data-name="Trazado 877379" d="M266.821,120.49a32.913,32.913,0,1,1-46.546,0,32.914,32.914,0,0,1,46.546,0" fill="#fff"/>
                </g>
              </g>
            </g>
          </g>
        </g>
      </g>
    </g>
    <g id="Grupo_1115956" data-name="Grupo 1115956">
      <g id="Grupo_1115955" data-name="Grupo 1115955" clip-path="url(#clip-path-52)">
        <rect id="Rectángulo_413722" data-name="Rectángulo 413722" width="86.537" height="82.689" transform="translate(200.28 104.344)" fill="url(#linear-gradient-15)"/>
      </g>
    </g>
    <g id="Grupo_1115963" data-name="Grupo 1115963">
      <g id="Grupo_1115962" data-name="Grupo 1115962" clip-path="url(#clip-path-2)">
        <g id="Grupo_1115961" data-name="Grupo 1115961" style="mix-blend-mode: screen;isolation: isolate">
          <g id="Grupo_1115960" data-name="Grupo 1115960">
            <g id="Grupo_1115959" data-name="Grupo 1115959" clip-path="url(#clip-path-54)">
              <g id="Grupo_1115958" data-name="Grupo 1115958">
                <g id="Grupo_1115957" data-name="Grupo 1115957" clip-path="url(#clip-path-55)">
                  <path id="Trazado_877381" data-name="Trazado 877381" d="M267.817,121.538l-46.494,46.5a32.851,32.851,0,0,0,5.147,3.865l45.213-45.213a32.919,32.919,0,0,0-3.866-5.147m-25.87-10.648-31.273,31.272a32.862,32.862,0,0,0,5.6,20.02l45.693-45.694a32.871,32.871,0,0,0-20.019-5.6" fill="#8382ab"/>
                </g>
              </g>
            </g>
          </g>
        </g>
        <path id="Trazado_877382" data-name="Trazado 877382" d="M359.255,318.522c-2.588.351-12.936.237-12.649-1.028.13-.572,1.576-1.324,3.111-1.952,1.821-.752,3.757-1.355,3.757-1.355l-4.017-9.681,5.578-3.226,3.813,15.217Z" fill="#ffc8af"/>
      </g>
    </g>
    <g id="Grupo_1115965" data-name="Grupo 1115965">
      <g id="Grupo_1115964" data-name="Grupo 1115964" clip-path="url(#clip-path-56)">
        <rect id="Rectángulo_413726" data-name="Rectángulo 413726" width="12.935" height="3.331" transform="translate(346.32 315.541)" fill="url(#linear-gradient-16)"/>
      </g>
    </g>
    <g id="Grupo_1115967" data-name="Grupo 1115967">
      <g id="Grupo_1115966" data-name="Grupo 1115966" clip-path="url(#clip-path-2)">
        <path id="Trazado_877384" data-name="Trazado 877384" d="M342.382,321.911c-2.794.379-13.96.256-13.651-1.11.141-.617,1.7-1.428,3.358-2.106,1.965-.811,4.054-1.463,4.054-1.463l-3.56-10.382,6.019-3.481,3.34,16.357Z" fill="#ffc8af"/>
        <path id="Trazado_877385" data-name="Trazado 877385" d="M342.333,283.867c-3.322-.279-3.56-18.872-3.048-26.765s2.391-14.015,6.447-13.674,4.887,6.69,4.073,14.558-4.15,26.161-7.473,25.881" fill="#ffc8af"/>
        <path id="Trazado_877386" data-name="Trazado 877386" d="M358.269,233.07c-2.218.923-8.771-11.465-11.161-16.928s-3.3-10.2-.59-11.322,5.424,2.854,7.614,8.4,6.354,18.927,4.137,19.85" fill="#ffc8af"/>
        <path id="Trazado_877387" data-name="Trazado 877387" d="M329.668,233.422c-.118-2.127,15.5-3.576,19.92-3.821s9.1-.176,9.233,2.209-4.514,2.968-8.933,3.213-20.1.526-20.22-1.6" fill="#ffc8af"/>
        <path id="Trazado_877388" data-name="Trazado 877388" d="M326.483,284.854c-3.257-.711-1.065-19.175.474-26.934s4.2-13.583,8.178-12.715,3.971,7.272,2.137,14.966-7.532,25.394-10.789,24.684" fill="#ffc8af"/>
        <path id="Trazado_877389" data-name="Trazado 877389" d="M303.119,215.316c1.392-1.588,13.459,8.226,16.76,11.119s6.567,6.193,5.007,7.973-5.258-1.031-8.558-3.925-14.6-13.579-13.208-15.167" fill="#ffc8af"/>
        <path id="Trazado_877390" data-name="Trazado 877390" d="M349.887,250.833l-20.682-.86-.906-35.384,1.428-8.886,9.553-3.513,6.152,1.174a7.217,7.217,0,0,1,5.861,7.343l-2.242,25.043Z" fill="#ffc8af"/>
        <path id="Trazado_877391" data-name="Trazado 877391" d="M341.586,197.831v7.111s-1.5.9-5.018.9c-1.9,0-2.321-.9-2.321-.9v-2.629Z" fill="#ffc8af"/>
        <path id="Trazado_877392" data-name="Trazado 877392" d="M338.071,191.42c.009.2.023.377.03.554.006.063.019.124.027.193.482,3.165-1.182,6.795-4.2,7.6a.518.518,0,0,1-.067.02c-.026,0-.063.013-.106.018-.649.153-3.005.611-3.981-.251a8.142,8.142,0,0,1-2.436-4.39,18.3,18.3,0,0,1,0-2.342c-.048-.444-.441-1.808-.512-2.411a5.363,5.363,0,0,1,4.375-6.195c.094-.016.188-.03.282-.041,5.088-.561,6.357,3.815,6.59,7.248" fill="#ffc8af"/>
      </g>
    </g>
    <g id="Grupo_1115969" data-name="Grupo 1115969">
      <g id="Grupo_1115968" data-name="Grupo 1115968" clip-path="url(#clip-path-58)">
        <rect id="Rectángulo_413728" data-name="Rectángulo 413728" width="27.831" height="38.868" transform="translate(325.192 202.903)" fill="url(#linear-gradient-17)"/>
      </g>
    </g>
    <g id="Grupo_1115971" data-name="Grupo 1115971">
      <g id="Grupo_1115970" data-name="Grupo 1115970" clip-path="url(#clip-path-2)">
        <path id="Trazado_877394" data-name="Trazado 877394" d="M323.779,234.925c-2.306-.6-.093-14.313,1.28-20.065s3.481-10.039,6.3-9.313,2.588,5.5,1.007,11.2-6.278,18.776-8.584,18.181" fill="#ffc8af"/>
        <path id="Trazado_877395" data-name="Trazado 877395" d="M298.828,210.518c.553-.619,3.567,2.342,4.536,3.107.147.115.249.184.287.179s.035-.056.01-.132c-.157-.473-1.345-2.131-.768-2.654.634-.574,3.006,1.677,3.81,3.115.044.079.1.167.137.24.652,1.41.791,2.355-.085,3.649-1.4,2.067-4.763-.813-5.876-1.838a7.785,7.785,0,0,1-1.974-3.3,2.985,2.985,0,0,1-.078-2.362" fill="#ffc8af"/>
      </g>
    </g>
    <g id="Grupo_1115973" data-name="Grupo 1115973">
      <g id="Grupo_1115972" data-name="Grupo 1115972" clip-path="url(#clip-path-60)">
        <rect id="Rectángulo_413730" data-name="Rectángulo 413730" width="23.285" height="31.212" transform="translate(326.091 180.118)" fill="url(#linear-gradient-18)"/>
      </g>
    </g>
    <g id="Grupo_1115975" data-name="Grupo 1115975">
      <g id="Grupo_1115974" data-name="Grupo 1115974" clip-path="url(#clip-path-61)">
        <rect id="Rectángulo_413731" data-name="Rectángulo 413731" width="18.409" height="69.211" transform="translate(338.079 236.165)" fill="url(#linear-gradient-19)"/>
      </g>
    </g>
    <g id="Grupo_1115977" data-name="Grupo 1115977">
      <g id="Grupo_1115976" data-name="Grupo 1115976" clip-path="url(#clip-path-62)">
        <rect id="Rectángulo_413732" data-name="Rectángulo 413732" width="22.861" height="70.124" transform="translate(322.511 236.904)" fill="url(#linear-gradient-20)"/>
      </g>
    </g>
    <g id="Grupo_1115979" data-name="Grupo 1115979">
      <g id="Grupo_1115978" data-name="Grupo 1115978" clip-path="url(#clip-path-63)">
        <rect id="Rectángulo_413733" data-name="Rectángulo 413733" width="13.854" height="3.395" transform="translate(328.528 318.701)" fill="url(#linear-gradient-21)"/>
      </g>
    </g>
    <g id="Grupo_1115981" data-name="Grupo 1115981">
      <g id="Grupo_1115980" data-name="Grupo 1115980" clip-path="url(#clip-path-64)">
        <rect id="Rectángulo_413734" data-name="Rectángulo 413734" width="20.144" height="19.738" transform="translate(329.943 48.559)" fill="#6ec7e3"/>
      </g>
    </g>
    <g id="Grupo_1115983" data-name="Grupo 1115983">
      <g id="Grupo_1115982" data-name="Grupo 1115982" clip-path="url(#clip-path-2)">
        <path id="Trazado_877401" data-name="Trazado 877401" d="M334.936,54.276A4.623,4.623,0,0,0,341.122,61l2.956,2.956a.319.319,0,0,0,.451,0h0l.83-.83a.319.319,0,0,0,0-.451h0L342.4,59.714a4.623,4.623,0,0,0-7.468-5.438m5.609,4.86a2.809,2.809,0,1,1,0-3.973,2.81,2.81,0,0,1,0,3.973" fill="#f9fbfc"/>
        <rect id="Rectángulo_413735" data-name="Rectángulo 413735" width="69.815" height="0.746" transform="translate(256.854 62.566)" fill="#f9fbfc"/>
      </g>
    </g>
    <g id="Grupo_1115985" data-name="Grupo 1115985">
      <g id="Grupo_1115984" data-name="Grupo 1115984" clip-path="url(#clip-path-66)">
        <path id="Trazado_877402" data-name="Trazado 877402" d="M338.6,267.7A105.783,105.783,0,0,0,343.747,253s.426,13.47-4.989,25.548Z" fill="#d1d3d4"/>
      </g>
    </g>
    <rect id="Rectángulo_413738" data-name="Rectángulo 413738" width="51.45" height="29.278" transform="translate(57.595 109.22)" fill="#878cf0"/>
    <path id="Trazado_877403" data-name="Trazado 877403" d="M57.6,138.5,83.32,118.6l25.724,19.9Z" fill="#737ee5"/>
    <path id="Trazado_877404" data-name="Trazado 877404" d="M109.045,109.219,83.32,129.246,57.595,109.219Z" fill="#929cf7"/>
    <g id="Grupo_1115987" data-name="Grupo 1115987">
      <g id="Grupo_1115986" data-name="Grupo 1115986" clip-path="url(#clip-path)">
        <path id="Trazado_877405" data-name="Trazado 877405" d="M61.623,97.48H27.041a2.446,2.446,0,0,1-2.446-2.445V26.113a2.446,2.446,0,0,1,2.446-2.445H79.754A2.446,2.446,0,0,1,82.2,26.113V72.144a2.453,2.453,0,0,1-.529,1.518L63.54,96.554a2.45,2.45,0,0,1-1.917.925M29.487,92.587H60.441l16.869-21.3V28.552H29.487Z" fill="#dbe4f4"/>
        <path id="Trazado_877406" data-name="Trazado 877406" d="M61.622,97.481a2.444,2.444,0,0,1-2.444-2.444V72.144A2.446,2.446,0,0,1,61.624,69.7H79.755a2.446,2.446,0,0,1,1.917,3.965L63.541,96.554a2.447,2.447,0,0,1-1.919.925M64.07,74.588V88.007L74.7,74.588Z" fill="#dbe4f4"/>
        <rect id="Rectángulo_413739" data-name="Rectángulo 413739" width="34.012" height="4.892" transform="translate(36.678 35.986)" fill="#dbe4f4"/>
        <rect id="Rectángulo_413740" data-name="Rectángulo 413740" width="34.012" height="4.892" transform="translate(36.678 45.307)" fill="#dbe4f4"/>
        <rect id="Rectángulo_413741" data-name="Rectángulo 413741" width="26.947" height="4.892" transform="translate(36.678 54.631)" fill="#dbe4f4"/>
        <path id="Trazado_877407" data-name="Trazado 877407" d="M131.418,76.414h-35.8a2.531,2.531,0,0,1-2.532-2.532V2.531A2.53,2.53,0,0,1,95.611,0h54.577a2.531,2.531,0,0,1,2.533,2.529V50.183a2.548,2.548,0,0,1-.548,1.572L133.4,75.455a2.529,2.529,0,0,1-1.984.957M98.147,71.348h32.047L147.658,49.3V5.062H98.147Z" fill="#dbe4f4"/>
        <path id="Trazado_877408" data-name="Trazado 877408" d="M131.418,76.414a2.53,2.53,0,0,1-2.536-2.524V50.183a2.531,2.531,0,0,1,2.532-2.532h18.771a2.531,2.531,0,0,1,1.984,4.1L133.4,75.455a2.529,2.529,0,0,1-1.984.957m2.532-23.7V66.6l11-13.893Z" fill="#dbe4f4"/>
        <rect id="Rectángulo_413742" data-name="Rectángulo 413742" width="35.213" height="5.064" transform="translate(105.591 12.749)" fill="#d4ebf8"/>
        <rect id="Rectángulo_413743" data-name="Rectángulo 413743" width="35.213" height="5.064" transform="translate(105.591 22.402)" fill="#dbe4f4"/>
        <rect id="Rectángulo_413744" data-name="Rectángulo 413744" width="27.898" height="5.064" transform="translate(105.591 32.054)" fill="#dbe4f4"/>
        <path id="Trazado_877409" data-name="Trazado 877409" d="M180.251,61.3H161.559a1.323,1.323,0,0,1-1.322-1.322V22.724a1.321,1.321,0,0,1,1.32-1.323h28.494a1.322,1.322,0,0,1,1.322,1.32V47.6a1.33,1.33,0,0,1-.286.821l-9.8,12.373a1.322,1.322,0,0,1-1.036.5m-17.37-2.645h16.731l9.118-11.512V24.044H162.881Z" fill="#dbe4f4"/>
        <path id="Trazado_877410" data-name="Trazado 877410" d="M180.248,61.3a1.32,1.32,0,0,1-1.321-1.321h0V47.6a1.322,1.322,0,0,1,1.322-1.322h9.8a1.322,1.322,0,0,1,1.036,2.143l-9.8,12.373a1.324,1.324,0,0,1-1.037.5m1.323-12.373v7.25l5.744-7.253Z" fill="#dbe4f4"/>
        <rect id="Rectángulo_413745" data-name="Rectángulo 413745" width="18.384" height="2.644" transform="translate(166.767 28.057)" fill="#d4ebf8"/>
        <rect id="Rectángulo_413746" data-name="Rectángulo 413746" width="18.384" height="2.644" transform="translate(166.767 33.097)" fill="#dbe4f4"/>
        <rect id="Rectángulo_413747" data-name="Rectángulo 413747" width="14.565" height="2.644" transform="translate(166.767 38.136)" fill="#dbe4f4"/>
        <path id="Trazado_877411" data-name="Trazado 877411" d="M279.844,293.521l-.035,16.683a6.3,6.3,0,0,1-6.3,6.266l-185.073-.423a6.324,6.324,0,0,1-6.275-6.3l.035-16.225Z" fill="#f4c44e"/>
        <rect id="Rectángulo_413748" data-name="Rectángulo 413748" width="197.636" height="6.206" transform="translate(82.195 282.356)" fill="#f4c44e"/>
        <path id="Trazado_877412" data-name="Trazado 877412" d="M311.015,161.071l11.212-6.473v12.946Z" fill="#dbe4f4"/>
        <path id="Trazado_877413" data-name="Trazado 877413" d="M323.329,161.071l11.212-6.473v12.946Z" fill="#dbe4f4"/>
        <path id="Trazado_877414" data-name="Trazado 877414" d="M236.168,32.836a16.4,16.4,0,0,0-2.047-6.992l2.021-1.13a18.741,18.741,0,0,0-3.91-4.882l-1.544,1.735a16.325,16.325,0,0,0-6.385-3.51l.634-2.223-.03-.008a18.677,18.677,0,0,0-5.1-.71c-.367,0-.732.01-1.1.032l.135,2.318a16.365,16.365,0,0,0-6.994,2.041l-1.129-2.028a18.752,18.752,0,0,0-4.886,3.908l1.74,1.544a16.307,16.307,0,0,0-3.517,6.38l-2.224-.634-.012.043a18.712,18.712,0,0,0-.711,5.1c0,.361.01.722.032,1.078l2.318-.135a16.354,16.354,0,0,0,2.036,7l-2.03,1.127a18.708,18.708,0,0,0,3.908,4.889l1.546-1.736A16.343,16.343,0,0,0,215.3,49.56l-.636,2.223.058.017a18.762,18.762,0,0,0,5.1.71c.376,0,.753-.011,1.126-.035l-.135-2.317A16.383,16.383,0,0,0,227.8,48.1l1.133,2.021a18.735,18.735,0,0,0,4.879-3.921l-1.738-1.543a16.3,16.3,0,0,0,3.5-6.387l2.225.63v-.014a18.67,18.67,0,0,0,.71-5.1c0-.372-.01-.744-.033-1.112ZM215.755,48.169h0l.114-.4Zm13.6-11.654a9.9,9.9,0,1,1,.377-2.7,9.9,9.9,0,0,1-.377,2.7" fill="#dbe4f4"/>
        <path id="Trazado_877415" data-name="Trazado 877415" d="M264.628,25.775l-1.545.3a11.663,11.663,0,0,0-1.236-3.407l1.373-.76a13.18,13.18,0,0,0-4.142-4.533l-.876,1.3a11.613,11.613,0,0,0-3.284-1.543l.433-1.495-.07-.018a13.108,13.108,0,0,0-6.064-.269l.3,1.544a11.6,11.6,0,0,0-3.41,1.227l-.756-1.374a13.162,13.162,0,0,0-4.545,4.13l1.291.879a11.622,11.622,0,0,0-1.547,3.279l-1.5-.435-.03.1a13.114,13.114,0,0,0-.269,6.031l1.543-.292a11.657,11.657,0,0,0,1.213,3.414l-1.374.752a13.168,13.168,0,0,0,4.117,4.556l.88-1.287a11.66,11.66,0,0,0,3.278,1.553l-.44,1.5.135.039a13.19,13.19,0,0,0,3.593.5,13.029,13.029,0,0,0,2.546-.251l-.306-1.545a11.642,11.642,0,0,0,3.4-1.245l.766,1.371a13.156,13.156,0,0,0,4.52-4.154l-1.3-.874a11.649,11.649,0,0,0,1.537-3.286l1.494.426.01-.035a13.137,13.137,0,0,0,.257-6.1M251.7,36.137a7.85,7.85,0,1,1,7.546-5.708,7.85,7.85,0,0,1-7.546,5.708" fill="#dbe4f4"/>
        <circle id="Elipse_11576" data-name="Elipse 11576" cx="14.2" cy="14.2" r="14.2" transform="translate(364.335 180.707) rotate(-5.655)" fill="#dbe4f4"/>
        <path id="Trazado_877416" data-name="Trazado 877416" d="M314.729,180.118a5.162,5.162,0,1,1-5.162-5.162,5.162,5.162,0,0,1,5.162,5.162" fill="#dbe4f4"/>
        <path id="Trazado_877417" data-name="Trazado 877417" d="M48.783,110.85l-4.807,17.958-13.15-13.146Z" fill="#dbe4f4"/>
        <rect id="Rectángulo_413749" data-name="Rectángulo 413749" width="11.668" height="9.966" transform="translate(27.408 125.179) rotate(-45)" fill="#dbe4f4"/>
        <path id="Trazado_877418" data-name="Trazado 877418" d="M350.086,58.422A9.865,9.865,0,0,1,340.23,68.3H260.112a9.869,9.869,0,1,1,0-19.739h80.1a9.868,9.868,0,0,1,9.874,9.862v0" fill="#dbe4f4"/>
        <rect id="Rectángulo_413750" data-name="Rectángulo 413750" width="67.489" height="38.405" transform="translate(274.126 16.897)" fill="#fbd15b"/>
        <path id="Trazado_877419" data-name="Trazado 877419" d="M274.126,55.3,307.87,29.2l33.743,26.1Z" fill="#f4c44e"/>
        <path id="Trazado_877420" data-name="Trazado 877420" d="M341.615,16.9l-33.744,26.27L274.126,16.9Z" fill="#ffe197"/>
      </g>
    </g>
  </g>
</svg>
