<svg xmlns="http://www.w3.org/2000/svg" xmlns:xlink="http://www.w3.org/1999/xlink" width="505" height="265.531" viewBox="0 0 505 265.531">
  <defs>
    <clipPath id="clip-path">
      <rect id="Rectángulo_413350" data-name="Rectángulo 413350" width="464.464" height="253.16" fill="none"/>
    </clipPath>
    <clipPath id="clip-path-3">
      <path id="Trazado_876206" data-name="Trazado 876206" d="M50.107,198.374a44.528,44.528,0,0,1,2.414,12.348c.443,7.213-5.863,7.084-5.186.764.346-3.23-2.42-7.444-5.208-10.794a62.048,62.048,0,0,0-8.353,3.61,54.809,54.809,0,0,1,5.028,7.273c3.629,6.437-4.269,9.313-5.63,2.415-.387-1.965-2.556-4.359-4.892-6.324-6.6,4.7-8.6,8.959-8.6,8.959a80.469,80.469,0,0,0,4.884,7.816,9.527,9.527,0,0,0,4.987.227c3.32-1.212,5.582-3.479,6.491-.762.742,2.219-1.842,4.945-6.844,6.284a44.611,44.611,0,0,0,6.012,5.514,13.979,13.979,0,0,0,4.219-1.782c2.81-2.021,3.669-5.688,5.956-5.518,2.043.153,2.86,4.87-4.627,10.725a29.445,29.445,0,0,0,10.525,2.965c1.577-1.93,2.873-3.842,3.112-5.145.678-3.7-.985-5.964,1.732-6.269,2.293-.257,5.948,3.711,2.255,11.2a38.524,38.524,0,0,0,9.956-2.913c.674-2.338.87-4.705-.053-6.566-2.8-5.656,4.478-6.851,4.4,4.386h0c10.474-1.153,5.98-9.042,5.98-9.042,7.057-3.428,7.252-7.35,5.874-12.285-6.39,11.788-12.114,4.736-8.718,2.945,2.166-1.142,4.354-5.586,4.926-10.221a27.6,27.6,0,0,0-10.06-7.765c2.175,4.427,2.461,8.372-1.689,15.151-2.859,4.669-7.82,2.463-5.564-3.026,2.7-6.57,2.093-12.3-2.611-14.821a32.276,32.276,0,0,0-3.357-.175,33.624,33.624,0,0,0-7.36.825" fill="none"/>
    </clipPath>
    <clipPath id="clip-path-5">
      <path id="Trazado_876212" data-name="Trazado 876212" d="M223.345,48.034c1.481,2.588,3.4,5.088,5.224,5.8,6.391,2.509,2.251,9.6-3.3,4.987a53.3,53.3,0,0,1-6.111-6.1,60.4,60.4,0,0,0-4.924,7.4c2.734,3.263,6.3,6.655,9.464,6.885,6.191.451,5.215,6.534-1.638,4.851a43.586,43.586,0,0,1-11.444-4.472,32.357,32.357,0,0,0-2.493,10.184c1.6,4.959,7,6.541,13.786,5.092,5.667-1.211,6.923,3.94,1.937,5.873-7.236,2.808-10.976,1.844-14.85-1.018a26.944,26.944,0,0,0,5.707,11.02c4.553.258,9.2-1.07,10.679-2.952,2.313-2.951,8.092,3.778-4.349,7.863,4.5,2.185,8.3,2.681,12.828-3.5,0,0,6.8,5.693,9.73-4.171-10.812-1.88-8.4-8.666-3.449-4.988,1.627,1.21,3.936,1.434,6.3,1.195a37.7,37.7,0,0,0,4.534-9.059c-7.84,2.243-11.016-1.961-10.37-4.118.532-1.777,1.6-1.358,3.441-.938a12.553,12.553,0,0,0,2.885.365c1.3,0,3.356-.913,5.486-2.092A28.78,28.78,0,0,0,251.4,65.511c-6.932,6.174-11.322,4.566-11.112,2.577.234-2.227,3.909-2.413,6.341-4.761a13.686,13.686,0,0,0,2.446-3.743,43.6,43.6,0,0,0-4.25-6.738c-2.159,4.573-5.228,6.58-7.231,5.48-2.452-1.346.121-3.125,1.862-6.1a9.271,9.271,0,0,0,.652-4.83,78.576,78.576,0,0,0-6.658-6.056s-4.438,1.178-10.107,6.7" fill="none"/>
    </clipPath>
    <clipPath id="clip-path-7">
      <path id="Trazado_876216" data-name="Trazado 876216" d="M263.168,231.616c51.374-7.236,141.117,16.33,141.117,16.33,1.414-20.055,39.753-212.273,39.753-212.273C418.968,24.846,303.931,8.957,303.931,8.957Z" fill="#dbe4f4"/>
    </clipPath>
    <clipPath id="clip-path-9">
      <rect id="Rectángulo_413340" data-name="Rectángulo 413340" width="81.051" height="81.051" transform="translate(289.732 120.942)" fill="none"/>
    </clipPath>
    <clipPath id="clip-path-10">
      <rect id="Rectángulo_413341" data-name="Rectángulo 413341" width="19.635" height="25.569" transform="translate(344.128 136.514)" fill="none"/>
    </clipPath>
    <clipPath id="clip-path-11">
      <path id="Trazado_876310" data-name="Trazado 876310" d="M148.585,62.768h0M145,58.935c-2.295,1.221-2.757,5.913-1.034,7.308,1.627,1.318,4.3-2.956,4.591-3.433-.249.416-2.16,3.733-.133,3.983,2.164.266,2.967-4.873,2.967-4.873s.028,3.89,2.585,3.7-.487-4.456-.487-4.456,4.106,3.885,5.58,2.895-2.882-4.034-2.882-4.034c4.134.728,10.45.429,3.435-1.823a23.891,23.891,0,0,0-7.3-1.246c-4.939,0-7.319,1.978-7.319,1.978" fill="none"/>
    </clipPath>
    <clipPath id="clip-path-12">
      <path id="Trazado_876311" data-name="Trazado 876311" d="M99.991,50.851c-7.352.48-1.3,2.3,2.89,2.6,0,0-4.966,1.9-3.777,3.214s6.116-1.455,6.116-1.455-3.99,3.4-1.554,4.2,3.407-2.962,3.407-2.962-.47,5.181,1.694,5.448c2.027.249.979-3.431.839-3.9.166.533,1.721,5.328,3.619,4.445,2.011-.935,2.7-5.6.773-7.341,0,0-3.166-4.325-12.087-4.325-.612,0-1.252.02-1.92.064" fill="none"/>
    </clipPath>
  </defs>
  <g id="Grupo_1116003" data-name="Grupo 1116003" transform="translate(-809.711 -8521.629)">
    <rect id="Rectángulo_412891" data-name="Rectángulo 412891" width="505" height="253" transform="translate(809.711 8534)" fill="none"/>
    <path id="Trazado_877423" data-name="Trazado 877423" d="M275.407,237.267c-65.909-29.291-75.069-29.423-135.888-7.841-65.888,23.38-104.254,5.187-107.8-28.036C25.691,144.8,152.9,158.943,141.821,86.874c-8.161-53.1,27.695-77.934,75.122-85.18,46.928-7.17,79.772,7.714,74.575,58.505-2.874,28.1-13.236,46.023,24.34,57.82,38.87,12.2,99.364,5.779,109.871,58.925,10.414,52.672-88.707,87.708-150.323,60.324" transform="translate(803.511 8521.628)" fill="#dbe4f4"/>
    <g id="Grupo_1115627" data-name="Grupo 1115627" transform="translate(829.711 8534)">
      <g id="Grupo_1115626" data-name="Grupo 1115626" clip-path="url(#clip-path)">
        <g id="Grupo_1115601" data-name="Grupo 1115601">
          <g id="Grupo_1115600" data-name="Grupo 1115600" clip-path="url(#clip-path)">
            <path id="Trazado_876204" data-name="Trazado 876204" d="M77.938,202.552c.627-6.229,3.255-10.079,13.435-21.13s.384-12.206-5-6.449S76.9,194.834,76.9,194.834s-3.434-14.164,3.058-25.014,5.079-21.5-1.6-18.905-7.763,21.623-6.725,30.032a58.075,58.075,0,0,1-8.528-23.5c-1.6-13.4-9.2-17.712-13.252-16.611-5.629,1.531,1.175,7.705,6.571,17.4,4.838,8.691,8.634,18.14,10.457,21.279,0,0-14.412-19.544-25.743-19.774s-8.5,7.145-2.662,9.07,20.942,8.413,28.925,16.456c0,0-20.768-9.509-26.425-.534s3.138,9.937,10.692,6.138a16.911,16.911,0,0,1,20.178,3.074,21.984,21.984,0,0,0-13.406-.288c-7.108,1.936-8.658,8.554-6.2,10.272,2.929,2.046,6.79-1.681,13.456-4.807s8.035,5.157,9.02,8.753,2.376,3.116,3.225-5.325" fill="#60dce2"/>
            <path id="Trazado_876205" data-name="Trazado 876205" d="M39.7,163.948c.292.073.728.151,1.268.3s1.2.329,1.935.6c.744.244,1.562.58,2.45.952l1.368.623,1.439.721,1.492.814,1.528.9c1.026.632,2.074,1.306,3.113,2.028s2.084,1.471,3.1,2.256a109.436,109.436,0,0,1,10.6,9.34c1.276,1.273,2.32,2.373,3.074,3.188-.149-.3-.3-.6-.449-.9q-.371-.694-.743-1.4l-.8-1.4a27.193,27.193,0,0,1-1.47-2.962c-.441-1.012-.848-2.039-1.237-3.07-1.522-4.137-2.864-8.318-4.221-12.2-.682-1.941-1.328-3.82-1.981-5.587s-1.3-3.426-1.941-4.938-1.271-2.88-1.868-4.073a34.154,34.154,0,0,0-1.687-3.013c-.518-.807-.953-1.42-1.274-1.824l-.5-.613.532.583a19.65,19.65,0,0,1,1.377,1.762c.545.794,1.181,1.78,1.828,2.957s1.348,2.522,2.027,4.028c1.363,3.01,2.8,6.588,4.181,10.472s2.775,8.053,4.323,12.147c.381,1.026.772,2.046,1.2,3.043a26.053,26.053,0,0,0,1.4,2.9q.4.709.788,1.412.375.719.746,1.432l.7,1.428.646,1.427c.3.69.582,1.377.848,2.062-.068-1.023-.141-2.4-.18-4.017a92.055,92.055,0,0,1,.594-13.154c.141-1.19.325-2.374.526-3.536.1-.581.221-1.154.329-1.721q.189-.846.373-1.669.213-.816.417-1.6c.154-.518.3-1.027.451-1.518s.325-.962.48-1.42l.5-1.31c.351-.826.675-1.583,1.012-2.231.307-.662.647-1.2.9-1.662s.5-.789.648-1.028l.232-.361-.228.364c-.145.24-.378.58-.636,1.034s-.577,1.006-.877,1.67c-.329.651-.644,1.41-.985,2.239l-.483,1.312-.462,1.423c-.149.491-.285,1-.434,1.519q-.195.785-.4,1.6-.174.822-.354,1.668c-.1.568-.217,1.139-.309,1.72-.188,1.161-.358,2.344-.485,3.532a91.746,91.746,0,0,0-.445,13.119c.092,2.613.263,4.575.349,5.448.254.71.5,1.415.716,2.106.581,1.807,1,3.553,1.359,5.169.012.062.022.122.034.184.041-.125.085-.257.136-.406.126-.393.3-.861.494-1.4.211-.533.427-1.144.7-1.794s.563-1.359.9-2.094c.321-.742.709-1.5,1.093-2.3s.831-1.589,1.274-2.4l.706-1.207c.233-.407.473-.811.735-1.2.512-.789,1.006-1.59,1.562-2.331l.8-1.118c.269-.365.561-.706.834-1.052s.548-.68.813-1.011.562-.623.832-.924c.548-.593,1.043-1.175,1.57-1.645l1.391-1.327,1.147-.94,1-.815-.988.83-1.132.954-1.371,1.345c-.519.476-1,1.065-1.543,1.664-.265.3-.548.606-.816.933s-.527.674-.8,1.02-.553.693-.817,1.06-.519.747-.783,1.125c-.543.746-1.024,1.551-1.523,2.344-.254.394-.489.8-.715,1.208l-.685,1.212c-.43.815-.85,1.619-1.234,2.409s-.747,1.557-1.055,2.3c-.327.736-.612,1.441-.868,2.1s-.471,1.259-.673,1.792c-.182.541-.352,1.008-.471,1.4-.2.62-.317,1.027-.356,1.168q.192,1.065.318,2.044c.048.162.068.247.068.247l-.033.007c.045.375.084.74.112,1.093q.045.5.088.971.021.469.04.906c.026.58.051,1.113.033,1.6s-.009.912-.025,1.285-.055.69-.075.947c-.042.514-.064.787-.064.787s.006-.274.017-.789c.006-.257.013-.574.02-.947-.011-.372-.024-.8-.039-1.28s-.052-1.008-.1-1.583c-.026-.287-.052-.586-.08-.9s-.084-.628-.129-.959-.095-.688-.154-1.046l-.025.006s-.022-.1-.07-.268a7.847,7.847,0,0,0-.272-.746l-.245-.516-.335-.583c-.14-.2-.279-.411-.443-.625s-.348-.431-.559-.639a7.913,7.913,0,0,0-1.492-1.191,8.508,8.508,0,0,0-1.946-.887l-.543-.156a3.152,3.152,0,0,0-.557-.129c-.381-.057-.765-.133-1.155-.177l-1.19-.057c-.4-.024-.8.032-1.2.044a10.691,10.691,0,0,0-1.2.1l-1.191.155c-.777.146-1.547.273-2.276.474l-.545.138-.525.167a10.216,10.216,0,0,0-1,.352,9.672,9.672,0,0,0-.927.4,8.711,8.711,0,0,0-.835.436,6.7,6.7,0,0,0-.732.463,5.909,5.909,0,0,0-.621.475,6.587,6.587,0,0,0-.889.907,3.443,3.443,0,0,0-.556.956,3.441,3.441,0,0,1,.541-.967,6.574,6.574,0,0,1,.878-.925,6,6,0,0,1,.616-.489,6.959,6.959,0,0,1,.729-.478,8.6,8.6,0,0,1,.833-.452,9.952,9.952,0,0,1,.926-.414,10.18,10.18,0,0,1,1.005-.371l.526-.177.545-.147c.73-.215,1.5-.356,2.287-.516l1.189-.174a10.577,10.577,0,0,1,1.21-.125c.406-.019.81-.082,1.216-.065l1.211.038c.4.039.793.11,1.184.162a3.286,3.286,0,0,1,.575.123l.56.151a8.815,8.815,0,0,1,2.031.886A8.3,8.3,0,0,1,74.6,197.87c.224.214.406.45.6.659.175.221.325.444.475.648l.27.452c-.1-.484-.2-.976-.315-1.486-.38-1.526-.825-3.168-1.411-4.863-.169-.16-.447-.416-.837-.749a33.009,33.009,0,0,0-2.932-2.223c-.629-.432-1.331-.867-2.084-1.311s-1.568-.876-2.433-1.278-1.769-.793-2.71-1.136c-.473-.166-.947-.339-1.435-.478-.482-.155-.974-.284-1.468-.406-.491-.138-.994-.217-1.489-.327-.5-.092-1-.162-1.494-.238-.5-.046-.993-.112-1.483-.141s-.975-.062-1.453-.052a25.29,25.29,0,0,0-2.75.135l-1.266.165-1.171.225c-.379.061-.728.178-1.067.257s-.663.157-.956.263c-.588.2-1.112.345-1.526.514l-1.305.518,1.3-.535c.412-.174.933-.327,1.521-.535.292-.11.617-.178.953-.276s.688-.205,1.066-.271l1.173-.241,1.268-.183A25.732,25.732,0,0,1,54.4,184.8c.481-.016.968.025,1.462.034s.992.083,1.494.123c.5.069,1.005.133,1.508.219.5.1,1.009.178,1.5.31s1,.24,1.485.391c.494.134.974.3,1.453.462.953.334,1.876.706,2.749,1.111s1.7.832,2.471,1.258,1.482.867,2.122,1.295a33.122,33.122,0,0,1,3.279,2.449c-.571-1.585-1.225-3.216-1.96-4.875l-.277-.6c-.641-.73-2.031-2.282-3.954-4.241a108.934,108.934,0,0,0-10.478-9.425c-1.007-.794-2.04-1.554-3.07-2.283s-2.068-1.413-3.084-2.055l-1.516-.915-1.48-.828-1.428-.734-1.36-.635c-.883-.381-1.7-.725-2.436-.977-.731-.28-1.391-.454-1.927-.621s-.973-.241-1.264-.317l-.449-.108.45.1" fill="#0eccc6"/>
          </g>
        </g>
        <g id="Grupo_1115603" data-name="Grupo 1115603">
          <g id="Grupo_1115602" data-name="Grupo 1115602" clip-path="url(#clip-path-3)">
            <rect id="Rectángulo_413191" data-name="Rectángulo 413191" width="20.667" height="20.667" transform="translate(82.667 187.633)" fill="#93f2fb"/>
            <rect id="Rectángulo_413192" data-name="Rectángulo 413192" width="20.667" height="20.667" transform="translate(82.667 208.299)" fill="#93f2fb"/>
            <rect id="Rectángulo_413193" data-name="Rectángulo 413193" width="20.667" height="20.667" transform="translate(82.667 228.966)" fill="#93f2fb"/>
            <rect id="Rectángulo_413194" data-name="Rectángulo 413194" width="20.667" height="20.667" transform="translate(62 187.633)" fill="#93f2fb"/>
            <rect id="Rectángulo_413195" data-name="Rectángulo 413195" width="20.667" height="20.667" transform="translate(62 208.299)" fill="#93f2fb"/>
            <rect id="Rectángulo_413196" data-name="Rectángulo 413196" width="20.667" height="20.667" transform="translate(62 228.966)" fill="#93f2fb"/>
            <rect id="Rectángulo_413197" data-name="Rectángulo 413197" width="20.667" height="20.667" transform="translate(41.333 187.633)" fill="#93f2fb"/>
            <rect id="Rectángulo_413198" data-name="Rectángulo 413198" width="20.667" height="20.667" transform="translate(41.333 208.299)" fill="#93f2fb"/>
            <rect id="Rectángulo_413199" data-name="Rectángulo 413199" width="20.667" height="20.667" transform="translate(41.333 228.966)" fill="#93f2fb"/>
            <rect id="Rectángulo_413200" data-name="Rectángulo 413200" width="20.667" height="20.667" transform="translate(20.666 187.633)" fill="#93f2fb"/>
            <rect id="Rectángulo_413201" data-name="Rectángulo 413201" width="20.667" height="20.667" transform="translate(20.666 208.299)" fill="#93f2fb"/>
            <rect id="Rectángulo_413202" data-name="Rectángulo 413202" width="20.667" height="20.667" transform="translate(20.666 228.966)" fill="#93f2fb"/>
            <rect id="Rectángulo_413203" data-name="Rectángulo 413203" width="20.667" height="20.667" transform="translate(0 187.633)" fill="#93f2fb"/>
            <rect id="Rectángulo_413204" data-name="Rectángulo 413204" width="20.667" height="20.667" transform="translate(0 208.299)" fill="#93f2fb"/>
            <rect id="Rectángulo_413205" data-name="Rectángulo 413205" width="20.667" height="20.667" transform="translate(0 228.966)" fill="#93f2fb"/>
          </g>
        </g>
        <g id="Grupo_1115605" data-name="Grupo 1115605">
          <g id="Grupo_1115604" data-name="Grupo 1115604" clip-path="url(#clip-path)">
            <path id="Trazado_876207" data-name="Trazado 876207" d="M76.436,207.829c.041.125.124.3.187.539a6.02,6.02,0,0,1,.178.866,3.516,3.516,0,0,1,.05.541,5.012,5.012,0,0,1,0,.6,7.651,7.651,0,0,1-.172,1.343,7.016,7.016,0,0,1-.181.716,7.577,7.577,0,0,1-.243.733,14.21,14.21,0,0,1-.65,1.48c-.255.488-.53.975-.832,1.447a29.421,29.421,0,0,1-3.876,4.77c-.763.773-1.391,1.341-1.741,1.647q-1.175-.441-2.468-.823a30.243,30.243,0,0,0-4.861-.941c-.593-.065-1.2-.109-1.8-.145.111-.586.251-1.384.391-2.344.15-1.022.3-2.218.4-3.506a39.366,39.366,0,0,0,.119-4.044c-.018-.689-.063-1.377-.133-2.053a18.406,18.406,0,0,0-.318-1.968c-.036-.158-.071-.314-.107-.469s-.087-.305-.131-.455c-.077-.3-.192-.586-.293-.865s-.238-.536-.349-.792c-.128-.247-.273-.477-.4-.7-.157-.207-.3-.412-.448-.593s-.315-.336-.467-.481l-.462-.365c-.147-.1-.3-.177-.427-.255a3.468,3.468,0,0,0-.635-.283l-.23-.089.227.1a3.371,3.371,0,0,1,.619.306c.125.082.272.16.414.268l.44.377c.144.149.285.318.44.49.14.184.271.391.416.6.118.226.251.455.367.7.1.256.228.509.311.788s.19.559.254.859c.037.149.074.3.112.45s.057.309.086.465a18.156,18.156,0,0,1,.237,1.946c.043.667.061,1.346.052,2.026a38.783,38.783,0,0,1-.273,3.983c-.148,1.267-.339,2.443-.526,3.446s-.368,1.833-.5,2.411v.005c-.876-.034-1.761-.038-2.649-.013-1.791.042-3.6.151-5.39.236-1.8.1-3.583.171-5.341.17-.211,0-.42,0-.63,0,.008-.16.016-.33.027-.517,0-.341.024-.726.006-1.144q-.008-.315-.016-.653c-.015-.225-.031-.458-.047-.7-.021-.479-.1-.979-.158-1.5-.087-.514-.166-1.048-.287-1.582s-.241-1.078-.424-1.6l-.249-.793-.3-.768c-.106-.252-.193-.509-.31-.749s-.238-.476-.354-.708-.219-.466-.353-.678l-.385-.622-.364-.588-.39-.515c-.255-.327-.474-.637-.693-.891l-.6-.633-.518-.55.49.575.562.658c.206.263.408.583.645.918l.361.528c.107.193.218.393.331.6l.35.631c.122.214.207.453.315.685l.314.712c.1.241.177.5.269.75l.26.765.206.789c.154.521.233,1.061.337,1.585s.145,1.05.206,1.555c.029.508.085,1,.082,1.462q.008.35.013.678t-.015.633c0,.406-.044.776-.06,1.1-.022.2-.04.385-.057.554-1.264-.024-2.508-.085-3.721-.179-.834-.071-1.653-.146-2.453-.247-.8-.081-1.583-.2-2.343-.316-.763-.1-1.5-.259-2.209-.381s-1.4-.275-2.056-.412l-.967-.205-.917-.224c-.6-.145-1.166-.272-1.7-.411-1.053-.3-1.983-.522-2.74-.746l-2.384-.691,2.3.931c.735.289,1.643.6,2.684.973.522.179,1.083.348,1.673.538l.909.283.962.263c1.308.369,2.742.722,4.274,1.02.766.151,1.554.3,2.367.42.809.142,1.643.229,2.491.326,1.7.165,3.461.306,5.252.307,1.088.01,2.185-.009,3.284-.043-.315.374-.747.872-1.276,1.446-.591.631-1.291,1.36-2.084,2.1l-.6.562-.637.554c-.423.381-.881.732-1.333,1.093s-.932.68-1.39,1.018c-.472.317-.951.606-1.409.9-.478.253-.936.509-1.38.733L37.7,231.1l-1.13.358a5.851,5.851,0,0,1-.891.2l-.786.147.792-.111a6.024,6.024,0,0,0,.9-.161l1.155-.309,1.324-.5c.458-.206.932-.442,1.429-.677.475-.273.975-.543,1.467-.842.478-.32.985-.618,1.455-.967s.955-.679,1.4-1.044l.672-.532.636-.542c.838-.711,1.581-1.418,2.212-2.031.945-.935,1.616-1.68,1.885-1.987.334-.014.669-.027,1-.043,1.476-.08,2.943-.176,4.39-.24a15.613,15.613,0,0,0-1.1,1.71A28.287,28.287,0,0,0,53.1,226.5c-.232.555-.45,1.135-.669,1.725s-.418,1.2-.61,1.806c-.386,1.217-.718,2.447-1.054,3.588a13.961,13.961,0,0,1-1.17,3.01,4.522,4.522,0,0,1-1.558,1.638,4.656,4.656,0,0,1-.571.3l-.211.089.214-.08a4.759,4.759,0,0,0,.586-.275,4.353,4.353,0,0,0,.816-.59A5.083,5.083,0,0,0,49.7,236.7a14.061,14.061,0,0,0,1.309-3c.383-1.132.763-2.344,1.195-3.535q.323-.9.676-1.762c.242-.574.482-1.136.734-1.671a27.655,27.655,0,0,1,1.519-2.837,14.039,14.039,0,0,1,1.312-1.816c.1-.121.2-.219.275-.3a43.747,43.747,0,0,1,5,.091c.648.057,1.281.135,1.906.224-.02.038-.039.076-.061.115a3.122,3.122,0,0,0-.159.5,5.448,5.448,0,0,0-.108,1.159,42.112,42.112,0,0,0,.742,5.837c.169,1.046.326,2.092.424,3.077.051.492.08.969.1,1.422a12.5,12.5,0,0,1-.029,1.275,6.225,6.225,0,0,1-.172,1.061,3.577,3.577,0,0,1-.291.776c-.059.1-.112.188-.157.265s-.106.127-.145.176l-.124.145.131-.139c.041-.046.1-.1.155-.17l.172-.259a3.606,3.606,0,0,0,.334-.772,6.294,6.294,0,0,0,.23-1.069,12.554,12.554,0,0,0,.094-1.289c0-.459,0-.943-.026-1.442-.049-1-.154-2.058-.271-3.115a41.92,41.92,0,0,1-.445-5.758,4.817,4.817,0,0,1,.14-.994,1.268,1.268,0,0,1,.283-.568c.026-.025.048-.049.069-.073a.244.244,0,0,0,.042-.019c.646.11,1.281.233,1.895.375.737.2,1.46.37,2.143.6.342.109.684.205,1.012.32l.962.351c.433.147.841.32,1.238.487.206.151.453.338.728.563a13.182,13.182,0,0,1,2.5,2.66,7.8,7.8,0,0,1,.909,1.726,5.806,5.806,0,0,1,.351,1.667,5.114,5.114,0,0,1-.008.685c-.016.2-.049.379-.067.525l-.105.451s.045-.163.122-.447c.025-.145.065-.321.089-.525a5.222,5.222,0,0,0,.036-.691,5.855,5.855,0,0,0-.291-1.709,7.948,7.948,0,0,0-.858-1.8,13.093,13.093,0,0,0-2.2-2.6c.322.145.635.291.934.427l.721.334.659.334,1.164.588,2.18,1.181-.534-.369c-.35-.236-.854-.6-1.517-1.032-.678-.407-1.472-.955-2.449-1.472a34.837,34.837,0,0,0-3.322-1.669c-.4-.182-.82-.355-1.25-.524.364-.34.918-.875,1.566-1.564a29.706,29.706,0,0,0,3.8-4.908c.293-.484.56-.983.805-1.482a14.126,14.126,0,0,0,.622-1.511,7.766,7.766,0,0,0,.228-.747,6.92,6.92,0,0,0,.166-.729,7.7,7.7,0,0,0,.142-1.36,5.009,5.009,0,0,0-.019-.607,3.513,3.513,0,0,0-.063-.544,5.871,5.871,0,0,0-.2-.866c-.068-.236-.156-.411-.2-.535l-.074-.188.07.19" fill="#60dce2"/>
            <path id="Trazado_876208" data-name="Trazado 876208" d="M97.8,235.22s-7.782-8.619-25.1-3.84a37.587,37.587,0,0,0-24.337,20.962s10.744-2.123,20.147-.681c20.4,3.13,34.127-7.893,29.288-16.441" fill="#60dce2"/>
            <path id="Trazado_876209" data-name="Trazado 876209" d="M95.769,234.736c-.448-.081-.968-.172-1.544-.253l0-.015-.217-.145c-.46-.307-.927-.6-1.409-.854s-.974-.489-1.476-.695-1.008-.4-1.524-.563a14.639,14.639,0,0,0-1.565-.423c.967.479,1.918.967,2.843,1.489q.7.387,1.363.812c.105.066.207.136.311.2-.7-.067-1.454-.123-2.261-.144-.57-.029-1.165-.023-1.781-.034-.616.014-1.254.017-1.907.058-1.075.042-2.2.142-3.349.276l-.114-.078c-.146-.108-.307-.188-.461-.281a9.736,9.736,0,0,0-.954-.487l-.491-.206c-.162-.072-.33-.126-.5-.189-.329-.129-.668-.225-1-.329a20.113,20.113,0,0,0-2.044-.477c-.343-.066-.688-.115-1.034-.16s-.693-.076-1.04-.1a34.482,34.482,0,0,1,3.949,1.236c.316.131.634.255.944.4.154.071.313.133.463.213l.454.227c.224.128.451.253.671.386-1.291.194-2.617.4-3.943.721-1.468.322-2.938.735-4.4,1.176-.691.222-1.374.467-2.058.7l-.051-.012c-.2-.037-.394-.064-.59-.1s-.392-.043-.588-.066-.392-.035-.587-.044a22.908,22.908,0,0,0-2.33.012c-.772.045-1.541.11-2.306.212s-1.525.221-2.278.38c.769-.024,1.536-.032,2.3-.043s1.529-.008,2.29.02,1.52.056,2.267.141c.143.012.286.031.428.05l-.778.3c-.691.292-1.379.579-2.047.886l-1.963.94-1.861.979c-.6.332-1.176.68-1.743,1.006s-1.1.669-1.62,1-1.021.645-1.483.98c-.935.651-1.793,1.244-2.516,1.821s-1.373,1.051-1.872,1.488l-1.581,1.355,1.732-1.15c.54-.38,1.23-.792,2-1.29s1.667-1.017,2.63-1.6c.478-.3,1-.569,1.529-.866s1.07-.615,1.648-.9,1.157-.608,1.764-.9l1.863-.9,1.953-.865,2.025-.829.964-.36c-.378.564-.761,1.126-1.141,1.687-.343.5-.694.994-1.048,1.484s-.7.987-1.073,1.466-.732.962-1.106,1.438l-.576.7c-.187.238-.387.464-.587.69s-.4.458-.608.673-.411.445-.63.652l-.663.622-.712.572.8-.448.756-.532c.247-.184.476-.389.716-.583s.459-.41.685-.62c.456-.415.875-.865,1.3-1.313l.614-.687c.208-.227.4-.469.594-.7.4-.471.768-.958,1.146-1.441s.728-.986,1.081-1.487c.616-.861,1.186-1.747,1.747-2.647.647-.215,1.294-.437,1.946-.642,1.425-.445,2.861-.864,4.294-1.194,1.428-.348,2.848-.631,4.229-.872l.247-.037c-.013.1-.026.193-.04.286-.052.308-.108.615-.188.92-.065.307-.173.607-.259.91l-.32.894-.367.88-.417.861c-.139.287-.309.559-.456.843s-.311.559-.483.83-.332.55-.513.815l-.543.8c-.175.271-.371.527-.568.782l-.58.778c-.2.257-.411.5-.613.752l-.614.758q-.648.727-1.281,1.478.755-.623,1.5-1.272c.469-.457.944-.911,1.4-1.387.434-.493.893-.968,1.291-1.5l.609-.78c.2-.265.374-.545.562-.818s.371-.548.535-.837.345-.567.494-.865l.447-.892.4-.919c.116-.314.228-.63.332-.948.088-.324.2-.641.263-.973s.138-.661.19-1c.018-.178.037-.349.049-.525,1.008-.15,1.991-.287,2.94-.37,1.28-.124,2.5-.206,3.619-.242,1.1-.037,2.1-.037,3-.016-.086.316-.171.633-.267.947l-.387,1.253c-.133.416-.268.832-.414,1.244s-.282.827-.431,1.238-.3.822-.461,1.229c-.076.205-.162.406-.245.609s-.158.409-.246.609l-.261.6c-.082.2-.181.4-.272.6-.173.407-.38.795-.565,1.2.279-.345.567-.689.814-1.06s.494-.743.721-1.128.444-.775.638-1.177.4-.8.57-1.211c.093-.2.173-.411.26-.617s.172-.412.248-.621c.157-.418.3-.839.446-1.262s.272-.849.391-1.279c.107-.382.208-.762.3-1.153.6.024,1.138.058,1.6.094.656.057,1.173.108,1.524.154l.537.08a18.781,18.781,0,0,0-2.027-.485" fill="#0eccc6"/>
            <path id="Trazado_876210" data-name="Trazado 876210" d="M216.763,91.367c-4.965-3.567-9.482-4.131-24.152-3.821s-9.184-7.608-1.491-7.827,20.665,5.9,20.665,5.9S203.636,73.95,191.5,71.689s-19.02-10.175-12.8-13.39,20.847,8.291,26.331,14.485a56.714,56.714,0,0,0-11.689-21.428c-8.778-9.832-7.018-18.185-3.6-20.437,4.759-3.131,4.882,5.84,8.49,16.055,3.236,9.158,7.7,18.044,8.82,21.407,0,0-4.994-23.181,2.161-31.625s10.724-1.6,8.36,3.913-7.375,20.77-6.647,31.811c0,0,6.461-21.349,16.687-19.69s5.247,8.72-2.415,11.794A16.518,16.518,0,0,0,214.4,81.343a21.473,21.473,0,0,1,8.454-10c6.011-3.952,11.858-.809,11.526,2.1-.395,3.466-5.619,3.884-12.216,6.744s-1.418,9.215.578,12.26.747,3.754-5.982-1.08" fill="#60dce2"/>
            <path id="Trazado_876211" data-name="Trazado 876211" d="M213.218,38.421c-.135.261-.36.63-.6,1.125s-.535,1.091-.809,1.805c-.3.7-.585,1.519-.887,2.41q-.206.675-.429,1.4l-.4,1.518c-.119.526-.242,1.067-.368,1.619q-.16.834-.328,1.7c-.2,1.16-.384,2.362-.528,3.59s-.269,2.476-.352,3.728a106.547,106.547,0,0,0-.015,13.8c.107,1.756.237,3.231.346,4.31l-.37-.913q-.27-.718-.542-1.446l-.511-1.49a26.215,26.215,0,0,0-1.218-2.991c-.456-.977-.944-1.938-1.447-2.889-2.045-3.788-4.239-7.473-6.2-10.977-.98-1.753-1.938-3.441-2.81-5.061s-1.667-3.166-2.361-4.612-1.286-2.792-1.774-4-.849-2.286-1.116-3.182-.423-1.616-.512-2.111-.127-.761-.127-.761.029.267.083.767a19.21,19.21,0,0,0,.4,2.146,33.846,33.846,0,0,0,.983,3.25c.435,1.237.975,2.617,1.638,4.087,1.323,2.943,3.015,6.307,4.965,9.829s4.1,7.236,6.1,11.015c.5.942,1,1.888,1.454,2.844a25.692,25.692,0,0,1,1.212,2.9q.263.747.524,1.488.285.74.566,1.472.3.72.6,1.433.316.7.627,1.4c.308.669.632,1.316.961,1.953-.705-.711-1.663-1.651-2.824-2.727a89.679,89.679,0,0,0-10.014-8.067c-.962-.666-1.947-1.3-2.928-1.9-.489-.3-.988-.583-1.473-.871l-1.463-.805-1.441-.73c-.479-.222-.944-.446-1.4-.65l-1.35-.568-1.28-.481c-.832-.277-1.6-.529-2.288-.7-.683-.2-1.3-.3-1.8-.417s-.9-.144-1.171-.191l-.415-.063.415.068c.269.049.668.1,1.168.2.5.121,1.109.227,1.789.437.689.18,1.448.441,2.276.726l1.272.495,1.34.581c.456.209.918.438,1.393.664l1.429.744,1.45.819c.48.293.974.578,1.459.886.971.612,1.947,1.252,2.9,1.927a89.48,89.48,0,0,1,9.892,8.153c1.854,1.756,3.179,3.15,3.763,3.777.356.645.716,1.277,1.079,1.884.947,1.594,1.953,3.032,2.906,4.336.038.05.075.1.112.145-.117-.051-.243-.1-.384-.164-.37-.162-.827-.334-1.347-.544-.527-.191-1.114-.428-1.768-.645s-1.359-.465-2.116-.692c-.751-.246-1.558-.453-2.388-.685s-1.7-.419-2.582-.619l-1.34-.264c-.448-.093-.9-.177-1.355-.239-.908-.135-1.814-.291-2.716-.363l-1.336-.135c-.441-.039-.88-.046-1.309-.07l-1.266-.057c-.414-.01-.82.008-1.214.011-.788.018-1.535,0-2.22.086l-1.87.161-1.429.232-1.244.205,1.247-.187,1.43-.212,1.87-.134c.684-.072,1.43-.048,2.216-.054.394,0,.8-.01,1.211.005l1.262.076c.427.03.864.043,1.3.087l1.33.154c.9.085,1.8.253,2.7.4.453.067.9.158,1.346.257l1.33.281c.875.213,1.736.424,2.562.653s1.622.46,2.366.715c.749.236,1.45.483,2.093.718s1.228.469,1.748.666c.513.216.965.394,1.328.559.585.253.957.432,1.085.494q.657.83,1.291,1.555c.088.139.137.209.137.209l.027-.019c.245.275.487.539.728.787l.653.692.638.615c.408.394.782.757,1.146,1.056s.673.582.957.812l.742.557.617.462-.589-.5-.706-.6-.911-.856c-.349-.312-.705-.689-1.093-1.1l-.6-.638-.619-.715q-.33-.375-.666-.788l.02-.014s-.059-.081-.15-.224a7.719,7.719,0,0,1-.371-.683c-.066-.155-.14-.326-.22-.512-.064-.192-.135-.4-.21-.623-.053-.228-.12-.469-.171-.727-.032-.261-.091-.534-.106-.823a7.793,7.793,0,0,1,.091-1.862,8.342,8.342,0,0,1,.61-2q.117-.246.236-.5a3.113,3.113,0,0,1,.266-.491c.2-.316.4-.646.617-.961l.727-.907c.24-.307.54-.565.808-.851a10.658,10.658,0,0,1,.85-.81l.883-.772c.61-.475,1.2-.956,1.819-1.36l.452-.309.462-.277a10.156,10.156,0,0,1,.907-.508,9.51,9.51,0,0,1,.889-.422,8.35,8.35,0,0,1,.858-.33,6.62,6.62,0,0,1,.813-.237,5.7,5.7,0,0,1,.749-.146,6.293,6.293,0,0,1,1.238-.065,3.352,3.352,0,0,1,1.059.21,3.365,3.365,0,0,0-1.058-.228,6.409,6.409,0,0,0-1.244.044,5.893,5.893,0,0,0-.756.135,6.842,6.842,0,0,0-.821.225,8.144,8.144,0,0,0-.869.318,9.675,9.675,0,0,0-.9.41,10.091,10.091,0,0,0-.921.5l-.469.271-.46.3c-.629.4-1.232.872-1.856,1.342l-.9.757a10.863,10.863,0,0,0-.874.805c-.276.285-.583.541-.833.849l-.755.911c-.229.317-.432.651-.646.971a3.2,3.2,0,0,0-.282.5q-.126.256-.252.509a8.7,8.7,0,0,0-.664,2.058,8.126,8.126,0,0,0-.127,1.942c.011.3.067.589.1.863.05.272.116.525.168.766l.156.49c-.29-.385-.583-.779-.884-1.191-.872-1.264-1.786-2.651-2.649-4.175-.007-.227-.015-.6-.006-1.1a32.308,32.308,0,0,1,.267-3.584c.09-.739.226-1.535.388-2.372s.371-1.714.636-2.607.563-1.809.92-2.719c.184-.453.364-.912.578-1.359.2-.453.422-.9.651-1.338s.483-.867.723-1.3.527-.836.792-1.247c.288-.395.559-.8.855-1.177s.584-.754.9-1.1a24.78,24.78,0,0,1,1.876-1.926l.939-.82.923-.712c.289-.238.6-.418.877-.615s.543-.384.81-.53c.526-.3.972-.591,1.363-.785l1.223-.62s-.448.219-1.231.605c-.394.188-.844.472-1.375.767-.27.143-.53.337-.818.52s-.6.371-.888.6l-.934.7-.954.81a25.11,25.11,0,0,0-1.91,1.91c-.322.342-.608.725-.92,1.093s-.58.779-.876,1.173c-.272.41-.552.821-.814,1.245-.246.433-.522.853-.745,1.3s-.469.885-.674,1.34c-.221.448-.409.908-.6,1.362-.372.914-.7,1.83-.964,2.73s-.489,1.782-.677,2.623-.322,1.645-.423,2.39a32.173,32.173,0,0,0-.326,3.983c-.792-1.442-1.563-2.975-2.3-4.586-.086-.194-.173-.392-.259-.588-.12-.942-.358-2.962-.549-5.636a106.325,106.325,0,0,1-.128-13.762c.069-1.25.181-2.5.313-3.723s.3-2.427.489-3.586q.157-.867.31-1.7.179-.83.35-1.619c.132-.521.261-1.029.386-1.52q.214-.729.413-1.406c.292-.892.566-1.709.86-2.414.267-.716.566-1.312.79-1.812s.453-.868.585-1.131l.212-.4-.216.4" fill="#0eccc6"/>
          </g>
        </g>
        <g id="Grupo_1115607" data-name="Grupo 1115607">
          <g id="Grupo_1115606" data-name="Grupo 1115606" clip-path="url(#clip-path-5)">
            <rect id="Rectángulo_413207" data-name="Rectángulo 413207" width="20.667" height="20.667" transform="translate(248 22.299)" fill="#93f2fb"/>
            <rect id="Rectángulo_413208" data-name="Rectángulo 413208" width="20.667" height="20.667" transform="translate(248 42.966)" fill="#93f2fb"/>
            <rect id="Rectángulo_413209" data-name="Rectángulo 413209" width="20.667" height="20.667" transform="translate(248 63.632)" fill="#93f2fb"/>
            <rect id="Rectángulo_413210" data-name="Rectángulo 413210" width="20.667" height="20.667" transform="translate(248 84.299)" fill="#93f2fb"/>
            <rect id="Rectángulo_413211" data-name="Rectángulo 413211" width="20.667" height="20.667" transform="translate(227.333 22.299)" fill="#93f2fb"/>
            <rect id="Rectángulo_413212" data-name="Rectángulo 413212" width="20.667" height="20.667" transform="translate(227.333 42.966)" fill="#93f2fb"/>
            <rect id="Rectángulo_413213" data-name="Rectángulo 413213" width="20.667" height="20.667" transform="translate(227.333 63.632)" fill="#93f2fb"/>
            <rect id="Rectángulo_413214" data-name="Rectángulo 413214" width="20.667" height="20.667" transform="translate(227.333 84.299)" fill="#93f2fb"/>
            <rect id="Rectángulo_413215" data-name="Rectángulo 413215" width="20.667" height="20.667" transform="translate(206.667 22.299)" fill="#93f2fb"/>
            <rect id="Rectángulo_413216" data-name="Rectángulo 413216" width="20.667" height="20.667" transform="translate(206.667 42.966)" fill="#93f2fb"/>
            <rect id="Rectángulo_413217" data-name="Rectángulo 413217" width="20.667" height="20.667" transform="translate(206.667 63.632)" fill="#93f2fb"/>
            <rect id="Rectángulo_413218" data-name="Rectángulo 413218" width="20.667" height="20.667" transform="translate(206.667 84.299)" fill="#93f2fb"/>
          </g>
        </g>
        <g id="Grupo_1115609" data-name="Grupo 1115609">
          <g id="Grupo_1115608" data-name="Grupo 1115608" clip-path="url(#clip-path)">
            <path id="Trazado_876213" data-name="Trazado 876213" d="M215.109,94.334c.113.061.268.172.485.273a5.637,5.637,0,0,0,.8.322,3.382,3.382,0,0,0,.511.143,4.861,4.861,0,0,0,.578.109,7.439,7.439,0,0,0,1.319.069,6.9,6.9,0,0,0,.721-.05c.245-.021.494-.058.746-.1a13.757,13.757,0,0,0,1.535-.368c.513-.159,1.03-.339,1.535-.546a28.709,28.709,0,0,0,5.259-2.893c.876-.6,1.531-1.1,1.886-1.386q-.219-1.2-.361-2.515a29.7,29.7,0,0,1-.057-4.835c.042-.581.1-1.169.175-1.759-.582,0-1.373,0-2.319-.032-1.009-.034-2.184-.1-3.438-.231a38.3,38.3,0,0,1-3.907-.59c-.659-.138-1.312-.3-1.949-.486a17.713,17.713,0,0,1-1.836-.649l-.433-.184-.413-.205c-.277-.127-.53-.287-.78-.432s-.474-.322-.7-.473c-.216-.167-.411-.346-.6-.509-.172-.187-.344-.359-.492-.534s-.268-.362-.381-.532l-.27-.508c-.075-.16-.118-.318-.17-.455a3.349,3.349,0,0,1-.162-.659c-.029-.154-.045-.236-.045-.236s.019.081.054.234a3.388,3.388,0,0,0,.186.649c.058.134.107.288.186.444l.286.489c.118.164.256.329.394.508s.328.328.5.5c.2.152.393.32.611.475.228.139.448.307.7.436s.5.28.781.394l.412.185.432.164a17.51,17.51,0,0,0,1.829.567c.633.157,1.283.293,1.937.4a37.884,37.884,0,0,0,3.875.432c1.243.079,2.406.1,3.4.1s1.825-.035,2.4-.063h0c.121-.847.271-1.7.45-2.548.353-1.713.772-3.427,1.166-5.138.41-1.707.789-3.412,1.094-5.1.037-.2.07-.4.105-.606l-.5-.065c-.328-.059-.7-.1-1.1-.193l-.624-.129-.662-.166c-.456-.1-.923-.269-1.411-.413-.48-.173-.979-.343-1.471-.553s-.993-.418-1.467-.686l-.719-.378-.685-.425c-.223-.145-.455-.274-.665-.428l-.619-.464c-.2-.156-.41-.291-.589-.457l-.531-.478c-.172-.155-.34-.306-.5-.453l-.428-.464c-.269-.3-.529-.566-.735-.82l-.5-.683-.439-.594.467.572.535.655c.217.243.488.493.769.779l.445.438.518.424.545.446c.185.154.4.278.6.422l.629.425c.214.142.448.258.674.389l.69.384.722.335c.475.239.979.409,1.464.6s.985.323,1.458.469c.484.116.943.255,1.391.334l.649.131.611.1c.391.068.753.093,1.072.135.2.014.377.029.542.042.2-1.219.356-2.425.477-3.607.076-.813.147-1.614.19-2.4.061-.785.084-1.556.1-2.306.036-.751.012-1.482.019-2.189s-.02-1.391-.037-2.048q-.015-.492-.029-.965c-.019-.314-.037-.62-.055-.92-.036-.6-.058-1.168-.1-1.7-.1-1.064-.155-2-.239-2.763-.158-1.535-.249-2.411-.249-2.411s.18.863.494,2.373c.15.756.294,1.684.467,2.748.081.533.146,1.1.226,1.7.036.3.075.608.113.923s.057.64.086.97c.126,1.322.215,2.76.234,4.285.012.762.021,1.546-.008,2.347-.005.8-.067,1.619-.122,2.451-.136,1.66-.308,3.378-.62,5.1-.18,1.047-.389,2.1-.614,3.148.415-.238.968-.566,1.612-.974.709-.459,1.533-1,2.379-1.637l.646-.481.643-.516c.44-.341.857-.719,1.282-1.09s.816-.778,1.221-1.159c.387-.4.748-.808,1.108-1.2.326-.415.652-.811.944-1.2l.758-1.139.542-1.024a5.707,5.707,0,0,0,.349-.821l.278-.729s-.089.269-.244.741a5.836,5.836,0,0,1-.313.841c-.149.315-.316.669-.5,1.056l-.713,1.185c-.277.4-.587.819-.9,1.255-.344.409-.692.842-1.065,1.263-.391.4-.765.839-1.182,1.229s-.819.8-1.248,1.164l-.628.553-.631.518c-.829.681-1.638,1.271-2.337,1.77-1.064.746-1.9,1.26-2.238,1.466-.072.318-.143.637-.216.955-.334,1.4-.683,2.8-1,4.176a15.17,15.17,0,0,1,1.835-.757,27.288,27.288,0,0,1,3.1-.852c.573-.126,1.169-.235,1.774-.342s1.225-.193,1.842-.272c1.237-.159,2.476-.263,3.631-.387a13.615,13.615,0,0,0,3.1-.6,4.424,4.424,0,0,0,1.845-1.211,4.556,4.556,0,0,0,.384-.5l.122-.186-.114.191a4.333,4.333,0,0,1-.366.515,4.246,4.246,0,0,1-.709.681,5,5,0,0,1-1.117.625,13.813,13.813,0,0,1-3.109.735c-1.154.171-2.385.324-3.6.532q-.917.154-1.812.342c-.593.133-1.175.266-1.733.415a26.791,26.791,0,0,0-2.991.965,13.713,13.713,0,0,0-1.973.944c-.134.079-.244.15-.336.212a42.628,42.628,0,0,0-.783,4.821c-.059.632-.094,1.254-.117,1.87.039-.012.08-.024.121-.038a2.985,2.985,0,0,1,.512-.065,5.338,5.338,0,0,1,1.133.1,41.294,41.294,0,0,1,5.478,1.73c.976.345,1.953.678,2.883.944.464.135.918.246,1.35.342a11.815,11.815,0,0,0,1.23.194,6.049,6.049,0,0,0,1.049.02,3.462,3.462,0,0,0,.8-.145l.282-.1c.079-.037.141-.08.194-.109l.161-.093-.156.1c-.051.032-.112.078-.19.119l-.279.12a3.551,3.551,0,0,1-.8.187,6.183,6.183,0,0,1-1.067.034,12.008,12.008,0,0,1-1.255-.134c-.442-.075-.906-.164-1.381-.276-.951-.221-1.951-.507-2.946-.8a40.911,40.911,0,0,0-5.455-1.431,4.679,4.679,0,0,0-.979-.039,1.249,1.249,0,0,0-.6.173c-.028.02-.056.038-.082.053a.178.178,0,0,1-.026.038c-.006.64,0,1.271.03,1.886.062.742.1,1.467.2,2.163.045.348.079.693.131,1.029s.115.663.17.985c.066.442.161.864.253,1.274.108.225.246.5.414.8a12.811,12.811,0,0,0,2.12,2.866,7.575,7.575,0,0,0,1.5,1.175,5.652,5.652,0,0,0,1.54.628,5,5,0,0,0,.66.111c.2.021.373.019.516.027l.451-.022-.45.04c-.144,0-.32.006-.52-.006a5.171,5.171,0,0,1-.67-.086,5.767,5.767,0,0,1-1.591-.577,7.752,7.752,0,0,1-1.58-1.138,12.78,12.78,0,0,1-2.111-2.571c.083.335.169.661.248.972l.2.751.206.691c.131.445.252.853.362,1.221.48,1.464.755,2.3.755,2.3l-.261-.577c-.166-.378-.43-.926-.728-1.639-.273-.722-.661-1.58-.987-2.609a33.934,33.934,0,0,1-1.025-3.483c-.1-.415-.2-.849-.286-1.292-.39.291-1,.73-1.776,1.232a28.988,28.988,0,0,1-5.377,2.795c-.516.2-1.042.367-1.565.515a13.741,13.741,0,0,1-1.56.335c-.256.041-.509.073-.758.089a6.966,6.966,0,0,1-.729.032,7.545,7.545,0,0,1-1.331-.1,5.082,5.082,0,0,1-.581-.123,3.526,3.526,0,0,1-.511-.156,5.693,5.693,0,0,1-.8-.343c-.216-.107-.368-.221-.48-.285l-.167-.1.17.1" fill="#60dce2"/>
            <path id="Trazado_876214" data-name="Trazado 876214" d="M232.345,96.958s-4.428-10.439,6.933-23.805a36.708,36.708,0,0,1,28.582-12.92s-6.3,8.64-8.9,17.559c-5.628,19.355-21.04,26.97-26.617,19.166" fill="#60dce2"/>
            <path id="Trazado_876215" data-name="Trazado 876215" d="M232.75,94.963c.112-.43.246-.928.411-1.472l-.014,0-.039-.252c-.083-.533-.145-1.066-.176-1.6s-.032-1.065-.008-1.6.061-1.057.129-1.581a14.433,14.433,0,0,1,.27-1.559c.026,1.053.067,2.1.148,3.13.038.517.089,1.032.158,1.541.015.121.035.239.052.359.229-.647.49-1.338.8-2.06.209-.518.459-1.042.7-1.592.266-.539.531-1.1.836-1.665.481-.934,1.031-1.887,1.624-2.851l-.023-.133c-.035-.175-.039-.35-.059-.524a9.906,9.906,0,0,1-.038-1.046l.019-.519c0-.173.025-.344.037-.516.021-.344.076-.684.122-1.024A19.687,19.687,0,0,1,238.125,78c.083-.33.181-.657.284-.981s.218-.645.339-.962a33.883,33.883,0,0,0-.531,4c-.014.334-.035.668-.037,1,0,.166-.011.332,0,.5l.014.5c.021.252.039.5.066.753.7-1.062,1.434-2.151,2.261-3.194.89-1.167,1.861-2.3,2.854-3.411.48-.521.978-1.025,1.466-1.534l.011-.051c.048-.19.1-.375.157-.562s.123-.365.184-.548.13-.361.2-.538a22.228,22.228,0,0,1,.97-2.058c.358-.666.732-1.32,1.137-1.954s.824-1.26,1.275-1.862c-.338.671-.661,1.348-.986,2.02s-.636,1.351-.925,2.037-.576,1.368-.808,2.065c-.048.132-.091.266-.133.4l.586-.565c.544-.492,1.081-.982,1.628-1.448l1.64-1.351L251.41,69c.542-.395,1.087-.762,1.609-1.129s1.046-.7,1.552-1.023.992-.638,1.478-.91c.961-.56,1.84-1.075,2.649-1.478s1.495-.783,2.088-1.046l1.85-.841-1.731,1.06c-.559.321-1.208.763-1.966,1.24s-1.587,1.058-2.5,1.669c-.461.3-.915.652-1.4,1s-.985.694-1.476,1.088-1.014.774-1.528,1.189l-1.562,1.28L248.9,72.475q-.774.719-1.567,1.452l-.716.705c.655-.1,1.31-.21,1.964-.315.584-.1,1.166-.205,1.746-.317s1.163-.216,1.739-.346,1.154-.253,1.729-.388l.857-.222c.288-.068.571-.152.853-.236s.569-.162.846-.261.563-.181.837-.289l.824-.331.8-.4-.729.527-.781.45c-.265.144-.541.262-.812.394s-.552.238-.83.352c-.556.233-1.127.419-1.7.608l-.862.26c-.286.092-.578.159-.868.236-.579.156-1.164.286-1.747.422s-1.174.239-1.763.346c-1.015.19-2.035.33-3.063.456-.456.485-.919.966-1.369,1.459-.981,1.079-1.943,2.177-2.825,3.311s-1.732,2.262-2.514,3.385l-.134.2c.09.029.181.056.27.083.293.081.589.157.892.212s.608.1.912.145l.924.085.93.037.934-.015c.311,0,.622-.043.934-.056s.623-.046.934-.087.623-.067.933-.118l.93-.152c.312-.044.619-.112.927-.181l.927-.193c.308-.068.611-.159.919-.234l.923-.231q.911-.274,1.837-.526-.862.411-1.743.8c-.6.227-1.2.461-1.8.666-.615.181-1.225.392-1.855.528l-.942.218c-.316.065-.636.107-.955.161s-.638.1-.962.128-.644.073-.969.082l-.974.029-.977-.027q-.489-.039-.976-.1c-.324-.056-.649-.09-.97-.168-.323-.063-.643-.15-.961-.243-.165-.056-.324-.11-.485-.173-.548.832-1.074,1.646-1.539,2.452-.636,1.083-1.21,2.125-1.7,3.1-.484.955-.9,1.847-1.249,2.651.314.054.63.109.948.153l1.269.173c.423.054.847.106,1.272.146s.849.091,1.274.128.851.072,1.278.1c.213.018.426.025.64.034s.427.029.641.033l.642.018c.215.012.429,0,.644.007.431.013.86-.01,1.3-.006-.42.1-.843.219-1.273.284s-.862.132-1.3.174-.87.075-1.305.081-.872.021-1.308.006c-.218,0-.435-.016-.653-.024s-.435-.017-.652-.035c-.435-.034-.868-.078-1.3-.125s-.864-.109-1.294-.181c-.382-.063-.76-.13-1.144-.21-.225.54-.417,1.032-.577,1.459-.22.6-.387,1.083-.491,1.413l-.15.509a18.328,18.328,0,0,1,.4-2" fill="#0eccc6"/>
          </g>
        </g>
        <g id="Grupo_1115611" data-name="Grupo 1115611">
          <g id="Grupo_1115610" data-name="Grupo 1115610" clip-path="url(#clip-path-7)">
            <rect id="Rectángulo_413220" data-name="Rectángulo 413220" width="20.667" height="20.667" transform="translate(434 1.632)" fill="#dbe4f4"/>
            <rect id="Rectángulo_413221" data-name="Rectángulo 413221" width="20.667" height="20.667" transform="translate(434 22.299)" fill="#dbe4f4"/>
            <rect id="Rectángulo_413222" data-name="Rectángulo 413222" width="20.667" height="20.667" transform="translate(434 42.966)" fill="#dbe4f4"/>
            <rect id="Rectángulo_413223" data-name="Rectángulo 413223" width="20.667" height="20.667" transform="translate(434 63.632)" fill="#dbe4f4"/>
            <rect id="Rectángulo_413224" data-name="Rectángulo 413224" width="20.667" height="20.667" transform="translate(434 84.299)" fill="#dbe4f4"/>
            <rect id="Rectángulo_413225" data-name="Rectángulo 413225" width="20.667" height="20.667" transform="translate(434 104.966)" fill="#dbe4f4"/>
            <rect id="Rectángulo_413226" data-name="Rectángulo 413226" width="20.667" height="20.667" transform="translate(434 125.632)" fill="#dbe4f4"/>
            <rect id="Rectángulo_413227" data-name="Rectángulo 413227" width="20.667" height="20.667" transform="translate(434 146.299)" fill="#dbe4f4"/>
            <rect id="Rectángulo_413228" data-name="Rectángulo 413228" width="20.667" height="20.667" transform="translate(434 166.966)" fill="#dbe4f4"/>
            <rect id="Rectángulo_413229" data-name="Rectángulo 413229" width="20.667" height="20.667" transform="translate(434 187.633)" fill="#dbe4f4"/>
            <rect id="Rectángulo_413230" data-name="Rectángulo 413230" width="20.667" height="20.667" transform="translate(434 208.299)" fill="#dbe4f4"/>
            <rect id="Rectángulo_413231" data-name="Rectángulo 413231" width="20.667" height="20.667" transform="translate(434 228.966)" fill="#dbe4f4"/>
            <rect id="Rectángulo_413232" data-name="Rectángulo 413232" width="20.667" height="20.667" transform="translate(413.334 1.632)" fill="#dbe4f4"/>
            <rect id="Rectángulo_413233" data-name="Rectángulo 413233" width="20.667" height="20.667" transform="translate(413.334 22.299)" fill="#dbe4f4"/>
            <rect id="Rectángulo_413234" data-name="Rectángulo 413234" width="20.667" height="20.667" transform="translate(413.334 42.966)" fill="#dbe4f4"/>
            <rect id="Rectángulo_413235" data-name="Rectángulo 413235" width="20.667" height="20.667" transform="translate(413.334 63.632)" fill="#dbe4f4"/>
            <rect id="Rectángulo_413236" data-name="Rectángulo 413236" width="20.667" height="20.667" transform="translate(413.334 84.299)" fill="#dbe4f4"/>
            <rect id="Rectángulo_413237" data-name="Rectángulo 413237" width="20.667" height="20.667" transform="translate(413.334 104.966)" fill="#dbe4f4"/>
            <rect id="Rectángulo_413238" data-name="Rectángulo 413238" width="20.667" height="20.667" transform="translate(413.334 125.632)" fill="#dbe4f4"/>
            <rect id="Rectángulo_413239" data-name="Rectángulo 413239" width="20.667" height="20.667" transform="translate(413.334 146.299)" fill="#dbe4f4"/>
            <rect id="Rectángulo_413240" data-name="Rectángulo 413240" width="20.667" height="20.667" transform="translate(413.334 166.966)" fill="#dbe4f4"/>
            <rect id="Rectángulo_413241" data-name="Rectángulo 413241" width="20.667" height="20.667" transform="translate(413.334 187.633)" fill="#dbe4f4"/>
            <rect id="Rectángulo_413242" data-name="Rectángulo 413242" width="20.667" height="20.667" transform="translate(413.334 208.299)" fill="#dbe4f4"/>
            <rect id="Rectángulo_413243" data-name="Rectángulo 413243" width="20.667" height="20.667" transform="translate(413.334 228.966)" fill="#dbe4f4"/>
            <rect id="Rectángulo_413244" data-name="Rectángulo 413244" width="20.667" height="20.667" transform="translate(392.667 1.632)" fill="#dbe4f4"/>
            <rect id="Rectángulo_413245" data-name="Rectángulo 413245" width="20.667" height="20.667" transform="translate(392.667 22.299)" fill="#dbe4f4"/>
            <rect id="Rectángulo_413246" data-name="Rectángulo 413246" width="20.667" height="20.667" transform="translate(392.667 42.966)" fill="#dbe4f4"/>
            <rect id="Rectángulo_413247" data-name="Rectángulo 413247" width="20.667" height="20.667" transform="translate(392.667 63.632)" fill="#dbe4f4"/>
            <rect id="Rectángulo_413248" data-name="Rectángulo 413248" width="20.667" height="20.667" transform="translate(392.667 84.299)" fill="#dbe4f4"/>
            <rect id="Rectángulo_413249" data-name="Rectángulo 413249" width="20.667" height="20.667" transform="translate(392.667 104.966)" fill="#dbe4f4"/>
            <rect id="Rectángulo_413250" data-name="Rectángulo 413250" width="20.667" height="20.667" transform="translate(392.667 125.632)" fill="#dbe4f4"/>
            <rect id="Rectángulo_413251" data-name="Rectángulo 413251" width="20.667" height="20.667" transform="translate(392.667 146.299)" fill="#dbe4f4"/>
            <rect id="Rectángulo_413252" data-name="Rectángulo 413252" width="20.667" height="20.667" transform="translate(392.667 166.966)" fill="#dbe4f4"/>
            <rect id="Rectángulo_413253" data-name="Rectángulo 413253" width="20.667" height="20.667" transform="translate(392.667 187.633)" fill="#dbe4f4"/>
            <rect id="Rectángulo_413254" data-name="Rectángulo 413254" width="20.667" height="20.667" transform="translate(392.667 208.299)" fill="#dbe4f4"/>
            <rect id="Rectángulo_413255" data-name="Rectángulo 413255" width="20.667" height="20.667" transform="translate(392.667 228.966)" fill="#dbe4f4"/>
            <rect id="Rectángulo_413256" data-name="Rectángulo 413256" width="20.667" height="20.667" transform="translate(372 1.632)" fill="#dbe4f4"/>
            <rect id="Rectángulo_413257" data-name="Rectángulo 413257" width="20.667" height="20.667" transform="translate(372 22.299)" fill="#dbe4f4"/>
            <rect id="Rectángulo_413258" data-name="Rectángulo 413258" width="20.667" height="20.667" transform="translate(372 42.966)" fill="#dbe4f4"/>
            <rect id="Rectángulo_413259" data-name="Rectángulo 413259" width="20.667" height="20.667" transform="translate(372 63.632)" fill="#dbe4f4"/>
            <rect id="Rectángulo_413260" data-name="Rectángulo 413260" width="20.667" height="20.667" transform="translate(372 84.299)" fill="#dbe4f4"/>
            <rect id="Rectángulo_413261" data-name="Rectángulo 413261" width="20.667" height="20.667" transform="translate(372 104.966)" fill="#dbe4f4"/>
            <rect id="Rectángulo_413262" data-name="Rectángulo 413262" width="20.667" height="20.667" transform="translate(372 125.632)" fill="#dbe4f4"/>
            <rect id="Rectángulo_413263" data-name="Rectángulo 413263" width="20.667" height="20.667" transform="translate(372 146.299)" fill="#dbe4f4"/>
            <rect id="Rectángulo_413264" data-name="Rectángulo 413264" width="20.667" height="20.667" transform="translate(372 166.966)" fill="#dbe4f4"/>
            <rect id="Rectángulo_413265" data-name="Rectángulo 413265" width="20.667" height="20.667" transform="translate(372 187.633)" fill="#dbe4f4"/>
            <rect id="Rectángulo_413266" data-name="Rectángulo 413266" width="20.667" height="20.667" transform="translate(372 208.299)" fill="#dbe4f4"/>
            <rect id="Rectángulo_413267" data-name="Rectángulo 413267" width="20.667" height="20.667" transform="translate(372 228.966)" fill="#dbe4f4"/>
            <rect id="Rectángulo_413268" data-name="Rectángulo 413268" width="20.667" height="20.667" transform="translate(351.334 1.632)" fill="#dbe4f4"/>
            <rect id="Rectángulo_413269" data-name="Rectángulo 413269" width="20.667" height="20.667" transform="translate(351.334 22.299)" fill="#dbe4f4"/>
            <rect id="Rectángulo_413270" data-name="Rectángulo 413270" width="20.667" height="20.667" transform="translate(351.334 42.966)" fill="#dbe4f4"/>
            <rect id="Rectángulo_413271" data-name="Rectángulo 413271" width="20.667" height="20.667" transform="translate(351.334 63.632)" fill="#dbe4f4"/>
            <rect id="Rectángulo_413272" data-name="Rectángulo 413272" width="20.667" height="20.667" transform="translate(351.334 84.299)" fill="#dbe4f4"/>
            <rect id="Rectángulo_413273" data-name="Rectángulo 413273" width="20.667" height="20.667" transform="translate(351.334 104.966)" fill="#dbe4f4"/>
            <rect id="Rectángulo_413274" data-name="Rectángulo 413274" width="20.667" height="20.667" transform="translate(351.334 125.632)" fill="#dbe4f4"/>
            <rect id="Rectángulo_413275" data-name="Rectángulo 413275" width="20.667" height="20.667" transform="translate(351.334 146.299)" fill="#dbe4f4"/>
            <rect id="Rectángulo_413276" data-name="Rectángulo 413276" width="20.667" height="20.667" transform="translate(351.334 166.966)" fill="#dbe4f4"/>
            <rect id="Rectángulo_413277" data-name="Rectángulo 413277" width="20.667" height="20.667" transform="translate(351.334 187.633)" fill="#dbe4f4"/>
            <rect id="Rectángulo_413278" data-name="Rectángulo 413278" width="20.667" height="20.667" transform="translate(351.334 208.299)" fill="#dbe4f4"/>
            <rect id="Rectángulo_413279" data-name="Rectángulo 413279" width="20.667" height="20.667" transform="translate(351.334 228.966)" fill="#dbe4f4"/>
            <rect id="Rectángulo_413280" data-name="Rectángulo 413280" width="20.667" height="20.667" transform="translate(330.667 1.632)" fill="#dbe4f4"/>
            <rect id="Rectángulo_413281" data-name="Rectángulo 413281" width="20.667" height="20.667" transform="translate(330.667 22.299)" fill="#dbe4f4"/>
            <rect id="Rectángulo_413282" data-name="Rectángulo 413282" width="20.667" height="20.667" transform="translate(330.667 42.966)" fill="#dbe4f4"/>
            <rect id="Rectángulo_413283" data-name="Rectángulo 413283" width="20.667" height="20.667" transform="translate(330.667 63.632)" fill="#dbe4f4"/>
            <rect id="Rectángulo_413284" data-name="Rectángulo 413284" width="20.667" height="20.667" transform="translate(330.667 84.299)" fill="#dbe4f4"/>
            <rect id="Rectángulo_413285" data-name="Rectángulo 413285" width="20.667" height="20.667" transform="translate(330.667 104.966)" fill="#dbe4f4"/>
            <rect id="Rectángulo_413286" data-name="Rectángulo 413286" width="20.667" height="20.667" transform="translate(330.667 125.632)" fill="#dbe4f4"/>
            <rect id="Rectángulo_413287" data-name="Rectángulo 413287" width="20.667" height="20.667" transform="translate(330.667 146.299)" fill="#dbe4f4"/>
            <rect id="Rectángulo_413288" data-name="Rectángulo 413288" width="20.667" height="20.667" transform="translate(330.667 166.966)" fill="#dbe4f4"/>
            <rect id="Rectángulo_413289" data-name="Rectángulo 413289" width="20.667" height="20.667" transform="translate(330.667 187.633)" fill="#dbe4f4"/>
            <rect id="Rectángulo_413290" data-name="Rectángulo 413290" width="20.667" height="20.667" transform="translate(330.667 208.299)" fill="#dbe4f4"/>
            <rect id="Rectángulo_413291" data-name="Rectángulo 413291" width="20.667" height="20.667" transform="translate(330.667 228.966)" fill="#dbe4f4"/>
            <rect id="Rectángulo_413292" data-name="Rectángulo 413292" width="20.667" height="20.667" transform="translate(310 1.632)" fill="#dbe4f4"/>
            <rect id="Rectángulo_413293" data-name="Rectángulo 413293" width="20.667" height="20.667" transform="translate(310 22.299)" fill="#dbe4f4"/>
            <rect id="Rectángulo_413294" data-name="Rectángulo 413294" width="20.667" height="20.667" transform="translate(310 42.966)" fill="#dbe4f4"/>
            <rect id="Rectángulo_413295" data-name="Rectángulo 413295" width="20.667" height="20.667" transform="translate(310 63.632)" fill="#dbe4f4"/>
            <rect id="Rectángulo_413296" data-name="Rectángulo 413296" width="20.667" height="20.667" transform="translate(310 84.299)" fill="#dbe4f4"/>
            <rect id="Rectángulo_413297" data-name="Rectángulo 413297" width="20.667" height="20.667" transform="translate(310 104.966)" fill="#dbe4f4"/>
            <rect id="Rectángulo_413298" data-name="Rectángulo 413298" width="20.667" height="20.667" transform="translate(310 125.632)" fill="#dbe4f4"/>
            <rect id="Rectángulo_413299" data-name="Rectángulo 413299" width="20.667" height="20.667" transform="translate(310 146.299)" fill="#dbe4f4"/>
            <rect id="Rectángulo_413300" data-name="Rectángulo 413300" width="20.667" height="20.667" transform="translate(310 166.966)" fill="#dbe4f4"/>
            <rect id="Rectángulo_413301" data-name="Rectángulo 413301" width="20.667" height="20.667" transform="translate(310 187.633)" fill="#dbe4f4"/>
            <rect id="Rectángulo_413302" data-name="Rectángulo 413302" width="20.667" height="20.667" transform="translate(310 208.299)" fill="#dbe4f4"/>
            <rect id="Rectángulo_413303" data-name="Rectángulo 413303" width="20.667" height="20.667" transform="translate(310 228.966)" fill="#dbe4f4"/>
            <rect id="Rectángulo_413304" data-name="Rectángulo 413304" width="20.667" height="20.667" transform="translate(289.333 1.632)" fill="#dbe4f4"/>
            <rect id="Rectángulo_413305" data-name="Rectángulo 413305" width="20.667" height="20.667" transform="translate(289.333 22.299)" fill="#dbe4f4"/>
            <rect id="Rectángulo_413306" data-name="Rectángulo 413306" width="20.667" height="20.667" transform="translate(289.333 42.966)" fill="#dbe4f4"/>
            <rect id="Rectángulo_413307" data-name="Rectángulo 413307" width="20.667" height="20.667" transform="translate(289.333 63.632)" fill="#dbe4f4"/>
            <rect id="Rectángulo_413308" data-name="Rectángulo 413308" width="20.667" height="20.667" transform="translate(289.333 84.299)" fill="#dbe4f4"/>
            <rect id="Rectángulo_413309" data-name="Rectángulo 413309" width="20.667" height="20.667" transform="translate(289.333 104.966)" fill="#dbe4f4"/>
            <rect id="Rectángulo_413310" data-name="Rectángulo 413310" width="20.667" height="20.667" transform="translate(289.333 125.632)" fill="#dbe4f4"/>
            <rect id="Rectángulo_413311" data-name="Rectángulo 413311" width="20.667" height="20.667" transform="translate(289.333 146.299)" fill="#dbe4f4"/>
            <rect id="Rectángulo_413312" data-name="Rectángulo 413312" width="20.667" height="20.667" transform="translate(289.333 166.966)" fill="#dbe4f4"/>
            <rect id="Rectángulo_413313" data-name="Rectángulo 413313" width="20.667" height="20.667" transform="translate(289.333 187.633)" fill="#dbe4f4"/>
            <rect id="Rectángulo_413314" data-name="Rectángulo 413314" width="20.667" height="20.667" transform="translate(289.333 208.299)" fill="#dbe4f4"/>
            <rect id="Rectángulo_413315" data-name="Rectángulo 413315" width="20.667" height="20.667" transform="translate(289.333 228.966)" fill="#dbe4f4"/>
            <rect id="Rectángulo_413316" data-name="Rectángulo 413316" width="20.667" height="20.667" transform="translate(268.667 1.632)" fill="#dbe4f4"/>
            <rect id="Rectángulo_413317" data-name="Rectángulo 413317" width="20.667" height="20.667" transform="translate(268.667 22.299)" fill="#dbe4f4"/>
            <rect id="Rectángulo_413318" data-name="Rectángulo 413318" width="20.667" height="20.667" transform="translate(268.667 42.966)" fill="#dbe4f4"/>
            <rect id="Rectángulo_413319" data-name="Rectángulo 413319" width="20.667" height="20.667" transform="translate(268.667 63.632)" fill="#dbe4f4"/>
            <rect id="Rectángulo_413320" data-name="Rectángulo 413320" width="20.667" height="20.667" transform="translate(268.667 84.299)" fill="#dbe4f4"/>
            <rect id="Rectángulo_413321" data-name="Rectángulo 413321" width="20.667" height="20.667" transform="translate(268.667 104.966)" fill="#dbe4f4"/>
            <rect id="Rectángulo_413322" data-name="Rectángulo 413322" width="20.667" height="20.667" transform="translate(268.667 125.632)" fill="#dbe4f4"/>
            <rect id="Rectángulo_413323" data-name="Rectángulo 413323" width="20.667" height="20.667" transform="translate(268.667 146.299)" fill="#dbe4f4"/>
            <rect id="Rectángulo_413324" data-name="Rectángulo 413324" width="20.667" height="20.667" transform="translate(268.667 166.966)" fill="#dbe4f4"/>
            <rect id="Rectángulo_413325" data-name="Rectángulo 413325" width="20.667" height="20.667" transform="translate(268.667 187.633)" fill="#dbe4f4"/>
            <rect id="Rectángulo_413326" data-name="Rectángulo 413326" width="20.667" height="20.667" transform="translate(268.667 208.299)" fill="#dbe4f4"/>
            <rect id="Rectángulo_413327" data-name="Rectángulo 413327" width="20.667" height="20.667" transform="translate(268.667 228.966)" fill="#dbe4f4"/>
            <rect id="Rectángulo_413328" data-name="Rectángulo 413328" width="20.667" height="20.667" transform="translate(248 1.632)" fill="#dbe4f4"/>
            <rect id="Rectángulo_413329" data-name="Rectángulo 413329" width="20.667" height="20.667" transform="translate(248 22.299)" fill="#dbe4f4"/>
            <rect id="Rectángulo_413330" data-name="Rectángulo 413330" width="20.667" height="20.667" transform="translate(248 42.966)" fill="#dbe4f4"/>
            <rect id="Rectángulo_413331" data-name="Rectángulo 413331" width="20.667" height="20.667" transform="translate(248 63.632)" fill="#dbe4f4"/>
            <rect id="Rectángulo_413332" data-name="Rectángulo 413332" width="20.667" height="20.667" transform="translate(248 84.299)" fill="#dbe4f4"/>
            <rect id="Rectángulo_413333" data-name="Rectángulo 413333" width="20.667" height="20.667" transform="translate(248 104.966)" fill="#dbe4f4"/>
            <rect id="Rectángulo_413334" data-name="Rectángulo 413334" width="20.667" height="20.667" transform="translate(248 125.632)" fill="#dbe4f4"/>
            <rect id="Rectángulo_413335" data-name="Rectángulo 413335" width="20.667" height="20.667" transform="translate(248 146.299)" fill="#dbe4f4"/>
            <rect id="Rectángulo_413336" data-name="Rectángulo 413336" width="20.667" height="20.667" transform="translate(248 166.966)" fill="#dbe4f4"/>
            <rect id="Rectángulo_413337" data-name="Rectángulo 413337" width="20.667" height="20.667" transform="translate(248 187.633)" fill="#dbe4f4"/>
            <rect id="Rectángulo_413338" data-name="Rectángulo 413338" width="20.667" height="20.667" transform="translate(248 208.299)" fill="#dbe4f4"/>
            <rect id="Rectángulo_413339" data-name="Rectángulo 413339" width="20.667" height="20.667" transform="translate(248 228.966)" fill="#dbe4f4"/>
          </g>
        </g>
        <g id="Grupo_1115619" data-name="Grupo 1115619">
          <g id="Grupo_1115618" data-name="Grupo 1115618" clip-path="url(#clip-path)">
            <path id="Trazado_876217" data-name="Trazado 876217" d="M312.074,22.35s89,10.987,120.3,22.97l-1.356,7.733S357.73,34.229,311.146,30.746Z" fill="#b0c2e5"/>
            <path id="Trazado_876218" data-name="Trazado 876218" d="M310.012,41.01,303.4,81.294s26.723,2.917,37.186,6.321L347.7,47.752s-22.121-5.934-37.688-6.742" fill="#b0c2e5"/>
            <path id="Trazado_876219" data-name="Trazado 876219" d="M355.527,52.165l-.677,6.129s46.056,7.241,57.689,12.875l.515-6.294S371.3,52.7,355.527,52.165" fill="#b0c2e5"/>
            <path id="Trazado_876220" data-name="Trazado 876220" d="M353.844,67.391S391.062,73.463,403,77.743l-.528,4.785s-37.372-8.8-49.161-10.315Z" fill="#b0c2e5"/>
            <path id="Trazado_876221" data-name="Trazado 876221" d="M352.65,78.195l-.664,6s47.51,8.6,57.513,12.835l.465-4.2s-47.058-13.937-57.314-14.63" fill="#b0c2e5"/>
            <path id="Trazado_876222" data-name="Trazado 876222" d="M302.106,93.02s52.085,6.706,84.511,16.816l-.6,5.388s-70.871-14.3-84.621-15.818Z" fill="#b0c2e5"/>
            <path id="Trazado_876223" data-name="Trazado 876223" d="M299.389,108.057s79.91,11.3,112.494,23.7l-.721,6.523s-73.7-18.758-112.623-22.543Z" fill="#b0c2e5"/>
            <path id="Trazado_876224" data-name="Trazado 876224" d="M297.012,124.9s79.91,11.3,112.494,23.7l-.721,6.523s-73.7-18.758-112.623-22.543Z" fill="#b0c2e5"/>
            <path id="Trazado_876225" data-name="Trazado 876225" d="M292.256,142.224s79.91,11.3,112.494,23.7l-.721,6.523s-73.7-18.758-112.623-22.543Z" fill="#b0c2e5"/>
            <path id="Trazado_876226" data-name="Trazado 876226" d="M290.018,162.471s79.91,11.3,112.494,23.7l-.721,6.523s-73.7-18.758-112.622-22.543Z" fill="#b0c2e5"/>
            <path id="Trazado_876227" data-name="Trazado 876227" d="M288.12,179.645s79.91,11.3,112.494,23.7l-.721,6.523s-73.7-18.758-112.622-22.543Z" fill="#b0c2e5"/>
            <path id="Trazado_876228" data-name="Trazado 876228" d="M216.191,100.56h-18.63a2.929,2.929,0,0,1-2.746-2.031l-1.318-4.2a2.7,2.7,0,0,0-2.532-1.873H167.5a2.161,2.161,0,0,0-2.2,1.873l-.568,4.2a2.344,2.344,0,0,1-2.383,2.031H71.684A9.279,9.279,0,0,0,62.216,110.8L74.024,242.916a11.509,11.509,0,0,0,11.3,10.244H229.83a9.28,9.28,0,0,0,9.469-10.244L227.491,110.8a11.51,11.51,0,0,0-11.3-10.244" fill="#c0414c"/>
            <path id="Trazado_876229" data-name="Trazado 876229" d="M332.976,84.63c-1.224-1.43-5.662-.1-5.662-.1a7.3,7.3,0,0,0-3.741,4.614l7.544,2.018Z" fill="#f9af92"/>
            <path id="Trazado_876230" data-name="Trazado 876230" d="M287.709,73.661c5.9,2.844,23.266,26.061,23.266,26.061l-3.765,6.954-20.841-17.1Z" fill="#c0414c"/>
            <path id="Trazado_876231" data-name="Trazado 876231" d="M263.355,253.16v-1.954c0-2.25,2.1-6.335,2.1-7.835s5.806,1.219,5.806,1.219a7.232,7.232,0,0,0,2,4.366,5.564,5.564,0,0,1,1.409,4.2Z" fill="#3e2d51"/>
            <path id="Trazado_876232" data-name="Trazado 876232" d="M302.988,253.16l-1.005-.469-.469.469h-3.833c-.381-1.1-1.679-5.294-.507-8.2,1.358-3.372,5.559-2.472,5.559-2.472s2.851,3.978,4.5,4.69,7.953,3.263,8.7,4.914c.224.493-.158.826-.048,1.069Z" fill="#3e2d51"/>
            <path id="Trazado_876233" data-name="Trazado 876233" d="M290.116,127.513c2.176,31.548,8.117,72.9,14.564,116.388,0,0-1.264,2.056-8.434.981L274.165,152.53a.635.635,0,0,0-1.227.2c-.255,6.96-2.487,28.253-1.288,92.446a8.823,8.823,0,0,1-7.787,0s-14.236-94.945-10.957-113.123Z" fill="#4677bc"/>
            <path id="Trazado_876234" data-name="Trazado 876234" d="M252.416,138.312s6.035,6.342,23.707,3.544c10.038-1.589,14.6-6.49,14.6-6.49s3.226-54.743-.324-59.358c-2.581-3.353-7.655-4.79-14.271-5.14-2.495-.128-5.208-.1-8.093.03a27.317,27.317,0,0,0-6.049.969c-7.4,2.067-12.593,6.923-13.381,10.734-.989,4.78,3.816,55.711,3.816,55.711" fill="#eb4e63"/>
            <path id="Trazado_876235" data-name="Trazado 876235" d="M250.126,79.412c4.71-1.217,7.4,13.584,8.548,21.52s2.313,13.938,2.313,13.938,1.628,5.654-3.592,5.209-8.59-6.169-10.461-19.147c-2.55-17.694,3.192-21.52,3.192-21.52" fill="#c0414c"/>
            <path id="Trazado_876236" data-name="Trazado 876236" d="M283.372,58.273c-.042.187-.094.382-.145.57-.093.331-.186.662-.3.985-.077.247-.153.493-.238.731a18.433,18.433,0,0,1-3.043,5.866c-3.281,3.62-14.671.535-13-10.294s8.535-11.569,15.768-6.706c1.98,1.317,1.9,5.1.952,8.848" fill="#f8c6a3"/>
            <path id="Trazado_876237" data-name="Trazado 876237" d="M275.4,55.756c-.07.6.146,1.127.483,1.166s.665-.421.734-1.026-.146-1.127-.482-1.165-.665.42-.735,1.025" fill="#231b30"/>
            <path id="Trazado_876238" data-name="Trazado 876238" d="M280.886,56.853c-.07.6.146,1.127.483,1.166s.665-.421.734-1.026-.146-1.127-.482-1.166-.665.421-.735,1.026" fill="#231b30"/>
            <path id="Trazado_876239" data-name="Trazado 876239" d="M279.767,57.685s1,2.464,2.122,2.228.015,2.235-2.872,1.023a3.424,3.424,0,0,1,.75-3.251" fill="#f09988"/>
            <path id="Trazado_876240" data-name="Trazado 876240" d="M272.839,57.376a1.161,1.161,0,1,0,1.4-.365,1.037,1.037,0,0,0-1.4.365" fill="#f6b190"/>
            <path id="Trazado_876241" data-name="Trazado 876241" d="M283.372,58.273c-.042.187-.094.382-.145.57-.093.331-.186.662-.3.985a1.139,1.139,0,0,1-.306.034.927.927,0,1,1,0-1.81,1.32,1.32,0,0,1,.748.221" fill="#f6b190"/>
            <path id="Trazado_876242" data-name="Trazado 876242" d="M275.026,52.687a.245.245,0,0,1-.131-.453,3.283,3.283,0,0,1,2.393-.256.245.245,0,0,1-.135.472,2.825,2.825,0,0,0-2,.2.248.248,0,0,1-.13.038" fill="#3e2d51"/>
            <path id="Trazado_876243" data-name="Trazado 876243" d="M283.115,54.412a.246.246,0,0,1-.216-.129,1.308,1.308,0,0,0-1.046-.769.247.247,0,0,1-.241-.248.243.243,0,0,1,.244-.242,1.785,1.785,0,0,1,1.475,1.026.244.244,0,0,1-.1.332.239.239,0,0,1-.116.03" fill="#3e2d51"/>
            <path id="Trazado_876244" data-name="Trazado 876244" d="M279.054,62.709s-3.493-.051-3.8.267.461,1.027,1.9,1.063a2.011,2.011,0,0,0,1.9-1.33" fill="#231b30"/>
            <path id="Trazado_876245" data-name="Trazado 876245" d="M281.053,44.309l-.031-.006a13.728,13.728,0,0,0-4.765-.886c-5.618-.162-10.812.375-11.258,8.567-.515,9.442,2.453,10.725,2.453,10.725-1.351-5.977,1.5-6.324,1.5-6.324,2.661-.8,2.979-7.292,2.979-7.292s6,3.48,11.658,1.882,1.565-5.806-2.54-6.666" fill="#3e2d51"/>
            <path id="Trazado_876246" data-name="Trazado 876246" d="M268.956,56.385s-1.246-2.442-3.147-1.583-.1,5.233,1.668,5.508,1.479-3.925,1.479-3.925" fill="#f8c6a3"/>
            <path id="Trazado_876247" data-name="Trazado 876247" d="M275.8,67.868s-1.207,1.943-.145,6.724c0,0-5.928,3.463-9.89-.837,0,0,1.731-9.619.723-11.826a3.352,3.352,0,0,1,.5-1.808s3.278,6.459,8.813,7.747" fill="#f9af92"/>
            <path id="Trazado_876248" data-name="Trazado 876248" d="M266.485,68.816s.775,4.183,6.831,5.67a8.451,8.451,0,0,0,1.87-4.874s1.009.412,2.279,3.174a9.823,9.823,0,0,1,.632,5.632,12.652,12.652,0,0,0-4.645-2.983s-2.232,1.708-2.671,3.514c0,0-6.709-2.869-7.771-6.269a6.464,6.464,0,0,1,3.475-3.864" fill="#c0414c"/>
            <path id="Trazado_876249" data-name="Trazado 876249" d="M273.1,75.23S276.185,90,276.61,96.9a130.915,130.915,0,0,0-2.975-21.941Z" fill="#c0414c"/>
            <path id="Trazado_876250" data-name="Trazado 876250" d="M279.811,86.864s4.715.266,7.69-.93c0,0,.956,7.517.8,8.474s-6.11,1.859-6.853,1.381-.718-5.578-1.634-8.925" fill="#c0414c"/>
            <path id="Trazado_876251" data-name="Trazado 876251" d="M279.954,88.977c-1.224-1.43-5.662-.1-5.662-.1a7.3,7.3,0,0,0-3.741,4.614l7.544,2.018Z" fill="#f9af92"/>
            <path id="Trazado_876252" data-name="Trazado 876252" d="M72.267,111.037,81.8,246.491l153.487,2.661-5.09-145.175Z" fill="#eba22f"/>
            <path id="Trazado_876253" data-name="Trazado 876253" d="M85.444,239.815V115.2l159.228-3.743L230.019,244.276Z" fill="#ffd249"/>
            <path id="Trazado_876254" data-name="Trazado 876254" d="M189.714,213.275,185.089,93.392c80.878.488,161.535-9.329,161.535-9.329s5.03,98.124,9.809,121.751c0,0-131.138,13-166.719,7.461" fill="#ffe668"/>
            <path id="Trazado_876255" data-name="Trazado 876255" d="M85.324,253.16H229.831c5.735,0,11.845-3.957,13.646-8.838l42.069-113.98c1.8-4.881-1.388-8.838-7.122-8.838H133.917c-5.735,0-11.845,3.957-13.647,8.838L78.2,244.322c-1.8,4.881,1.387,8.838,7.122,8.838" fill="#eb4e63"/>
            <path id="Trazado_876256" data-name="Trazado 876256" d="M327.314,84.27a1.575,1.575,0,0,1,1.2.093.547.547,0,0,1,.545-.649,1.673,1.673,0,0,1,1.152.436.486.486,0,0,1,.207-.309c.724-.554,1.378-.143,1.847.488a.3.3,0,0,1,.008-.032c.121-.26.55-.349.839-.317.664.074.884.666,1.126,1.2a.814.814,0,0,1,.014.84.541.541,0,0,1-.83,0c-.15-.175-.412-.729-.513-.793-.06-.039-.129-.085-.2-.135a3.974,3.974,0,0,1,.229.643c.186.74.157,1.129-.309,1.213-.282.051-.607-.045-.873-.672a4.783,4.783,0,0,0-.535-.907c-.025-.034-.056-.062-.083-.093.084.132.167.268.251.411,0,0,.271,1.3.024,1.651-.112.158-.724.367-1.128-.394-.184-.346-.19-1.04-.389-1.31a5.583,5.583,0,0,0-.862-.638s.4,1.359.417,1.588c.051.761-.048,1.139-.521,1.139-.287,0-.593-.153-.739-.818-.3-1.392-1.007-1.113-1.3-1.607a1.15,1.15,0,0,1,.421-1.031" fill="#f8c6a3"/>
            <path id="Trazado_876257" data-name="Trazado 876257" d="M277.451,90.494a5.99,5.99,0,0,0-.939-.664s.463,1.449.485,1.694c.072.815-.024,1.223-.533,1.233-.307.007-.635-.15-.811-.859a8,8,0,0,0-.667-1.531s.049.858.046,1.175a.873.873,0,0,1-.365.825.581.581,0,0,1-.808-.373c-.067-.238-.073-.9-.143-1-.124-.2-.558-.94-.206-1.2s.944.048.944.048a.488.488,0,0,1,.191-.745,1.687,1.687,0,0,1,1.293.07.587.587,0,0,1,.57-.708,2.4,2.4,0,0,1,1.315.42s-.127-.423.469-.656a1.466,1.466,0,0,1,1.318.126,3.35,3.35,0,0,1,1.182,1.769,4.145,4.145,0,0,1-.051,1.7c-.042.287-1.06.161-1.334-.982a1.969,1.969,0,0,0-1.134-1.576l.781,1.261s.322,1.388.064,1.77c-.116.172-.767.411-1.218-.4-.206-.367-.228-1.111-.449-1.4" fill="#f8c6a3"/>
            <path id="Trazado_876258" data-name="Trazado 876258" d="M438.207,74.626c1.649,6.889,3.258,9.492,8.217,12.183,0,0-3.259,13.884.283,20.117S460.024,115,460.024,115s4.675-20.542-5.1-31.167c0,0,7.366-9.35,4.25-17s-25.784-12.325-20.967,7.792" fill="#624889"/>
            <path id="Trazado_876259" data-name="Trazado 876259" d="M437.357,85.18c-7.437-.425-24.862,24.225-24.862,24.225l-22.738,12.111,3.613,1.063s20.824-7.224,23.587-8.5,19.125-18.7,19.125-18.7Z" fill="#d45232"/>
            <path id="Trazado_876260" data-name="Trazado 876260" d="M406.22,252.427a10.6,10.6,0,0,0,1.5-1.957,3.592,3.592,0,0,1,3.561-1.509c.726.633.842,3.52.861,4.2h.909c.317-.811,1.422-4.536,1.088-5.929-.278-1.121-1.116-3.715-1.478-4.956a4.121,4.121,0,0,1-.2-1c1.012-4.24,4.491-18.712,10.538-30.376,4.8-9.264,6.351-12.946,7.3-21.252s8.523-29.068,8.523-29.068-10.634-28.878-15.013-10.919-4.966,39.987-5.7,44.384-7.319,35.209-11.237,48.123c-.747,2.462-4.38,7.361-5.8,8.505a.1.1,0,0,1-.036.015,5.176,5.176,0,0,0-1.884,1,4.144,4.144,0,0,0-.673.747Z" fill="#f9af92"/>
            <path id="Trazado_876261" data-name="Trazado 876261" d="M406.22,253.16c.779,0,2.282-1.623,3.339-2.443a2.682,2.682,0,0,1,1.557-.733c.726.633,1.01,2.5,1.029,3.176h.909c.317-.812,1.422-4.536,1.088-5.929a25.845,25.845,0,0,1-1.121-4.793c-2.846-1.619-5.288,3.861-8.953,6.947-1.841,1.551-2.985,1.283-2.985,1.283a.375.375,0,0,1-.036.015,9.885,9.885,0,0,0-2.267.706,3.619,3.619,0,0,0-1.757,1.771Z" fill="#624889"/>
            <path id="Trazado_876262" data-name="Trazado 876262" d="M427.217,126.275l-2.893,20.176S416.6,175.989,411.857,221.6c0,0,1.7,2.2,6.234.779,0,0,11.616-19.55,13.6-34.283s11.616-26.35,11.616-34-16.09-27.826-16.09-27.826" fill="#4677bc"/>
            <path id="Trazado_876263" data-name="Trazado 876263" d="M457.171,155.444c1.173,18.306-2.3,22.848-3.645,30.377-1.019,5.7,1.881,13.947-1.044,23.119-1.948,6.107-6.276,32-6.276,32v10.748h-7.235s2.851-11.894,2.851-16.366c0-19.3,2.662-42.306,2.267-51.053-.387-8.55-3.257-25.4-3.257-25.4Z" fill="#f8c6a3"/>
            <path id="Trazado_876264" data-name="Trazado 876264" d="M447.4,253.16a52.87,52.87,0,0,0-.214-5.5,38.948,38.948,0,0,0-.977-5.653,33.791,33.791,0,0,1-1.466,6.142c-.366,1.466-3.176,1.1-3.738,0S441,242,441,242c-1.3,2.041-.9,4.921-2.031,5.914-.8.7-.879,3.866-.86,5.242Z" fill="#624889"/>
            <path id="Trazado_876265" data-name="Trazado 876265" d="M427.217,126.275s-.91,19.893,11.84,35.759c0,0-.566,55.817,2.834,65.167,0,0,4.285,1.665,6.835.248,0,0,9.031-25.748,7.048-50.681,0,0,10.859-28.486-7.6-49.518Z" fill="#5a9bdb"/>
            <path id="Trazado_876266" data-name="Trazado 876266" d="M437.357,85.18a78.657,78.657,0,0,1,9.208.354c6.446.5,11.288-.686,14.6,3.5,4.977,6.276-3.121,17.844-7.381,23.839a35.719,35.719,0,0,0-5.618,14.382s-11.251,3.268-20.953-.975l-.725-13.8S420.085,97.32,437.357,85.18" fill="#ef744b"/>
            <path id="Trazado_876267" data-name="Trazado 876267" d="M389.672,124.365a1.336,1.336,0,0,1-.2-.017c-1.173-.128-5.6,3.111-6.281,2.507a.3.3,0,0,1-.094-.238c0-1.419,3.536-4.675,6.656-5.1s3.613,1.063,3.613,1.063c.6,1.275-2.321,1.853-3.7,1.785" fill="#f8c6a3"/>
            <path id="Trazado_876268" data-name="Trazado 876268" d="M391.313,123.073a16.323,16.323,0,0,0-1.641,1.292,1.323,1.323,0,0,1-.2-.017c-1.173-.127-5.6,3.111-6.281,2.508,1.606-.765,2.524-2.542,3.442-3.358,1.275-1.13,4.675-.425,4.675-.425" fill="#f9af92"/>
            <path id="Trazado_876269" data-name="Trazado 876269" d="M454.145,86.667s-11.688,18.275-11.05,45.262S460.52,168.48,460.52,168.48a77.967,77.967,0,0,0-5.738-38.25s9.563-30.6,7.863-38.463-8.5-5.1-8.5-5.1" fill="#4677bc"/>
            <path id="Trazado_876270" data-name="Trazado 876270" d="M441.182,85.109s-13.813,11.121-12.75,24.721-6.163,45.262-6.163,45.262,5.1-34.425,2.975-44.2,1.488-20.612,12.113-25.712Z" fill="#4677bc"/>
            <path id="Trazado_876271" data-name="Trazado 876271" d="M454.224,59.37s-12.417-4.158-14.917,4.585.022,17.651,6.71,17.655c6.322,0,17.852-17.322,8.207-22.24" fill="#f8c6a3"/>
            <path id="Trazado_876272" data-name="Trazado 876272" d="M445.976,69.361c-.037.561-.354,1-.71.974s-.613-.5-.577-1.058.354-1,.71-.973.614.5.577,1.057" fill="#231b30"/>
            <path id="Trazado_876273" data-name="Trazado 876273" d="M447.97,71.65a1.222,1.222,0,1,1-1.286-.823,1.093,1.093,0,0,1,1.286.823" fill="#f6b190"/>
            <path id="Trazado_876274" data-name="Trazado 876274" d="M446.314,69.216s-.3-1.291-.754-1.321-1.223.829-1.223.829l-.84-.612.809.318s.7-.983,1.335-.783.673,1.569.673,1.569" fill="#231b30"/>
            <path id="Trazado_876275" data-name="Trazado 876275" d="M440.785,68.557c-.036.561-.354,1-.71.974s-.613-.5-.577-1.058.355-1,.71-.973.614.5.577,1.057" fill="#231b30"/>
            <path id="Trazado_876276" data-name="Trazado 876276" d="M441.122,68.412s-.3-1.291-.754-1.321-1.223.829-1.223.829l-.84-.612.809.318s.7-.983,1.335-.783.673,1.569.673,1.569" fill="#231b30"/>
            <path id="Trazado_876277" data-name="Trazado 876277" d="M447.006,66.289a.256.256,0,0,1-.2-.119,1.715,1.715,0,0,0-1.528-.711.258.258,0,0,1-.054-.513,2.217,2.217,0,0,1,2.016.947.257.257,0,0,1-.078.356.262.262,0,0,1-.154.04" fill="#624889"/>
            <path id="Trazado_876278" data-name="Trazado 876278" d="M441.283,64.962a.258.258,0,0,1-.149-.059,1.7,1.7,0,0,0-1.672-.212.258.258,0,0,1-.208-.472,2.22,2.22,0,0,1,2.21.287.258.258,0,0,1-.181.456" fill="#624889"/>
            <path id="Trazado_876279" data-name="Trazado 876279" d="M441.092,70.159s-2.217.02-2,.8a5.215,5.215,0,0,0,1.5,1.794s1-1.622.5-2.593" fill="#f09988"/>
            <path id="Trazado_876280" data-name="Trazado 876280" d="M440.447,74.833a14.466,14.466,0,0,1,3.285,1.28c.291.242.878,1.414-1.2.921a2.41,2.41,0,0,1-2.081-2.2" fill="#231b30"/>
            <path id="Trazado_876281" data-name="Trazado 876281" d="M449.279,63.863a14.148,14.148,0,0,1,2.7,8.323s2.083-2.553,3.173-.335-3.275,5.46-3.275,5.46-.129,2.123,1.776,1.777c3.117-.567,7.214-6.8,6.078-10.47s-4.623-7.326-10.448-4.755" fill="#624889"/>
            <path id="Trazado_876282" data-name="Trazado 876282" d="M451.719,75.349c-.953,2.566-4.6,7.011-8.474,5.741,0,0,.325,3.617-1.284,5.011,0,0,.921,5.029,10.059.638a12.231,12.231,0,0,1-.567-5.03c.261-3.832,1.646-5.449,1.646-5.449-1.044.691-1.38-.911-1.38-.911" fill="#f9af92"/>
            <path id="Trazado_876283" data-name="Trazado 876283" d="M443.024,59.963s3.754,7.579,10.554,11.688-.283,13.954-.283,13.954,5.383-3.9,6.587-10.059,3.755-9.633-.354-16.787c-2.054-3.577-8.919-4.989-12.744-4.449s-4.61,3.032-4.61,3.032c-4.636.283-7.792,7.863-3.967,17.283a14.1,14.1,0,0,1,4.817-14.662" fill="#624889"/>
            <path id="Trazado_876284" data-name="Trazado 876284" d="M290.438,181.923A44.767,44.767,0,1,0,309.8,121.648a44.766,44.766,0,0,0-19.364,60.275m74.347-38.192a38.817,38.817,0,1,1-52.264-16.791,38.816,38.816,0,0,1,52.264,16.791" fill="#3e2d51"/>
            <g id="Grupo_1115614" data-name="Grupo 1115614" opacity="0.25">
              <g id="Grupo_1115613" data-name="Grupo 1115613">
                <g id="Grupo_1115612" data-name="Grupo 1115612" clip-path="url(#clip-path-9)">
                  <path id="Trazado_876285" data-name="Trazado 876285" d="M311.744,125.428a40.517,40.517,0,1,1-17.526,54.553,40.517,40.517,0,0,1,17.526-54.553" fill="#fff"/>
                </g>
              </g>
            </g>
            <path id="Trazado_876286" data-name="Trazado 876286" d="M368.963,149.229,449.611,107.8A6.8,6.8,0,0,0,443.4,95.7l-80.649,41.429Zm80.061-48.772a3.117,3.117,0,1,1-4.2-1.348,3.117,3.117,0,0,1,4.2,1.348" fill="#3e2d51"/>
            <g id="Grupo_1115617" data-name="Grupo 1115617" opacity="0.25">
              <g id="Grupo_1115616" data-name="Grupo 1115616">
                <g id="Grupo_1115615" data-name="Grupo 1115615" clip-path="url(#clip-path-10)">
                  <path id="Trazado_876287" data-name="Trazado 876287" d="M347.691,137.123c4.179-2.147,10.367,1.564,13.821,8.289s2.867,13.916-1.312,16.062-10.366-1.564-13.821-8.288-2.867-13.916,1.312-16.063" fill="#fff"/>
                </g>
              </g>
            </g>
            <path id="Trazado_876288" data-name="Trazado 876288" d="M460.307,88.226c-4.421-.68-5.383,31.167-5.383,31.167s-20.542-1.559-29.892-.284a3.655,3.655,0,0,0-1.7,2.975s33.15,7.084,36.125,5.667,5.383-29.183,4.958-32.725-2.266-6.517-4.108-6.8" fill="#d45232"/>
            <path id="Trazado_876289" data-name="Trazado 876289" d="M425.032,119.109s-3.612-.354-5.419.708-1.381,1.594-2.55,3.188c0,0,.532.425,1.169-.425a3.713,3.713,0,0,1,2.125-1.063s-.85,1.807-4.356,3.507c0,0,.106.743,1.169.318s2.762-.106,4.143-.106,3.825-2.869,3.825-2.869-1.487-1.735-.106-3.258" fill="#f9af92"/>
            <path id="Trazado_876290" data-name="Trazado 876290" d="M401.224,174.319c2.01-6.661,1.372-16.653-1.178-28.126s0-12.272,0-12.272l-5.525,3.057s1.952,21.066,1.72,27.573a11.542,11.542,0,0,0,4.983,9.768" fill="#f9af92"/>
            <path id="Trazado_876291" data-name="Trazado 876291" d="M375.033,143.294s8.215-3.182,12.112-.027S397.433,164,400.56,167.716s0,7.715,0,7.715-5.093,1.735-12.033-11.192-7.541-11.221-7.541-11.221Z" fill="#f8c6a3"/>
            <path id="Trazado_876292" data-name="Trazado 876292" d="M392.616,252.428a4.977,4.977,0,0,1-1.917-.7c-.02-.011.113.522.1.521-4.877-.888-16.014.21-19.247.09l-2.291-4.837s7.016.524,7.884.229c1.174-.4,2.077-2.207,2.7-3.124.779-1.131,4.142-2.73,4.923-3.025l.583.648c-.472.449-2.455,2.383-2.441,3.3a3.444,3.444,0,0,0,3.358,1.571,10.155,10.155,0,0,1,2.358-.183l4.954,5.509a3.931,3.931,0,0,1-.964,0" fill="#f8c6a3"/>
            <path id="Trazado_876293" data-name="Trazado 876293" d="M389.149,246.449c-.5-.555-2.62-.586-3.881-.814a2.577,2.577,0,0,1-1.521-.64c-.013-.923,1.132-2.32,1.6-2.769l-.583-.647c-.781.294-4.145,1.893-4.923,3.024a34.328,34.328,0,0,1-2.7,2.766c.67,3.066,6.141,2.4,10.689,3.033,2.286.318,2.585,1.023,2.585,1.023s.126.769.145.78c.161.054,1.057.3,2.087.681a3.462,3.462,0,0,0,2.388.117Z" fill="#624889"/>
            <path id="Trazado_876294" data-name="Trazado 876294" d="M380.419,189.543s12.512,15.778,6.208,25.714c-2.138,3.371-7.569,5.293-7.569,5.293C368.615,231.142,346.1,242.6,346.1,242.6a29.613,29.613,0,0,1,16.4.873c5.809,2,12.137,3.891,12.137,3.891l.9,5.091s-37.171.106-42.874-2.464,13.974-30.043,21.041-35.745,12.044-26.071,12.044-26.071Z" fill="#11824e"/>
            <path id="Trazado_876295" data-name="Trazado 876295" d="M317.142,251.741a4.973,4.973,0,0,1,1.8-.955.132.132,0,0,0,.035-.014c1.357-1.1,4.839-5.793,5.555-8.153.124-.408.251-.837.38-1.281h5.074c-.036.152-.07.295-.1.426a3.975,3.975,0,0,0,.193.963c.347,1.19,1.15,3.676,1.417,4.75.32,1.335-.739,4.9-1.043,5.683h-.871c-.018-.651-.13-3.418-.825-4.025a3.446,3.446,0,0,0-3.414,1.447,10.1,10.1,0,0,1-1.44,1.875H316.5a4.016,4.016,0,0,1,.646-.716" fill="#f8c6a3"/>
            <path id="Trazado_876296" data-name="Trazado 876296" d="M323.906,253.16c.747,0,2.188-1.556,3.2-2.342a2.578,2.578,0,0,1,1.493-.7c.7.607.968,2.393.986,3.044h.871c.3-.778,1.364-4.348,1.043-5.683a24.76,24.76,0,0,1-1.074-4.594c-2.728-1.552-5.069,3.7-8.581,6.659-1.766,1.486-2.861,1.229-2.861,1.229a.3.3,0,0,1-.035.014,9.607,9.607,0,0,0-2.173.677,3.465,3.465,0,0,0-1.684,1.7Z" fill="#624889"/>
            <path id="Trazado_876297" data-name="Trazado 876297" d="M376.052,190.382s10.044,21.559-1.874,29.57c-11.223,7.544-44.783-18.2-44.783-18.2s2.906,6.373,1.628,16.164c-1.222,9.369-.424,13.366.536,23.423h-8.234a115.614,115.614,0,0,0-2.078-29.751c-3.259-15.262-6.518-25.68,0-26.377s38.745,11.07,38.745,11.07l.344-7.671Z" fill="#1ba363"/>
            <path id="Trazado_876298" data-name="Trazado 876298" d="M372.907,124.557s-11.9-3.985-14.3,4.394.025,17.135,6.432,16.923c7.9-.262,17.11-16.6,7.866-21.317" fill="#f8c6a3"/>
            <path id="Trazado_876299" data-name="Trazado 876299" d="M363.9,145.645s4.879,1.822,3.337,3.158a4.23,4.23,0,0,0,1.651,3.094c4.953,3.369,10.863-2.151,10.863-2.151a17.73,17.73,0,0,1-6.407-9.15c-1,.662-4.146-.495-9.444,5.049" fill="#f9af92"/>
            <path id="Trazado_876300" data-name="Trazado 876300" d="M368.127,148.093a64.379,64.379,0,0,0,7.925.233c2.865-.375,8.278-2.469,11.456,1.538,4.771,6.015,1.843,15.332-.815,21.861-2.4,5.9-5.625,12.118-6.274,17.818,0,0-10.784,3.133-20.083-.934l-.7-13.23s-8.069-15.65,8.486-27.286" fill="#4677bc"/>
            <path id="Trazado_876301" data-name="Trazado 876301" d="M400.67,132.865a6.228,6.228,0,0,0,.129-.841,1.966,1.966,0,0,1,.575-1.253s-.567-.638-1.417.921c-.548,1-.212,1.558-2.479,2.125a2.332,2.332,0,0,0-1.693,1.33,1.691,1.691,0,0,0-1.263,1.831l1.54,1.868a15.082,15.082,0,0,0,.916-2.387c.872-.093,1.82.317,2.061-.037a27.261,27.261,0,0,1,3.374-3.784l.967-1.089Z" fill="#f9af92"/>
            <path id="Trazado_876302" data-name="Trazado 876302" d="M368.127,148.093a21.925,21.925,0,0,0-10.452,23.454s9.5,33.908,14.1,38.795c0,0,12.2-6.073,21.68-4.1,0,0-7.255-16.392-10.256-17.621,0,0,2.312-1.494,1.675-1.787s-1.768-4.065-1.768-4.065,9.341-22.937,8.211-27.326-6.656-11.073-6.656-11.073Z" fill="#624889"/>
            <path id="Trazado_876303" data-name="Trazado 876303" d="M357.7,121.441c-6.666,3.991-4.706,20.767,2.315,17.4,0,0-.646-2.879,1.053-2.666s2.721,6.107,1.679,6.028c0,0,.215,18.123,12.285,23.3s20.447-5.721,16.28-13.98-5.662-11.469-8.212-19.6-8.825-20.413-25.4-10.489" fill="#d45232"/>
            <path id="Trazado_876304" data-name="Trazado 876304" d="M362.749,152.986c3.972.52,3.45,9.8,0,16.981s-5.564,18.258-9.146,22.517-27.17-28.042-27.17-28.042l2.975-2.975s17,16.363,20.4,18.275A74.637,74.637,0,0,0,353.6,169.07c4.705-16.084,9.146-16.084,9.146-16.084" fill="#f8c6a3"/>
            <path id="Trazado_876305" data-name="Trazado 876305" d="M330.874,162.871a13.33,13.33,0,0,0-.616-4.18c-.638-1.474-1.169-4.375-1.807-4.571s-.318,1.716,0,2.991c0,0-4.887-5.418-5.95-6.056s-.637.212,0,1.381,2.125,3.507,2.125,3.507a4.563,4.563,0,0,0-.85.911c-.637.788-.212,1.532-.956,2.488s-.106,2.232-.319,3.082,4.53,3.744,5.719,4.422,2.654-3.975,2.654-3.975" fill="#f8c6a3"/>
            <path id="Trazado_876306" data-name="Trazado 876306" d="M103.407,20.714s12.654-7.831,32.11-7.472l13.416,16.345S130.04,30.743,120.974,38.6Z" fill="#ffd249"/>
            <path id="Trazado_876307" data-name="Trazado 876307" d="M117.007,0s18.519,2.267,31.926,0l5.1,20.714s-16.46,7.612-28.724,5.349Z" fill="#ffe668"/>
            <path id="Trazado_876308" data-name="Trazado 876308" d="M62.686,67.424S76.918,65.089,86.375,60.5l8.272,14.264S84.085,83.982,74.5,84.963Z" fill="#ffe668"/>
            <path id="Trazado_876309" data-name="Trazado 876309" d="M143.731,51.03,140,50.57a.533.533,0,0,1-.463-.476l-.084-.877a.487.487,0,0,0-.426-.439l-4.7-.58a.49.49,0,0,0-.521.322l-.294.83a.531.531,0,0,1-.565.35L114.77,47.459a2.1,2.1,0,0,0-2.338,1.825L110.17,67.629A2.1,2.1,0,0,0,112,69.966l28.961,3.571a2.1,2.1,0,0,0,2.338-1.824l2.262-18.345a2.1,2.1,0,0,0-1.825-2.338" fill="#c0414c"/>
          </g>
        </g>
        <g id="Grupo_1115621" data-name="Grupo 1115621">
          <g id="Grupo_1115620" data-name="Grupo 1115620" clip-path="url(#clip-path-11)">
            <rect id="Rectángulo_413343" data-name="Rectángulo 413343" width="20.667" height="20.667" transform="translate(144.667 42.966)" fill="#93f2fb"/>
            <rect id="Rectángulo_413344" data-name="Rectángulo 413344" width="20.667" height="20.667" transform="translate(144.667 63.632)" fill="#93f2fb"/>
            <rect id="Rectángulo_413345" data-name="Rectángulo 413345" width="20.667" height="20.667" transform="translate(124 42.966)" fill="#93f2fb"/>
            <rect id="Rectángulo_413346" data-name="Rectángulo 413346" width="20.667" height="20.667" transform="translate(124 63.632)" fill="#93f2fb"/>
          </g>
        </g>
        <g id="Grupo_1115623" data-name="Grupo 1115623">
          <g id="Grupo_1115622" data-name="Grupo 1115622" clip-path="url(#clip-path-12)">
            <rect id="Rectángulo_413347" data-name="Rectángulo 413347" width="20.667" height="20.667" transform="translate(103.333 42.966)" fill="#93f2fb"/>
            <rect id="Rectángulo_413348" data-name="Rectángulo 413348" width="20.667" height="20.667" transform="translate(82.667 42.966)" fill="#93f2fb"/>
          </g>
        </g>
        <g id="Grupo_1115625" data-name="Grupo 1115625">
          <g id="Grupo_1115624" data-name="Grupo 1115624" clip-path="url(#clip-path)">
            <path id="Trazado_876312" data-name="Trazado 876312" d="M146.731,54.1,117.77,50.533a2.438,2.438,0,0,0-2.615,1.541l-4.708,15.839a1.633,1.633,0,0,0,1.547,2.054l28.961,3.571A2.44,2.44,0,0,0,143.571,72l4.707-15.839a1.633,1.633,0,0,0-1.547-2.054" fill="#eb4e63"/>
          </g>
        </g>
      </g>
    </g>
  </g>
</svg>
