<svg xmlns="http://www.w3.org/2000/svg" xmlns:xlink="http://www.w3.org/1999/xlink" width="99.001" height="98.908" viewBox="0 0 99.001 98.908">
  <defs>
    <clipPath id="clip-path">
      <rect id="Rect치ngulo_413577" data-name="Rect치ngulo 413577" width="43.045" height="53.348" fill="#12263f"/>
    </clipPath>
  </defs>
  <g id="Grupo_1116026" data-name="Grupo 1116026" transform="translate(1091.211 6252.815)">
    <g id="Grupo_1115405" data-name="Grupo 1115405" transform="translate(-1477.878 -11589.815)">
      <rect id="Rect치ngulo_412780" data-name="Rect치ngulo 412780" width="93.637" height="93.545" rx="20" transform="translate(389.349 5339.695)" fill="#b0c2e5"/>
      <g id="Grupo_1114814" data-name="Grupo 1114814" transform="translate(386.667 5337)">
        <path id="Trazado_875775" data-name="Trazado 875775" d="M245.284,301.406A1.288,1.288,0,0,1,244,300.118v-3.863a6.445,6.445,0,0,1,6.438-6.438h30.644a9.024,9.024,0,0,0,9.013-9.013V250.216a6.445,6.445,0,0,1,6.438-6.438h3.863a1.288,1.288,0,1,1,0,2.575h-3.863a3.867,3.867,0,0,0-3.863,3.863V280.8a11.6,11.6,0,0,1-11.588,11.588H250.434a3.867,3.867,0,0,0-3.863,3.863v3.863a1.288,1.288,0,0,1-1.288,1.288" transform="translate(-202.679 -202.498)" fill="#12263f"/>
        <path id="Trazado_875777" data-name="Trazado 875777" d="M1.288,57.628A1.288,1.288,0,0,1,0,56.34V52.477a6.445,6.445,0,0,1,6.438-6.438H37.082A9.024,9.024,0,0,0,46.1,37.026V6.438A6.445,6.445,0,0,1,52.533,0H56.4a1.288,1.288,0,0,1,0,2.575H52.533a3.867,3.867,0,0,0-3.863,3.863V37.026A11.6,11.6,0,0,1,37.082,48.614H6.438a3.867,3.867,0,0,0-3.863,3.863V56.34a1.288,1.288,0,0,1-1.288,1.288" transform="translate(57.684 57.628) rotate(180)" fill="#12263f"/>
      </g>
    </g>
    <g id="Grupo_1115780" data-name="Grupo 1115780" transform="translate(-1061.233 -6230.035)">
      <g id="Grupo_1115779" data-name="Grupo 1115779" clip-path="url(#clip-path)">
        <path id="Trazado_876846" data-name="Trazado 876846" d="M216.508,294.47c.85-.046,1.811,1.007,2.294,1.638,1.243,1.625.256,2.347-.928,3.464-1.482,1.4-3.159,2.615-4.616,4.046a1.575,1.575,0,0,1-1.432,0l-4.059-3.538a1.712,1.712,0,0,1,.174-2.179c.615-.8,1.7-1.916,2.77-1.7.691.14,1.476,1.3,2,1.151l2.9-2.575a2.428,2.428,0,0,1,.9-.307m.1,1.571c-.247-.006-2.97,2.918-3.8,3.138-.869.232-1.756-.986-2.468-1.384l-1.255,1.357c.479.373,3.183,2.926,3.5,2.862l5.089-4.374c.283-.439-.912-1.143-1.071-1.6" transform="translate(-179.806 -255.225)" fill="#12263f"/>
        <path id="Trazado_876847" data-name="Trazado 876847" d="M2.151,5.1c-.249.072-.439.609-.469.863-.234,1.973.306,4.626,0,6.525-.157.961-1.434,1.1-1.583.132a50.283,50.283,0,0,1,.1-7.483C.823,2.98,3.455,3.556,5.15,3.5,5.075,2.078,5.531.528,7.04.125,17.321.02,27.707-.123,37.969.2a2.307,2.307,0,0,1,1.568,2.03l0,34.252c.026.383.467.435.67.663,8.008,8.987-2.455,20.672-12.329,14.462L1.814,51.545A2.48,2.48,0,0,1,.08,49.281l0-33.2a.807.807,0,0,1,1.609.138L1.678,49.015c-.093.326.3.993.606.993H26.339a15.281,15.281,0,0,1-1.531-2.667,15.728,15.728,0,0,1-.6-2.2V42.812a9.951,9.951,0,0,1-1.261.271c-3.685.283-7.733-.214-11.457-.013a.893.893,0,0,1-.71-1.427,6.723,6.723,0,0,1,.7-.3H23.274V39.613H5.949v1.733c.88-.06,3.207-.157,2.467,1.334-.352.71-2.982.454-3.6-.132-.758-.716-.866-4.443.811-4.526H23.733c1.07.3,1.183,1.144,1.206,2.124A10.873,10.873,0,0,1,28.2,36.214l-.984-.612c-.759-.821-.755-3.7.33-4.306.633-.355,3.141-.362,3.71.132a5.352,5.352,0,0,1,.543.79v2.465c.186.077.4-.133.466-.133H34.6V15.559a1.337,1.337,0,0,0-.2-.2h-8.4a4.688,4.688,0,0,1-1.2-.8,4.432,4.432,0,0,1-.6-1.137V5.1ZM37.933,35.482V2.1a1.524,1.524,0,0,0-.434-.366c-10.032-.168-20.155-.169-30.183,0-.695.291-.37,1.153-.434,1.764H25.339l10.7,10.755.026,20.364a.309.309,0,0,0,.131.268,10.049,10.049,0,0,0,1.736.6M33.269,13.76,25.806,6.3V13.16a1.3,1.3,0,0,0,.6.6ZM30.2,32.684H28.338c-.121,1.968-.1,1.987,1.866,1.866ZM41.437,43.935a7.822,7.822,0,1,0-7.822,7.822,7.822,7.822,0,0,0,7.822-7.822" transform="translate(0 0)" fill="#12263f"/>
        <path id="Trazado_876848" data-name="Trazado 876848" d="M33.695,129.487l17.657,0a1.793,1.793,0,0,1,1.375,1.023,12.36,12.36,0,0,1,.029,2.842,1.546,1.546,0,0,1-1.366,1.166l-17.966-.031c-1.309-.3-1.288-2.477-1.164-3.507a1.7,1.7,0,0,1,1.434-1.5m17.493,1.567H33.863v1.866H51.187Z" transform="translate(-27.914 -112.231)" fill="#12263f"/>
        <path id="Trazado_876849" data-name="Trazado 876849" d="M33.522,181.476h17.93a1.6,1.6,0,0,1,1.234,1.032c.244.932.339,3.6-.93,3.874-6.006.289-12.088.056-18.122.119a1.745,1.745,0,0,1-1.414-1.651c-.124-1.275-.178-2.961,1.3-3.374m17.627,1.569H33.825v1.866H51.149Z" transform="translate(-27.876 -157.291)" fill="#12263f"/>
        <path id="Trazado_876850" data-name="Trazado 876850" d="M33.424,233.457l18.2,0a1.559,1.559,0,0,1,1.133,1.133,13.252,13.252,0,0,1,0,2.74,1.906,1.906,0,0,1-1.637,1.161l-17.29-.035a1.659,1.659,0,0,1-1.571-1.495c-.124-1.03-.145-3.211,1.164-3.507m17.763,1.571H33.863v1.866H51.188Z" transform="translate(-27.914 -202.345)" fill="#12263f"/>
        <path id="Trazado_876851" data-name="Trazado 876851" d="M40.156,56.174a3.269,3.269,0,0,1-1.486.448c-1.112.1-4.7.13-5.587-.286a1.389,1.389,0,0,1-.849-1.15c-.192-1.147-.253-3.38,1.241-3.626a38.609,38.609,0,0,1,5.73-.013,1.655,1.655,0,0,1,1.526,1.539c.1.837.12,2.51-.575,3.088m-1.024-3.022H33.8v1.732h5.331Z" transform="translate(-27.853 -44.59)" fill="#12263f"/>
        <path id="Trazado_876852" data-name="Trazado 876852" d="M201.936,128.991c1.178-.179,3.317-.178,3.5,1.362.108.912.171,2.789-.622,3.382a5.875,5.875,0,0,1-3.634.075c-.924-.519-.9-2.125-.809-3.052a1.723,1.723,0,0,1,1.565-1.766m1.9,1.565c-1.968-.121-1.987-.1-1.866,1.866h1.866Z" transform="translate(-173.63 -111.732)" fill="#12263f"/>
        <path id="Trazado_876853" data-name="Trazado 876853" d="M201.517,180.809c1-.2,3.084-.192,3.617.853a9.335,9.335,0,0,1,.143,2.907c-.247,1.556-3.458,1.621-4.382.932-1.065-.794-1.08-4.345.622-4.692m2.168,1.569H201.82v1.866h1.866Z" transform="translate(-173.482 -156.624)" fill="#12263f"/>
      </g>
    </g>
  </g>
</svg>
