<svg xmlns="http://www.w3.org/2000/svg" xmlns:xlink="http://www.w3.org/1999/xlink" width="99.001" height="98.908" viewBox="0 0 99.001 98.908">
  <defs>
    <clipPath id="clip-path">
      <rect id="Rect치ngulo_413574" data-name="Rect치ngulo 413574" width="54.36" height="49.843" fill="#12263f"/>
    </clipPath>
  </defs>
  <g id="Grupo_1116023" data-name="Grupo 1116023" transform="translate(-960.999 -5381)">
    <g id="Grupo_1115402" data-name="Grupo 1115402" transform="translate(574.332 44)">
      <rect id="Rect치ngulo_412780" data-name="Rect치ngulo 412780" width="93.637" height="93.545" rx="20" transform="translate(389.349 5339.695)" fill="#b0c2e5"/>
      <g id="Grupo_1114814" data-name="Grupo 1114814" transform="translate(386.667 5337)">
        <path id="Trazado_875775" data-name="Trazado 875775" d="M245.284,301.406A1.288,1.288,0,0,1,244,300.118v-3.863a6.445,6.445,0,0,1,6.438-6.438h30.644a9.024,9.024,0,0,0,9.013-9.013V250.216a6.445,6.445,0,0,1,6.438-6.438h3.863a1.288,1.288,0,1,1,0,2.575h-3.863a3.867,3.867,0,0,0-3.863,3.863V280.8a11.6,11.6,0,0,1-11.588,11.588H250.434a3.867,3.867,0,0,0-3.863,3.863v3.863a1.288,1.288,0,0,1-1.288,1.288" transform="translate(-202.679 -202.498)" fill="#12263f"/>
        <path id="Trazado_875777" data-name="Trazado 875777" d="M1.288,57.628A1.288,1.288,0,0,1,0,56.34V52.477a6.445,6.445,0,0,1,6.438-6.438H37.082A9.024,9.024,0,0,0,46.1,37.026V6.438A6.445,6.445,0,0,1,52.533,0H56.4a1.288,1.288,0,0,1,0,2.575H52.533a3.867,3.867,0,0,0-3.863,3.863V37.026A11.6,11.6,0,0,1,37.082,48.614H6.438a3.867,3.867,0,0,0-3.863,3.863V56.34a1.288,1.288,0,0,1-1.288,1.288" transform="translate(57.684 57.628) rotate(180)" fill="#12263f"/>
      </g>
    </g>
    <g id="Grupo_1115774" data-name="Grupo 1115774" transform="translate(982.82 5405.532)">
      <g id="Grupo_1115773" data-name="Grupo 1115773" clip-path="url(#clip-path)">
        <path id="Trazado_876827" data-name="Trazado 876827" d="M4.589.032,49.532,0A5.834,5.834,0,0,1,54.36,5.226V44.5A5.8,5.8,0,0,1,49.4,49.736c-2.716.251-6.17-.023-8.979-.012-8.8.032-17.689.032-26.485,0-2.809-.01-6.263.264-8.979.012A5.8,5.8,0,0,1,0,44.5L.007,5.1A5.88,5.88,0,0,1,4.589.032M52.045,13.587V4.823a6.994,6.994,0,0,0-.434-.925,3.718,3.718,0,0,0-3.3-1.731c-14.556.147-29.171-.263-43.693.208A3.77,3.77,0,0,0,2.315,4.823v8.764ZM2.315,24.865H13.592v-9.1H2.315Zm23.778-9.1H15.9v9.1H26.093Zm12.365,0H28.267v9.1H38.458Zm2.31,9.1H52.045v-9.1H40.767ZM2.315,36.143H13.592V27.175H2.315Zm23.778-8.968H15.9v8.968H26.093Zm12.365,0H28.267v8.968H38.458Zm2.31,8.968H52.045V27.175H40.767Zm-27.175,2.31H2.315v6.454c0,1.167,2.076,2.65,3.193,2.65h8.085Zm12.5,0H15.9v9.1H26.093Zm12.365,0H28.267v9.1H38.458Zm13.588,0H40.767v9.1h8.085c1.117,0,3.193-1.483,3.193-2.65Z" transform="translate(0 0.001)" fill="#12263f"/>
      </g>
    </g>
  </g>
</svg>
