<svg xmlns="http://www.w3.org/2000/svg" xmlns:xlink="http://www.w3.org/1999/xlink" width="99.001" height="98.908" viewBox="0 0 99.001 98.908">
  <defs>
    <clipPath id="clip-path">
      <rect id="Rect치ngulo_413575" data-name="Rect치ngulo 413575" width="54.318" height="54.318" fill="#12263f"/>
    </clipPath>
  </defs>
  <g id="Grupo_1116024" data-name="Grupo 1116024" transform="translate(-1190.999 -5381)">
    <g id="Grupo_1115403" data-name="Grupo 1115403" transform="translate(804.332 44)">
      <rect id="Rect치ngulo_412780" data-name="Rect치ngulo 412780" width="93.637" height="93.545" rx="20" transform="translate(389.349 5339.695)" fill="#b0c2e5"/>
      <g id="Grupo_1114814" data-name="Grupo 1114814" transform="translate(386.667 5337)">
        <path id="Trazado_875775" data-name="Trazado 875775" d="M245.284,301.406A1.288,1.288,0,0,1,244,300.118v-3.863a6.445,6.445,0,0,1,6.438-6.438h30.644a9.024,9.024,0,0,0,9.013-9.013V250.216a6.445,6.445,0,0,1,6.438-6.438h3.863a1.288,1.288,0,1,1,0,2.575h-3.863a3.867,3.867,0,0,0-3.863,3.863V280.8a11.6,11.6,0,0,1-11.588,11.588H250.434a3.867,3.867,0,0,0-3.863,3.863v3.863a1.288,1.288,0,0,1-1.288,1.288" transform="translate(-202.679 -202.498)" fill="#12263f"/>
        <path id="Trazado_875777" data-name="Trazado 875777" d="M1.288,57.628A1.288,1.288,0,0,1,0,56.34V52.477a6.445,6.445,0,0,1,6.438-6.438H37.082A9.024,9.024,0,0,0,46.1,37.026V6.438A6.445,6.445,0,0,1,52.533,0H56.4a1.288,1.288,0,0,1,0,2.575H52.533a3.867,3.867,0,0,0-3.863,3.863V37.026A11.6,11.6,0,0,1,37.082,48.614H6.438a3.867,3.867,0,0,0-3.863,3.863V56.34a1.288,1.288,0,0,1-1.288,1.288" transform="translate(57.684 57.628) rotate(180)" fill="#12263f"/>
      </g>
    </g>
    <g id="Grupo_1115776" data-name="Grupo 1115776" transform="translate(1213.341 5403.295)">
      <g id="Grupo_1115775" data-name="Grupo 1115775" clip-path="url(#clip-path)">
        <path id="Trazado_876828" data-name="Trazado 876828" d="M2.652,7.121C1.865,7.2.335,7.177.116,6.208a32.106,32.106,0,0,1-.039-4.98A1.25,1.25,0,0,1,1.227.077a32.175,32.175,0,0,1,4.98.039c.97.22.992,1.749.913,2.536H23.639C23.593,1.539,23.491.22,24.916.072A32.441,32.441,0,0,1,29.86.155c.959.324.848,1.686.819,2.5H47.2c-.079-.787-.056-2.317.913-2.536A32.175,32.175,0,0,1,53.09.077a1.25,1.25,0,0,1,1.151,1.151,32.124,32.124,0,0,1-.039,4.98c-.22.969-1.749.992-2.536.913V23.639c1.114-.045,2.433-.147,2.581,1.278a32.438,32.438,0,0,1-.083,4.944c-.324.959-1.686.848-2.5.819V47.2c.787-.079,2.317-.056,2.536.913a32.124,32.124,0,0,1,.039,4.98,1.25,1.25,0,0,1-1.151,1.151,32.159,32.159,0,0,1-4.98-.039c-.969-.219-.992-1.749-.913-2.536H30.679c.045,1.114.147,2.433-1.278,2.581a32.421,32.421,0,0,1-4.944-.083c-.959-.324-.848-1.685-.819-2.5H7.12c.079.788.056,2.317-.913,2.536a32.107,32.107,0,0,1-4.98.039A1.25,1.25,0,0,1,.077,53.091a32.158,32.158,0,0,1,.039-4.98c.219-.97,1.749-.992,2.536-.913V30.68C1.538,30.726.219,30.827.071,29.4a32.423,32.423,0,0,1,.083-4.944c.324-.959,1.685-.848,2.5-.819ZM5.36,1.841H1.84v3.52H5.36ZM25.4,5.361h3.52V1.841H25.4Zm23.559,0h3.52V1.841h-3.52ZM23.639,4.413H7.12C7.4,6.547,6.545,7.405,4.412,7.121V23.639c.887-.016,2.185-.194,2.605.847a28.368,28.368,0,0,1,.109,4.778C6.985,30.8,5.649,30.757,4.412,30.68V47.2c2.134-.284,2.992.575,2.708,2.708H23.639c-.016-.887-.194-2.185.847-2.605a28.368,28.368,0,0,1,4.778-.109c1.538.141,1.492,1.478,1.415,2.714H47.2c-.284-2.134.575-2.992,2.708-2.708V30.68c-.887.016-2.185.194-2.606-.847a28.382,28.382,0,0,1-.109-4.778c.141-1.538,1.478-1.492,2.714-1.415V7.121c-2.133.284-2.992-.574-2.708-2.708H30.679c.016.887.194,2.185-.847,2.606a28.382,28.382,0,0,1-4.778.109c-1.538-.141-1.492-1.478-1.415-2.714M5.36,25.4H1.84v3.52H5.36Zm43.6,3.52h3.52V25.4h-3.52ZM1.84,52.479H5.36v-3.52H1.84Zm23.559,0h3.52v-3.52H25.4Zm23.559,0h3.52v-3.52h-3.52Z" transform="translate(0 -0.001)" fill="#12263f"/>
        <path id="Trazado_876829" data-name="Trazado 876829" d="M71.588,76.828c3.718-.471,8.22.285,12.023-.042,1.176.275,1.111,1.625-.139,1.77-3.569.413-8.12-.476-11.635.009a2.909,2.909,0,0,0-2.522,2.623v24.518a2.957,2.957,0,0,0,2.776,2.64H99.044a2.957,2.957,0,0,0,2.776-2.64V81.188A2.978,2.978,0,0,0,99.3,78.565c-3.677-.507-8.441.421-12.177-.009a.884.884,0,1,1,0-1.766c3.9.255,8.206-.329,12.058,0a4.685,4.685,0,0,1,4.393,4.137l.007,24.916a4.672,4.672,0,0,1-4.4,4.265c-8.825-.5-18.346.643-27.09,0a4.655,4.655,0,0,1-4.535-4.266l.007-24.916a4.683,4.683,0,0,1,4.027-4.1" transform="translate(-58.407 -66.288)" fill="#12263f"/>
        <path id="Trazado_876830" data-name="Trazado 876830" d="M107.641,197.943a.907.907,0,0,1,.833-1.457l23.7,0a.892.892,0,1,1-.132,1.77l-23.938-.043a1.6,1.6,0,0,1-.466-.273" transform="translate(-92.897 -169.876)" fill="#12263f"/>
        <path id="Trazado_876831" data-name="Trazado 876831" d="M108.19,272.6l24.076-.031a.889.889,0,0,1,.139,1.77l-23.975,0c-1.095-.106-1.168-1.264-.24-1.735" transform="translate(-92.986 -235.661)" fill="#12263f"/>
        <path id="Trazado_876832" data-name="Trazado 876832" d="M115.649,122.75c-.406.06-2.861-.1-2.967,0-.153.148.072,1.481-1.053,1.59-.965.093-1.066-.7-.922-1.467a45.4,45.4,0,0,1,2.077-5.64c.537-1.111,1.905-1.488,2.58-.359a48.174,48.174,0,0,1,2.26,6.134c.381,1.922-2.114,1.592-1.975-.258m-.672-1.767a6.475,6.475,0,0,0-.946-2.436l-.678,2.436Z" transform="translate(-95.671 -100.459)" fill="#12263f"/>
        <path id="Trazado_876833" data-name="Trazado 876833" d="M176.98,158.8l15.336.042a.906.906,0,0,1-.468,1.692l-14.5,0a.918.918,0,0,1-.37-1.739" transform="translate(-152.568 -137.3)" fill="#12263f"/>
        <path id="Trazado_876834" data-name="Trazado 876834" d="M176.943,120.8l15.336.042c.606.266.625,1.585-.194,1.56H177.178a.831.831,0,0,1-.235-1.6" transform="translate(-152.531 -104.445)" fill="#12263f"/>
        <path id="Trazado_876835" data-name="Trazado 876835" d="M210.187,234.668l10.389-.021a.88.88,0,0,1-.124,1.755c-3.131.36-6.945-.268-10.149-.012a.882.882,0,0,1-.115-1.723" transform="translate(-181.171 -202.877)" fill="#12263f"/>
        <path id="Trazado_876836" data-name="Trazado 876836" d="M107.425,234.159a1.305,1.305,0,0,1,.7-.316c3.168.282,6.933-.357,10.027,0,1.145.134,1.243,1.62-.138,1.762a68.206,68.206,0,0,1-9.748,0c-.812-.085-1.421-.734-.839-1.45" transform="translate(-92.681 -202.087)" fill="#12263f"/>
      </g>
    </g>
  </g>
</svg>
