<svg xmlns="http://www.w3.org/2000/svg" xmlns:xlink="http://www.w3.org/1999/xlink" width="99.001" height="98.908" viewBox="0 0 99.001 98.908">
  <defs>
    <clipPath id="clip-path">
      <rect id="Rect치ngulo_413647" data-name="Rect치ngulo 413647" width="54.315" height="53.629" fill="#12263f"/>
    </clipPath>
  </defs>
  <g id="Grupo_1116056" data-name="Grupo 1116056" transform="translate(-960.999 -3612)">
    <g id="Grupo_1115443" data-name="Grupo 1115443" transform="translate(574.332 -1725)">
      <rect id="Rect치ngulo_412780" data-name="Rect치ngulo 412780" width="93.637" height="93.545" rx="20" transform="translate(389.349 5339.695)" fill="#b0c2e5"/>
      <g id="Grupo_1114814" data-name="Grupo 1114814" transform="translate(386.667 5337)">
        <path id="Trazado_875775" data-name="Trazado 875775" d="M245.284,301.406A1.288,1.288,0,0,1,244,300.118v-3.863a6.445,6.445,0,0,1,6.438-6.438h30.644a9.024,9.024,0,0,0,9.013-9.013V250.216a6.445,6.445,0,0,1,6.438-6.438h3.863a1.288,1.288,0,1,1,0,2.575h-3.863a3.867,3.867,0,0,0-3.863,3.863V280.8a11.6,11.6,0,0,1-11.588,11.588H250.434a3.867,3.867,0,0,0-3.863,3.863v3.863a1.288,1.288,0,0,1-1.288,1.288" transform="translate(-202.679 -202.498)" fill="#12263f"/>
        <path id="Trazado_875777" data-name="Trazado 875777" d="M1.288,57.628A1.288,1.288,0,0,1,0,56.34V52.477a6.445,6.445,0,0,1,6.438-6.438H37.082A9.024,9.024,0,0,0,46.1,37.026V6.438A6.445,6.445,0,0,1,52.533,0H56.4a1.288,1.288,0,0,1,0,2.575H52.533a3.867,3.867,0,0,0-3.863,3.863V37.026A11.6,11.6,0,0,1,37.082,48.614H6.438a3.867,3.867,0,0,0-3.863,3.863V56.34a1.288,1.288,0,0,1-1.288,1.288" transform="translate(57.684 57.628) rotate(180)" fill="#12263f"/>
      </g>
    </g>
    <g id="Grupo_1115841" data-name="Grupo 1115841" transform="translate(982.843 3634.64)">
      <g id="Grupo_1115840" data-name="Grupo 1115840" clip-path="url(#clip-path)">
        <path id="Trazado_877283" data-name="Trazado 877283" d="M37.868,47.071c.082,1.114,1.626,2.4.688,3.48a49.63,49.63,0,0,1-5.461,2.833c-.974.375-1.328.407-1.99-.531-.543-.769-2.225-4.88-2.588-5.112-.185-.118-.283-.045-.456,0-1.856.457-5.392,4.143-5.127-.667H4.757c-1.829,0-4.785-3.305-4.735-5.22L0,5.658A6.268,6.268,0,0,1,6.56,0H47.905a6.248,6.248,0,0,1,6.41,5.658l-.007,36.056c.105,1.964-2.878,5.357-4.75,5.357Zm14.029-35V5.513c0-1.506-2.327-3.289-3.84-3.1L5.965,2.422C4.55,2.359,2.419,4.111,2.419,5.513v6.562Zm0,2.414H2.419V41.716c0,1.012,1.794,2.941,2.791,2.941H22.934V29.347c0-.662,1.232-1.531,1.862-.956l15.5,11.655a1.529,1.529,0,0,1-.169,1.663c-.576.531-3.765,1.653-4,2.04a1.267,1.267,0,0,0,.488.885l12.46-.012c1.154-.148,2.827-1.757,2.827-2.906Zm-26.549,17.5v14.33c1.315-.248,3.57-2.459,4.653-.958,1.019,1.412,1.639,3.8,2.74,5.263.453.283,2.512-1.24,3.166-1.29l-2.644-5.424a1.641,1.641,0,0,1,.237-1.581,33.221,33.221,0,0,1,3.117-1.555c.116-.072.255.04.2-.261Z" transform="translate(0 0)" fill="#12263f"/>
        <path id="Trazado_877284" data-name="Trazado 877284" d="M209.669,168.372a1.216,1.216,0,0,1,.886,2.07A8.829,8.829,0,0,1,207.4,171.9a1.248,1.248,0,0,1-.855-1.994,12.293,12.293,0,0,1,3.123-1.529" transform="translate(-175.169 -142.974)" fill="#12263f"/>
        <path id="Trazado_877285" data-name="Trazado 877285" d="M98.642,224.08a1.227,1.227,0,0,1,1.318,1.927,14.562,14.562,0,0,1-2.632,1.44c-1.2.316-2.091-.616-1.586-1.736a11.876,11.876,0,0,1,2.9-1.63" transform="translate(-81.178 -190.251)" fill="#12263f"/>
        <path id="Trazado_877286" data-name="Trazado 877286" d="M128.071,137.059a1.113,1.113,0,0,1,1.1.348,20.612,20.612,0,0,1,1.321,2.6c.315,1.513-1.207,2.241-2.148,1.091a11.491,11.491,0,0,1-1.284-2.927,1.532,1.532,0,0,1,1.012-1.114" transform="translate(-107.893 -116.36)" fill="#12263f"/>
        <path id="Trazado_877287" data-name="Trazado 877287" d="M176.9,133c2.557-.529.807,4.358-.067,4.619a1.245,1.245,0,0,1-1.676-1.362,20,20,0,0,1,.966-2.667,1.434,1.434,0,0,1,.777-.59" transform="translate(-148.722 -112.9)" fill="#12263f"/>
        <path id="Trazado_877288" data-name="Trazado 877288" d="M96.379,180.843a1.746,1.746,0,0,1-.918.345,10.165,10.165,0,0,1-3.308-1.388,1.4,1.4,0,0,1,.5-1.7c1.016-.46,5.535,1.079,3.722,2.739" transform="translate(-78.169 -151.167)" fill="#12263f"/>
        <path id="Trazado_877289" data-name="Trazado 877289" d="M82.512,41.7a1.2,1.2,0,1,1-1.2-1.2,1.2,1.2,0,0,1,1.2,1.2" transform="translate(-68.025 -34.386)" fill="#12263f"/>
        <path id="Trazado_877290" data-name="Trazado 877290" d="M42.488,41.726a1.2,1.2,0,1,1-1.2-1.2,1.2,1.2,0,0,1,1.2,1.2" transform="translate(-34.043 -34.415)" fill="#12263f"/>
        <path id="Trazado_877291" data-name="Trazado 877291" d="M122.488,41.726a1.2,1.2,0,1,1-1.2-1.2,1.2,1.2,0,0,1,1.2,1.2" transform="translate(-101.976 -34.415)" fill="#12263f"/>
      </g>
    </g>
  </g>
</svg>
