<svg xmlns="http://www.w3.org/2000/svg" xmlns:xlink="http://www.w3.org/1999/xlink" width="99.001" height="98.908" viewBox="0 0 99.001 98.908">
  <defs>
    <clipPath id="clip-path">
      <rect id="Rect치ngulo_413648" data-name="Rect치ngulo 413648" width="50.048" height="50.056" fill="#12263f"/>
    </clipPath>
  </defs>
  <g id="Grupo_1116055" data-name="Grupo 1116055" transform="translate(-731.999 -3612)">
    <g id="Grupo_1115442" data-name="Grupo 1115442" transform="translate(345.332 -1725)">
      <rect id="Rect치ngulo_412780" data-name="Rect치ngulo 412780" width="93.637" height="93.545" rx="20" transform="translate(389.349 5339.695)" fill="#b0c2e5"/>
      <g id="Grupo_1114814" data-name="Grupo 1114814" transform="translate(386.667 5337)">
        <path id="Trazado_875775" data-name="Trazado 875775" d="M245.284,301.406A1.288,1.288,0,0,1,244,300.118v-3.863a6.445,6.445,0,0,1,6.438-6.438h30.644a9.024,9.024,0,0,0,9.013-9.013V250.216a6.445,6.445,0,0,1,6.438-6.438h3.863a1.288,1.288,0,1,1,0,2.575h-3.863a3.867,3.867,0,0,0-3.863,3.863V280.8a11.6,11.6,0,0,1-11.588,11.588H250.434a3.867,3.867,0,0,0-3.863,3.863v3.863a1.288,1.288,0,0,1-1.288,1.288" transform="translate(-202.679 -202.498)" fill="#12263f"/>
        <path id="Trazado_875777" data-name="Trazado 875777" d="M1.288,57.628A1.288,1.288,0,0,1,0,56.34V52.477a6.445,6.445,0,0,1,6.438-6.438H37.082A9.024,9.024,0,0,0,46.1,37.026V6.438A6.445,6.445,0,0,1,52.533,0H56.4a1.288,1.288,0,0,1,0,2.575H52.533a3.867,3.867,0,0,0-3.863,3.863V37.026A11.6,11.6,0,0,1,37.082,48.614H6.438a3.867,3.867,0,0,0-3.863,3.863V56.34a1.288,1.288,0,0,1-1.288,1.288" transform="translate(57.684 57.628) rotate(180)" fill="#12263f"/>
      </g>
    </g>
    <g id="Grupo_1115843" data-name="Grupo 1115843" transform="translate(755.977 3640)">
      <g id="Grupo_1115842" data-name="Grupo 1115842" clip-path="url(#clip-path)">
        <path id="Trazado_877292" data-name="Trazado 877292" d="M1.974.034,43.475,0a2.447,2.447,0,0,1,2.314,2.189l-.064,36.094c-.183.721-.806,1.052-1.188,1.552.073.324,4.1,3.961,4.688,4.7a3.328,3.328,0,0,1-4.556,4.806c-2.181-1.621-4.226-4.6-6.391-6.367-.477-.344-.235-1.218-.317-1.446A16.7,16.7,0,0,0,36.2,39.8a15.407,15.407,0,0,1-17,.237L2.319,40.03A2.5,2.5,0,0,1,0,37.595V2.313A2.481,2.481,0,0,1,1.974.034m42.185,1.59H1.631V6.633H44.158Zm0,6.76H1.631V37.716a1.221,1.221,0,0,0,.563.563H17.016a15.009,15.009,0,1,1,25.23-8.1A17.776,17.776,0,0,1,39.8,36.2a16.9,16.9,0,0,0,1.726,1.763c.133.05.35-.074.53-.029.531.133,1.318.58,1.8.232a2.367,2.367,0,0,0,.3-.447ZM40.829,27.5A13.327,13.327,0,1,0,27.5,40.823,13.327,13.327,0,0,0,40.829,27.5M39.574,39.573c.149-.149.618-.326.572-.589l-1.432-1.453-.875.876-.309.124c-.142.2,1.232,1.378,1.455,1.614.263.046.441-.423.589-.572m2.287.09a22.928,22.928,0,0,0-2.151,2.118c-.05.1-.083.154,0,.248l5.957,5.934a1.665,1.665,0,0,0,2.477-2.1c-2.076-2.075-4.1-4.267-6.283-6.2" transform="translate(0 0.001)" fill="#12263f"/>
        <path id="Trazado_877293" data-name="Trazado 877293" d="M306.927,19.888c.645-.132.683.356.969.356s.9-.818,1.5-.124c.575.666-.185,1.123-.186,1.437,0,.247.856.791.07,1.44-.649.537-1.2-.235-1.381-.232-.119,0-.8.89-1.444.172-.6-.671.212-1.194.226-1.381.011-.139-1.083-1.4.247-1.667" transform="translate(-267.93 -17.359)" fill="#12263f"/>
        <path id="Trazado_877294" data-name="Trazado 877294" d="M28.384,27.55a.833.833,0,1,1-.833-.833.833.833,0,0,1,.833.833" transform="translate(-23.376 -23.375)" fill="#12263f"/>
        <path id="Trazado_877295" data-name="Trazado 877295" d="M81.592,27.565a.834.834,0,1,1-.835-.835.835.835,0,0,1,.835.835" transform="translate(-69.926 -23.387)" fill="#12263f"/>
        <path id="Trazado_877296" data-name="Trazado 877296" d="M54.971,27.541a.831.831,0,1,1-.831-.831.831.831,0,0,1,.831.831" transform="translate(-46.64 -23.369)" fill="#12263f"/>
        <path id="Trazado_877297" data-name="Trazado 877297" d="M150.008,138.3a11.66,11.66,0,1,1-11.66-11.66,11.66,11.66,0,0,1,11.66,11.66m-1.673,0a9.989,9.989,0,1,0-9.989,9.989,9.989,9.989,0,0,0,9.989-9.989" transform="translate(-110.842 -110.797)" fill="#12263f"/>
        <path id="Trazado_877298" data-name="Trazado 877298" d="M177.639,154.529c-.343.344-1.31.219-1.752.311A6.93,6.93,0,0,0,173,156.08c-.526.364-.816,1.066-1.62.829-.478-.141-.58-.8-.4-1.224a9.218,9.218,0,0,1,2.352-1.775c.735-.359,4.11-1.47,4.438-.391a1.429,1.429,0,0,1-.131,1.009" transform="translate(-149.521 -133.915)" fill="#12263f"/>
      </g>
    </g>
  </g>
</svg>
