<svg xmlns="http://www.w3.org/2000/svg" xmlns:xlink="http://www.w3.org/1999/xlink" width="400" height="390" viewBox="0 0 400 390">
  <defs>
    <clipPath id="clip-path">
      <rect id="Rectángulo_413646" data-name="Rectángulo 413646" width="400" height="352.692" fill="none"/>
    </clipPath>
  </defs>
  <g id="Grupo_1115839" data-name="Grupo 1115839" transform="translate(-285 -1593)">
    <rect id="Rectángulo_413029" data-name="Rectángulo 413029" width="400" height="390" transform="translate(285 1593)" fill="none"/>
    <g id="Grupo_1115838" data-name="Grupo 1115838" transform="translate(285 1612)">
      <g id="Grupo_1115837" data-name="Grupo 1115837" transform="translate(0 0)" clip-path="url(#clip-path)">
        <path id="Trazado_877143" data-name="Trazado 877143" d="M378.923,349.36S458.254,24.654,312.859,2.525C141.223-23.6,163.283,161.557,163.283,161.557s-72.3-71.946-122.571-32.765c-69.754,54.359,24.142,215.671,24.142,215.671Z" transform="translate(-14.651 0)" fill="#ece1f9"/>
        <path id="Trazado_877144" data-name="Trazado 877144" d="M0,361.414c0,5.635,81.587,10.2,182.23,10.2s182.23-4.569,182.23-10.2-81.587-10.2-182.23-10.2S0,355.779,0,361.414" transform="translate(35.54 -18.925)" fill="#d6e6f2"/>
        <path id="Trazado_877145" data-name="Trazado 877145" d="M9.34,360.354H172.906a25.774,25.774,0,0,0,25.7-25.7V328a25.774,25.774,0,0,0-25.7-25.7H9.34A4.852,4.852,0,0,0,4.5,307.142v48.374a4.852,4.852,0,0,0,4.837,4.837" transform="translate(197.136 -16.29)" fill="#6fa3dc"/>
        <path id="Trazado_877146" data-name="Trazado 877146" d="M128.618,361.893H4.5V330.871H154.316v5.323a25.774,25.774,0,0,1-25.7,25.7" transform="translate(241.423 -17.829)" fill="#6093d1"/>
        <path id="Trazado_877147" data-name="Trazado 877147" d="M247.138,327.1v8.466a24.864,24.864,0,0,1-24.792,24.791H74.806v-3.023H221.887A22.275,22.275,0,0,0,244.1,335.122v-7.584a22.275,22.275,0,0,0-22.209-22.209H74.806V302.3h147.54A24.864,24.864,0,0,1,247.138,327.1" transform="translate(82.087 -16.29)" fill="#4e83b7"/>
        <path id="Trazado_877148" data-name="Trazado 877148" d="M247.311,327.71v7.583A22.275,22.275,0,0,1,225.1,357.5H78.021v-52H225.1a22.274,22.274,0,0,1,22.209,22.209" transform="translate(78.872 -16.462)" fill="#f4e9fa"/>
        <path id="Trazado_877149" data-name="Trazado 877149" d="M154.733,345.169c39.812,0,73.044-15.787,80.944-36.817a22.268,22.268,0,0,1,11.635,19.512v7.584a22.274,22.274,0,0,1-22.21,22.209H78.021V316.121C90.289,333.15,120,345.169,154.733,345.169" transform="translate(78.871 -16.616)" fill="#d4cae9"/>
        <path id="Trazado_877150" data-name="Trazado 877150" d="M34.8,299.044H198.363a25.775,25.775,0,0,0,25.7-25.7v-6.651a25.775,25.775,0,0,0-25.7-25.7H34.8a4.852,4.852,0,0,0-4.837,4.837v48.374a4.852,4.852,0,0,0,4.837,4.837" transform="translate(147.592 -12.986)" fill="#b3d0ff"/>
        <path id="Trazado_877151" data-name="Trazado 877151" d="M154.076,300.583H29.962V269.561H179.774v5.324a25.774,25.774,0,0,1-25.7,25.7" transform="translate(191.878 -14.526)" fill="#94b8ed"/>
        <path id="Trazado_877152" data-name="Trazado 877152" d="M272.6,265.787v8.466A24.864,24.864,0,0,1,247.8,299.044H100.264v-3.023H247.345a22.274,22.274,0,0,0,22.209-22.209v-7.584a22.274,22.274,0,0,0-22.209-22.209H100.264V241H247.8A24.865,24.865,0,0,1,272.6,265.787" transform="translate(32.542 -12.986)" fill="#82aadb"/>
        <path id="Trazado_877153" data-name="Trazado 877153" d="M272.769,266.4v7.583a22.275,22.275,0,0,1-22.209,22.21H103.479v-52H250.56A22.274,22.274,0,0,1,272.769,266.4" transform="translate(29.328 -13.158)" fill="#f4eaff"/>
        <path id="Trazado_877154" data-name="Trazado 877154" d="M180.19,283.859c39.812,0,73.044-15.788,80.944-36.817a22.266,22.266,0,0,1,11.635,19.512v7.584a22.274,22.274,0,0,1-22.21,22.209H103.479V254.811c12.267,17.029,41.98,29.049,76.711,29.049" transform="translate(29.328 -13.312)" fill="#d4cae9"/>
        <path id="Trazado_877155" data-name="Trazado 877155" d="M274.535,258.334a1.009,1.009,0,0,1-1.006,1.006h-137.3v-2.011h137.3a1.009,1.009,0,0,1,1.006,1.006" transform="translate(-3.42 -13.866)" fill="#beb4d6"/>
        <path id="Trazado_877156" data-name="Trazado 877156" d="M274.535,267.9a1.009,1.009,0,0,1-1.006,1.006h-137.3V266.9h137.3a1.009,1.009,0,0,1,1.006,1.006" transform="translate(-3.42 -14.382)" fill="#beb4d6"/>
        <path id="Trazado_877157" data-name="Trazado 877157" d="M274.535,277.471a1.009,1.009,0,0,1-1.006,1.006h-137.3v-2.011h137.3a1.009,1.009,0,0,1,1.006,1.006" transform="translate(-3.42 -14.898)" fill="#beb4d6"/>
        <path id="Trazado_877158" data-name="Trazado 877158" d="M274.535,287.04a1.009,1.009,0,0,1-1.006,1.006h-137.3v-2.011h137.3a1.009,1.009,0,0,1,1.006,1.006" transform="translate(-3.42 -15.413)" fill="#beb4d6"/>
        <path id="Trazado_877159" data-name="Trazado 877159" d="M249.076,318.572a1.009,1.009,0,0,1-1.006,1.006h-137.3v-2.011h137.3a1.009,1.009,0,0,1,1.006,1.006" transform="translate(46.126 -17.112)" fill="#beb4d6"/>
        <path id="Trazado_877160" data-name="Trazado 877160" d="M249.076,328.141a1.009,1.009,0,0,1-1.006,1.006h-137.3v-2.011h137.3a1.009,1.009,0,0,1,1.006,1.006" transform="translate(46.126 -17.628)" fill="#beb4d6"/>
        <path id="Trazado_877161" data-name="Trazado 877161" d="M249.076,337.71a1.009,1.009,0,0,1-1.006,1.006h-137.3V336.7h137.3a1.009,1.009,0,0,1,1.006,1.006" transform="translate(46.126 -18.144)" fill="#beb4d6"/>
        <path id="Trazado_877162" data-name="Trazado 877162" d="M249.076,347.279a1.009,1.009,0,0,1-1.006,1.006h-137.3v-2.011h137.3a1.009,1.009,0,0,1,1.006,1.006" transform="translate(46.126 -18.659)" fill="#beb4d6"/>
        <path id="Trazado_877163" data-name="Trazado 877163" d="M416.906,242.236s-55.022-10.988-57.055-25.326,9.119-29.541-8.032-45.788-22.288-35.979-31.661-33.425c-12.081,3.294-4.986,19.019,3.781,33.8,10.223,17.254,3.775,29.763-.416,36.207-10.531,16.2,11.422,26.873,7.331,49.692-1.671,9.339,10.917,43.21,60.881,35.288Z" transform="translate(-313.732 -7.408)" fill="#61a76a"/>
        <path id="Trazado_877164" data-name="Trazado 877164" d="M395.938,297.517c-17.677-9.576-58.733-73.782-59.143-74.424l.482-.249c.409.647,41.386,64.729,58.933,74.236Z" transform="translate(-314.855 -12.008)" fill="#90c69e"/>
        <path id="Trazado_877165" data-name="Trazado 877165" d="M383.274,253.147c-1.669.444-3.951-.085-6.808-1.582l.266-.443c3.259,1.7,5.683,2.1,7.2,1.183,2.5-1.523,1.776-6.182,1.771-6.228l.553-.06c.031.206.775,5.027-2,6.718a3.574,3.574,0,0,1-.974.412" transform="translate(-342.543 -13.257)" fill="#90c69e"/>
        <path id="Trazado_877166" data-name="Trazado 877166" d="M393.923,237.584c-1.669.445-3.95-.083-6.811-1.578l.266-.445c3.266,1.712,5.687,2.109,7.2,1.185,2.5-1.521,1.78-6.185,1.772-6.232l.552-.057c.036.208.78,5.029-2,6.721a3.71,3.71,0,0,1-.975.4" transform="translate(-363.268 -12.418)" fill="#90c69e"/>
        <path id="Trazado_877167" data-name="Trazado 877167" d="M400.3,228.629c-1.669.444-3.953-.092-6.809-1.586l.263-.444c3.262,1.709,5.687,2.1,7.2,1.185,2.5-1.523,1.777-6.188,1.769-6.231l.553-.054c.034.2.779,5.02-2,6.716a3.647,3.647,0,0,1-.973.414" transform="translate(-375.677 -11.936)" fill="#90c69e"/>
        <path id="Trazado_877168" data-name="Trazado 877168" d="M387.435,246.142c-1.395.371-3.3-.073-5.68-1.315l.268-.442c2.682,1.4,4.68,1.737,5.914.978,2.042-1.241,1.453-5.083,1.448-5.12l.55-.056c.029.169.651,4.191-1.677,5.606a2.991,2.991,0,0,1-.822.349" transform="translate(-351.216 -12.943)" fill="#90c69e"/>
        <path id="Trazado_877169" data-name="Trazado 877169" d="M377.792,260.808c-1.669.444-3.952-.09-6.808-1.583l.263-.448c3.26,1.713,5.682,2.106,7.2,1.185,2.5-1.519,1.78-6.185,1.77-6.232l.554-.054c.035.2.778,5.024-2,6.718a3.669,3.669,0,0,1-.975.412" transform="translate(-331.876 -13.67)" fill="#90c69e"/>
        <path id="Trazado_877170" data-name="Trazado 877170" d="M372.131,270.037c-1.667.443-3.953-.086-6.81-1.579l.264-.444c3.263,1.706,5.689,2.1,7.2,1.182,2.5-1.52,1.777-6.181,1.771-6.229l.553-.057c.035.2.779,5.023-2,6.715a3.627,3.627,0,0,1-.974.413" transform="translate(-320.857 -14.167)" fill="#90c69e"/>
        <path id="Trazado_877171" data-name="Trazado 877171" d="M365.521,276.484c-1.206.322-2.851-.06-4.9-1.136l.268-.442c2.285,1.2,3.979,1.479,5.025.848,1.736-1.058,1.228-4.327,1.224-4.36l.554-.054c.025.145.559,3.614-1.455,4.841a2.835,2.835,0,0,1-.713.3" transform="translate(-308.958 -14.621)" fill="#90c69e"/>
        <path id="Trazado_877172" data-name="Trazado 877172" d="M328.734,285.9S313,278.15,321.469,264.719s8.462-22.051-.655-37.671-6.348-25.066,1.826-33.638-12.658-28.891.9-34.056c21.655-8.243,17.921-19.249,11.7-29.262-6.993-11.249-4.308-27.561,9.736-21S361.24,140.4,358.442,149.5s-4.226,18.209,9.4,29.864,15.56,20.3,13.542,33.029-4.759,11.293,3.2,31.228Z" transform="translate(-282.726 -5.797)" fill="#90c69e"/>
        <path id="Trazado_877173" data-name="Trazado 877173" d="M357.12,294.734c-17.011-23.683-29.331-132.243-29.453-133.33l.793,0c.119,1.09,12.414,109.443,29.3,132.954Z" transform="translate(-267.769 -8.697)" fill="#61a76a"/>
        <path id="Trazado_877174" data-name="Trazado 877174" d="M352.015,212.714c-2.479-.516-5.133-2.672-7.916-6.435l.635-.392c3.178,4.289,6.1,6.369,8.686,6.176,4.272-.322,6.338-6.739,6.361-6.8l.765.282c-.092.283-2.239,6.919-6.985,7.274a5.379,5.379,0,0,1-1.546-.105" transform="translate(-286.103 -11.061)" fill="#61a76a"/>
        <path id="Trazado_877175" data-name="Trazado 877175" d="M355.927,185.949c-2.479-.517-5.133-2.668-7.921-6.431l.638-.4c3.178,4.3,6.1,6.378,8.683,6.179,4.271-.318,6.346-6.737,6.365-6.8l.762.286c-.087.289-2.235,6.925-6.982,7.279a5.572,5.572,0,0,1-1.545-.114" transform="translate(-293.708 -9.618)" fill="#61a76a"/>
        <path id="Trazado_877176" data-name="Trazado 877176" d="M358.492,170.385c-2.48-.517-5.133-2.681-7.915-6.438l.633-.4c3.176,4.3,6.105,6.373,8.685,6.18,4.272-.324,6.344-6.744,6.361-6.805l.762.29c-.086.278-2.231,6.91-6.979,7.271a5.473,5.473,0,0,1-1.546-.1" transform="translate(-298.703 -8.779)" fill="#61a76a"/>
        <path id="Trazado_877177" data-name="Trazado 877177" d="M353.855,200.664c-2.071-.431-4.285-2.232-6.607-5.361l.638-.391c2.614,3.53,5.019,5.252,7.133,5.083,3.486-.259,5.2-5.542,5.219-5.6l.759.286c-.071.235-1.861,5.771-5.835,6.066a4.444,4.444,0,0,1-1.307-.088" transform="translate(-289.532 -10.475)" fill="#61a76a"/>
        <path id="Trazado_877178" data-name="Trazado 877178" d="M349.783,226.043c-2.479-.517-5.132-2.678-7.915-6.435l.635-.4c3.172,4.3,6.1,6.371,8.682,6.179,4.268-.319,6.346-6.738,6.363-6.805l.764.291c-.087.283-2.234,6.914-6.979,7.275a5.448,5.448,0,0,1-1.549-.105" transform="translate(-281.758 -11.778)" fill="#61a76a"/>
        <path id="Trazado_877179" data-name="Trazado 877179" d="M348.335,241.495c-2.477-.516-5.135-2.673-7.922-6.431l.636-.4c3.179,4.293,6.108,6.374,8.686,6.175,4.271-.317,6.34-6.734,6.362-6.8l.763.286c-.083.275-2.232,6.916-6.979,7.271a5.424,5.424,0,0,1-1.545-.105" transform="translate(-278.929 -12.612)" fill="#61a76a"/>
        <path id="Trazado_877180" data-name="Trazado 877180" d="M345.354,253.319c-1.792-.373-3.7-1.926-5.7-4.63l.638-.39c2.223,3.014,4.268,4.469,6.051,4.338,2.964-.221,4.415-4.724,4.432-4.768l.764.291c-.061.2-1.608,4.976-5.047,5.235a4.312,4.312,0,0,1-1.133-.076" transform="translate(-272.884 -13.357)" fill="#61a76a"/>
        <path id="Trazado_877181" data-name="Trazado 877181" d="M267.129,254.092c-1.316-.08-50.567,2.569-55.592,8.5s10.051,78.229,15.914,83.117,40.622,4.19,40.622,4.19Z" transform="translate(-67.257 -13.692)" fill="#4463cd"/>
        <path id="Trazado_877182" data-name="Trazado 877182" d="M358.493,311.033s18.282-82.721-5.181-99.672c-24.63-17.8-80.974-10.889-87.53,0s16.857,89.621,20.6,99.672Z" transform="translate(-215.648 -10.802)" fill="#4463cd"/>
        <path id="Trazado_877183" data-name="Trazado 877183" d="M339.264,308.78s22.415-88.783-5.181-99.671-80.974-10.889-87.53,0,16.857,89.62,20.6,99.671Z" transform="translate(-180.03 -10.828)" fill="#5a7fe5"/>
        <path id="Trazado_877184" data-name="Trazado 877184" d="M327.851,262.419c.184,3.43,5.359,3.462,5.359,0s-5.174-3.433-5.359,0c-.036.652-1.056.657-1.021,0a3.7,3.7,0,1,1,3.873,3.691,3.761,3.761,0,0,1-3.873-3.691c-.035-.657.985-.655,1.021,0" transform="translate(-243.447 -13.941)" fill="#4463cd"/>
        <path id="Trazado_877185" data-name="Trazado 877185" d="M215.382,344.591c.357.123,9.642,22.046,2.383,22.424s-11.607-20.452-11.607-20.452Z" transform="translate(-15.58 -18.569)" fill="#53424d"/>
        <path id="Trazado_877186" data-name="Trazado 877186" d="M249.908,344.591c.357.123,9.642,22.046,2.383,22.424s-11.607-20.452-11.607-20.452Z" transform="translate(-82.771 -18.569)" fill="#53424d"/>
        <path id="Trazado_877187" data-name="Trazado 877187" d="M289.655,344.591c-.357.123-9.642,22.046-2.383,22.424s11.607-20.452,11.607-20.452Z" transform="translate(-168.053 -18.569)" fill="#53424d"/>
        <path id="Trazado_877188" data-name="Trazado 877188" d="M333.944,343.263c-.357.123-9.642,22.047-2.383,22.424s11.608-20.452,11.608-20.452Z" transform="translate(-254.246 -18.497)" fill="#53424d"/>
        <path id="Trazado_877189" data-name="Trazado 877189" d="M217.617,264.879a13.855,13.855,0,0,0-9.471-10.241c-3.032-.892-6.389-1.074-8.424,1.32-10.47,12.314-3.134,94.266-3.134,94.266l20.3-.324s6.211-61.341.726-85.022" transform="translate(-3.511 -13.689)" fill="#5a7fe5"/>
        <path id="Trazado_877190" data-name="Trazado 877190" d="M282.049,307.8,221.7,305.143l-2.989,47.8,65.753.034Z" transform="translate(-91.386 -16.443)" fill="#4463cd"/>
        <path id="Trazado_877191" data-name="Trazado 877191" d="M244.63,221.412a10.276,10.276,0,0,1,0,1.634c-1.323,3.394-11.228,34.319-20.92,33.005-14.343-1.943,7.668-23.694,15.691-33.646Z" transform="translate(-51.833 -11.931)" fill="#cc8c71"/>
        <path id="Trazado_877192" data-name="Trazado 877192" d="M244.71,230.963c1.084,1.149,17.826,17.409,16.206,23.043-.718,2.5-5.3,4.5-11.8-.69-6.885-5.492-17.686-18.994-10.565-20.415a53.233,53.233,0,0,0,6.157-1.938" transform="translate(-84.516 -12.446)" fill="#cc8c71"/>
        <path id="Trazado_877193" data-name="Trazado 877193" d="M273.491,213.079c-11.542-6.527-24.808-4.405-27.926-1.65-1.769,1.563,11.482,1.241,12.668,4.175,2.084,5.154,12.2,20.827,20.581,28.633,2.874,2.678,14.418-5.076,11.058-10.773-4.412-7.479-10.211-16.9-16.38-20.385" transform="translate(-122.657 -11.25)" fill="#ff4650"/>
        <path id="Trazado_877194" data-name="Trazado 877194" d="M260.151,215.875s3.127,1.346,3.126,6.667c2.819,4.556,1.815,17.478,2.052,21.47,1.478,24.862-10.629,20.84-8.59,25.4,3.66,8.188,57.806,2.557,55.78-5.994-8.792-37.12,6.1-43.506-12.775-52.952-6.721-3.364-33.307-2.1-39.593,5.408" transform="translate(-155.26 -11.246)" fill="#ff4650"/>
        <path id="Trazado_877195" data-name="Trazado 877195" d="M215.68,231.055s5.1-12.152,5.791-13.125c4.437-6.242,5.383-10.251,6.219-8.894,1.537,2.5-1.8,10.925-2.276,12.2a55.672,55.672,0,0,1-3.183,6.581c-.791,1.236-6.551,3.243-6.551,3.243" transform="translate(-32.15 -11.25)" fill="#cc8c71"/>
        <path id="Trazado_877196" data-name="Trazado 877196" d="M323.521,231.621c-1.139,1.231-7.532,29.683-14.406,28.9-8.762-1-6.1-15.183-1.171-22.441,5.219-7.685,12.23-16.66,15.65-13.714,1.92,1.654-.072,7.258-.072,7.258" transform="translate(-211.459 -12.059)" fill="#cc8c71"/>
        <path id="Trazado_877197" data-name="Trazado 877197" d="M319.326,221.995c1.21-4.714,7.334-7.86,3.226-9.071-2.33-.687-9.94-3.534-16.463,2-7.7,6.527-8.585,13.262-13.888,23.238-1.776,3.342,14.589,11.507,17.587,5.727,4.455-8.59,6.861-11.453,9.538-21.891" transform="translate(-200.28 -11.401)" fill="#ff4650"/>
        <path id="Trazado_877198" data-name="Trazado 877198" d="M293.771,228.67c2.654.378,3.784-4.419,3.784-4.419l-21.667-13.967s2.413,16.185,17.883,18.387" transform="translate(-158.578 -11.331)" fill="#fdfefd"/>
        <path id="Trazado_877199" data-name="Trazado 877199" d="M270.582,227.174c-3.1.863-4.919-2.949-4.919-2.949l3.816-14.412,3.941,1.375s5.831,13.576-2.837,15.986" transform="translate(-126.686 -11.306)" fill="#fdfefd"/>
        <path id="Trazado_877200" data-name="Trazado 877200" d="M297.114,211.077s-15.49-6.8-29.423-.93l21.667,13.967Z" transform="translate(-150.38 -11.195)" fill="#fdfefd"/>
        <path id="Trazado_877201" data-name="Trazado 877201" d="M270.753,208.771s4.857,15.287,16.537,15.422c5.427.063,7.2-4.2,4.205-8.368-2.946-4.1-20.743-7.053-20.743-7.053" transform="translate(-149.106 -11.25)" fill="#cc8c71"/>
        <path id="Trazado_877202" data-name="Trazado 877202" d="M204.371,273.24c.213,3.962,6.189,4,6.189,0s-5.975-3.964-6.189,0c-.048.887-1.433.893-1.386,0a4.48,4.48,0,1,1,4.687,4.469,4.556,4.556,0,0,1-4.687-4.469c-.047-.89,1.338-.888,1.386,0" transform="translate(-3.991 -14.482)" fill="#4463cd"/>
        <path id="Trazado_877203" data-name="Trazado 877203" d="M211.541,349.9c2.966-24.239,5.735-49.876,2.9-74.218-.453-3.889-1.211-14.544-6.1-15.949-5.247-1.508-6.48,7.77-7.067,11.238-2.534,14.99-1.6,30.817-.854,45.923.548,11.117,1.561,22.182,2.448,33.272.07.888-1.315.885-1.386,0-.932-11.667-1.99-23.307-2.53-35-.724-15.683-2.267-33.243,1.815-48.613,1.6-6.035,6.606-12.45,11.485-4.846,3.04,4.739,3.4,11.55,3.87,16.993a224.427,224.427,0,0,1,.282,27.943c-.56,14.444-1.723,28.91-3.479,43.26-.107.873-1.493.885-1.385,0" transform="translate(-4.085 -13.915)" fill="#4463cd"/>
        <path id="Trazado_877204" data-name="Trazado 877204" d="M333.5,219.8c.184,3.431,5.359,3.462,5.359,0s-5.174-3.433-5.359,0c-.035.653-1.056.658-1.021,0a3.7,3.7,0,1,1,3.874,3.691,3.763,3.763,0,0,1-3.874-3.691c-.035-.656.986-.655,1.021,0" transform="translate(-254.446 -11.645)" fill="#4463cd"/>
        <path id="Trazado_877205" data-name="Trazado 877205" d="M323.346,277.084a11.54,11.54,0,0,1-1.768.019c-3.608-1.343-46.079-13.052-37.212-25.915,6.686-9.7,27.8,12.141,38.169,20.426Z" transform="translate(-191.24 -13.404)" fill="#cc8c71"/>
        <path id="Trazado_877206" data-name="Trazado 877206" d="M269.25,267.744s13.776,5.545,14.865,6.309c6.979,4.885,11.563,5.89,9.948,6.843-2.973,1.755-12.536-1.869-13.979-2.385a60.914,60.914,0,0,1-7.439-3.475c-1.386-.869-3.4-7.292-3.4-7.292" transform="translate(-149.13 -14.428)" fill="#cc8c71"/>
        <path id="Trazado_877207" data-name="Trazado 877207" d="M270.081,215.724a1.19,1.19,0,1,0,0-1.682,1.191,1.191,0,0,0,0,1.682" transform="translate(-127.309 -11.515)" fill="#fea603"/>
        <path id="Trazado_877208" data-name="Trazado 877208" d="M270.849,213.588a1.19,1.19,0,1,0,0-1.682,1.191,1.191,0,0,0,0,1.682" transform="translate(-128.804 -11.4)" fill="#fea603"/>
        <path id="Trazado_877209" data-name="Trazado 877209" d="M272.105,211.4a1.189,1.189,0,1,0,0-1.681,1.189,1.189,0,0,0,0,1.681" transform="translate(-131.25 -11.282)" fill="#fea603"/>
        <path id="Trazado_877210" data-name="Trazado 877210" d="M290.427,207.8a1.19,1.19,0,1,0,0-1.682,1.189,1.189,0,0,0,0,1.682" transform="translate(-166.906 -11.088)" fill="#fea603"/>
        <path id="Trazado_877211" data-name="Trazado 877211" d="M292.636,179.753c-2.623-5.453-7.168-8.173-12.415-9.4a15.9,15.9,0,0,0-16.7,8.47c-7.509,14.461-7.043,15.389-7.043,15.389,7.4,4.046,30.191,11.915,31.344,10.7,6.455-6.836,10.775-12.759,4.813-25.159" transform="translate(-138.126 -9.166)" fill="#53424d"/>
        <path id="Trazado_877212" data-name="Trazado 877212" d="M292.955,217.4s-3.016-7.928-.82-15.687c.553-1.953-2.362-3.122-1.415-3.889s-8.544-5.926-8.544-5.926-2.2,12.215-11.185,15.961Z" transform="translate(-149.342 -10.341)" fill="#cc8c71"/>
        <path id="Trazado_877213" data-name="Trazado 877213" d="M282.045,202.855c.8-2.353-.892-5.647.268-6.587s-10.456-7.253-10.456-7.253a13.948,13.948,0,0,1,0,6.852,23.773,23.773,0,0,0,9.792,10.5Z" transform="translate(-139.601 -10.185)" fill="#bf7c64"/>
        <path id="Trazado_877214" data-name="Trazado 877214" d="M279.445,175.067c3.436,4.593,8.77,21.333-.278,27.042-3.865,2.44-12.5-3.7-16.085-12.123-1.479-3.457-.4-10.358,3.638-15.773,1.817-2.454,8.788-4.521,12.725.853" transform="translate(-132.474 -9.252)" fill="#cc8c71"/>
        <path id="Trazado_877215" data-name="Trazado 877215" d="M289.091,182.874c-1.111,1.355-.812-1.045-4.159-3.166a7.347,7.347,0,0,0-1.34-.623,3.317,3.317,0,0,0-1.211-.249,1.929,1.929,0,0,0-1.743,1.469,8.483,8.483,0,0,1-3.255,3.965,11.98,11.98,0,0,0-3.854,4.213,6.706,6.706,0,0,1-.79,1.506,4.79,4.79,0,0,0-1,1.9c-.178.676-.205,1.382-.329,2.069a2.609,2.609,0,0,1-1.5,2.125,5.175,5.175,0,0,1-1.149.426,5.716,5.716,0,0,1-2.519.066,5.485,5.485,0,0,1-4.048-3.631c-1.122-3.13-.221-6.759.846-9.768a44.318,44.318,0,0,1,2.8-6.174,10.22,10.22,0,0,1,4.416-4.241,14.109,14.109,0,0,1,8.122-1.3,14.75,14.75,0,0,1,4.056,1.112c6.112,2.7,7.528,9.242,6.65,10.307" transform="translate(-136.912 -9.232)" fill="#53424d"/>
        <path id="Trazado_877216" data-name="Trazado 877216" d="M283.31,191.5s-2.781-4.069-4.96-3.638-.749,6.561,3.478,6.811,2.365-2.041,1.483-3.173" transform="translate(-146.876 -10.121)" fill="#cc8c71"/>
        <path id="Trazado_877217" data-name="Trazado 877217" d="M293.683,207.341a1.189,1.189,0,1,0,.064,1.68,1.19,1.19,0,0,0-.064-1.68" transform="translate(-170.03 -11.156)" fill="#fea603"/>
        <path id="Trazado_877218" data-name="Trazado 877218" d="M292.425,209.342a1.19,1.19,0,1,0,.064,1.681,1.189,1.189,0,0,0-.064-1.681" transform="translate(-167.583 -11.264)" fill="#fea603"/>
        <path id="Trazado_877219" data-name="Trazado 877219" d="M289.518,212.991a1.189,1.189,0,1,0,0-1.682,1.189,1.189,0,0,0,0,1.682" transform="translate(-165.136 -11.368)" fill="#fea603"/>
        <path id="Trazado_877220" data-name="Trazado 877220" d="M287.956,214.846a1.189,1.189,0,1,0,0-1.682,1.189,1.189,0,0,0,0,1.682" transform="translate(-162.096 -11.468)" fill="#fea603"/>
        <path id="Trazado_877221" data-name="Trazado 877221" d="M286.231,216.571a1.19,1.19,0,1,0,0-1.682,1.191,1.191,0,0,0,0,1.682" transform="translate(-158.74 -11.561)" fill="#fea603"/>
        <path id="Trazado_877222" data-name="Trazado 877222" d="M284.11,217.7a1.19,1.19,0,1,0,0-1.683,1.191,1.191,0,0,0,0,1.683" transform="translate(-154.612 -11.621)" fill="#fea603"/>
        <path id="Trazado_877223" data-name="Trazado 877223" d="M282.007,218.654a1.19,1.19,0,1,0,0-1.682,1.191,1.191,0,0,0,0,1.682" transform="translate(-150.519 -11.673)" fill="#fea603"/>
        <path id="Trazado_877224" data-name="Trazado 877224" d="M279.915,219.829a1.189,1.189,0,1,0,0-1.681,1.189,1.189,0,0,0,0,1.681" transform="translate(-146.449 -11.736)" fill="#fea603"/>
        <path id="Trazado_877225" data-name="Trazado 877225" d="M277.58,220.216a1.189,1.189,0,1,0,0-1.682,1.189,1.189,0,0,0,0,1.682" transform="translate(-141.905 -11.757)" fill="#fea603"/>
        <path id="Trazado_877226" data-name="Trazado 877226" d="M275.173,219.911a1.189,1.189,0,1,0,0-1.682,1.187,1.187,0,0,0,0,1.682" transform="translate(-137.218 -11.741)" fill="#fea603"/>
        <path id="Trazado_877227" data-name="Trazado 877227" d="M272.856,219.28a1.19,1.19,0,1,0,0-1.683,1.192,1.192,0,0,0,0,1.683" transform="translate(-132.711 -11.707)" fill="#fea603"/>
        <path id="Trazado_877228" data-name="Trazado 877228" d="M270.948,217.828a1.189,1.189,0,1,0,0-1.682,1.188,1.188,0,0,0,0,1.682" transform="translate(-128.996 -11.628)" fill="#fea603"/>
        <path id="Trazado_877229" data-name="Trazado 877229" d="M306.82,238.6a8.384,8.384,0,0,1-.483,6.1.755.755,0,0,1-1.3-.762,6.868,6.868,0,0,0,.33-4.936c-.226-.943,1.228-1.346,1.455-.4" transform="translate(-195.653 -12.828)" fill="#ed3748"/>
        <path id="Trazado_877230" data-name="Trazado 877230" d="M260.367,238.684a6.874,6.874,0,0,0,.308,4.937.755.755,0,0,1-1.3.762,8.376,8.376,0,0,1-.46-6.1c.23-.942,1.685-.544,1.454.4" transform="translate(-105.414 -12.811)" fill="#ed3748"/>
        <path id="Trazado_877231" data-name="Trazado 877231" d="M271.907,190.788c-.069-.089.081.089.111.117a2.156,2.156,0,0,0,.409.325c.589.34,1.055.062,1.441-.391.242-.285.672.134.431.418a1.77,1.77,0,0,1-2.906-.185c-.237-.3.28-.585.515-.285" transform="translate(-131.08 -10.274)" fill="#1e100c"/>
        <path id="Trazado_877232" data-name="Trazado 877232" d="M265.049,191.406a2.061,2.061,0,0,0,.359.574c.481.537.99.322,1.455-.114.273-.255.706.161.431.418a1.536,1.536,0,0,1-1.991.378,2.452,2.452,0,0,1-.832-1.109c-.142-.353.436-.5.578-.148" transform="translate(-117.58 -10.303)" fill="#1e100c"/>
        <path id="Trazado_877233" data-name="Trazado 877233" d="M266.958,188.888a1.79,1.79,0,0,0-2.445.227c-.334.327-.8-.225-.471-.55a2.475,2.475,0,0,1,3.328-.272c.376.275-.036.87-.413.6" transform="translate(-117.226 -10.118)" fill="#552b19"/>
        <path id="Trazado_877234" data-name="Trazado 877234" d="M273.4,188.648a1.792,1.792,0,0,0-2.415-.444c-.41.225-.711-.433-.3-.657a2.477,2.477,0,0,1,3.278.64c.287.367-.272.829-.558.461" transform="translate(-129.954 -10.087)" fill="#552b19"/>
        <path id="Trazado_877235" data-name="Trazado 877235" d="M270.024,189.894a3.614,3.614,0,0,0-.731,1.874c-.035.971.83,1.7,1.133,2.607.416,1.252-.529,1.6-1.859,1.535-.322-.016-.338-.434-.018-.418,2.982.144.28-2.326.246-3.6a3.833,3.833,0,0,1,.792-2.239c.156-.219.6.022.438.242" transform="translate(-124.382 -10.215)" fill="#bf7c64"/>
        <path id="Trazado_877236" data-name="Trazado 877236" d="M269.386,196.677s-.974,2.291.974,2.965a2.4,2.4,0,0,0,2.88-1.361Z" transform="translate(-127.88 -10.598)" fill="#faffff"/>
        <path id="Trazado_877237" data-name="Trazado 877237" d="M273.927,194.643a1.405,1.405,0,1,0,1.4-1.406,1.405,1.405,0,0,0-1.4,1.406" transform="translate(-135.904 -10.413)" fill="#c1775d"/>
        <path id="Trazado_877238" data-name="Trazado 877238" d="M266.307,195.2a1.423,1.423,0,1,0-.432,1.964,1.422,1.422,0,0,0,.432-1.964" transform="translate(-116.007 -10.483)" fill="#c1775d"/>
        <path id="Trazado_877239" data-name="Trazado 877239" d="M282.8,194.032c-1.572,1.2-4.733,4.559-1.039,5.31,2.627.535,2.011-2.747,1.515-4.287-.119-.369.462-.526.58-.159.736,2.285.774,6.078-2.692,4.9-3.774-1.285-.548-4.85,1.332-6.281.307-.235.607.288.3.519" transform="translate(-148.613 -10.424)" fill="#fea603"/>
        <path id="Trazado_877240" data-name="Trazado 877240" d="M231.855,355.82s-1.687,8.591-1.082,9.99c1.8,4.172,16.642,6.476,21.935,4.276.741-.308,1.6-1.553.268-3.373s-9.468-4.863-8.534-8.4-12.586-2.5-12.586-2.5" transform="translate(-71.883 -19.166)" fill="#53424d"/>
        <path id="Trazado_877241" data-name="Trazado 877241" d="M191.02,330.814s1.624,8.6,2.706,9.679c3.222,3.2,17.857-.17,21.954-4.179.573-.56.905-2.033-1-3.23s-10.6-1-11.044-4.627-12.612,2.358-12.612,2.358" transform="translate(3.147 -17.636)" fill="#53424d"/>
        <path id="Trazado_877242" data-name="Trazado 877242" d="M230.6,287.152l5.718,67.8s9.69,4.109,17.908,0l7.191-57.653-12.841-16.371Z" transform="translate(-79.586 -15.138)" fill="#e08b03"/>
        <path id="Trazado_877243" data-name="Trazado 877243" d="M202.2,279.791s-4.623,32.934,18.491,31.394,34.927-23.113,43.145-21.059,25.681,42.117,25.681,42.117,8.218,2.054,16.951-6.678c0,0-9.759-50.335-27.736-62.662S202.2,279.791,202.2,279.791" transform="translate(-97.417 -14.003)" fill="#feb801"/>
        <path id="Trazado_877244" data-name="Trazado 877244" d="M364.482,260.427c-1.472-.077-59.539,1.718-65.158,7.347s11.238,74.156,17.794,78.79,45.418,3.973,45.418,3.973Z" transform="translate(-246.609 -14.033)" fill="#4463cd"/>
        <path id="Trazado_877245" data-name="Trazado 877245" d="M305.572,269.953a13.063,13.063,0,0,0-10.114-9.11c-3.2-.664-6.933-.862-9.9.637-6.555,3.31-2.365,89.085-2.365,89.085l21.563-.033s6.942-58.118.816-80.579" transform="translate(-174.782 -14.029)" fill="#5a7fe5"/>
        <path id="Trazado_877246" data-name="Trazado 877246" d="M292.724,279.947c.192,3.55,5.545,3.582,5.545,0s-5.353-3.552-5.545,0c-.046.887-1.432.893-1.384,0a4.157,4.157,0,1,1,4.346,4.147,4.226,4.226,0,0,1-4.346-4.147c-.048-.89,1.338-.888,1.384,0" transform="translate(-175.294 -14.861)" fill="#4463cd"/>
        <path id="Trazado_877247" data-name="Trazado 877247" d="M299.1,350.281c2.94-22.338,5.654-46.088,2.952-68.545-.468-3.9-1.259-13.846-6.109-15.2-5.4-1.505-6.66,7.689-7.258,11.305-2.3,13.936-1.423,28.6-.656,42.632.549,10.045,1.529,20.037,2.4,30.054.077.887-1.308.883-1.385,0-.945-10.874-1.994-21.718-2.536-32.626-.718-14.485-2.238-30.962,1.822-45.116,1.694-5.908,6.655-11.475,11.469-4.515,7.084,10.243,4.653,29.428,4.2,40.947-.539,13.713-1.724,27.453-3.514,41.062-.115.871-1.5.883-1.386,0" transform="translate(-174.994 -14.282)" fill="#4463cd"/>
        <path id="Trazado_877248" data-name="Trazado 877248" d="M145.536,74.445h80.656a2.537,2.537,0,0,0,2.53-2.529V42.579a2.538,2.538,0,0,0-2.53-2.53H145.536a2.537,2.537,0,0,0-2.528,2.53V71.916a2.536,2.536,0,0,0,2.528,2.529" transform="translate(35.976 -2.158)" fill="#d3b5fc"/>
        <path id="Trazado_877249" data-name="Trazado 877249" d="M188.965,74.68V85.515L172.585,74.68Z" transform="translate(47.751 -4.024)" fill="#d3b5fc"/>
        <path id="Trazado_877250" data-name="Trazado 877250" d="M163.621,58.541a5.237,5.237,0,1,0,5.237-5.237,5.237,5.237,0,0,0-5.237,5.237" transform="translate(71.101 -2.872)" fill="#ece1f9"/>
        <path id="Trazado_877251" data-name="Trazado 877251" d="M181.943,58.541A5.237,5.237,0,1,0,187.18,53.3a5.237,5.237,0,0,0-5.237,5.237" transform="translate(35.445 -2.872)" fill="#ece1f9"/>
        <path id="Trazado_877252" data-name="Trazado 877252" d="M200.266,58.541A5.237,5.237,0,1,0,205.5,53.3a5.237,5.237,0,0,0-5.237,5.237" transform="translate(-0.214 -2.872)" fill="#ece1f9"/>
        <path id="Trazado_877253" data-name="Trazado 877253" d="M266.54,135.873h44.095a4.12,4.12,0,0,0,4.119-4.119V80a4.12,4.12,0,0,0-4.119-4.12H266.54A4.12,4.12,0,0,0,262.422,80v51.752a4.119,4.119,0,0,0,4.118,4.119" transform="translate(-163.036 -4.089)" fill="#b0c2e5"/>
        <rect id="Rectángulo_413641" data-name="Rectángulo 413641" width="38.798" height="46.881" transform="translate(106.523 78.11)" fill="#faffff"/>
        <rect id="Rectángulo_413642" data-name="Rectángulo 413642" width="34.242" height="42.325" transform="translate(108.727 80.461)" fill="#8cc3fb"/>
        <path id="Trazado_877254" data-name="Trazado 877254" d="M305.911,117.643l-8.671-8.083-7.348,9.405-3.233-3.527-4.116,3.527L271.669,95.452V127.93h34.242Z" transform="translate(-162.942 -5.143)" fill="#517dd8"/>
        <path id="Trazado_877255" data-name="Trazado 877255" d="M278.5,95.867a4.3,4.3,0,1,0,4.3-4.3,4.3,4.3,0,0,0-4.3,4.3" transform="translate(-150.598 -4.934)" fill="#eec259"/>
        <rect id="Rectángulo_413643" data-name="Rectángulo 413643" width="124.63" height="44.777" transform="translate(200.488 100.887)" fill="#b3d0ff"/>
        <path id="Trazado_877256" data-name="Trazado 877256" d="M207.223,106.633H212.3a17.07,17.07,0,0,1,17.021,17.02v34.66H190.2v-34.66a17.07,17.07,0,0,1,17.02-17.02" transform="translate(-9.272 -5.746)" fill="#94b8ed"/>
        <rect id="Rectángulo_413644" data-name="Rectángulo 413644" width="122.712" height="152.431" transform="translate(220.045 122.08)" fill="#b3d0ff"/>
        <path id="Trazado_877257" data-name="Trazado 877257" d="M77.523,106.633H82.6a17.07,17.07,0,0,1,17.021,17.02v34.66H60.5v-34.66a17.07,17.07,0,0,1,17.021-17.02" transform="translate(243.141 -5.746)" fill="#b3d0ff"/>
        <path id="Trazado_877258" data-name="Trazado 877258" d="M86.979,166.946v-1.227l-2.7-.8a.958.958,0,0,1-.465-.271.785.785,0,0,1-.172-.549V145.447h5.4a.694.694,0,0,1,.459.164.721.721,0,0,1,.244.458l.655,3.518h1.914v-6.1H71.534v6.1h1.914l.654-3.518a.791.791,0,0,1,.245-.475.676.676,0,0,1,.442-.147h5.417V164.1a.74.74,0,0,1-.188.549,1.087,1.087,0,0,1-.449.271l-2.7.8v1.227Z" transform="translate(240.009 -7.732)" fill="#fff"/>
        <path id="Trazado_877259" data-name="Trazado 877259" d="M108.513,146.489h27.355a1.534,1.534,0,0,0,0-3.067H108.513a1.534,1.534,0,1,0,0,3.067" transform="translate(161.384 -7.728)" fill="#fff"/>
        <path id="Trazado_877260" data-name="Trazado 877260" d="M146.545,146.489h13.614a1.534,1.534,0,1,0,0-3.067H146.545a1.534,1.534,0,1,0,0,3.067" transform="translate(101.111 -7.728)" fill="#fff"/>
        <path id="Trazado_877261" data-name="Trazado 877261" d="M169.58,146.489h8.18a1.534,1.534,0,1,0,0-3.067h-8.18a1.534,1.534,0,0,0,0,3.067" transform="translate(61.715 -7.728)" fill="#fff"/>
        <path id="Trazado_877262" data-name="Trazado 877262" d="M108.385,152.719H174.6a1.406,1.406,0,1,0,0-2.812H108.385a1.406,1.406,0,1,0,0,2.812" transform="translate(122.781 -8.078)" fill="#fff"/>
        <path id="Trazado_877263" data-name="Trazado 877263" d="M108.384,159.2H129.6a1.406,1.406,0,0,0,0-2.812H108.384a1.406,1.406,0,0,0,0,2.812" transform="translate(167.776 -8.427)" fill="#fff"/>
        <path id="Trazado_877264" data-name="Trazado 877264" d="M139.46,159.2h36.813a1.406,1.406,0,0,0,0-2.812H139.46a1.406,1.406,0,1,0,0,2.812" transform="translate(91.706 -8.427)" fill="#fff"/>
        <path id="Trazado_877265" data-name="Trazado 877265" d="M108.512,166.215h65.957a1.534,1.534,0,1,0,0-3.067H108.512a1.534,1.534,0,0,0,0,3.067" transform="translate(122.783 -8.791)" fill="#fff"/>
        <path id="Trazado_877266" data-name="Trazado 877266" d="M72.034,179.725H99.389a1.534,1.534,0,1,0,0-3.067H72.034a1.534,1.534,0,1,0,0,3.067" transform="translate(232.377 -9.519)" fill="#fff"/>
        <path id="Trazado_877267" data-name="Trazado 877267" d="M110.067,179.725H123.68a1.534,1.534,0,1,0,0-3.067H110.067a1.534,1.534,0,1,0,0,3.067" transform="translate(172.101 -9.519)" fill="#fff"/>
        <path id="Trazado_877268" data-name="Trazado 877268" d="M133.1,179.725h8.18a1.534,1.534,0,1,0,0-3.067H133.1a1.534,1.534,0,0,0,0,3.067" transform="translate(132.705 -9.519)" fill="#fff"/>
        <path id="Trazado_877269" data-name="Trazado 877269" d="M71.906,185.955h66.213a1.406,1.406,0,1,0,0-2.813H71.906a1.406,1.406,0,0,0,0,2.813" transform="translate(193.773 -9.869)" fill="#fff"/>
        <path id="Trazado_877270" data-name="Trazado 877270" d="M71.906,192.44H93.124a1.406,1.406,0,1,0,0-2.812H71.906a1.406,1.406,0,1,0,0,2.812" transform="translate(238.768 -10.218)" fill="#fff"/>
        <path id="Trazado_877271" data-name="Trazado 877271" d="M102.981,192.44h36.813a1.406,1.406,0,1,0,0-2.812H102.981a1.406,1.406,0,1,0,0,2.812" transform="translate(162.698 -10.218)" fill="#fff"/>
        <path id="Trazado_877272" data-name="Trazado 877272" d="M72.034,199.451h65.957a1.534,1.534,0,1,0,0-3.068H72.034a1.534,1.534,0,0,0,0,3.068" transform="translate(193.773 -10.582)" fill="#fff"/>
        <rect id="Rectángulo_413645" data-name="Rectángulo 413645" width="28.633" height="21.73" transform="translate(229.76 167.139)" fill="#fff"/>
        <path id="Trazado_877273" data-name="Trazado 877273" d="M71.874,212.961h42.633a1.534,1.534,0,1,0,0-3.067H71.874a1.534,1.534,0,0,0,0,3.067" transform="translate(217.41 -11.31)" fill="#fff"/>
        <path id="Trazado_877274" data-name="Trazado 877274" d="M146.545,212.961h13.614a1.534,1.534,0,1,0,0-3.067H146.545a1.534,1.534,0,1,0,0,3.067" transform="translate(101.111 -11.31)" fill="#fff"/>
        <path id="Trazado_877275" data-name="Trazado 877275" d="M169.58,212.961h8.18a1.534,1.534,0,1,0,0-3.067h-8.18a1.534,1.534,0,0,0,0,3.067" transform="translate(61.715 -11.31)" fill="#fff"/>
        <path id="Trazado_877276" data-name="Trazado 877276" d="M108.385,219.191H174.6a1.406,1.406,0,1,0,0-2.812H108.385a1.406,1.406,0,1,0,0,2.812" transform="translate(122.781 -11.66)" fill="#fff"/>
        <path id="Trazado_877277" data-name="Trazado 877277" d="M71.745,225.676h33.288a1.406,1.406,0,1,0,0-2.812H71.745a1.406,1.406,0,1,0,0,2.812" transform="translate(227.012 -12.009)" fill="#fff"/>
        <path id="Trazado_877278" data-name="Trazado 877278" d="M139.46,225.676h36.813a1.406,1.406,0,1,0,0-2.812H139.46a1.406,1.406,0,1,0,0,2.812" transform="translate(91.706 -12.009)" fill="#fff"/>
        <path id="Trazado_877279" data-name="Trazado 877279" d="M71.873,232.687H172.5a1.534,1.534,0,1,0,0-3.067H71.873a1.534,1.534,0,0,0,0,3.067" transform="translate(159.422 -12.373)" fill="#fff"/>
        <path id="Trazado_877280" data-name="Trazado 877280" d="M71.745,267.829h33.288a1.406,1.406,0,1,0,0-2.812H71.745a1.406,1.406,0,1,0,0,2.812" transform="translate(227.012 -14.281)" fill="#fff"/>
        <path id="Trazado_877281" data-name="Trazado 877281" d="M139.46,267.829h36.813a1.406,1.406,0,0,0,0-2.812H139.46a1.406,1.406,0,1,0,0,2.812" transform="translate(91.706 -14.281)" fill="#fff"/>
        <path id="Trazado_877282" data-name="Trazado 877282" d="M71.873,274.839H172.5a1.534,1.534,0,0,0,0-3.068H71.873a1.534,1.534,0,0,0,0,3.068" transform="translate(159.422 -14.645)" fill="#fff"/>
      </g>
    </g>
  </g>
</svg>
