<svg xmlns="http://www.w3.org/2000/svg" xmlns:xlink="http://www.w3.org/1999/xlink" width="99.001" height="98.908" viewBox="0 0 99.001 98.908">
  <defs>
    <clipPath id="clip-path">
      <rect id="Rect치ngulo_413639" data-name="Rect치ngulo 413639" width="53.468" height="53.497" fill="#12263f"/>
    </clipPath>
  </defs>
  <g id="Grupo_1116054" data-name="Grupo 1116054" transform="translate(-3321.789 7561.815)">
    <g id="Grupo_1115429" data-name="Grupo 1115429" transform="translate(2935.122 -12898.815)">
      <rect id="Rect치ngulo_412780" data-name="Rect치ngulo 412780" width="93.637" height="93.545" rx="20" transform="translate(389.349 5339.695)" fill="#b0c2e5"/>
      <g id="Grupo_1114814" data-name="Grupo 1114814" transform="translate(386.667 5337)">
        <path id="Trazado_875775" data-name="Trazado 875775" d="M245.284,301.406A1.288,1.288,0,0,1,244,300.118v-3.863a6.445,6.445,0,0,1,6.438-6.438h30.644a9.024,9.024,0,0,0,9.013-9.013V250.216a6.445,6.445,0,0,1,6.438-6.438h3.863a1.288,1.288,0,1,1,0,2.575h-3.863a3.867,3.867,0,0,0-3.863,3.863V280.8a11.6,11.6,0,0,1-11.588,11.588H250.434a3.867,3.867,0,0,0-3.863,3.863v3.863a1.288,1.288,0,0,1-1.288,1.288" transform="translate(-202.679 -202.498)" fill="#12263f"/>
        <path id="Trazado_875777" data-name="Trazado 875777" d="M1.288,57.628A1.288,1.288,0,0,1,0,56.34V52.477a6.445,6.445,0,0,1,6.438-6.438H37.082A9.024,9.024,0,0,0,46.1,37.026V6.438A6.445,6.445,0,0,1,52.533,0H56.4a1.288,1.288,0,0,1,0,2.575H52.533a3.867,3.867,0,0,0-3.863,3.863V37.026A11.6,11.6,0,0,1,37.082,48.614H6.438a3.867,3.867,0,0,0-3.863,3.863V56.34a1.288,1.288,0,0,1-1.288,1.288" transform="translate(57.684 57.628) rotate(180)" fill="#12263f"/>
      </g>
    </g>
    <g id="Grupo_1115834" data-name="Grupo 1115834" transform="translate(3344.556 -7539.11)">
      <g id="Grupo_1115833" data-name="Grupo 1115833" clip-path="url(#clip-path)">
        <path id="Trazado_877127" data-name="Trazado 877127" d="M27.641,48.561a1.653,1.653,0,0,1-.835,1.3c-8.537.236-17.125.031-25.681.1a1.286,1.286,0,0,1-1.073-.8L0,9.3C.256,7.681,2.863,8.253,4,8.157c.113-1-.361-3.139.567-3.788.9-.628,2.528-.249,3.574-.352C8.286,2.662,7.516.079,9.538,0h29.13A1.437,1.437,0,0,1,39.86.679l.071,28.313a10.281,10.281,0,0,1,8.078,5.746c.308.675.839,1.767-.2,2.082-.929.283-1.253-1.308-1.6-1.887a8.615,8.615,0,0,0-16.029,5.344c1.074,9.445,15.017,10.409,17.061.235.1-.491-.127-1.542.527-1.743,2.018-.619.963,2.8.673,3.744-.113.368-.687,1.32-.615,1.61l4.979,4.515a2.973,2.973,0,0,1-4.259,4.125l-4.876-4.352c-.394-.122-1.18.385-1.634.52a10.383,10.383,0,0,1-10.526-2.372c-.172-.152-.55-.738-.6-.738H27.641c-.077.867.106,1.893,0,2.738M38.327,1.612H9.877V40.08h4.341a13.33,13.33,0,0,0,1.3-.436,4.155,4.155,0,0,0,2.228-2.981c.181-1.374-.669-3.116,1.142-3.266A32.375,32.375,0,0,1,24,33.5a.86.86,0,0,1-.093,1.575c-.715.217-4.258-.1-4.415.06a6.4,6.4,0,0,1-1.736,4.943H28.443v-2.07c0-.105.275-1.328.33-1.54.119-.46.365-.873.472-1.331H26.907c-.245,0-.634-.508-.667-.784-.186-1.555,2.968-.725,3.845-.981.205-.06,1.569-1.707,1.963-2.044a10.576,10.576,0,0,1,6.279-2.469ZM8.14,5.752h-2.4V30.4c0,.76-1.736.9-1.736-.134V9.893H1.6V48.361H25.7a1.34,1.34,0,0,0,.2-.2V45.823H5c-.422,0-.954-.981-1-1.4C3.6,41.145,4.3,37.1,4,33.732a.972.972,0,0,1,1.34-.932,1.817,1.817,0,0,1,.4.535V44.22H29.645L28.822,41.9l-.31-.224-19.505,0c-.291.064-.866-.356-.866-.6ZM46.807,45.589l-1.8,1.771,4.761,4.186c1.356.805,2.6-.483,1.708-1.842a36.447,36.447,0,0,0-3.131-2.88,13.01,13.01,0,0,0-1.54-1.235" transform="translate(0 0.001)" fill="#12263f"/>
        <path id="Trazado_877128" data-name="Trazado 877128" d="M252.871,249.651a6.731,6.731,0,1,1-6.731-6.731,6.731,6.731,0,0,1,6.731,6.731m-1.678,0a5.053,5.053,0,1,0-5.053,5.053,5.053,5.053,0,0,0,5.053-5.053" transform="translate(-207.431 -210.473)" fill="#12263f"/>
        <path id="Trazado_877129" data-name="Trazado 877129" d="M193.267,43.525h7.747V35.912h-7.747v1.937c0,.633-1.42.817-1.6-.137a13.611,13.611,0,0,1,.025-2.506c.171-.756.973-.978,1.637-1.034a54.114,54.114,0,0,1,7.87.02,1.406,1.406,0,0,1,1.424,1.381c.247,2.67-.2,5.713,0,8.424-.131.934-.815,1.2-1.668,1.271a59.189,59.189,0,0,1-7.49,0c-.641-.046-1.322-.119-1.646-.758a11.861,11.861,0,0,1-.122-3.427c.239-1.036,1.574-.49,1.574-.162Z" transform="translate(-166.027 -29.491)" fill="#12263f"/>
        <path id="Trazado_877130" data-name="Trazado 877130" d="M87.249,210.079l16.136-.032a.873.873,0,1,1,0,1.742H87.618c-1.14-.049-1.478-1.306-.369-1.711" transform="translate(-75.006 -181.991)" fill="#12263f"/>
        <path id="Trazado_877131" data-name="Trazado 877131" d="M87.244,177.087l12.792-.036a.871.871,0,1,1,0,1.742c-3.968-.342-8.683.447-12.562,0a.863.863,0,0,1-.231-1.706" transform="translate(-74.996 -153.402)" fill="#12263f"/>
        <path id="Trazado_877132" data-name="Trazado 877132" d="M146.076,145.653a1.9,1.9,0,0,1-.96.308c-3.31.3-7.068-.24-10.428,0a.872.872,0,1,1,0-1.745c3.216-.4,7.255.314,10.56,0,.676-.024,1.375.856.83,1.438" transform="translate(-115.932 -124.841)" fill="#12263f"/>
        <path id="Trazado_877133" data-name="Trazado 877133" d="M98.788,69.73c.6.635-.037,1.352-.833,1.435-3.268.341-7.092-.256-10.421,0a.872.872,0,1,1,0-1.743c3.317.233,7.026-.3,10.295,0a1.9,1.9,0,0,1,.959.308" transform="translate(-75.056 -60.07)" fill="#12263f"/>
        <path id="Trazado_877134" data-name="Trazado 877134" d="M87.289,45.055l11.065-.035a.814.814,0,0,1,0,1.616H87.521a.82.82,0,0,1-.232-1.581" transform="translate(-75.18 -39.007)" fill="#12263f"/>
        <path id="Trazado_877135" data-name="Trazado 877135" d="M87.289,96.082l10.927-.031a.809.809,0,0,1,.138,1.612H87.521a.82.82,0,0,1-.232-1.581" transform="translate(-75.18 -83.221)" fill="#12263f"/>
        <path id="Trazado_877136" data-name="Trazado 877136" d="M207.065,177.667c-.487-.606.105-1.352.829-1.436a49.553,49.553,0,0,1,7.208.011.868.868,0,0,1-.123,1.732,48.682,48.682,0,0,1-7.085,0,1.96,1.96,0,0,1-.828-.307" transform="translate(-179.253 -152.582)" fill="#12263f"/>
      </g>
    </g>
  </g>
</svg>
