<svg xmlns="http://www.w3.org/2000/svg" xmlns:xlink="http://www.w3.org/1999/xlink" width="99.001" height="98.908" viewBox="0 0 99.001 98.908">
  <defs>
    <clipPath id="clip-path">
      <rect id="Rect치ngulo_413637" data-name="Rect치ngulo 413637" width="51.707" height="51.77" fill="#12263f"/>
    </clipPath>
  </defs>
  <g id="Grupo_1116051" data-name="Grupo 1116051" transform="translate(-960.999 -4068)">
    <g id="Grupo_1115427" data-name="Grupo 1115427" transform="translate(574.332 -1269)">
      <rect id="Rect치ngulo_412780" data-name="Rect치ngulo 412780" width="93.637" height="93.545" rx="20" transform="translate(389.349 5339.695)" fill="#b0c2e5"/>
      <g id="Grupo_1114814" data-name="Grupo 1114814" transform="translate(386.667 5337)">
        <path id="Trazado_875775" data-name="Trazado 875775" d="M245.284,301.406A1.288,1.288,0,0,1,244,300.118v-3.863a6.445,6.445,0,0,1,6.438-6.438h30.644a9.024,9.024,0,0,0,9.013-9.013V250.216a6.445,6.445,0,0,1,6.438-6.438h3.863a1.288,1.288,0,1,1,0,2.575h-3.863a3.867,3.867,0,0,0-3.863,3.863V280.8a11.6,11.6,0,0,1-11.588,11.588H250.434a3.867,3.867,0,0,0-3.863,3.863v3.863a1.288,1.288,0,0,1-1.288,1.288" transform="translate(-202.679 -202.498)" fill="#12263f"/>
        <path id="Trazado_875777" data-name="Trazado 875777" d="M1.288,57.628A1.288,1.288,0,0,1,0,56.34V52.477a6.445,6.445,0,0,1,6.438-6.438H37.082A9.024,9.024,0,0,0,46.1,37.026V6.438A6.445,6.445,0,0,1,52.533,0H56.4a1.288,1.288,0,0,1,0,2.575H52.533a3.867,3.867,0,0,0-3.863,3.863V37.026A11.6,11.6,0,0,1,37.082,48.614H6.438a3.867,3.867,0,0,0-3.863,3.863V56.34a1.288,1.288,0,0,1-1.288,1.288" transform="translate(57.684 57.628) rotate(180)" fill="#12263f"/>
      </g>
    </g>
    <g id="Grupo_1115830" data-name="Grupo 1115830" transform="translate(984.646 4091.569)">
      <g id="Grupo_1115829" data-name="Grupo 1115829" clip-path="url(#clip-path)">
        <path id="Trazado_877105" data-name="Trazado 877105" d="M33.221,39.554l2.063,5.756c2.373.2,5.639-.55,6.532,2.386.5,1.636.438,3.826-1.675,4.012a25.035,25.035,0,0,1-3.984-.033.741.741,0,0,1-.546-1,3.678,3.678,0,0,1,.519-.521h4.33V48.277a1.971,1.971,0,0,0-1.186-1.27c-8.787-.2-17.608-.03-26.407-.087a1.943,1.943,0,0,0-1.615,1.357v1.874H33.157a.8.8,0,0,1-.123,1.558H11.568c-2.437-.063-2.226-3.534-1.2-4.959,1.4-1.944,4-1.185,6.057-1.439l2.063-5.756H2.785A3.535,3.535,0,0,1,.008,36.515L0,19.45a.783.783,0,1,1,1.561.133l.009,17.051a1.653,1.653,0,0,0,1.148,1.308H48.992a1.7,1.7,0,0,0,1.166-1.548l0-27.666c.061-.552-1.042-1.483-1.489-1.483H39.425c.118.743.326,4.274-.061,4.656-.294.289-1.231.1-1.231-.2V9.053H31.864c-.437,0-1.357-1.067-1.357-1.486V1.557H13.771a1.3,1.3,0,0,0-.194.194V17a1.3,1.3,0,0,0,.194.194H37.938A1.3,1.3,0,0,0,38.132,17V14.287a1.316,1.316,0,0,1,.589-.457c1.481-.215.5,2.706.888,3.244.131.182.6.093.853.181a2.473,2.473,0,0,1,1.552,2.2c.291,3.223-.2,6.913-.037,10.184a2.494,2.494,0,0,1-1.516,1.844c-.249.088-.722,0-.853.181-.457.635.762,3.54-1.421,3.878l-24.874-.052c-1.92-.5-.769-3.2-1.215-3.825-.131-.182-.6-.093-.853-.181a2.473,2.473,0,0,1-1.552-2.2c-.291-3.223.2-6.913.037-10.184a2.494,2.494,0,0,1,1.516-1.844c.314-.11.7.04.909-.254V7.244H3.044c-.425,0-1.452.865-1.479,1.364L1.5,16.3c-.279.7-1.093.841-1.436.13L.038,8.5c.051-.988,1.53-2.68,2.489-2.68h9.434a1.3,1.3,0,0,0,.194-.194V1.234c0-.481,1.073-1.312,1.615-1.228L31.594.018a2.942,2.942,0,0,1,1.37.7c1.769,1.4,3.323,3.646,5.13,5.08l10.83.026a3.262,3.262,0,0,1,2.783,3.162L51.7,36.515c.044,1.252-1.558,3.038-2.777,3.038ZM37.486,7.631,32.058,2.074V7.5c.127-.042.28.129.323.129ZM11.243,30.125H40.465V18.611H11.243Zm26.889,1.416H13.577V34H38.132ZM18.1,45.369H33.609l-1.951-5.8-11.54-.021Z" transform="translate(0 0)" fill="#12263f"/>
        <path id="Trazado_877106" data-name="Trazado 877106" d="M129.076,103.081l16.641-.031c1.093,0,1.57,1.263.394,1.557h-17.2c-.964-.13-.9-1.335.166-1.526" transform="translate(-111.656 -89.732)" fill="#12263f"/>
        <path id="Trazado_877107" data-name="Trazado 877107" d="M128.814,74.06l9.538-.03c1.125.131,1.192,1.416-.132,1.553-2.842.294-6.156-.22-9.049,0-.932-.067-1.385-1.171-.357-1.526" transform="translate(-111.655 -64.462)" fill="#12263f"/>
        <path id="Trazado_877108" data-name="Trazado 877108" d="M128.705,45.029l9.8-.032a.718.718,0,0,1,0,1.435c-2.9.372-6.589-.3-9.577,0a.729.729,0,0,1-.227-1.4" transform="translate(-111.679 -39.182)" fill="#12263f"/>
        <path id="Trazado_877109" data-name="Trazado 877109" d="M171.555,159.733a4.263,4.263,0,1,1-4.263-4.263,4.263,4.263,0,0,1,4.263,4.263m-1.5,0a2.757,2.757,0,1,0-2.757,2.757,2.756,2.756,0,0,0,2.757-2.757" transform="translate(-141.959 -135.377)" fill="#12263f"/>
        <path id="Trazado_877110" data-name="Trazado 877110" d="M109.062,155.717a7.377,7.377,0,0,1,3.486.335c2.784,1.28,2.692,6.764-.313,7.749a11,11,0,0,1-2.814.287c-.943-.1-1.03-.483-1.1-1.352a41.926,41.926,0,0,1,0-5.949c.055-.485.2-.952.738-1.071m.812,6.822c2.535.5,3.733-1.65,3.039-3.879-.472-1.517-1.676-1.484-3.039-1.42Z" transform="translate(-94.23 -135.522)" fill="#12263f"/>
        <path id="Trazado_877111" data-name="Trazado 877111" d="M239.182,155.322c.843-.018,3.278.539,2.678,1.774-.421.866-1.562-.165-2.208-.248a2.8,2.8,0,0,0-2.922,3.827,2.745,2.745,0,0,0,3.214,1.61c.693-.195,1.572-1.512,2.118-.61.635,1.049-1.265,2.045-2.139,2.141-6.223.683-6.428-8.374-.74-8.5" transform="translate(-204.697 -135.248)" fill="#12263f"/>
      </g>
    </g>
  </g>
</svg>
