<svg xmlns="http://www.w3.org/2000/svg" xmlns:xlink="http://www.w3.org/1999/xlink" width="123.023" height="122.907" viewBox="0 0 123.023 122.907">
  <defs>
    <clipPath id="clip-path">
      <rect id="Rect치ngulo_413607" data-name="Rect치ngulo 413607" width="51.257" height="65.642" fill="#12263f"/>
    </clipPath>
  </defs>
  <g id="Grupo_1116046" data-name="Grupo 1116046" transform="translate(-2871.842 10112.167)">
    <g id="Grupo_1115419" data-name="Grupo 1115419" transform="translate(2485.175 -15449.167)">
      <rect id="Rect치ngulo_412780" data-name="Rect치ngulo 412780" width="116.357" height="116.243" rx="20" transform="translate(390 5340.349)" fill="#b0c2e5"/>
      <g id="Grupo_1114814" data-name="Grupo 1114814">
        <path id="Trazado_875775" data-name="Trazado 875775" d="M245.6,315.389a1.6,1.6,0,0,1-1.6-1.6v-4.8a8.009,8.009,0,0,1,8-8h38.08a11.213,11.213,0,0,0,11.2-11.2v-38.01a8.009,8.009,0,0,1,8-8h4.8a1.6,1.6,0,1,1,0,3.2h-4.8a4.806,4.806,0,0,0-4.8,4.8v38.01a14.417,14.417,0,0,1-14.4,14.4H252a4.806,4.806,0,0,0-4.8,4.8v4.8a1.6,1.6,0,0,1-1.6,1.6" transform="translate(194.014 5144.519)" fill="#12263f"/>
        <path id="Trazado_875777" data-name="Trazado 875777" d="M245.6,315.389a1.6,1.6,0,0,1-1.6-1.6v-4.8a8.009,8.009,0,0,1,8-8h38.08a11.213,11.213,0,0,0,11.2-11.2v-38.01a8.009,8.009,0,0,1,8-8h4.8a1.6,1.6,0,1,1,0,3.2h-4.8a4.806,4.806,0,0,0-4.8,4.8v38.01a14.417,14.417,0,0,1-14.4,14.4H252a4.806,4.806,0,0,0-4.8,4.8v4.8a1.6,1.6,0,0,1-1.6,1.6" transform="translate(702.344 5652.389) rotate(180)" fill="#12263f"/>
      </g>
    </g>
    <g id="Grupo_1115802" data-name="Grupo 1115802" transform="translate(2907.725 -10083.535)">
      <g id="Grupo_1115801" data-name="Grupo 1115801" clip-path="url(#clip-path)">
        <path id="Trazado_877027" data-name="Trazado 877027" d="M40.666,10.611c.786.715,4.743.284,6.29,1.293,3.247,2.116-1.2,6.064-.722,8.211.331,1.5,5.758,2.99,4.94,6.057-.589,2.209-4.586,3.646-4.94,4.826-.518,1.725,2.894,4.866,1.572,7.318-1.02,1.892-3.517,1.42-5.266,1.884l7.926,18.918c.721,4.6-4.463,2.147-6.862,1.568-1.364,1.823-3.008,6.776-5.86,4.179-2.718-5.733-4.984-11.717-7.572-17.526-.18-.169-.211-.157-.363.026-.465.56-.852,1.443-1.39,2.065-3.263,3.77-5.082.591-7.228-2.17L13.935,64.229c-2.648,3.968-4.893-1.461-6.264-3.551-2.235.483-6.515,2.866-7.047-.786,2.4-6.663,5.486-13.1,8.105-19.693-1.738-.465-4.106.008-5.2-1.774C2,35.942,5.572,32.789,5.034,31,4.652,29.722.293,28.252.017,25.889c-.343-2.935,4.7-4.354,5.017-5.774.474-2.146-3.969-6.094-.722-8.211,1.548-1.009,5.5-.577,6.29-1.293,1.023-.931-.058-6.342,2.353-7.319,2.494-1.01,5.732,2.167,7.15,1.757C21.454,4.658,22.931.275,25.194.019c3.3-.373,4.378,4.709,5.972,5.028,1.721.344,4.831-2.93,7.256-1.69,2.27,1.161,1.234,6.334,2.244,7.254M46,37.472c.462-.718-1.853-4.59-1.9-5.988-.1-2.811,3.18-3.592,4.7-5.245a.906.906,0,0,0,.34-.821c-.2-.777-3.8-2.8-4.583-3.97-1.706-2.554,2.062-6.336,1.387-7.659-.33-.646-4.149-.671-5.15-.953-1.687-.477-2.291-1.518-2.59-3.161-.166-.914-.117-4.15-.9-4.52-.947-.449-4.63,2.664-7,1.786C28.6,6.31,26.726,2.2,25.712,2.105c-.955-.092-2.9,3.514-3.909,4.283-2.466,1.888-4.71-.482-7.057-1.144-.742-.209-1.012-.191-1.269.661-.561,1.855.09,4.666-1.517,6.152-1.583,1.464-6.191.861-6.636,1.733S6.916,17.9,7.116,19.149c.278,1.737-.387,2.47-1.617,3.528-.652.56-3.494,2.177-3.372,3.013.155,1.067,4.48,2.8,4.956,4.821C7.6,32.689,4.7,36.594,5.266,37.472c.407.634,5.251.25,6.693,1.585,1.62,1.5,1.084,6.405,1.816,6.9,1.01.687,5.185-3.16,7.838-1.394,1.024.681,3.239,4.7,4.075,4.578.75-.111,2.421-3.011,3.078-3.723A3.24,3.24,0,0,1,32.3,44.161c1.146.181,4.267,2.151,5.008,1.794,1.246-.6-.048-5.984,2.605-7.337,1.167-.595,5.788-.681,6.086-1.146M19.183,46.211c-1.788.634-4.471,2.635-6.334,1.543s-1.553-4.4-1.908-6.284c-.036-.192-.035-.692-.294-.66L2.8,59.8c.209.2,4.014-1.141,4.663-1.179,2.028-.118,3.27,3.682,4.572,4.84ZM48.465,59.8l-7.845-19c-.237-.044-.265.312-.3.479-.407,1.931.064,5.312-1.9,6.465-1.863,1.093-4.546-.908-6.334-1.543l7.146,17.254c1.325-1.168,2.485-4.908,4.535-4.8.715.037,4.5,1.328,4.7,1.141" transform="translate(0 0)" fill="#12263f"/>
        <path id="Trazado_877028" data-name="Trazado 877028" d="M90.351,74.846A15.177,15.177,0,1,1,75.174,59.669,15.177,15.177,0,0,1,90.351,74.846m-2.058,0A13.119,13.119,0,1,0,75.174,87.967,13.119,13.119,0,0,0,88.293,74.849" transform="translate(-49.541 -49.269)" fill="#12263f"/>
        <path id="Trazado_877029" data-name="Trazado 877029" d="M108.505,103.3c1.666.123,6.583-.753,5.883,2.323-.231,1.017-3.051,2.671-3.966,3.276.326,1.461,1.915,4.172,1.04,5.476-1.567,2.335-4.222-1.387-5.83-1.841-1.424.693-4.549,4.273-5.807,1.626-.6-1.259.889-3.882,1.172-5.262-1.13-.8-4.019-2.253-4.018-3.762,0-2.594,4.33-1.656,5.935-1.838.4-1.585,1.16-6.344,3.725-4.668,1.055.69,1.548,3.446,1.866,4.668m-4.974,2.1c-.994.215-2.668-.158-3.747,0,.923,1.33,3.422,1.763,3.276,3.7-.044.588-1.167,3.244-1.009,3.449.957-.507,2.532-2.235,3.575-2.278,1.284-.054,2.505,1.781,3.742,2.1-.175-1.143-1.181-2.706-.975-3.838.261-1.43,2.488-1.983,3.241-3.133h-3.747c-1.061,0-1.691-3-1.959-3.8-.066-.2.048-.491-.305-.383-.231.07-.664,3.875-2.093,4.184" transform="translate(-80.076 -81.153)" fill="#12263f"/>
      </g>
    </g>
  </g>
</svg>
