<svg xmlns="http://www.w3.org/2000/svg" xmlns:xlink="http://www.w3.org/1999/xlink" width="505" height="283" viewBox="0 0 505 283">
  <defs>
    <clipPath id="clip-path">
      <rect id="Rectángulo_413603" data-name="Rectángulo 413603" width="448.102" height="281.703" fill="none"/>
    </clipPath>
    <clipPath id="clip-path-2">
      <rect id="Rectángulo_413602" data-name="Rectángulo 413602" width="448.102" height="281.704" fill="none"/>
    </clipPath>
    <clipPath id="clip-path-3">
      <rect id="Rectángulo_413578" data-name="Rectángulo 413578" width="448.102" height="281.173" fill="#dbe4f4"/>
    </clipPath>
    <clipPath id="clip-path-4">
      <rect id="Rectángulo_413579" data-name="Rectángulo 413579" width="76.999" height="77.001" fill="#b0c9f5"/>
    </clipPath>
    <clipPath id="clip-path-5">
      <rect id="Rectángulo_413580" data-name="Rectángulo 413580" width="120.417" height="120.415" fill="#b0c9f5"/>
    </clipPath>
  </defs>
  <g id="Grupo_1115794" data-name="Grupo 1115794" transform="translate(-180 -404)">
    <rect id="Rectángulo_412976" data-name="Rectángulo 412976" width="505" height="283" transform="translate(180 404)" fill="none"/>
    <g id="Grupo_1115793" data-name="Grupo 1115793" transform="translate(208.449 404)">
      <g id="Grupo_1115792" data-name="Grupo 1115792" clip-path="url(#clip-path)">
        <g id="Grupo_1115791" data-name="Grupo 1115791" transform="translate(0 -0.001)">
          <g id="Grupo_1115790" data-name="Grupo 1115790" clip-path="url(#clip-path-2)">
            <g id="Grupo_1115783" data-name="Grupo 1115783" transform="translate(0 0.001)" opacity="0.5">
              <g id="Grupo_1115782" data-name="Grupo 1115782">
                <g id="Grupo_1115781" data-name="Grupo 1115781" clip-path="url(#clip-path-3)">
                  <path id="Trazado_876854" data-name="Trazado 876854" d="M303.161.669c-78.751-6.792-99.6,39.892-171.236,44.026C73.2,48.083,14.535,79.625,2.158,148.4c-12.518,69.558,32.826,122.925,49.171,132.359l51.868.353h259.1c21.118.178,40.5-.151,40.5-.151,48.854-48.088,58.081-151.185,28.252-199.778C399.537,29.855,339.977,3.845,303.161.669" transform="translate(0 0.004)" fill="#dbe4f4"/>
                </g>
              </g>
            </g>
            <g id="Grupo_1115786" data-name="Grupo 1115786" transform="translate(309.788 59.501)" style="mix-blend-mode: multiply;isolation: isolate">
              <g id="Grupo_1115785" data-name="Grupo 1115785">
                <g id="Grupo_1115784" data-name="Grupo 1115784" clip-path="url(#clip-path-4)">
                  <path id="Trazado_876855" data-name="Trazado 876855" d="M1941.838,394.179a30.847,30.847,0,0,0-3.4,9.415l-7.992,1.858.26,5.6.26,5.6,8.129,1.111a30.847,30.847,0,0,0,4.255,9.06l-4.337,6.966,4.146,3.779,4.146,3.779,6.535-4.963a30.847,30.847,0,0,0,9.415,3.4l1.858,7.992,5.6-.26,5.6-.26,1.111-8.129a30.844,30.844,0,0,0,9.06-4.255l6.966,4.337,3.779-4.146,3.779-4.147-4.963-6.535a30.846,30.846,0,0,0,3.4-9.415l7.992-1.858-.26-5.6-.26-5.6L1998.8,400.8a30.85,30.85,0,0,0-4.256-9.06l4.338-6.966-4.147-3.779-4.146-3.779-6.535,4.963a30.838,30.838,0,0,0-9.415-3.4l-1.858-7.992-5.6.26-5.6.26-1.111,8.129a30.846,30.846,0,0,0-9.06,4.256l-6.966-4.338-3.779,4.146-3.779,4.146Zm32.393-5.268A21.047,21.047,0,1,1,1948.573,404a21.047,21.047,0,0,1,25.657-15.09" transform="translate(-1930.447 -370.784)" fill="#b0c9f5"/>
                </g>
              </g>
            </g>
            <path id="Trazado_876856" data-name="Trazado 876856" d="M320.008,445.254a38.327,38.327,0,0,0-4.13,11.732l-9.911,2.389.379,6.961.378,6.96,10.111,1.3a38.328,38.328,0,0,0,5.378,11.215l-5.32,8.7,5.189,4.654,5.189,4.654,8.07-6.232a38.337,38.337,0,0,0,11.732,4.13l2.388,9.911,6.961-.378,6.961-.378,1.3-10.112a38.32,38.32,0,0,0,11.215-5.378l8.7,5.32,4.654-5.19,4.654-5.19-6.232-8.07a38.331,38.331,0,0,0,4.13-11.732l9.911-2.389-.378-6.961-.378-6.961-10.112-1.3a38.328,38.328,0,0,0-5.378-11.215l5.32-8.7-5.189-4.654-5.19-4.654-8.07,6.232a38.33,38.33,0,0,0-11.732-4.13l-2.389-9.911-6.961.378-6.961.379L343,426.748a38.324,38.324,0,0,0-11.215,5.377l-8.7-5.32-4.654,5.19-4.654,5.189Zm40.2-6.868a26.152,26.152,0,1,1-31.729,19,26.152,26.152,0,0,1,31.729-19" transform="translate(-256.867 -349.14)" fill="#b0c2e5"/>
            <g id="Grupo_1115789" data-name="Grupo 1115789" transform="translate(183.817 20.769)" opacity="0.3">
              <g id="Grupo_1115788" data-name="Grupo 1115788">
                <g id="Grupo_1115787" data-name="Grupo 1115787" clip-path="url(#clip-path-5)">
                  <path id="Trazado_876857" data-name="Trazado 876857" d="M1163.122,166.36a48.2,48.2,0,0,0-5.194,14.754l-12.464,3,.476,8.754.476,8.754,12.717,1.635a48.2,48.2,0,0,0,6.763,14.1L1159.2,228.3l6.526,5.853,6.526,5.853,10.149-7.837a48.2,48.2,0,0,0,14.755,5.194l3,12.464,8.754-.476,8.754-.476,1.635-12.717a48.2,48.2,0,0,0,14.1-6.763l10.939,6.691,5.853-6.527,5.854-6.526-7.837-10.15a48.2,48.2,0,0,0,5.194-14.754l12.464-3-.476-8.754-.476-8.754-12.716-1.635a48.206,48.206,0,0,0-6.763-14.1l6.691-10.939-6.526-5.853-6.526-5.853-10.149,7.837a48.2,48.2,0,0,0-14.755-5.194l-3-12.465-8.754.476-8.754.476-1.635,12.717a48.194,48.194,0,0,0-14.1,6.763l-10.939-6.691-5.853,6.526-5.854,6.526Zm50.551-8.637a32.89,32.89,0,1,1-39.9,23.9,32.89,32.89,0,0,1,39.9-23.9" transform="translate(-1145.463 -129.417)" fill="#b0c9f5"/>
                </g>
              </g>
            </g>
            <path id="Trazado_876858" data-name="Trazado 876858" d="M998.791,163.686l-.379.284-.142-.19c-.522-.695-1.033-1.416-1.521-2.143l-.132-.2.393-.264.132.2c.483.72.99,1.434,1.506,2.122Zm-2.918-4.307-.407.242-.121-.2c-.451-.758-.881-1.53-1.279-2.295l-.109-.21.42-.218.109.21c.393.757.819,1.521,1.266,2.272Zm20.967-24.225h0a6.592,6.592,0,0,1-.928.751l-.2.132-.264-.393.2-.132a6.133,6.133,0,0,0,.861-.7h0a5.355,5.355,0,0,0,.863-1.092l.121-.2.407.242-.121.2a5.824,5.824,0,0,1-.939,1.188m-3.161,1.8-.233.042a4.057,4.057,0,0,1-2.674-.486l-.209-.112.223-.418.209.112a3.6,3.6,0,0,0,2.366.438l.233-.042Zm4.887-5.319-.472-.041.02-.236a7.5,7.5,0,0,0-.233-2.509l-.059-.229.459-.118.059.229a7.973,7.973,0,0,1,.246,2.668Zm-25.11,23.147-.433.191-.1-.217c-.36-.814-.69-1.635-.98-2.44l-.081-.223.446-.16.08.222c.286.795.612,1.605.967,2.41Zm15.763-20.115-.359.31-.155-.179a12.022,12.022,0,0,1-1.489-2.2l-.111-.209.418-.223.111.209a11.544,11.544,0,0,0,1.429,2.117Zm8.244-8.2-.415.228-.114-.208a12.073,12.073,0,0,0-1.464-2.1l-.155-.179.358-.31.155.179a12.551,12.551,0,0,1,1.521,2.18Zm-25.794,23.447-.457.126-.063-.229c-.236-.859-.435-1.722-.59-2.566l-.043-.233.466-.085.043.233c.153.83.348,1.68.581,2.526Zm15.029-19.681-.448.152-.076-.224a19.616,19.616,0,0,1-.673-2.556l-.045-.232.465-.09.045.232a19.166,19.166,0,0,0,.656,2.494Zm7.1-7.453-.189-.143c-.268-.2-.546-.4-.824-.572a9.238,9.238,0,0,0-1.371-.714l-.219-.091.182-.437.219.091a9.642,9.642,0,0,1,1.442.751c.29.183.578.383.857.594l.189.143ZM990.7,144.826l-.472.04-.02-.236a25,25,0,0,1-.086-2.634l0-.237.473.01,0,.237a24.5,24.5,0,0,0,.084,2.584Zm14.949-19.64-.472.034-.017-.236a23.784,23.784,0,0,1-.038-2.637l.01-.237.473.019-.01.237a23.293,23.293,0,0,0,.037,2.584Zm-14.885,14.48-.469-.064.032-.234a22.472,22.472,0,0,1,.507-2.588l.059-.229.458.119-.059.229a21.956,21.956,0,0,0-.5,2.533Zm18.427-18.924-.235-.026a9.834,9.834,0,0,0-2.542.061l-.234.035-.071-.468.234-.036a10.345,10.345,0,0,1,2.665-.064l.235.026ZM992,134.661l-.442-.17.085-.221c.315-.816.673-1.627,1.066-2.409l.106-.212.423.213-.106.212c-.386.768-.738,1.565-1.047,2.367Zm13.8-14.636-.468-.069.034-.234c.126-.858.3-1.728.514-2.584l.058-.23.459.115-.058.23c-.211.841-.381,1.695-.505,2.538Zm-1.639,1.326-.221.084a15.085,15.085,0,0,0-2.311,1.12l-.2.121-.241-.408.2-.121a15.572,15.572,0,0,1,2.384-1.155l.221-.084Zm-9.885,8.668-.4-.253.126-.2a25.942,25.942,0,0,1,1.52-2.154l.146-.186.373.292-.146.187a25.607,25.607,0,0,0-1.492,2.114Zm5.419-6.143-.185.148a21.292,21.292,0,0,0-1.913,1.735l-.166.169-.339-.331.166-.169a21.684,21.684,0,0,1,1.955-1.774l.185-.148Zm7.318-8.873-.443-.166.083-.222a21.23,21.23,0,0,1,1.079-2.41l.11-.209.42.22-.11.21a20.769,20.769,0,0,0-1.054,2.356Zm16.35-16.632-.208.114c-.757.415-1.513.855-2.248,1.309l-.2.124-.249-.4.2-.124c.742-.457,1.5-.9,2.269-1.321l.208-.114Zm-4.438,2.71-.195.135c-.721.5-1.426,1.016-2.1,1.538l-.187.145-.291-.373.187-.146c.676-.527,1.389-1.05,2.117-1.554l.194-.135Zm-9.581,9.322-.393-.264.132-.2c.477-.709,1.008-1.419,1.578-2.11l.151-.183.365.3-.15.183c-.56.68-1.082,1.378-1.551,2.074Zm5.47-6.146-.177.157c-.656.582-1.278,1.175-1.878,1.791l-.165.169-.339-.331.165-.17c.607-.623,1.238-1.224,1.9-1.814l.177-.157Z" transform="translate(-831.229 -82.236)" fill="#49263e"/>
            <path id="Trazado_876859" data-name="Trazado 876859" d="M1211.7,68.024l1.478-2.552s9.242-2.869,9.361-2.961l4.5-3.477-6.169.838-9.691,3.383Z" transform="translate(-1016.815 -49.56)" fill="#ef9d43"/>
            <path id="Trazado_876860" data-name="Trazado 876860" d="M1191.157,57.673l19.073.218-15.86,4.221Z" transform="translate(-1000.007 -48.417)" fill="#fec786"/>
            <path id="Trazado_876861" data-name="Trazado 876861" d="M1223.653,65.472l3.385,4.734,10.473-11.172Z" transform="translate(-1027.288 -49.56)" fill="#fec786"/>
            <path id="Trazado_876862" data-name="Trazado 876862" d="M1940.286,228.131a164.158,164.158,0,0,1,21.128.057,5.612,5.612,0,0,0,6.093-5.685,8.578,8.578,0,0,0-1.779-4.732c-4.857-6.9-13.3-.31-13.219,3.191,0,0-1.707-5.273-6.891-4.35s-3.351,8.591-3.351,8.591a4.169,4.169,0,0,0-2.833.438,1.366,1.366,0,0,0,.853,2.488" transform="translate(-1627.704 -180.286)" fill="#fff"/>
            <path id="Trazado_876863" data-name="Trazado 876863" d="M311,536.206a144.983,144.983,0,0,1,18.656.051,4.955,4.955,0,0,0,5.38-5.02,7.577,7.577,0,0,0-1.571-4.178c-4.289-6.091-11.744-.274-11.673,2.818,0,0-1.507-4.656-6.085-3.841s-2.959,7.586-2.959,7.586a3.682,3.682,0,0,0-2.5.387,1.206,1.206,0,0,0,.753,2.2" transform="translate(-260.022 -440.238)" fill="#fff"/>
            <path id="Trazado_876864" data-name="Trazado 876864" d="M2430.582,746.151a2.188,2.188,0,0,1,.316-1.937c.788-1.078,2.221-1.993,4.79-2.151,0,0-2.778-12.341,7.988-13.636,11.063-1.331,11.635,11.677,11.635,11.677s6.271-6.9,9.689,1.507c0,0,6.749-3.405,9.99.683a3.084,3.084,0,0,1-.027,3.859Z" transform="translate(-2040.454 -611.451)" fill="#fff"/>
            <path id="Trazado_876865" data-name="Trazado 876865" d="M75.985,931.916a1.638,1.638,0,0,0-.236-1.45,4.478,4.478,0,0,0-3.584-1.609s2.079-9.233-5.976-10.2c-8.277-1-8.7,8.736-8.7,8.736s-4.691-5.163-7.249,1.127c0,0-5.049-2.548-7.475.51a2.307,2.307,0,0,0,.021,2.887Z" transform="translate(-35.48 -771.174)" fill="#fff"/>
            <path id="Trazado_876866" data-name="Trazado 876866" d="M872.435,470.1a.888.888,0,0,0-1.082.716s-1.543,6.849-1.871,7.9l-1.6-2.005a.888.888,0,1,0-1.57.832l2.072,5.332c.15.282.761.472,1.289.507,4.879,1.918,5.353,2.978,6.716,3.373l.3-1.07,1.455-5.143a13.328,13.328,0,0,1,2.075-4.34l.238-.329a.888.888,0,0,0-.247-1.274.909.909,0,0,0-1.21.255l-1.728,2.383a.216.216,0,0,1-.364-.229l2.063-3.827a.716.716,0,0,0-.436-1.063,1.152,1.152,0,0,0-1.3.531l-2.1,3.9a.216.216,0,0,1-.253.1l-.07-.022a.216.216,0,0,1-.143-.27l1.445-4.7a.909.909,0,0,0-.523-1.12.888.888,0,0,0-1.166.569l-1.454,4.73a.216.216,0,0,1-.27.143l-.221-.068a.216.216,0,0,1-.149-.242l.768-4.533a.908.908,0,0,0-.664-1.042" transform="translate(-727.201 -394.637)" fill="#fe9f73"/>
            <path id="Trazado_876867" data-name="Trazado 876867" d="M727.368,539.032,716.134,535.8l-7.555,25.345-21.714,4.036,3.343,15.408s25.282-4.666,28.752-6.5,8.409-35.057,8.409-35.057" transform="translate(-576.64 -449.821)" fill="#374169"/>
            <path id="Trazado_876868" data-name="Trazado 876868" d="M984.326,397.752V614.261H823.086V397.752h161.24Z" transform="translate(-691.002 -333.923)" fill="#fff"/>
            <path id="Trazado_876869" data-name="Trazado 876869" d="M1309.975,618.093h72.6c.565,0,1.023-.7,1.023-1.557s-.458-1.558-1.023-1.558h-72.6c-.565,0-1.023.7-1.023,1.558s.458,1.557,1.023,1.557" transform="translate(-1098.899 -516.289)" fill="#9ec8f2"/>
            <path id="Trazado_876870" data-name="Trazado 876870" d="M1309.975,686.679h72.6c.565,0,1.023-.7,1.023-1.557s-.458-1.558-1.023-1.558h-72.6c-.565,0-1.023.7-1.023,1.558s.458,1.557,1.023,1.557" transform="translate(-1098.899 -573.869)" fill="#9ec8f2"/>
            <path id="Trazado_876871" data-name="Trazado 876871" d="M1309.975,755.265h72.6c.565,0,1.023-.7,1.023-1.557s-.458-1.558-1.023-1.558h-72.6c-.565,0-1.023.7-1.023,1.558s.458,1.557,1.023,1.557" transform="translate(-1098.899 -631.449)" fill="#9ec8f2"/>
            <path id="Trazado_876872" data-name="Trazado 876872" d="M1309.975,823.851h72.6c.565,0,1.023-.7,1.023-1.557s-.458-1.558-1.023-1.558h-72.6c-.565,0-1.023.7-1.023,1.558s.458,1.557,1.023,1.557" transform="translate(-1098.899 -689.028)" fill="#9ec8f2"/>
            <path id="Trazado_876873" data-name="Trazado 876873" d="M1309.975,892.437h72.6c.565,0,1.023-.7,1.023-1.557s-.458-1.558-1.023-1.558h-72.6c-.565,0-1.023.7-1.023,1.558s.458,1.557,1.023,1.557" transform="translate(-1098.899 -746.608)" fill="#9ec8f2"/>
            <path id="Trazado_876874" data-name="Trazado 876874" d="M1309.975,961.022h72.6c.565,0,1.023-.7,1.023-1.557s-.458-1.557-1.023-1.557h-72.6c-.565,0-1.023.7-1.023,1.557s.458,1.557,1.023,1.557" transform="translate(-1098.899 -804.187)" fill="#9ec8f2"/>
            <path id="Trazado_876875" data-name="Trazado 876875" d="M1309.975,1029.608h72.6c.565,0,1.023-.7,1.023-1.557s-.458-1.557-1.023-1.557h-72.6c-.565,0-1.023.7-1.023,1.557s.458,1.557,1.023,1.557" transform="translate(-1098.899 -861.767)" fill="#9ec8f2"/>
            <path id="Trazado_876876" data-name="Trazado 876876" d="M1309.975,1098.194h72.6c.565,0,1.023-.7,1.023-1.557s-.458-1.557-1.023-1.557h-72.6c-.565,0-1.023.7-1.023,1.557s.458,1.557,1.023,1.557" transform="translate(-1098.899 -919.346)" fill="#9ec8f2"/>
            <path id="Trazado_876877" data-name="Trazado 876877" d="M1309.975,1166.78h72.6c.565,0,1.023-.7,1.023-1.557s-.458-1.557-1.023-1.557h-72.6c-.565,0-1.023.7-1.023,1.557s.458,1.557,1.023,1.557" transform="translate(-1098.899 -976.926)" fill="#9ec8f2"/>
            <path id="Trazado_876878" data-name="Trazado 876878" d="M1309.975,1235.366h72.6c.565,0,1.023-.7,1.023-1.557s-.458-1.558-1.023-1.558h-72.6c-.565,0-1.023.7-1.023,1.558s.458,1.557,1.023,1.557" transform="translate(-1098.899 -1034.506)" fill="#9ec8f2"/>
            <path id="Trazado_876879" data-name="Trazado 876879" d="M1309.975,1303.952h72.6c.565,0,1.023-.7,1.023-1.557s-.458-1.557-1.023-1.557h-72.6c-.565,0-1.023.7-1.023,1.557s.458,1.557,1.023,1.557" transform="translate(-1098.899 -1092.086)" fill="#9ec8f2"/>
            <path id="Trazado_876880" data-name="Trazado 876880" d="M1309.975,1372.537h72.6c.565,0,1.023-.7,1.023-1.557s-.458-1.557-1.023-1.557h-72.6c-.565,0-1.023.7-1.023,1.557s.458,1.557,1.023,1.557" transform="translate(-1098.899 -1149.664)" fill="#9ec8f2"/>
            <path id="Trazado_876881" data-name="Trazado 876881" d="M882.329,1005.43h62.09c.483,0,.875-.7.875-1.557s-.392-1.558-.875-1.558h-62.09c-.483,0-.874.7-.874,1.558s.391,1.557.874,1.557" transform="translate(-740.004 -841.469)" fill="#9ec8f2"/>
            <path id="Trazado_876882" data-name="Trazado 876882" d="M882.329,1060.517h62.09c.483,0,.875-.7.875-1.557s-.392-1.557-.875-1.557h-62.09c-.483,0-.874.7-.874,1.557s.391,1.557.874,1.557" transform="translate(-740.004 -887.715)" fill="#9ec8f2"/>
            <path id="Trazado_876883" data-name="Trazado 876883" d="M882.329,1115.6h62.09c.483,0,.875-.7.875-1.557s-.392-1.557-.875-1.557h-62.09c-.483,0-.874.7-.874,1.557s.391,1.557.874,1.557" transform="translate(-740.004 -933.962)" fill="#9ec8f2"/>
            <path id="Trazado_876884" data-name="Trazado 876884" d="M882.329,1170.691h62.09c.483,0,.875-.7.875-1.557s-.392-1.557-.875-1.557h-62.09c-.483,0-.874.7-.874,1.557s.391,1.557.874,1.557" transform="translate(-740.004 -980.209)" fill="#9ec8f2"/>
            <path id="Trazado_876885" data-name="Trazado 876885" d="M1096.838,1223.147h28.536c.222,0,.4-.7.4-1.557s-.18-1.557-.4-1.557h-28.536c-.222,0-.4.7-.4,1.557s.18,1.557.4,1.557" transform="translate(-920.486 -1024.247)" fill="#9ec8f2"/>
            <path id="Trazado_876886" data-name="Trazado 876886" d="M1096.838,1272.4h28.536c.222,0,.4-.7.4-1.557s-.18-1.558-.4-1.558h-28.536c-.222,0-.4.7-.4,1.558s.18,1.557.4,1.557" transform="translate(-920.486 -1065.593)" fill="#9ec8f2"/>
            <path id="Trazado_876887" data-name="Trazado 876887" d="M1096.838,1321.646h28.536c.222,0,.4-.7.4-1.557s-.18-1.558-.4-1.558h-28.536c-.222,0-.4.7-.4,1.558s.18,1.557.4,1.557" transform="translate(-920.486 -1106.94)" fill="#9ec8f2"/>
            <path id="Trazado_876888" data-name="Trazado 876888" d="M874.885,1380.6h63.254c.492,0,.891-.7.891-1.557s-.4-1.558-.891-1.558H874.885c-.492,0-.891.7-.891,1.558s.4,1.557.891,1.557" transform="translate(-733.74 -1156.434)" fill="#9ec8f2"/>
            <path id="Trazado_876889" data-name="Trazado 876889" d="M874.885,1442.322h63.254c.492,0,.891-.7.891-1.557s-.4-1.557-.891-1.557H874.885c-.492,0-.891.7-.891,1.557s.4,1.557.891,1.557" transform="translate(-733.74 -1208.251)" fill="#9ec8f2"/>
            <path id="Trazado_876890" data-name="Trazado 876890" d="M874.885,1504.044h63.254c.492,0,.891-.7.891-1.557s-.4-1.557-.891-1.557H874.885c-.492,0-.891.7-.891,1.557s.4,1.557.891,1.557" transform="translate(-733.74 -1260.068)" fill="#9ec8f2"/>
            <path id="Trazado_876891" data-name="Trazado 876891" d="M874.885,1565.765h63.254c.492,0,.891-.7.891-1.557s-.4-1.558-.891-1.558H874.885c-.492,0-.891.7-.891,1.558s.4,1.557.891,1.557" transform="translate(-733.74 -1311.884)" fill="#9ec8f2"/>
            <path id="Trazado_876892" data-name="Trazado 876892" d="M874.885,1627.486h63.254c.492,0,.891-.7.891-1.557s-.4-1.557-.891-1.557H874.885c-.492,0-.891.7-.891,1.557s.4,1.557.891,1.557" transform="translate(-733.74 -1363.701)" fill="#9ec8f2"/>
            <rect id="Rectángulo_413581" data-name="Rectángulo 413581" width="63.839" height="64.963" transform="translate(141.451 76.527)" fill="#9ec8f2"/>
            <rect id="Rectángulo_413582" data-name="Rectángulo 413582" width="30.187" height="21.179" transform="translate(141.451 195.623)" fill="#9ec8f2"/>
            <rect id="Rectángulo_413583" data-name="Rectángulo 413583" width="32.659" height="36.24" transform="translate(210.053 227.546)" fill="#9ec8f2"/>
            <rect id="Rectángulo_413584" data-name="Rectángulo 413584" width="32.151" height="36.24" transform="translate(250.325 227.546)" fill="#9ec8f2"/>
            <rect id="Rectángulo_413585" data-name="Rectángulo 413585" width="74.65" height="13.567" transform="translate(210.053 76.527)" fill="#9ec8f2"/>
            <path id="Trazado_876893" data-name="Trazado 876893" d="M573.512,591.017l11.083,2.5-.367-2a4.873,4.873,0,0,0-4.047-3.95c-3.545-.533-7.006,1.754-7.006,1.754s-.971,2.245-1.059,2.5,1.4-.81,1.4-.81" transform="translate(-480.303 -493.213)" fill="#fe9f73"/>
            <path id="Trazado_876894" data-name="Trazado 876894" d="M589.4,613.054l-1.547-8.419-11.374-1.257L578.02,613.7l.578,2.631s.238,5.527.7,6.609a5.11,5.11,0,0,0,5.51,2.486,8.359,8.359,0,0,0,2.415-.84,3.185,3.185,0,0,0,1.522-3.768l-1.229-3.923c2.563-.86,1.885-3.845,1.885-3.845" transform="translate(-483.967 -506.551)" fill="#fe9f73"/>
            <path id="Trazado_876895" data-name="Trazado 876895" d="M608.208,631.125a.127.127,0,0,0,.061-.079c.024-.091.6-2.219,2.4-1.917a.127.127,0,1,0,.042-.251c-2.028-.341-2.679,2.08-2.686,2.1a.127.127,0,0,0,.186.143" transform="translate(-510.447 -527.93)" fill="#4c222e"/>
            <path id="Trazado_876896" data-name="Trazado 876896" d="M639,623.113c.012-.007,1.245-.738,1.75-.127a.127.127,0,1,0,.2-.162c-.644-.781-2.02.036-2.078.071a.127.127,0,0,0,.044.235.126.126,0,0,0,.087-.016" transform="translate(-536.297 -522.593)" fill="#4c222e"/>
            <path id="Trazado_876897" data-name="Trazado 876897" d="M643.944,636.9a.382.382,0,1,0-.307.445.382.382,0,0,0,.307-.445" transform="translate(-539.97 -534.431)"/>
            <path id="Trazado_876898" data-name="Trazado 876898" d="M621.435,642.723a.382.382,0,1,0-.307.445.382.382,0,0,0,.307-.445" transform="translate(-521.074 -539.319)"/>
            <path id="Trazado_876899" data-name="Trazado 876899" d="M556.537,601.469c-.3,2.934,1.351,4.153,1.532,4.978s.646,6.527,4.5,5.387l-.638-9.442-2.044-3.43.159-.859s-3.212.432-3.508,3.366" transform="translate(-467.198 -502.122)" fill="#5b3150"/>
            <path id="Trazado_876900" data-name="Trazado 876900" d="M577.868,640.1a2.294,2.294,0,1,0-2.67-1.842,2.294,2.294,0,0,0,2.67,1.842" transform="translate(-482.861 -533.556)" fill="#fe9f73"/>
            <path id="Trazado_876901" data-name="Trazado 876901" d="M583.548,644.14l.189.129-.095-.208a1.239,1.239,0,0,0-.726-.716,1.545,1.545,0,0,0-1.114.129.064.064,0,0,0,.062.112,1.439,1.439,0,0,1,1.013-.119,1.035,1.035,0,0,1,.557.472,1.078,1.078,0,0,0-1.192.176.9.9,0,0,0-.167,1.1.956.956,0,0,0,1.014.542l.013,0a.064.064,0,0,0-.024-.125l-.013,0a.822.822,0,0,1-.877-.474.779.779,0,0,1,.138-.945,1,1,0,0,1,1.221-.069" transform="translate(-488.41 -540.055)" fill="#f07162"/>
            <path id="Trazado_876902" data-name="Trazado 876902" d="M611.773,683.02l-.906-2.893s-3.927,1.569-6.572-1.434c0,0,1.1,5,7.478,4.328" transform="translate(-507.321 -569.779)" fill="#f07162"/>
            <path id="Trazado_876903" data-name="Trazado 876903" d="M633.724,639.244a.064.064,0,0,0,.067.032.061.061,0,0,0,.019-.007l1.273-.7-.973-2.984a.063.063,0,0,0-.08-.041.064.064,0,0,0-.041.08l.94,2.884-1.18.646a.064.064,0,0,0-.025.087" transform="translate(-532.021 -533.555)" fill="#f07162"/>
            <path id="Trazado_876904" data-name="Trazado 876904" d="M588.857,661.156l-1.075.077.343,4.324,1.513-.152Z" transform="translate(-493.458 -555.057)" fill="#fe9f73"/>
            <path id="Trazado_876905" data-name="Trazado 876905" d="M576.274,574.655a1.73,1.73,0,0,0-2.086-2s-.164-3.267-2.885-1.79-8.1,2.338-9.119,5.3,4.435,3.172,4.435,3.172,9.476-2.328,9.655-4.681" transform="translate(-471.862 -478.935)" fill="#5b3150"/>
            <path id="Trazado_876906" data-name="Trazado 876906" d="M576.554,615.609a14.945,14.945,0,0,0-1.594,1.32c.247-.09,2.177-.295,2.177-.295l.38,2.069a4.236,4.236,0,0,1,1.043,2.664s.626.108.639-.4-1.217-3.755-.157-4.582-2.4-.851-2.488-.781" transform="translate(-482.674 -516.798)" fill="#5b3150"/>
            <path id="Trazado_876907" data-name="Trazado 876907" d="M630.837,661s-2.665.289-2.707.3a1.6,1.6,0,0,0,1.475.942c.99-.11,1.232-1.243,1.232-1.243" transform="translate(-527.331 -554.922)" fill="#fbfdfc"/>
            <path id="Trazado_876908" data-name="Trazado 876908" d="M306.915,1087.914a.888.888,0,0,0,1.007-.818s.867-6.967,1.091-8.045l1.792,1.839a.888.888,0,1,0,1.481-.981l-2.582-5.1a1.773,1.773,0,0,0-1.333-.379c-5.043-1.432-5.618-2.441-7.013-2.7l-.2,1.095-.946,5.26a13.331,13.331,0,0,1-1.641,4.522l-.205.35a.888.888,0,0,0,.37,1.244.908.908,0,0,0,1.179-.372l1.487-2.541a.216.216,0,0,1,.385.193l-1.68,4.01a.716.716,0,0,0,.538,1.016,1.152,1.152,0,0,0,1.237-.655l1.713-4.089a.216.216,0,0,1,.242-.128l.072.015a.216.216,0,0,1,.168.254l-.979,4.819a.908.908,0,0,0,.63,1.064.888.888,0,0,0,1.1-.68l.985-4.849a.216.216,0,0,1,.255-.168l.227.046a.216.216,0,0,1,.172.227l-.322,4.586a.908.908,0,0,0,.763.973" transform="translate(-250.385 -899.74)" fill="#fe9f73"/>
            <path id="Trazado_876909" data-name="Trazado 876909" d="M492.774,1635.286l-.426,12.538,10.938-.865,1.336-14.625Z" transform="translate(-413.339 -1370.385)" fill="#fe9f73"/>
            <path id="Trazado_876910" data-name="Trazado 876910" d="M509.957,1714.438a1.073,1.073,0,0,0,1.055-1.282,1.1,1.1,0,0,0-1.09-.863l-1.505,0-6.978-4.18-3.832,4.152-9.424-.024a.426.426,0,0,0-.427.425l0,1.427a.292.292,0,0,0,.291.292Z" transform="translate(-409.481 -1434.001)" fill="#33182c"/>
            <path id="Trazado_876911" data-name="Trazado 876911" d="M509.844,1703.634l-7.992-3.57c-3.23,3.13-6.879.527-6.879.527a3.351,3.351,0,0,0-4.007,1.036l-.01,3.868,21.671.055c-.591-1.178-2.783-1.917-2.783-1.917" transform="translate(-412.17 -1427.247)" fill="#9fd6e2"/>
            <rect id="Rectángulo_413586" data-name="Rectángulo 413586" width="3.849" height="0.16" transform="translate(78.706 278.229) rotate(-89.857)"/>
            <path id="Trazado_876912" data-name="Trazado 876912" d="M519.491,1703.918a5.68,5.68,0,0,1-3.7-.978l-.091.132a5.922,5.922,0,0,0,3.319,1.03,3.8,3.8,0,0,0,.5-.026Z" transform="translate(-432.943 -1429.661)"/>
            <path id="Trazado_876913" data-name="Trazado 876913" d="M496.836,1724.3l-.09.133,1.02.692.09-.133Z" transform="translate(-417.031 -1447.595)"/>
            <rect id="Rectángulo_413587" data-name="Rectángulo 413587" width="0.16" height="1.233" transform="translate(80.448 276.646) rotate(-55.863)"/>
            <path id="Trazado_876914" data-name="Trazado 876914" d="M510.287,1735.471a1.153,1.153,0,0,0-.74-2.034l-21.667-.055a.619.619,0,0,0-.62.617l0,1.069h.161l0-1.069a.458.458,0,0,1,.459-.457l21.667.055a.992.992,0,0,1,.637,1.751Z" transform="translate(-409.065 -1455.218)"/>
            <path id="Trazado_876915" data-name="Trazado 876915" d="M569.406,1705.2l.145-.068a3.966,3.966,0,0,0-2.091-1.641c-1.608-.69-8.679-3.849-8.75-3.88l-.066.146c.071.032,7.143,3.19,8.752,3.881a3.9,3.9,0,0,1,2.009,1.562" transform="translate(-468.997 -1426.864)"/>
            <path id="Trazado_876916" data-name="Trazado 876916" d="M713.667,1626.836l-11.346-.795,2.34,16.484,11.114-.909Z" transform="translate(-589.617 -1365.102)" fill="#fe9f73"/>
            <path id="Trazado_876917" data-name="Trazado 876917" d="M733.279,1714.438a1.073,1.073,0,0,0,1.055-1.282,1.1,1.1,0,0,0-1.09-.863l-1.505,0-6.978-4.18-3.831,4.152-9.424-.024a.426.426,0,0,0-.427.425l0,1.427a.291.291,0,0,0,.291.292Z" transform="translate(-596.966 -1434.001)" fill="#33182c"/>
            <path id="Trazado_876918" data-name="Trazado 876918" d="M733.166,1703.634l-7.993-3.57c-3.23,3.13-6.879.527-6.879.527a3.351,3.351,0,0,0-4.006,1.036l-.01,3.868,21.67.055c-.591-1.178-2.783-1.917-2.783-1.917" transform="translate(-599.656 -1427.247)" fill="#9fd6e2"/>
            <rect id="Rectángulo_413588" data-name="Rectángulo 413588" width="3.849" height="0.16" transform="matrix(0.003, -1, 1, 0.003, 114.543, 278.229)"/>
            <path id="Trazado_876919" data-name="Trazado 876919" d="M742.813,1703.918a5.681,5.681,0,0,1-3.7-.978l-.091.132a5.922,5.922,0,0,0,3.319,1.03,3.793,3.793,0,0,0,.5-.026Z" transform="translate(-620.427 -1429.661)"/>
            <rect id="Rectángulo_413589" data-name="Rectángulo 413589" width="0.16" height="1.233" transform="translate(115.552 276.84) rotate(-55.926)"/>
            <rect id="Rectángulo_413590" data-name="Rectángulo 413590" width="0.16" height="1.233" transform="translate(116.286 276.646) rotate(-55.815)"/>
            <path id="Trazado_876920" data-name="Trazado 876920" d="M733.609,1735.471a1.153,1.153,0,0,0-.741-2.034l-21.667-.055a.619.619,0,0,0-.62.617l0,1.069h.16l0-1.069a.458.458,0,0,1,.459-.457l21.667.055a.992.992,0,0,1,.637,1.751Z" transform="translate(-596.549 -1455.218)"/>
            <path id="Trazado_876921" data-name="Trazado 876921" d="M792.727,1705.2l.145-.068a3.964,3.964,0,0,0-2.09-1.641c-1.608-.69-8.679-3.849-8.75-3.88l-.066.146c.071.032,7.144,3.19,8.752,3.881a3.9,3.9,0,0,1,2.008,1.562" transform="translate(-656.48 -1426.864)"/>
            <path id="Trazado_876922" data-name="Trazado 876922" d="M590.6,1137.85c2.129.619,12.938-1.686,12.711-3.4l-13.36-99.719a3.983,3.983,0,0,0-.143-.652l-.136-.438a3.963,3.963,0,0,0-5.736-2.277l-13.785,7.794a3.959,3.959,0,0,0-1.948,4.163c2.132,11.6,18.075,93.272,22.4,94.528" transform="translate(-476.969 -865.424)" fill="#228fa8"/>
            <path id="Trazado_876923" data-name="Trazado 876923" d="M469.275,1118.424c.133,1.654,15.448.108,15.562-1.3l6.151-45.738,1.022-40.556,4.205-22.6-28.4,13.135a468.878,468.878,0,0,1,3.786,49.228c.3,14.453-3.331,35.348-2.331,47.828" transform="translate(-392.747 -846.437)" fill="#4cb7d8"/>
            <path id="Trazado_876924" data-name="Trazado 876924" d="M577.831,1282.159a.169.169,0,0,0,.143-.145l5.376-39.315v-.01l.762-30.252a.169.169,0,1,0-.339-.009l-.762,30.234-5.375,39.305a.169.169,0,0,0,.145.191.167.167,0,0,0,.048,0" transform="translate(-484.94 -1017.726)"/>
            <path id="Trazado_876925" data-name="Trazado 876925" d="M478.953,1207.381h0c-.007.081-.009.2-.012.374-.095,6.032-.32,16.991-.765,22.617a.17.17,0,0,0,.156.183.162.162,0,0,0,.039,0,.17.17,0,0,0,.144-.155c.446-5.636.672-16.6.766-22.639,0-.09,0-.165,0-.224h.009l-.006-.167s0-.007,0-.011c-.027-.373-2.037-31-2.057-31.311a.17.17,0,0,0-.34.022l2.035,30.965c.01.157.018.267.029.344v0Z" transform="translate(-400.36 -987.189)"/>
            <path id="Trazado_876926" data-name="Trazado 876926" d="M724.641,1216.3h0a.17.17,0,0,0,.143-.191l-9.763-73.77a.17.17,0,0,0-.191-.146.165.165,0,0,0-.146.191l9.763,73.77a.17.17,0,0,0,.191.146" transform="translate(-599.996 -958.897)"/>
            <path id="Trazado_876927" data-name="Trazado 876927" d="M368.4,772.875s1.476-33.892,2.266-56.215c.134-3.773.2-5.512-.5-6.521a2.331,2.331,0,0,0-1.552-1.152c-6.983-1.394-21.549-3.543-24.819-2.818-6.811,1.51-32.993,24.615-34.732,29.264s-7.185,30.055-7.185,30.055,2.269,2.442,13.715,3.21c0,0,7.7-22.224,9.483-24.261s7.9-9.565,7.9-9.565l-4.751,36.292s19.967,7.2,40.184,1.712" transform="translate(-253.433 -592.724)" fill="#374169"/>
            <path id="Trazado_876928" data-name="Trazado 876928" d="M314.186,886.722l.215.012.056-.208c2.541-9.409,9.1-23.437,9.452-24.186l12.942-15.612a.266.266,0,1,0-.409-.339L323.48,862.026l-.036.056c-.068.144-6.79,14.43-9.442,24.095-1.485-.1-10.241-.8-13.357-3.143a.266.266,0,0,0-.319.425c2.079,1.562,6.389,2.409,9.658,2.845,2.265.3,4.03.408,4.2.418" transform="translate(-252.043 -710.483)"/>
            <path id="Trazado_876929" data-name="Trazado 876929" d="M477.533,905.112a.266.266,0,0,0,.3-.229l2.677-20.446a.266.266,0,0,0-.228-.3h0a.266.266,0,0,0-.3.229L477.3,904.815a.266.266,0,0,0,.228.3h0" transform="translate(-400.707 -742.256)"/>
            <path id="Trazado_876930" data-name="Trazado 876930" d="M389.052,729.614c16.862-15.8,26.1-20.552,26.193-20.6a.266.266,0,0,0-.239-.474c-.092.047-9.388,4.824-26.317,20.685a.266.266,0,1,0,.363.388" transform="translate(-326.244 -594.814)"/>
            <path id="Trazado_876931" data-name="Trazado 876931" d="M540.967,815.417c16.139,2.155,25.818-1.459,25.919-1.5l.163-.063,2.243-58.962a.27.27,0,0,0-.255-.276.266.266,0,0,0-.276.255l-2.228,58.609c-1.4.482-11.7,3.731-28.037,1.029a.279.279,0,0,0-.306.219.266.266,0,0,0,.219.306q1.306.215,2.559.382" transform="translate(-451.821 -633.52)"/>
            <path id="Trazado_876932" data-name="Trazado 876932" d="M1761.925,734.913l-2.876.041c-.5-.131-1.483-.46-2.655-.779-.329.969-.609,1.71-.731,1.686l-.045.221a.209.209,0,0,1-.089.133c-.218,1.021-.464,2.324-.741,3.4-.2.765-.387.632.1,1.215a9.08,9.08,0,0,0,2.6,1.807l4.432,1.47c.3-1.35,4.807-4.88,4.634-5.14Z" transform="translate(-1473.015 -616.358)" fill="#fcaf90"/>
            <path id="Trazado_876933" data-name="Trazado 876933" d="M1811.551,685.7s4.362,1.87,2.495,6.063c-1.741,3.909-5.409,2.037-6.353,1.565s3.858-7.628,3.858-7.628" transform="translate(-1517.501 -575.66)" fill="#91d3e2"/>
            <path id="Trazado_876934" data-name="Trazado 876934" d="M1763.642,725.784a21.79,21.79,0,0,0-2.428,6.126c-.446,2.643-.928,2.975-1.865,2.636s-3.108-1.535-2.9-2.466,1.9-5.543,4.191-7.649,3,1.353,3,1.353" transform="translate(-1474.571 -607.607)" fill="#52b6c6"/>
            <path id="Trazado_876935" data-name="Trazado 876935" d="M1713.9,609s6.056,7.495,8.044,9.8l.855,2.5-2.662,5.9-2.752.545-12.512-.837.633-1.261,3.76-5.407,2.927-6.518,1.444-4.1Z" transform="translate(-1431.287 -511.274)" fill="#52b6c6"/>
            <path id="Trazado_876936" data-name="Trazado 876936" d="M1786.809,668.26a14.1,14.1,0,0,1-4.56,8.942.545.545,0,0,0,.027.693l2.09,1.174s.941.647,2.218-.612a12.226,12.226,0,0,0,3.8-8.148,1.736,1.736,0,0,0-1.13-1.575l-1.549-.744s-.694-.307-.9.269" transform="translate(-1496.148 -560.726)" fill="#d4ebf2"/>
            <path id="Trazado_876937" data-name="Trazado 876937" d="M1691.708,597.082s-1.571-1.967-2.711-2.24-2.675.928-3.738,1.959a28.845,28.845,0,0,0-5.337,8.537c-1.055,3.2-2.267,7.847-.824,8.825a6.523,6.523,0,0,0,3.581.828s3.162-1.521,6.5-7.994,2.526-9.915,2.526-9.915" transform="translate(-1409.09 -499.351)" fill="#91d3e2"/>
            <path id="Trazado_876938" data-name="Trazado 876938" d="M1687.877,617.532s-1.192-2.869,1.461-9.041c4.178-9.717,8.289-10.255,8.289-10.255s2.18,2.822-3.056,11.891c-4.314,7.473-6.694,7.4-6.694,7.4" transform="translate(-1416.792 -502.235)" fill="#3b9da8"/>
            <path id="Trazado_876939" data-name="Trazado 876939" d="M1717.6,646.533a38.541,38.541,0,0,1-1.978,3.877c-.418.724-.818,1.377-1.2,1.966-1.032-.7-2.607-2.184-1.147-4.486a3.305,3.305,0,0,1,4.324-1.356" transform="translate(-1437.841 -542.516)" fill="#d4ebf2"/>
            <path id="Trazado_876940" data-name="Trazado 876940" d="M1693.6,626.092a8.574,8.574,0,0,1-1.89-1.017c-.54-.39-1.159-.967-1.04-1.5a20.009,20.009,0,0,1,1.293-3.344,15.268,15.268,0,0,1,2.82-4.242.62.62,0,0,1,.076-.36l-12.432-.831a6.6,6.6,0,0,1-3.607-.836c-1.431-.971-.351-5.364.806-8.878a28.774,28.774,0,0,1,5.348-8.556c1.085-1.052,2.621-2.248,3.781-1.971,1.143.272,2.672,2.175,2.736,2.255s5.98,7.4,7.994,9.746a.515.515,0,0,1,.264-.261.945.945,0,0,1,.667.037l1.548.743a1.8,1.8,0,0,1,1.157,1.618c0,.166-.011.335-.023.5a5.923,5.923,0,0,1,2.064,1.753,4.113,4.113,0,0,1,.262,4.279,3.912,3.912,0,0,1-2.175,2.251,5.173,5.173,0,0,1-4.005-.547,2.319,2.319,0,0,1-1.5.731,20.554,20.554,0,0,0-2.222,5.755c-.279,1.651-.572,2.428-1.012,2.685a.9.9,0,0,1-.72.048q-.092-.025-.194-.062m5.656-9.255a5.111,5.111,0,0,0,3.962.557,3.825,3.825,0,0,0,2.122-2.2c1.644-3.691-1.637-5.584-2.311-5.926l-.027-.014,0-.031c.013-.177.021-.355.025-.53a1.677,1.677,0,0,0-1.1-1.531l-1.548-.744a.869.869,0,0,0-.592-.036.448.448,0,0,0-.243.279l-.027.075-.052-.06c-1.965-2.283-7.984-9.73-8.045-9.8-.015-.019-1.542-1.918-2.651-2.215l-.035-.009c-1.119-.267-2.627.911-3.695,1.947a28.656,28.656,0,0,0-5.325,8.518,33.434,33.434,0,0,0-1.347,5.24c-.29,1.92-.12,3.109.505,3.533a6.519,6.519,0,0,0,3.552.82h0l12.515.837.086.006-.053.068a.548.548,0,0,0-.1.382l0,.024-.018.017a15.12,15.12,0,0,0-2.817,4.231,19.914,19.914,0,0,0-1.286,3.324c-.2.894,1.974,2.088,2.872,2.413a.946.946,0,0,0,.836.021c.408-.238.7-1.022.967-2.621a20.7,20.7,0,0,1,2.245-5.808l.013-.024h.027a2.231,2.231,0,0,0,1.484-.728l.023-.022Z" transform="translate(-1408.837 -499.11)" fill="#1d1d1b"/>
            <path id="Trazado_876941" data-name="Trazado 876941" d="M1809.488,693.861a12.633,12.633,0,0,0,3.3-5.156,9.864,9.864,0,0,0,.525-2.529l-.092,0a9.768,9.768,0,0,1-.521,2.506,12.538,12.538,0,0,1-3.279,5.115Z" transform="translate(-1519.059 -576.059)" fill="#1d1d1b"/>
            <path id="Trazado_876942" data-name="Trazado 876942" d="M1782.717,679.064a13.266,13.266,0,0,0,2.564-3.009,13.947,13.947,0,0,0,1.367-2.906,12.144,12.144,0,0,0,.645-3.061l-.092,0a12.031,12.031,0,0,1-.641,3.038,13.516,13.516,0,0,1-3.9,5.871Z" transform="translate(-1496.586 -562.553)" fill="#1d1d1b"/>
            <path id="Trazado_876943" data-name="Trazado 876943" d="M1784.5,729.872c.2.053.327.078.347.082l.017-.091c-.021,0-2.113-.419-2.859-1.595l-.078.05a4.574,4.574,0,0,0,2.572,1.553" transform="translate(-1495.977 -611.4)" fill="#1d1d1b"/>
            <path id="Trazado_876944" data-name="Trazado 876944" d="M1689.185,617.465c.133.036.57.071,1.418-.573.924-.7,2.549-2.39,5.05-6.448a30.864,30.864,0,0,0,2.8-5.639,14.734,14.734,0,0,0,.883-3.831,5.19,5.19,0,0,0-.388-2.885l-.079.048a5.229,5.229,0,0,1,.374,2.843c-.136,1.8-.884,4.892-3.672,9.415-2.472,4.011-4.08,5.693-4.994,6.4-.988.761-1.393.575-1.4.574l-.042.082a.218.218,0,0,0,.045.016" transform="translate(-1418.076 -502.11)" fill="#1d1d1b"/>
            <rect id="Rectángulo_413591" data-name="Rectángulo 413591" width="0.092" height="1.478" transform="matrix(0.837, -0.548, 0.548, 0.837, 291.768, 109.873)" fill="#1d1d1b"/>
            <rect id="Rectángulo_413592" data-name="Rectángulo 413592" width="0.092" height="1.478" transform="matrix(0.837, -0.548, 0.548, 0.837, 292.365, 109.364)" fill="#1d1d1b"/>
            <rect id="Rectángulo_413593" data-name="Rectángulo 413593" width="0.092" height="1.478" transform="matrix(0.837, -0.548, 0.548, 0.837, 283.663, 101.985)" fill="#1d1d1b"/>
            <rect id="Rectángulo_413594" data-name="Rectángulo 413594" width="0.092" height="1.478" transform="matrix(0.837, -0.548, 0.548, 0.837, 284.259, 101.476)" fill="#1d1d1b"/>
            <path id="Trazado_876945" data-name="Trazado 876945" d="M1783.023,747.844l-3.1.15-.146.746-.2.646.277.473,2.053.2,1.234-.732Z" transform="translate(-1494.009 -627.834)" fill="#fcaf90"/>
            <path id="Trazado_876946" data-name="Trazado 876946" d="M1782.077,749.314a.186.186,0,0,0,.1-.183c0-.1-.062-.178-.135-.174l-3.313-.371c-.313.016-.579-.292-.6-.7a.992.992,0,0,1,.146-.6.534.534,0,0,1,.414-.268l3.049-.152a.172.172,0,0,0,.13-.188c0-.1-.062-.178-.135-.175l-3.05.152a.792.792,0,0,0-.605.393,1.448,1.448,0,0,0-.214.871c.036.6.419,1.05.872,1.027l3.314.372a.094.094,0,0,0,.028-.006" transform="translate(-1492.559 -626.71)" fill="#f07162"/>
            <path id="Trazado_876947" data-name="Trazado 876947" d="M1756.692,740.012a.894.894,0,0,0,.07.991l2.671,1.306a.791.791,0,0,0,.984-.481.879.879,0,0,0-.2-1.2l-2.659-1.3a1.391,1.391,0,0,0-.867.68" transform="translate(-1474.698 -620.688)" fill="#fcaf90"/>
            <path id="Trazado_876948" data-name="Trazado 876948" d="M1751.969,749.789a1.321,1.321,0,0,0-.1,1.1l2.843,1.484a.78.78,0,0,0,.987-.459.892.892,0,0,0-.178-1.206l-2.916-1.522a1.008,1.008,0,0,0-.64.6" transform="translate(-1470.679 -628.962)" fill="#fcaf90"/>
            <path id="Trazado_876949" data-name="Trazado 876949" d="M1755.643,740.22a.177.177,0,0,1-.019-.2c.04-.088.123-.133.186-.1l2.87,1.421a.643.643,0,0,0,.8-.388.947.947,0,0,0,.1-.579.507.507,0,0,0-.262-.393l-2.632-1.287a.163.163,0,0,1-.042-.215c.04-.088.123-.134.186-.1l2.632,1.287a.752.752,0,0,1,.383.574,1.382,1.382,0,0,1-.147.846.938.938,0,0,1-1.165.574l-2.87-1.421a.093.093,0,0,1-.023-.016" transform="translate(-1473.874 -619.876)" fill="#f07162"/>
            <path id="Trazado_876950" data-name="Trazado 876950" d="M1762.663,730.071a1.275,1.275,0,0,0-.089,1.1l2.852,1.455a.776.776,0,0,0,.976-.44.9.9,0,0,0-.172-1.228l-2.662-1.357c-.3-.151-.758.168-.905.469" transform="translate(-1479.657 -612.486)" fill="#fcaf90"/>
            <path id="Trazado_876951" data-name="Trazado 876951" d="M1762.256,730.758a.179.179,0,0,1-.017-.2c.041-.087.124-.132.187-.1l2.848,1.47a.637.637,0,0,0,.8-.377.95.95,0,0,0,.106-.579.512.512,0,0,0-.257-.4l-2.611-1.332a.164.164,0,0,1-.04-.216c.041-.087.124-.132.187-.1l2.611,1.331a.761.761,0,0,1,.376.582,1.389,1.389,0,0,1-.156.847.929.929,0,0,1-1.167.557l-2.848-1.47a.094.094,0,0,1-.022-.016" transform="translate(-1479.427 -611.944)" fill="#f07162"/>
            <path id="Trazado_876952" data-name="Trazado 876952" d="M1752.3,750.114a.179.179,0,0,1-.017-.2c.042-.087.126-.129.187-.1l2.746,1.5c.269.141.586,0,.768-.347a.952.952,0,0,0,.109-.578.515.515,0,0,0-.254-.4l-2.916-1.522a.164.164,0,0,1-.039-.216c.041-.087.125-.131.187-.1l2.916,1.522a.763.763,0,0,1,.372.586,1.393,1.393,0,0,1-.16.846c-.268.506-.745.727-1.134.523l-2.747-1.5a.11.11,0,0,1-.019-.014" transform="translate(-1471.064 -628.082)" fill="#f07162"/>
            <path id="Trazado_876953" data-name="Trazado 876953" d="M1748.868,761.232a1.238,1.238,0,0,0-.1,1.028l2.628,1.426a.72.72,0,0,0,.921-.415.837.837,0,0,0-.155-1.129l-2.7-1.462a.931.931,0,0,0-.6.552" transform="translate(-1468.08 -638.61)" fill="#fcaf90"/>
            <path id="Trazado_876954" data-name="Trazado 876954" d="M1748.784,760.919a.179.179,0,0,1-.017-.2c.041-.086.125-.13.187-.1l2.628,1.426a.575.575,0,0,0,.739-.329.875.875,0,0,0,.1-.53.476.476,0,0,0-.229-.371l-2.7-1.462a.166.166,0,0,1-.036-.217c.042-.087.125-.13.187-.1l2.695,1.462a.726.726,0,0,1,.344.559,1.316,1.316,0,0,1-.158.8.862.862,0,0,1-1.1.5l-2.628-1.425a.1.1,0,0,1-.02-.014" transform="translate(-1468.116 -637.223)" fill="#f07162"/>
            <path id="Trazado_876955" data-name="Trazado 876955" d="M2194.7,603.145c3.239-.651,6.528,1.3,6.528,1.3s1,2.023,1.088,2.256-1.322-.683-1.322-.683l-10.088,2.8.248-1.854a4.491,4.491,0,0,1,3.547-3.818" transform="translate(-1839.319 -506.243)" fill="#fe9f73"/>
            <path id="Trazado_876956" data-name="Trazado 876956" d="M2196.4,625.505l-.414,2.448s.03,5.1-.343,6.115a4.709,4.709,0,0,1-4.959,2.536,7.687,7.687,0,0,1-2.26-.665,2.935,2.935,0,0,1-1.572-3.4l.955-3.666c-2.4-.676-1.909-3.454-1.909-3.454l1.044-7.819,10.412-1.669Z" transform="translate(-1835.087 -517.091)" fill="#fcaf90"/>
            <path id="Trazado_876957" data-name="Trazado 876957" d="M2216.251,646.028a.117.117,0,1,1-.2.126c-.046-.073-1.158-1.774-2.647-1a.117.117,0,1,1-.108-.208c1.68-.877,2.94,1.059,2.953,1.079" transform="translate(-1858.068 -541.26)" fill="#4c222e"/>
            <path id="Trazado_876958" data-name="Trazado 876958" d="M2190.635,638.716a.117.117,0,0,1,.052.158.116.116,0,0,1-.076.061.117.117,0,0,1-.082-.009c-.012-.006-1.2-.589-1.617.009a.117.117,0,0,1-.192-.135c.536-.763,1.858-.112,1.914-.084" transform="translate(-1837.469 -535.978)" fill="#4c222e"/>
            <path id="Trazado_876959" data-name="Trazado 876959" d="M2216.906,653.992a.352.352,0,1,1-.4.3.352.352,0,0,1,.4-.3" transform="translate(-1860.815 -549.04)"/>
            <path id="Trazado_876960" data-name="Trazado 876960" d="M2194.066,648.728a.352.352,0,1,1-.4.3.352.352,0,0,1,.4-.3" transform="translate(-1841.64 -544.62)"/>
            <path id="Trazado_876961" data-name="Trazado 876961" d="M2246.421,611.171s2.976.253,3.381,2.94-1.057,3.884-1.185,4.651-.3,6.037-3.9,5.161l.161-8.719,1.727-3.25Z" transform="translate(-1884.498 -513.093)" fill="#33192c"/>
            <path id="Trazado_876962" data-name="Trazado 876962" d="M2236.878,646.128a2.114,2.114,0,1,1-2.375,1.815,2.114,2.114,0,0,1,2.375-1.815" transform="translate(-1875.907 -542.425)" fill="#fcaf90"/>
            <path id="Trazado_876963" data-name="Trazado 876963" d="M2244.138,653.184a1.424,1.424,0,0,1,1.031.068.059.059,0,0,1-.052.106,1.326,1.326,0,0,0-.938-.064.953.953,0,0,0-.492.459.993.993,0,0,1,1.105.108.827.827,0,0,1,.2,1,.882.882,0,0,1-.909.544l-.012,0a.059.059,0,0,1,.016-.116l.012,0a.757.757,0,0,0,.785-.476.718.718,0,0,0-.17-.863.92.92,0,0,0-1.127-.008l-.168.128.078-.2a1.141,1.141,0,0,1,.637-.692" transform="translate(-1883.411 -548.304)" fill="#f07162"/>
            <path id="Trazado_876964" data-name="Trazado 876964" d="M2200.312,686.508s-.788,4.654-6.687,4.32l.7-2.7s3.686,1.267,5.984-1.616" transform="translate(-1841.604 -576.34)" fill="#f07162"/>
            <path id="Trazado_876965" data-name="Trazado 876965" d="M2200.117,648.216a.058.058,0,0,1,.041.072l-.735,2.7,1.115.542a.059.059,0,0,1-.033.111.059.059,0,0,1-.018-.005l-1.2-.584.761-2.791a.058.058,0,0,1,.072-.041" transform="translate(-1846.355 -544.192)" fill="#f07162"/>
            <path id="Trazado_876966" data-name="Trazado 876966" d="M2190.634,590.021s0-3.015,2.574-1.778,7.565,1.787,8.633,4.465-3.939,3.119-3.939,3.119-8.827-1.715-9.1-3.873a1.6,1.6,0,0,1,1.83-1.933" transform="translate(-1837.537 -493.594)" fill="#33192c"/>
            <path id="Trazado_876967" data-name="Trazado 876967" d="M2237.365,627.638a13.763,13.763,0,0,1,1.526,1.143c-.232-.071-2.017-.173-2.017-.173l-.256,1.921a3.9,3.9,0,0,0-.84,2.5s-.571.127-.606-.335.951-3.511-.062-4.224,2.167-.891,2.255-.831" transform="translate(-1876.265 -526.908)" fill="#33192c"/>
            <path id="Trazado_876968" data-name="Trazado 876968" d="M2197.049,672.371c-.031-.015-2.117-.583-2.117-.583a1.123,1.123,0,0,0,2.117.583" transform="translate(-1842.702 -563.983)" fill="#fbfdfc"/>
            <path id="Trazado_876969" data-name="Trazado 876969" d="M2406.382,1146.643a1.817,1.817,0,0,1,1.413-.151c5.345-.567,6.1-1.486,7.557-1.506l.008,1.14.038,5.479a13.667,13.667,0,0,0,.869,4.855l.146.39a.911.911,0,0,1-.591,1.192.932.932,0,0,1-1.126-.582l-1.059-2.826a.221.221,0,0,0-.423.127l1,4.345a.734.734,0,0,1-.721.932,1.181,1.181,0,0,1-1.135-.878l-1.017-4.43a.222.222,0,0,0-.222-.172l-.075,0a.221.221,0,0,0-.214.228l.148,5.04a.932.932,0,0,1-.822.964.911.911,0,0,1-1-.88l-.149-5.071a.221.221,0,0,0-.228-.215l-.237.007a.221.221,0,0,0-.214.2l-.475,4.69a.931.931,0,0,1-.94.849.911.911,0,0,1-.875-1s.34-7.19.3-8.318l-2.132,1.545a.911.911,0,1,1-1.325-1.249Z" transform="translate(-2017.073 -961.245)" fill="#fcaf90"/>
            <path id="Trazado_876970" data-name="Trazado 876970" d="M2422.576,1088.892l-9.45-.575-1.911-13.047,10.839-.5c.338,7.243.521,14.118.521,14.118" transform="translate(-2024.277 -902.3)" fill="#fcaf90"/>
            <path id="Trazado_876971" data-name="Trazado 876971" d="M2117.741,1646.077l-.17,11.491-10.818-.151.215-12.839Z" transform="translate(-1768.673 -1380.664)" fill="#fe9f73"/>
            <path id="Trazado_876972" data-name="Trazado 876972" d="M2331.488,1633.326l-10.828,2.182-2.5-12.6,11.069-.854Z" transform="translate(-1946.155 -1361.759)" fill="#fe9f73"/>
            <path id="Trazado_876973" data-name="Trazado 876973" d="M2083.175,1046.854c.387-2.515,2.446-4.087,4.821-3.174l14.881,5.717a3.986,3.986,0,0,1,2.557,3.857c-.4,11.866-2.158,58.284-5.848,88.653a3.981,3.981,0,0,1-3.957,3.507,30.566,30.566,0,0,1-8.778-1.323,4.006,4.006,0,0,1-2.846-3.759l-1.333-90.848c0-.224.842-1.781.877-2Z" transform="translate(-1748.458 -875.975)" fill="#4c1b43"/>
            <path id="Trazado_876974" data-name="Trazado 876974" d="M2167.489,1074.545c1.848,14.435,7.128,29.427,7.982,42a3.373,3.373,0,0,1-2.64,3.521,30.387,30.387,0,0,1-10.03.509,3.372,3.372,0,0,1-2.892-2.581l-11.6-39.79-7.03-40.23-7.537-21.878,30.22,8.869a472.082,472.082,0,0,0,3.529,49.577" transform="translate(-1791.329 -853.041)" fill="#5b2750"/>
            <path id="Trazado_876975" data-name="Trazado 876975" d="M2190.927,1215.12a.171.171,0,0,1,.2.139l5.241,29.991,11.179,38.34a.171.171,0,0,1-.328.1l-11.182-38.349,0-.009-5.244-30.009a.171.171,0,0,1,.139-.2" transform="translate(-1839.221 -1020.122)"/>
            <path id="Trazado_876976" data-name="Trazado 876976" d="M2323.943,1158.291a.17.17,0,0,1,.185.156l2.565,31.133c.013.158.022.269.022.347h0c.019.08.039.2.067.371.989,5.992,2.838,16.87,4.115,22.407a.171.171,0,0,1-.128.205.162.162,0,0,1-.039,0,.171.171,0,0,1-.167-.133c-1.28-5.546-3.13-16.432-4.12-22.428-.015-.089-.027-.164-.036-.222h-.009l-.019-.167s0-.007,0-.011c-.028-.375-2.567-31.169-2.593-31.481a.17.17,0,0,1,.156-.184" transform="translate(-1950.878 -972.413)"/>
            <path id="Trazado_876977" data-name="Trazado 876977" d="M2082.185,1159.991a.167.167,0,0,1,.174.169l1.216,74.9a.171.171,0,0,1-.168.174h0a.171.171,0,0,1-.171-.168l-1.216-74.9a.171.171,0,0,1,.168-.174" transform="translate(-1747.907 -973.841)"/>
            <path id="Trazado_876978" data-name="Trazado 876978" d="M2033.48,1712.164h1.515l7.035-4.19,3.846,4.19h9.487a.429.429,0,0,1,.429.429v1.437a.294.294,0,0,1-.293.294H2033.44a1.081,1.081,0,0,1-1.059-1.293,1.106,1.106,0,0,1,1.1-.866" transform="translate(-1706.219 -1433.887)" fill="#f7ab48"/>
            <path id="Trazado_876979" data-name="Trazado 876979" d="M2042.051,1703.485l8.055-3.573c3.244,3.159,6.923.549,6.923.549a3.373,3.373,0,0,1,4.031,1.053v3.894h-21.815c.6-1.185,2.806-1.923,2.806-1.923" transform="translate(-1711.999 -1427.119)" fill="#33192c"/>
            <rect id="Rectángulo_413595" data-name="Rectángulo 413595" width="0.162" height="3.875" transform="translate(348.981 274.394)"/>
            <path id="Trazado_876980" data-name="Trazado 876980" d="M2130.156,1702.916l.091.133a5.959,5.959,0,0,1-3.343,1.029,3.839,3.839,0,0,1-.5-.027l.024-.159a5.723,5.723,0,0,0,3.728-.975" transform="translate(-1785.171 -1429.641)"/>
            <rect id="Rectángulo_413596" data-name="Rectángulo 413596" width="1.241" height="0.162" transform="translate(347.011 277.427) rotate(-33.988)"/>
            <rect id="Rectángulo_413597" data-name="Rectángulo 413597" width="1.241" height="0.161" transform="translate(346.273 277.231) rotate(-33.992)"/>
            <path id="Trazado_876981" data-name="Trazado 876981" d="M2033.016,1733.627h21.812a.623.623,0,0,1,.622.622v1.077h-.162v-1.077a.461.461,0,0,0-.46-.461h-21.812a1,1,0,0,0-.646,1.761l-.1.123a1.16,1.16,0,0,1,.751-2.045" transform="translate(-1705.795 -1455.424)"/>
            <path id="Trazado_876982" data-name="Trazado 876982" d="M2040.74,1703.336c1.62-.691,8.747-3.852,8.818-3.884l.066.148c-.072.032-7.2,3.193-8.821,3.884a3.93,3.93,0,0,0-2.026,1.567l-.146-.069a4,4,0,0,1,2.109-1.647" transform="translate(-1711.484 -1426.733)"/>
            <path id="Trazado_876983" data-name="Trazado 876983" d="M2269.088,1700.844l1.456-.419,5.6-5.973,4.855,2.963,9.117-2.624a.429.429,0,0,1,.531.293l.4,1.381a.293.293,0,0,1-.2.363l-21.2,6.1a1.081,1.081,0,0,1-1.376-.95,1.106,1.106,0,0,1,.817-1.136" transform="translate(-1904.269 -1422.536)" fill="#f7ab48"/>
            <path id="Trazado_876984" data-name="Trazado 876984" d="M2275.48,1676.987l6.752-5.662c3.991,2.138,6.805-1.388,6.805-1.388a3.373,3.373,0,0,1,4.165-.1l1.077,3.742-20.964,6.034c.247-1.3,2.165-2.624,2.165-2.624" transform="translate(-1908.506 -1401.287)" fill="#33192c"/>
            <rect id="Rectángulo_413598" data-name="Rectángulo 413598" width="0.162" height="3.875" transform="matrix(0.961, -0.277, 0.277, 0.961, 384.617, 268.57)"/>
            <path id="Trazado_876985" data-name="Trazado 876985" d="M2353.569,1673.78l.125.1a5.96,5.96,0,0,1-2.928,1.914,3.84,3.84,0,0,1-.488.112l-.021-.16a5.719,5.719,0,0,0,3.313-1.968" transform="translate(-1973.1 -1405.181)"/>
            <rect id="Rectángulo_413599" data-name="Rectángulo 413599" width="1.241" height="0.162" transform="translate(383.564 272.03) rotate(-50.046)"/>
            <rect id="Rectángulo_413600" data-name="Rectángulo 413600" width="1.241" height="0.161" transform="matrix(0.642, -0.767, 0.767, 0.642, 382.801, 272.045)"/>
            <path id="Trazado_876986" data-name="Trazado 876986" d="M2268.625,1702.222l20.961-6.033a.623.623,0,0,1,.77.426l.3,1.034-.155.045-.3-1.034a.461.461,0,0,0-.57-.315l-20.961,6.033a1,1,0,0,0-.134,1.871l-.066.147a1.16,1.16,0,0,1,.155-2.173" transform="translate(-1903.864 -1423.973)"/>
            <path id="Trazado_876987" data-name="Trazado 876987" d="M2274.23,1688.534c1.366-1.112,7.34-6.121,7.4-6.171l.1.124c-.061.05-6.035,5.06-7.4,6.173a3.927,3.927,0,0,0-1.513,2.067l-.159-.026a3.99,3.99,0,0,1,1.571-2.166" transform="translate(-1907.956 -1412.386)"/>
            <path id="Trazado_876988" data-name="Trazado 876988" d="M1817.158,743.873,1840.2,727.44l7.86,22.67s-25.223,13.7-32.512,12.329-32.071-20.085-32.071-20.085a33.856,33.856,0,0,1,7.868-11.727Z" transform="translate(-1497.276 -610.704)" fill="#e84d4b"/>
            <path id="Trazado_876989" data-name="Trazado 876989" d="M2083.966,714.643c6.556-.507,16.609-.916,20.894.841,6.618,2.713,29.038,30.626,29.984,35.626s2.015,31.619,2.015,31.619-2.718,2.072-14.417.85c0,0-3.906-23.8-5.347-26.166s-6.308-11.041-6.308-11.041l-1.532,37.495s-21.429,3.792-40.9-5.282l8.121-28.918s-1.669-20.45-.6-28.272c.523-3.836,4.23-6.453,8.09-6.752" transform="translate(-1736.439 -599.595)" fill="#f75553"/>
            <path id="Trazado_876990" data-name="Trazado 876990" d="M1790.646,746.332l25.955,13.32.234,4.275a.131.131,0,1,1-.261.014l-.226-4.126-25.665-13.17a30.2,30.2,0,0,0-7.765,11.613.131.131,0,0,1-.148.086l-.018,0a.131.131,0,0,1-.082-.166,30.481,30.481,0,0,1,7.907-11.784Z" transform="translate(-1496.593 -626.564)"/>
            <path id="Trazado_876991" data-name="Trazado 876991" d="M2008.534,758.208a.131.131,0,1,1,.151.213l-15.942,11.369a.131.131,0,0,1-.1.022.131.131,0,0,1-.052-.235Z" transform="translate(-1672.786 -636.514)"/>
            <path id="Trazado_876992" data-name="Trazado 876992" d="M2306.877,870.145l10.369,18.062.013.03c.044.158,4.372,15.869,5.342,26.082,1.1.117,10.54,1.046,14.237-.848a.131.131,0,0,1,.119.232c-3.98,2.039-14.064.913-14.491.864l-.105-.012-.01-.105c-.935-10.044-5.178-25.542-5.339-26.127l-10.361-18.048a.131.131,0,0,1,.227-.13" transform="translate(-1936.478 -730.453)"/>
            <path id="Trazado_876993" data-name="Trazado 876993" d="M2327.561,913.828a.131.131,0,0,1,.125.136l-.863,21.124a.131.131,0,0,1-.136.125l-.019,0a.13.13,0,0,1-.106-.134l.863-21.124a.13.13,0,0,1,.136-.125" transform="translate(-1953.208 -767.182)"/>
            <path id="Trazado_876994" data-name="Trazado 876994" d="M2303.96,726.258c.084.063,8.627,6.5,22.951,25.462a.131.131,0,0,1-.208.157c-14.3-18.926-22.813-25.347-22.9-25.41a.131.131,0,0,1,.156-.21" transform="translate(-1934.059 -609.69)"/>
            <path id="Trazado_876995" data-name="Trazado 876995" d="M2176.332,718.687a8.506,8.506,0,0,1-7.3-4.543,65.069,65.069,0,0,1,16.111-.136s-3.3,5.066-8.81,4.678" transform="translate(-1820.957 -599.073)" fill="#fcaf90"/>
            <rect id="Rectángulo_413601" data-name="Rectángulo 413601" width="386.756" height="1.468" transform="translate(32.028 280.236)" fill="#223749"/>
          </g>
        </g>
      </g>
    </g>
  </g>
</svg>
