<svg xmlns="http://www.w3.org/2000/svg" xmlns:xlink="http://www.w3.org/1999/xlink" width="99.001" height="98.908" viewBox="0 0 99.001 98.908">
  <defs>
    <clipPath id="clip-path">
      <rect id="Rect치ngulo_413638" data-name="Rect치ngulo 413638" width="38.934" height="50.927" fill="#12263f"/>
    </clipPath>
  </defs>
  <g id="Grupo_1116052" data-name="Grupo 1116052" transform="translate(-1190.999 -4068)">
    <g id="Grupo_1115428" data-name="Grupo 1115428" transform="translate(804.332 -1269)">
      <rect id="Rect치ngulo_412780" data-name="Rect치ngulo 412780" width="93.637" height="93.545" rx="20" transform="translate(389.349 5339.695)" fill="#b0c2e5"/>
      <g id="Grupo_1114814" data-name="Grupo 1114814" transform="translate(386.667 5337)">
        <path id="Trazado_875775" data-name="Trazado 875775" d="M245.284,301.406A1.288,1.288,0,0,1,244,300.118v-3.863a6.445,6.445,0,0,1,6.438-6.438h30.644a9.024,9.024,0,0,0,9.013-9.013V250.216a6.445,6.445,0,0,1,6.438-6.438h3.863a1.288,1.288,0,1,1,0,2.575h-3.863a3.867,3.867,0,0,0-3.863,3.863V280.8a11.6,11.6,0,0,1-11.588,11.588H250.434a3.867,3.867,0,0,0-3.863,3.863v3.863a1.288,1.288,0,0,1-1.288,1.288" transform="translate(-202.679 -202.498)" fill="#12263f"/>
        <path id="Trazado_875777" data-name="Trazado 875777" d="M1.288,57.628A1.288,1.288,0,0,1,0,56.34V52.477a6.445,6.445,0,0,1,6.438-6.438H37.082A9.024,9.024,0,0,0,46.1,37.026V6.438A6.445,6.445,0,0,1,52.533,0H56.4a1.288,1.288,0,0,1,0,2.575H52.533a3.867,3.867,0,0,0-3.863,3.863V37.026A11.6,11.6,0,0,1,37.082,48.614H6.438a3.867,3.867,0,0,0-3.863,3.863V56.34a1.288,1.288,0,0,1-1.288,1.288" transform="translate(57.684 57.628) rotate(180)" fill="#12263f"/>
      </g>
    </g>
    <g id="Grupo_1115832" data-name="Grupo 1115832" transform="translate(1221.033 4091.991)">
      <g id="Grupo_1115831" data-name="Grupo 1115831" clip-path="url(#clip-path)">
        <path id="Trazado_877112" data-name="Trazado 877112" d="M5.235.453C5.3.081,5.711-.01,6.021,0H38.143c.68.059.734.122.79.83l-.008,34.609c-1.574,1.994-3.543,3.7-5.2,5.648-.221,2.98.208,6.226-.02,9.174a1.287,1.287,0,0,1-.155.667H.155L0,50.26.068,5.116A3.233,3.233,0,0,1,.431,4.73H5.053a1.253,1.253,0,0,0,.182-.192,33.656,33.656,0,0,1,0-4.086M37.347,1.666H6.817V44.7H27.373V35.059a1.989,1.989,0,0,1,.791-.83h9.184ZM5.235,6.391H1.586V49.425H32.117v-6.64c-.882.55-2.887,3.43-3.717,3.568L5.6,46.294a3.229,3.229,0,0,1-.367-.381Zm30.9,29.626H29.076v7.406Z" transform="translate(0 0)" fill="#12263f"/>
        <path id="Trazado_877113" data-name="Trazado 877113" d="M115.543,188.379a1.6,1.6,0,0,1-.874.295l-19.106,0c-1.268-.147-1.339-1.67.12-1.8,6.077-.528,12.836.409,18.985,0a.945.945,0,0,1,.876,1.5" transform="translate(-83.093 -162.866)" fill="#12263f"/>
        <path id="Trazado_877114" data-name="Trazado 877114" d="M95.239,80.258l20.224.04a.861.861,0,0,1-.42,1.6H95.576a.859.859,0,0,1-.336-1.636" transform="translate(-83.227 -70.009)" fill="#12263f"/>
        <path id="Trazado_877115" data-name="Trazado 877115" d="M140.376,134.053l14.208-.03a.841.841,0,0,1,.125,1.67H140.465a.843.843,0,0,1-.089-1.639" transform="translate(-122.768 -116.909)" fill="#12263f"/>
        <path id="Trazado_877116" data-name="Trazado 877116" d="M95.476,161.029l13.238-.034a.879.879,0,0,1,.238,1.667l-13.509.007c-.795-.08-.706-1.483.033-1.64" transform="translate(-83.342 -140.436)" fill="#12263f"/>
        <path id="Trazado_877117" data-name="Trazado 877117" d="M94.808,241.7a2.374,2.374,0,0,1,1-.291c3.151-.277,6.666.216,9.856.007,1.311,0,1.665,1.378.373,1.793-3.339-.317-7.331.4-10.591,0a.943.943,0,0,1-.638-1.5" transform="translate(-83.097 -210.509)" fill="#12263f"/>
        <path id="Trazado_877118" data-name="Trazado 877118" d="M196.946,107.128l7.386-.019a.843.843,0,0,1,.014,1.659l-7.423-.01a.834.834,0,0,1,.023-1.63" transform="translate(-172.405 -93.431)" fill="#12263f"/>
        <path id="Trazado_877119" data-name="Trazado 877119" d="M95.406,106.3c2.221.214,5.264-.384,7.387-.02a.84.84,0,0,1,.013,1.659l-7.423-.01a.857.857,0,0,1,.023-1.63" transform="translate(-83.272 -92.604)" fill="#12263f"/>
        <path id="Trazado_877120" data-name="Trazado 877120" d="M95.4,214.513c1.69.141,3.94-.287,5.561-.019a.89.89,0,0,1-.126,1.767,31.465,31.465,0,0,1-5.207,0,.9.9,0,0,1-.229-1.748" transform="translate(-83.271 -187.025)" fill="#12263f"/>
        <path id="Trazado_877121" data-name="Trazado 877121" d="M147.266,269.946a1.743,1.743,0,0,1-.756.291,31.378,31.378,0,0,1-4.982-.012c-.969-.16-.981-1.587.247-1.768a28.045,28.045,0,0,1,4.722,0c.706.1,1.29.905.769,1.488" transform="translate(-123.696 -234.089)" fill="#12263f"/>
        <path id="Trazado_877122" data-name="Trazado 877122" d="M224.586,160.707a27.373,27.373,0,0,1,4.205,0,.864.864,0,0,1,.023,1.629c-1.2.234-3.075-.146-4.352-.021a.887.887,0,0,1,.124-1.608" transform="translate(-196.761 -140.115)" fill="#12263f"/>
        <path id="Trazado_877123" data-name="Trazado 877123" d="M95.527,268.742a18.087,18.087,0,0,1,3.571.028.876.876,0,0,1,.045,1.725,22.245,22.245,0,0,1-3.737-.019c-.9-.208-.736-1.531.121-1.734" transform="translate(-83.272 -234.358)" fill="#12263f"/>
        <path id="Trazado_877124" data-name="Trazado 877124" d="M99.4,135.158c-.134.141-.447.146-.635.163a21.4,21.4,0,0,1-3.408-.009.853.853,0,0,1,.126-1.649,20.515,20.515,0,0,1,3.494.02.959.959,0,0,1,.423,1.475" transform="translate(-83.251 -116.538)" fill="#12263f"/>
        <path id="Trazado_877125" data-name="Trazado 877125" d="M166.931,216.136a.966.966,0,0,1,.544-1.476c.789-.186,3.273-.2,2.648,1.248-.31.717-2.785.657-3.192.227" transform="translate(-146.463 -187.173)" fill="#12263f"/>
        <path id="Trazado_877126" data-name="Trazado 877126" d="M168.577,106.859a8.581,8.581,0,0,1,2.231.029.877.877,0,0,1,.163,1.463,6.191,6.191,0,0,1-2.488.085.853.853,0,0,1,.094-1.576" transform="translate(-147.564 -93.162)" fill="#12263f"/>
      </g>
    </g>
  </g>
</svg>
