<svg xmlns="http://www.w3.org/2000/svg" xmlns:xlink="http://www.w3.org/1999/xlink" width="99.001" height="98.908" viewBox="0 0 99.001 98.908">
  <defs>
    <clipPath id="clip-path">
      <rect id="Rect치ngulo_413636" data-name="Rect치ngulo 413636" width="34.012" height="46.59" fill="none"/>
    </clipPath>
  </defs>
  <g id="Grupo_1116050" data-name="Grupo 1116050" transform="translate(-731.999 -4068)">
    <g id="Grupo_1115426" data-name="Grupo 1115426" transform="translate(345.332 -1269)">
      <rect id="Rect치ngulo_412780" data-name="Rect치ngulo 412780" width="93.637" height="93.545" rx="20" transform="translate(389.349 5339.695)" fill="#b0c2e5"/>
      <g id="Grupo_1114814" data-name="Grupo 1114814" transform="translate(386.667 5337)">
        <path id="Trazado_875775" data-name="Trazado 875775" d="M245.284,301.406A1.288,1.288,0,0,1,244,300.118v-3.863a6.445,6.445,0,0,1,6.438-6.438h30.644a9.024,9.024,0,0,0,9.013-9.013V250.216a6.445,6.445,0,0,1,6.438-6.438h3.863a1.288,1.288,0,1,1,0,2.575h-3.863a3.867,3.867,0,0,0-3.863,3.863V280.8a11.6,11.6,0,0,1-11.588,11.588H250.434a3.867,3.867,0,0,0-3.863,3.863v3.863a1.288,1.288,0,0,1-1.288,1.288" transform="translate(-202.679 -202.498)" fill="#12263f"/>
        <path id="Trazado_875777" data-name="Trazado 875777" d="M1.288,57.628A1.288,1.288,0,0,1,0,56.34V52.477a6.445,6.445,0,0,1,6.438-6.438H37.082A9.024,9.024,0,0,0,46.1,37.026V6.438A6.445,6.445,0,0,1,52.533,0H56.4a1.288,1.288,0,0,1,0,2.575H52.533a3.867,3.867,0,0,0-3.863,3.863V37.026A11.6,11.6,0,0,1,37.082,48.614H6.438a3.867,3.867,0,0,0-3.863,3.863V56.34a1.288,1.288,0,0,1-1.288,1.288" transform="translate(57.684 57.628) rotate(180)" fill="#12263f"/>
      </g>
    </g>
    <g id="Grupo_1115828" data-name="Grupo 1115828" transform="translate(764.494 4094.159)">
      <g id="Grupo_1115827" data-name="Grupo 1115827" clip-path="url(#clip-path)">
        <path id="Trazado_877101" data-name="Trazado 877101" d="M33.744,46.323a1.591,1.591,0,0,1-.837.269L.7,46.528c-.584-.134-.64-.627-.7-1.16V1.225C.07.389.239.079,1.105,0L25.189.034l.67.378L33.71,8.28l.245.57.057,36.517a2.241,2.241,0,0,1-.268.955M24.109,1.87H1.868V44.722H32.144V9.9H24.866a1.26,1.26,0,0,1-.757-.757Zm6.637,6.172L25.972,3.268V8.042Z" transform="translate(0 -0.001)"/>
        <path id="Trazado_877102" data-name="Trazado 877102" d="M40.532,144.487c.3.054.18-.042.242-.165.394-.778.661-1.765,1.029-2.571l-2.416-5.97c-.044-.676.459-1.024,1.08-1.081a19.466,19.466,0,0,1,3.528.093c.186.081.363.4.537.37.125-.022.325-.388.722-.451a20.546,20.546,0,0,1,3.748.081,1.272,1.272,0,0,1,.594.7c.152.847-2.194,5.1-2.419,6.26l1.041,2.737.258-.149c1.151-2.676,2.1-5.462,3.3-8.115.2-.449.427-1.239.9-1.429a23.129,23.129,0,0,1,3.993-.094,1,1,0,0,1,.923,1.516L51.214,151.5a.949.949,0,0,1-.721.56A36.02,36.02,0,0,1,46.238,152c-.485-.219-1.286-2.694-1.58-3.316-.061-.129.01-.294-.226-.234-.191.048-1.088,3.279-1.691,3.551a39.363,39.363,0,0,1-4.487.066c-.541-.07-.679-.551-.887-.976-2.337-4.762-3.9-10.292-6.19-15.122a.942.942,0,0,1,.534-1.17,25.756,25.756,0,0,1,4.223-.091c.847.1.973.853,1.274,1.52,1.219,2.7,2.205,5.525,3.324,8.264m-5.3-7.918c-.369-.115-1.247.084-1.688,0l5.643,13.748,2.492-.024c.447-.817,1.713-4.895,2.279-5.232a.953.953,0,0,1,1.371.391l1.972,4.841c.535-.056,2,.179,2.38-.092l5.638-13.633c-.471.078-1.438-.193-1.735.186l-4.335,10.57a.954.954,0,0,1-1.756.155l-2.269-5.629c.009-.731,2.16-5.06,1.943-5.282-1.765-.389-1.274.944-1.978,1.774a.912.912,0,0,1-1.4,0c-.7-.83-.213-2.163-1.978-1.774-.217.222,1.934,4.551,1.943,5.282l-2.269,5.629a.946.946,0,0,1-1.718-.076c-1.589-3.232-2.6-7.173-4.223-10.332-.064-.124-.2-.469-.312-.5" transform="translate(-27.483 -118.979)"/>
        <path id="Trazado_877103" data-name="Trazado 877103" d="M32.2,355.078l14.645-.028c1.282.013,1.592,1.525.355,1.87l-15.03,0a.922.922,0,0,1,.03-1.838" transform="translate(-27.682 -313.706)"/>
        <path id="Trazado_877104" data-name="Trazado 877104" d="M191.4,354.934c.694-.127,1.918-.047,2.01.856.114,1.118-1.4,1.089-2.146.972a.93.93,0,0,1,.136-1.828" transform="translate(-168.372 -313.562)"/>
      </g>
    </g>
  </g>
</svg>
