<svg xmlns="http://www.w3.org/2000/svg" xmlns:xlink="http://www.w3.org/1999/xlink" width="400" height="255" viewBox="0 0 400 255">
  <defs>
    <clipPath id="clip-path">
      <rect id="Rectángulo_413572" data-name="Rectángulo 413572" width="400" height="234.57" fill="none"/>
    </clipPath>
  </defs>
  <g id="Grupo_1115770" data-name="Grupo 1115770" transform="translate(-915 -1938)">
    <rect id="Rectángulo_412912" data-name="Rectángulo 412912" width="400" height="255" transform="translate(915 1938)" fill="none"/>
    <g id="Grupo_1115769" data-name="Grupo 1115769" transform="translate(915 1948)">
      <g id="Grupo_1115768" data-name="Grupo 1115768" clip-path="url(#clip-path)">
        <path id="Trazado_876687" data-name="Trazado 876687" d="M127.027,224.688S60.919,236.542,34.733,222.7c-29.671-15.69-25.365-46.833,27.445-56.758C131.753,152.864,14.05,121.626,91.606,80.7c32.686-17.248,10.966-53.98,57.64-55.457,40.085-1.268,27.745,61.991,96.579,43.586C295.362,55.585,316.656,47.8,328.9,67.054c19.141,30.1-35.591,63.656-8.337,74.2s95.57,6.266,76.349,52.331c-19.877,47.636-174.906,22.294-269.888,31.1" transform="translate(-0.275 -0.423)" fill="#b0c2e5"/>
        <path id="Trazado_876688" data-name="Trazado 876688" d="M124.113,217.759S99.2,97.155,52.591,96.857,39.15,176.8,106.149,223.309Z" transform="translate(-0.517 -1.625)" fill="#20997c"/>
        <path id="Trazado_876689" data-name="Trazado 876689" d="M124.727,226.093c-26.5-17.76-66.57-101.776-67.1-102.83l.82-.293c.531,1.06,40.5,84.874,66.8,102.506Z" transform="translate(-0.967 -2.063)" fill="#178369"/>
        <path id="Trazado_876690" data-name="Trazado 876690" d="M82.373,171.2c-2.766.379-6.325-.836-10.619-3.628l.513-.626c4.9,3.18,8.71,4.221,11.322,3.086,4.312-1.878,4.063-9.118,4.064-9.188l.9.007c.011.32.259,7.81-4.535,9.893a6.045,6.045,0,0,1-1.644.456" transform="translate(-1.204 -2.698)" fill="#178369"/>
        <path id="Trazado_876691" data-name="Trazado 876691" d="M68.863,146.524c-2.766.38-6.324-.831-10.622-3.622l.514-.632c4.905,3.2,8.715,4.23,11.319,3.091,4.314-1.874,4.072-9.118,4.068-9.193l.9.012c.018.323.264,7.813-4.531,9.9a6.324,6.324,0,0,1-1.646.446" transform="translate(-0.977 -2.284)" fill="#178369"/>
        <path id="Trazado_876692" data-name="Trazado 876692" d="M60.707,132.282c-2.766.38-6.328-.846-10.62-3.632l.509-.631c4.9,3.19,8.717,4.224,11.322,3.091,4.313-1.88,4.069-9.124,4.063-9.193l.9.017c.015.313.264,7.8-4.531,9.887a6.068,6.068,0,0,1-1.642.461" transform="translate(-0.84 -2.045)" fill="#178369"/>
        <path id="Trazado_876693" data-name="Trazado 876693" d="M76.374,160.026c-2.312.317-5.282-.7-8.86-3.018l.516-.625c4.03,2.617,7.171,3.484,9.3,2.546,3.522-1.531,3.33-7.5,3.327-7.554l.895.012c.015.264.222,6.512-3.793,8.254a4.987,4.987,0,0,1-1.387.386" transform="translate(-1.133 -2.539)" fill="#178369"/>
        <path id="Trazado_876694" data-name="Trazado 876694" d="M89.393,183.384c-2.766.38-6.327-.842-10.618-3.629l.509-.635c4.9,3.2,8.707,4.226,11.318,3.091,4.311-1.873,4.072-9.119,4.065-9.192l.9.016c.017.319.264,7.8-4.529,9.893a6.186,6.186,0,0,1-1.646.456" transform="translate(-1.322 -2.903)" fill="#178369"/>
        <path id="Trazado_876695" data-name="Trazado 876695" d="M96.4,197.905c-2.764.379-6.328-.836-10.623-3.623l.511-.63c4.9,3.184,8.719,4.223,11.322,3.085,4.314-1.875,4.067-9.113,4.066-9.188l.9.012c.016.309.263,7.8-4.532,9.888a6.155,6.155,0,0,1-1.643.456" transform="translate(-1.439 -3.146)" fill="#178369"/>
        <path id="Trazado_876696" data-name="Trazado 876696" d="M103.889,208.212c-2,.274-4.565-.6-7.648-2.608l.516-.627c3.432,2.24,6.1,2.966,7.9,2.188,2.995-1.3,2.82-6.383,2.82-6.432l.9.017c.01.224.188,5.614-3.286,7.127a4.824,4.824,0,0,1-1.2.335" transform="translate(-1.615 -3.368)" fill="#178369"/>
        <path id="Trazado_876697" data-name="Trazado 876697" d="M110.706,228.677c-11.376-51.59-53.174-68.824-53.594-68.994l-.816,1.933c.411.165,41.184,17.023,52.312,67.5Z" transform="translate(-0.944 -2.679)" fill="#59b45a"/>
        <path id="Trazado_876698" data-name="Trazado 876698" d="M60.737,162.568c.409-.075-6.071-9.982-10.541-7.761s3.159,9.113,10.541,7.761" transform="translate(-0.82 -2.592)" fill="#59b45a"/>
        <path id="Trazado_876699" data-name="Trazado 876699" d="M68.326,166.708c.365.195,1.808-11.468-3.093-12.513s-3.494,9,3.093,12.513" transform="translate(-1.045 -2.586)" fill="#59b45a"/>
        <path id="Trazado_876700" data-name="Trazado 876700" d="M78.194,174.1c.31.271,4.473-10.754-.049-12.87s-5.529,7.971.049,12.87" transform="translate(-1.248 -2.7)" fill="#59b45a"/>
        <path id="Trazado_876701" data-name="Trazado 876701" d="M87.108,182.342c.309.271,4.472-10.754-.049-12.87s-5.53,7.971.049,12.87" transform="translate(-1.397 -2.838)" fill="#59b45a"/>
        <path id="Trazado_876702" data-name="Trazado 876702" d="M94.153,191.691c.24.331,6.8-9.524,2.872-12.563s-7.2,6.583-2.872,12.563" transform="translate(-1.545 -2.995)" fill="#59b45a"/>
        <path id="Trazado_876703" data-name="Trazado 876703" d="M100.871,201.886c.24.331,6.8-9.525,2.872-12.563s-7.2,6.584-2.872,12.563" transform="translate(-1.658 -3.166)" fill="#59b45a"/>
        <path id="Trazado_876704" data-name="Trazado 876704" d="M104.963,211.141c.157.376,8.824-7.794,5.7-11.614s-8.535,4.84-5.7,11.614" transform="translate(-1.747 -3.332)" fill="#59b45a"/>
        <path id="Trazado_876705" data-name="Trazado 876705" d="M70.026,167.884c.31.271-10.522,5.439-13.148,1.276s7.571-6.177,13.148-1.276" transform="translate(-0.947 -2.768)" fill="#59b45a"/>
        <path id="Trazado_876706" data-name="Trazado 876706" d="M80.276,176.818c.325.253-10.165,6.05-13.045,2.048s7.174-6.611,13.045-2.048" transform="translate(-1.119 -2.926)" fill="#59b45a"/>
        <path id="Trazado_876707" data-name="Trazado 876707" d="M88.4,184.651c.309.271-10.522,5.44-13.149,1.277s7.571-6.178,13.149-1.277" transform="translate(-1.255 -3.05)" fill="#59b45a"/>
        <path id="Trazado_876708" data-name="Trazado 876708" d="M96.594,195.506c.27.307-11.148,4.09-13.209-.365s8.317-5.187,13.209.365" transform="translate(-1.394 -3.214)" fill="#59b45a"/>
        <path id="Trazado_876709" data-name="Trazado 876709" d="M102.268,205.591c.248.325-11.416,3.312-13.15-1.273s8.672-4.6,13.15,1.273" transform="translate(-1.492 -3.372)" fill="#59b45a"/>
        <path id="Trazado_876710" data-name="Trazado 876710" d="M104.04,218.354S67.071,163.3,43.868,172.168,53.5,214.46,96.253,224.586Z" transform="translate(-0.607 -2.872)" fill="#178369"/>
        <path id="Trazado_876711" data-name="Trazado 876711" d="M113.7,226.983c-19.581-4.307-61.6-43.566-62.16-44.056l.405-.355c.559.495,42.473,39.658,61.911,43.935Z" transform="translate(-0.865 -3.063)" fill="#116851"/>
        <path id="Trazado_876712" data-name="Trazado 876712" d="M77.314,205.051c-1.512.845-3.864.944-7.017.3l.149-.479c3.6.736,6.051.479,7.295-.769,2.052-2.062.183-6.2.167-6.241l.522-.2c.083.183,2.009,4.467-.272,6.757a3.687,3.687,0,0,1-.844.635" transform="translate(-1.179 -3.316)" fill="#116851"/>
        <path id="Trazado_876713" data-name="Trazado 876713" d="M63.612,193.806c-1.512.845-3.862.947-7.016.3l.147-.483c3.6.742,6.057.482,7.295-.766,2.053-2.06.189-6.2.169-6.245l.522-.2c.087.184,2.014,4.468-.268,6.759a3.831,3.831,0,0,1-.849.63" transform="translate(-0.949 -3.127)" fill="#116851"/>
        <path id="Trazado_876714" data-name="Trazado 876714" d="M55.5,187.395c-1.512.845-3.868.94-7.017.294l.145-.48c3.6.74,6.056.479,7.3-.767,2.053-2.063.185-6.205.166-6.243l.524-.194c.084.179,2.01,4.458-.271,6.753a3.682,3.682,0,0,1-.842.637" transform="translate(-0.813 -3.02)" fill="#116851"/>
        <path id="Trazado_876715" data-name="Trazado 876715" d="M71.174,199.944c-1.264.706-3.227.788-5.852.252l.15-.479c2.959.606,4.984.4,6-.625,1.675-1.683.147-5.1.13-5.129l.521-.195c.072.149,1.679,3.722-.232,5.64a3.076,3.076,0,0,1-.713.537" transform="translate(-1.096 -3.251)" fill="#116851"/>
        <path id="Trazado_876716" data-name="Trazado 876716" d="M84.283,210.526c-1.513.845-3.867.942-7.016.3l.145-.484c3.6.746,6.051.483,7.293-.764,2.053-2.06.188-6.2.167-6.244l.527-.195c.085.181,2.009,4.462-.27,6.755a3.7,3.7,0,0,1-.845.636" transform="translate(-1.296 -3.408)" fill="#116851"/>
        <path id="Trazado_876717" data-name="Trazado 876717" d="M91.8,217.359c-1.511.844-3.866.945-7.017.3l.146-.481c3.6.738,6.058.478,7.295-.769,2.053-2.061.188-6.2.169-6.242l.523-.195c.083.174,2.011,4.461-.272,6.752a3.689,3.689,0,0,1-.843.635" transform="translate(-1.422 -3.523)" fill="#116851"/>
        <path id="Trazado_876718" data-name="Trazado 876718" d="M98.585,221.657c-1.093.611-2.787.682-5.051.216l.149-.48c2.522.522,4.24.341,5.1-.517,1.425-1.431.114-4.335.1-4.364l.526-.194c.059.127,1.445,3.21-.207,4.871a2.9,2.9,0,0,1-.618.467" transform="translate(-1.569 -3.629)" fill="#116851"/>
        <path id="Trazado_876719" data-name="Trazado 876719" d="M263.2,215.212s22.088-106.934,63.417-107.2,11.916,70.884-47.49,112.12Z" transform="translate(-4.416 -1.812)" fill="#20997c"/>
        <path id="Trazado_876720" data-name="Trazado 876720" d="M263.044,222.6c23.494-15.747,59.025-90.24,59.5-91.174l-.728-.261c-.47.939-35.91,75.254-59.231,90.887Z" transform="translate(-4.405 -2.201)" fill="#178369"/>
        <path id="Trazado_876721" data-name="Trazado 876721" d="M301.367,173.928c2.452.336,5.608-.74,9.415-3.216l-.456-.556c-4.344,2.819-7.722,3.742-10.038,2.736-3.824-1.666-3.6-8.085-3.6-8.147l-.8.007c-.009.283-.229,6.924,4.02,8.771a5.345,5.345,0,0,0,1.458.4" transform="translate(-4.964 -2.764)" fill="#178369"/>
        <path id="Trazado_876722" data-name="Trazado 876722" d="M313.346,152.051c2.452.336,5.606-.737,9.417-3.211l-.455-.56c-4.349,2.833-7.729,3.749-10.038,2.74-3.824-1.662-3.608-8.085-3.606-8.151l-.794.01c-.017.287-.236,6.928,4.016,8.777a5.621,5.621,0,0,0,1.461.4" transform="translate(-5.165 -2.397)" fill="#178369"/>
        <path id="Trazado_876723" data-name="Trazado 876723" d="M320.578,139.424c2.452.336,5.61-.749,9.416-3.22l-.452-.56c-4.345,2.829-7.728,3.745-10.039,2.74-3.824-1.667-3.606-8.089-3.6-8.15l-.8.015c-.012.277-.234,6.913,4.017,8.766a5.392,5.392,0,0,0,1.456.409" transform="translate(-5.286 -2.185)" fill="#178369"/>
        <path id="Trazado_876724" data-name="Trazado 876724" d="M306.728,164.023c2.049.281,4.682-.619,7.855-2.676l-.457-.556c-3.574,2.321-6.358,3.089-8.247,2.257-3.123-1.358-2.954-6.645-2.951-6.7l-.793.011c-.013.234-.2,5.773,3.363,7.319a4.456,4.456,0,0,0,1.231.342" transform="translate(-5.069 -2.623)" fill="#178369"/>
        <path id="Trazado_876725" data-name="Trazado 876725" d="M295.142,184.733c2.452.336,5.609-.745,9.414-3.217l-.452-.563c-4.342,2.833-7.72,3.746-10.035,2.74-3.822-1.661-3.609-8.085-3.6-8.15l-.8.014c-.015.283-.233,6.919,4.016,8.772a5.455,5.455,0,0,0,1.46.4" transform="translate(-4.859 -2.945)" fill="#178369"/>
        <path id="Trazado_876726" data-name="Trazado 876726" d="M288.931,197.609c2.45.335,5.611-.74,9.419-3.212l-.453-.559c-4.348,2.824-7.732,3.745-10.039,2.735-3.826-1.662-3.605-8.08-3.6-8.146l-.8.011c-.014.273-.234,6.919,4.017,8.767a5.444,5.444,0,0,0,1.457.4" transform="translate(-4.755 -3.161)" fill="#178369"/>
        <path id="Trazado_876727" data-name="Trazado 876727" d="M282.36,206.748c1.773.243,4.047-.533,6.78-2.313l-.457-.556c-3.044,1.986-5.407,2.63-7.005,1.94-2.655-1.155-2.5-5.659-2.5-5.7l-.8.016c-.01.2-.167,4.977,2.912,6.318a4.23,4.23,0,0,0,1.069.3" transform="translate(-4.67 -3.357)" fill="#178369"/>
        <path id="Trazado_876728" data-name="Trazado 876728" d="M275.676,224.893c10.086-45.743,47.148-61.023,47.519-61.173l.723,1.713c-.364.147-36.515,15.094-46.382,59.85Z" transform="translate(-4.625 -2.747)" fill="#59b45a"/>
        <path id="Trazado_876729" data-name="Trazado 876729" d="M320.624,166.277c-.363-.067,5.384-8.85,9.347-6.882s-2.8,8.081-9.347,6.882" transform="translate(-5.379 -2.669)" fill="#59b45a"/>
        <path id="Trazado_876730" data-name="Trazado 876730" d="M313.977,169.948c-.323.172-1.6-10.169,2.743-11.095s3.1,7.978-2.743,11.095" transform="translate(-5.26 -2.664)" fill="#59b45a"/>
        <path id="Trazado_876731" data-name="Trazado 876731" d="M305.238,176.5c-.274.241-3.966-9.534.043-11.411s4.9,7.066-.043,11.411" transform="translate(-5.09 -2.765)" fill="#59b45a"/>
        <path id="Trazado_876732" data-name="Trazado 876732" d="M297.334,183.81c-.273.241-3.965-9.534.044-11.411s4.9,7.066-.044,11.411" transform="translate(-4.958 -2.888)" fill="#59b45a"/>
        <path id="Trazado_876733" data-name="Trazado 876733" d="M291.083,192.1c-.212.294-6.031-8.445-2.547-11.139s6.385,5.837,2.547,11.139" transform="translate(-4.822 -3.027)" fill="#59b45a"/>
        <path id="Trazado_876734" data-name="Trazado 876734" d="M285.127,201.138c-.213.294-6.031-8.446-2.547-11.139s6.385,5.837,2.547,11.139" transform="translate(-4.722 -3.179)" fill="#59b45a"/>
        <path id="Trazado_876735" data-name="Trazado 876735" d="M281.483,209.344c-.14.332-7.824-6.911-5.05-10.3s7.568,4.291,5.05,10.3" transform="translate(-4.627 -3.325)" fill="#59b45a"/>
        <path id="Trazado_876736" data-name="Trazado 876736" d="M312.363,170.991c-.274.24,9.33,4.823,11.658,1.132s-6.712-5.477-11.658-1.132" transform="translate(-5.24 -2.826)" fill="#59b45a"/>
        <path id="Trazado_876737" data-name="Trazado 876737" d="M303.275,178.912c-.288.224,9.013,5.363,11.567,1.815s-6.36-5.861-11.567-1.815" transform="translate(-5.088 -2.966)" fill="#59b45a"/>
        <path id="Trazado_876738" data-name="Trazado 876738" d="M296.069,185.857c-.273.241,9.33,4.824,11.658,1.133s-6.712-5.478-11.658-1.133" transform="translate(-4.967 -3.075)" fill="#59b45a"/>
        <path id="Trazado_876739" data-name="Trazado 876739" d="M288.808,195.481c-.241.272,9.883,3.626,11.711-.323s-7.374-4.6-11.711.323" transform="translate(-4.845 -3.221)" fill="#59b45a"/>
        <path id="Trazado_876740" data-name="Trazado 876740" d="M283.779,204.424c-.22.289,10.122,2.938,11.659-1.129s-7.69-4.08-11.659,1.129" transform="translate(-4.761 -3.361)" fill="#59b45a"/>
        <path id="Trazado_876741" data-name="Trazado 876741" d="M281.383,215.741s32.779-48.818,53.353-40.951-8.543,37.5-46.448,46.477Z" transform="translate(-4.721 -2.918)" fill="#178369"/>
        <path id="Trazado_876742" data-name="Trazado 876742" d="M272.9,223.391c17.362-3.819,54.619-38.628,55.116-39.062l-.36-.315c-.5.438-37.659,35.164-54.892,38.955Z" transform="translate(-4.576 -3.087)" fill="#116851"/>
        <path id="Trazado_876743" data-name="Trazado 876743" d="M305.97,203.945c1.341.749,3.427.837,6.221.262l-.132-.424c-3.188.653-5.365.424-6.468-.681-1.819-1.829-.162-5.5-.147-5.535l-.464-.176c-.073.162-1.781,3.96.242,5.991a3.275,3.275,0,0,0,.748.563" transform="translate(-5.104 -3.312)" fill="#116851"/>
        <path id="Trazado_876744" data-name="Trazado 876744" d="M318.119,193.974c1.341.748,3.425.84,6.222.266l-.132-.428c-3.194.659-5.369.427-6.468-.679-1.82-1.827-.166-5.5-.149-5.538l-.463-.173c-.077.163-1.786,3.96.238,5.993a3.424,3.424,0,0,0,.752.558" transform="translate(-5.308 -3.144)" fill="#116851"/>
        <path id="Trazado_876745" data-name="Trazado 876745" d="M325.315,188.29c1.341.749,3.429.834,6.223.261l-.129-.426c-3.191.657-5.369.425-6.469-.679-1.82-1.829-.164-5.5-.147-5.536l-.465-.171c-.073.157-1.782,3.952.241,5.986a3.263,3.263,0,0,0,.746.565" transform="translate(-5.429 -3.049)" fill="#116851"/>
        <path id="Trazado_876746" data-name="Trazado 876746" d="M311.436,199.416c1.121.626,2.861.7,5.188.223l-.133-.425c-2.623.538-4.42.354-5.316-.555-1.486-1.492-.13-4.517-.115-4.547l-.462-.173c-.064.133-1.489,3.3.205,5a2.694,2.694,0,0,0,.632.476" transform="translate(-5.2 -3.254)" fill="#116851"/>
        <path id="Trazado_876747" data-name="Trazado 876747" d="M299.791,208.8c1.341.749,3.428.835,6.222.263l-.129-.429c-3.19.661-5.364.428-6.467-.677-1.82-1.827-.166-5.5-.148-5.538l-.467-.172c-.076.16-1.782,3.956.239,5.989a3.315,3.315,0,0,0,.749.564" transform="translate(-5 -3.393)" fill="#116851"/>
        <path id="Trazado_876748" data-name="Trazado 876748" d="M293.127,214.857c1.34.748,3.428.839,6.222.266l-.129-.427c-3.192.655-5.371.424-6.468-.682-1.821-1.826-.166-5.5-.15-5.534l-.464-.173c-.073.153-1.783,3.955.242,5.986a3.27,3.27,0,0,0,.747.563" transform="translate(-4.889 -3.495)" fill="#116851"/>
        <path id="Trazado_876749" data-name="Trazado 876749" d="M287.148,218.668c.969.542,2.472.606,4.479.192l-.133-.426c-2.236.463-3.759.3-4.52-.458-1.263-1.268-.1-3.843-.091-3.868l-.466-.172c-.053.113-1.282,2.846.183,4.318a2.575,2.575,0,0,0,.549.414" transform="translate(-4.796 -3.589)" fill="#116851"/>
        <path id="Trazado_876750" data-name="Trazado 876750" d="M161.392,44.565l.224-9.931-11.864-2.956a2.763,2.763,0,0,1-1.9-1.737q-.271-.715-.582-1.411a2.647,2.647,0,0,1,.194-2.57l6.78-10.019-6.8-7.239-10.413,6.137a3.2,3.2,0,0,1-2.993.1q-.962-.448-1.964-.822a3.2,3.2,0,0,1-2.052-2.272L127.355,0h-9.934L114.75,11.861a3.467,3.467,0,0,1-2.069,2.479q-.662.263-1.306.558a3.463,3.463,0,0,1-3.192-.2L98.017,8.7l-6.8,7.239,6.254,9.243a4.038,4.038,0,0,1,.381,3.834c-.048.111-.094.223-.14.336a4.034,4.034,0,0,1-2.945,2.434L83.944,33.972,83.721,43.9l11.561,2.88a3.41,3.41,0,0,1,2.315,2.1c.007.017.014.033.02.05a3.391,3.391,0,0,1-.294,3.174L90.93,61.559l6.8,7.239,9.6-5.657a3.108,3.108,0,0,1,3.017-.033q.845.438,1.723.815a3.1,3.1,0,0,1,1.836,2.143l2.5,11.095h9.934l2.274-10.095a3.013,3.013,0,0,1,2.086-2.189,26.717,26.717,0,0,0,2.631-.977,2.994,2.994,0,0,1,2.726.13l9.853,5.807,6.8-7.24-5.721-8.453a3.132,3.132,0,0,1-.166-3.155q.513-1.047.939-2.141a3.137,3.137,0,0,1,2.279-1.991ZM126.166,56.8A17.881,17.881,0,1,1,140.2,42.766,17.9,17.9,0,0,1,126.166,56.8" transform="translate(-1.405)" fill="#dbe4f4"/>
        <path id="Trazado_876751" data-name="Trazado 876751" d="M386.39,227.482c0,5.923-86.5,10.724-193.2,10.724S0,233.4,0,227.482s86.5-10.724,193.195-10.724,193.2,4.8,193.2,10.724" transform="translate(0 -3.636)" fill="#1e3f72"/>
        <path id="Trazado_876752" data-name="Trazado 876752" d="M286.969,208.342a11.884,11.884,0,0,1-11.938,11.829H143.743a11.881,11.881,0,0,1-11.934-11.829V27.9a11.88,11.88,0,0,1,11.934-11.826H275.03A11.882,11.882,0,0,1,286.969,27.9Z" transform="translate(-2.211 -0.27)" fill="#142480"/>
        <path id="Trazado_876753" data-name="Trazado 876753" d="M293.344,208.342a11.884,11.884,0,0,1-11.938,11.829H150.118a11.881,11.881,0,0,1-11.934-11.829V27.9a11.88,11.88,0,0,1,11.934-11.826H281.405A11.882,11.882,0,0,1,293.344,27.9Z" transform="translate(-2.318 -0.27)" fill="#355ddc"/>
        <path id="Trazado_876754" data-name="Trazado 876754" d="M280.1,182.429a11.5,11.5,0,0,1-11.488,11.5H169.607a11.493,11.493,0,0,1-11.482-11.5V46.112a11.492,11.492,0,0,1,11.482-11.5h99.009a11.5,11.5,0,0,1,11.488,11.5Z" transform="translate(-2.653 -0.581)" fill="#d4e6ed"/>
        <path id="Trazado_876755" data-name="Trazado 876755" d="M273.969,182.429a11.5,11.5,0,0,1-11.488,11.5H163.472a11.493,11.493,0,0,1-11.482-11.5V46.112a11.492,11.492,0,0,1,11.482-11.5h99.009a11.5,11.5,0,0,1,11.488,11.5Z" transform="translate(-2.55 -0.581)" fill="#e7f4fa"/>
        <path id="Trazado_876756" data-name="Trazado 876756" d="M243.343,25.522a1.58,1.58,0,0,1-1.586,1.575H185.265a1.572,1.572,0,1,1,0-3.144h56.492a1.577,1.577,0,0,1,1.586,1.569" transform="translate(-3.081 -0.402)" fill="#142480"/>
        <path id="Trazado_876757" data-name="Trazado 876757" d="M225.286,212.987H211.676a1.085,1.085,0,0,1-1.082-1.081v-5.119a1.085,1.085,0,0,1,1.082-1.081h13.611a1.084,1.084,0,0,1,1.081,1.081v5.119a1.084,1.084,0,0,1-1.081,1.081" transform="translate(-3.533 -3.451)" fill="#142480"/>
        <rect id="Rectángulo_413565" data-name="Rectángulo 413565" width="84.333" height="21.672" transform="translate(94.675 203.015)" fill="#4f7ee2"/>
        <rect id="Rectángulo_413566" data-name="Rectángulo 413566" width="84.333" height="21.672" transform="translate(111.164 181.343)" fill="#4b4a74"/>
        <rect id="Rectángulo_413567" data-name="Rectángulo 413567" width="84.333" height="21.672" transform="translate(130.01 159.671)" fill="#4f7ee2"/>
        <path id="Trazado_876758" data-name="Trazado 876758" d="M200.265,162.4h-21.2v21.672H160.218V205.74h-16.49v21.672H244.551V162.4Z" transform="translate(-2.411 -2.724)" fill="#80bafa"/>
        <path id="Trazado_876759" data-name="Trazado 876759" d="M231.913,162.4a37.267,37.267,0,0,1,1.472,10.318c0,26.93-29.108,48.762-65.017,48.762a83.944,83.944,0,0,1-24.641-3.634v9.571H244.552V162.4Z" transform="translate(-2.411 -2.724)" fill="#70abff"/>
        <path id="Trazado_876760" data-name="Trazado 876760" d="M72.819,149.508c.52-1.672.3-3.764-1.473-4.545-1.008-.442-2.245.572-3.2,1.595-2.288,2.452-7.439,13.979-4.57,16.865,2.708,2.723,7.6-8.629,9.24-13.915" transform="translate(-1.052 -2.43)" fill="#fbb99d"/>
        <path id="Trazado_876761" data-name="Trazado 876761" d="M72.107,165.628s5.3,2.6,5.727,2.937c2.719,2.167,4.471,2.687,3.875,3.04-1.1.649-4.775-1.062-5.329-1.309a25.235,25.235,0,0,1-2.871-1.6c-.539-.389-1.4-3.069-1.4-3.069" transform="translate(-1.21 -2.779)" fill="#fbb99d"/>
        <path id="Trazado_876762" data-name="Trazado 876762" d="M63.81,163.883c2.558,2.46,12.419,6.331,12.419,6.331v-2.889l-9.8-7.819s-5.174,1.914-2.617,4.376" transform="translate(-1.059 -2.676)" fill="#fbb99d"/>
        <path id="Trazado_876763" data-name="Trazado 876763" d="M94.563,222.867s-.875,4.418-.552,5.136c.966,2.142,8.847,3.311,11.651,2.174.392-.158.843-.8.134-1.732s-5.036-2.491-4.548-4.308-6.685-1.269-6.685-1.269" transform="translate(-1.576 -3.738)" fill="#e8a32b"/>
        <path id="Trazado_876764" data-name="Trazado 876764" d="M89.5,163.855l-11.932,5.189c1.155,5.026,4.508,12.726,6.712,17.5l-.035,0,4.393,9.106a9.409,9.409,0,0,1,.869,3.021L92.087,221.4a3.247,3.247,0,0,0,1.609,2.508,9.994,9.994,0,0,0,7.421.989c4.673-1.262,2.479-29.058,1.527-32.489-1.688-6.087-6.213-16.257-6.3-16.521Z" transform="translate(-1.301 -2.749)" fill="#6c4967"/>
        <path id="Trazado_876765" data-name="Trazado 876765" d="M60.436,220.675s-2.86,3.455-2.787,4.259,8.929,8.056,8.929,8.056a1.249,1.249,0,0,0,.9-1.465c-.182-1.2-3.161-4.855-1.925-6.209s-5.114-4.641-5.114-4.641" transform="translate(-0.967 -3.702)" fill="#ca8623"/>
        <path id="Trazado_876766" data-name="Trazado 876766" d="M58.213,224.355c1.955-.182,9.813,7.653,8.764,8.5-1.55,1.251-7.082-2.906-8.581-5.366-1.67-2.741-.184-3.134-.184-3.134" transform="translate(-0.966 -3.764)" fill="#e8a32b"/>
        <path id="Trazado_876767" data-name="Trazado 876767" d="M83.33,167.257l-11.867-2.839c-1.308,4.995-3.34,13.889-3.62,19.21l-.032-.015-.37,10.246a9.488,9.488,0,0,1-.633,3.094l-8.22,21.21a3.435,3.435,0,0,0,.245,3.03,10.609,10.609,0,0,0,6,4.727c4.646,1.328,15.529-24.114,16.281-27.608,1.332-6.2,2.077-17.445,2.123-17.721Z" transform="translate(-0.979 -2.758)" fill="#6c4967"/>
        <path id="Trazado_876768" data-name="Trazado 876768" d="M89.728,169.265c.731,2.182,2.8,7.591,5.939,6.446.421-.153.264-.843-.163-.687-2.608.951-4.473-4.083-5.088-5.922-.144-.427-.832-.268-.687.163" transform="translate(-1.505 -2.833)" fill="#5b3c58"/>
        <path id="Trazado_876769" data-name="Trazado 876769" d="M81.529,177.788A16.109,16.109,0,0,0,82.96,184.7c.207.482.926.094.719-.385a15.191,15.191,0,0,1-1.335-6.5.408.408,0,0,0-.815-.029" transform="translate(-1.368 -2.976)" fill="#5b3c58"/>
        <path id="Trazado_876770" data-name="Trazado 876770" d="M84.417,128.766c.88,2.1,1.876,9.049-2.5,9.323-1.865.118-4.7-3.39-5.2-6.762-.213-1.387,1.026-3.441,3.31-4.5a3.3,3.3,0,0,1,4.388,1.939" transform="translate(-1.287 -2.123)" fill="#fbb99d"/>
        <path id="Trazado_876771" data-name="Trazado 876771" d="M84.266,134.762s-2.506,2.981,0,5.434-6.567,1.266-6.567,1.266l1.039-8.838Z" transform="translate(-1.304 -2.225)" fill="#fbb99d"/>
        <path id="Trazado_876772" data-name="Trazado 876772" d="M65.008,150.256s3.243-10.366,7.885-8.971-.54,12.208-.54,12.208-5.339-.634-7.346-3.237" transform="translate(-1.091 -2.368)" fill="#fec44f"/>
        <path id="Trazado_876773" data-name="Trazado 876773" d="M85.433,140.089A21.8,21.8,0,0,0,72.375,141c-6.289,2.533-.519,12.638.088,14.26,3.166,8.444-1.95,7.935-.945,9.841,1.8,3.421,10.552,3.842,16.055,1.925,2.151-.749,3.881-2.139,3.348-3.093-3.792-6.786-.768-10.159-.954-14.639-.191-4.592-.411-8.212-4.536-9.2" transform="translate(-1.165 -2.34)" fill="#feb801"/>
        <path id="Trazado_876774" data-name="Trazado 876774" d="M91.167,145.557c-1.127-1.341-3-2.288-4.621-1.216-.917.609-.731,2.2-.385,3.552.827,3.25,6.921,13.113,11.538,13.051,3.839-.052-2.97-11.15-6.532-15.387" transform="translate(-1.441 -2.414)" fill="#fbb99d"/>
        <path id="Trazado_876775" data-name="Trazado 876775" d="M87.563,152.542s-6.971-8.329-3.289-11.483,9.981,7.051,9.981,7.051-3.418,4.149-6.692,4.432" transform="translate(-1.396 -2.356)" fill="#feb801"/>
        <path id="Trazado_876776" data-name="Trazado 876776" d="M79.928,124.207c3.327.266,4.377,2.793,2.958,5.65-2.256,4.536,3.791,2.869.613,7.793-2.521,3.9-.343,3.1.536,7.838,1.009,5.436-9.945,10.229-17.327,3.724-3.619-3.19-7.562-7.605-.137-14.75,2.3-2.21,4.336-1.979,6-6.059.99-2.424,2.459-4.59,7.355-4.2" transform="translate(-1.046 -2.083)" fill="#53424d"/>
        <path id="Trazado_876777" data-name="Trazado 876777" d="M106.313,153.785s3.133-3.6,3.966-3.133-1.8,2.489-1.8,2.489Z" transform="translate(-1.784 -2.527)" fill="#fbb99d"/>
        <path id="Trazado_876778" data-name="Trazado 876778" d="M104.277,154.918s5.052-3.059,5.565-3.233c3.293-1.117,3.966-1.665,3.942-.972-.047,1.273-2.745,3.1-3.252,3.438a22.424,22.424,0,0,1-2.916,1.245c-.617.243-3.339-.478-3.339-.478" transform="translate(-1.749 -2.523)" fill="#fbb99d"/>
        <path id="Trazado_876779" data-name="Trazado 876779" d="M98.676,161c4.159-1.05,11.722-7.1,11.722-7.1l-2.185-.895-11.672,3.454s-1.307,5.413,2.135,4.543" transform="translate(-1.616 -2.567)" fill="#fbb99d"/>
        <path id="Trazado_876780" data-name="Trazado 876780" d="M164.7,136.283a5.836,5.836,0,0,0,5.833,5.844H298.789a5.841,5.841,0,0,0,5.843-5.844V55.855a5.842,5.842,0,0,0-5.843-5.843H170.534a5.836,5.836,0,0,0-5.833,5.843Z" transform="translate(-2.763 -0.839)" fill="#d4e6ed"/>
        <path id="Trazado_876781" data-name="Trazado 876781" d="M170.534,50.013H298.789a5.841,5.841,0,0,1,5.843,5.843V66.7H164.7V55.856a5.835,5.835,0,0,1,5.833-5.843" transform="translate(-2.763 -0.839)" fill="#bfd7f5"/>
        <path id="Trazado_876782" data-name="Trazado 876782" d="M292.615,58.508a2.9,2.9,0,1,0,2.9-2.9,2.9,2.9,0,0,0-2.9,2.9" transform="translate(-4.909 -0.933)" fill="#fff"/>
        <path id="Trazado_876783" data-name="Trazado 876783" d="M285.159,58.508a2.9,2.9,0,1,0,2.909-2.9,2.9,2.9,0,0,0-2.909,2.9" transform="translate(-4.784 -0.933)" fill="#fff"/>
        <path id="Trazado_876784" data-name="Trazado 876784" d="M277.97,58.508a2.9,2.9,0,1,0,2.9-2.9,2.9,2.9,0,0,0-2.9,2.9" transform="translate(-4.663 -0.933)" fill="#fff"/>
        <path id="Trazado_876785" data-name="Trazado 876785" d="M170.447,136.283a5.836,5.836,0,0,0,5.833,5.844H304.535a5.841,5.841,0,0,0,5.843-5.844V55.855a5.842,5.842,0,0,0-5.843-5.843H176.28a5.836,5.836,0,0,0-5.833,5.843Z" transform="translate(-2.859 -0.839)" fill="#fff"/>
        <path id="Trazado_876786" data-name="Trazado 876786" d="M176.28,50.013H304.535a5.841,5.841,0,0,1,5.843,5.843V66.7H170.447V55.856a5.836,5.836,0,0,1,5.833-5.843" transform="translate(-2.859 -0.839)" fill="#c9e1f9"/>
        <path id="Trazado_876787" data-name="Trazado 876787" d="M298.361,58.508a2.9,2.9,0,1,0,2.9-2.9,2.9,2.9,0,0,0-2.9,2.9" transform="translate(-5.005 -0.933)" fill="#fff"/>
        <path id="Trazado_876788" data-name="Trazado 876788" d="M290.906,58.508a2.9,2.9,0,1,0,2.909-2.9,2.9,2.9,0,0,0-2.909,2.9" transform="translate(-4.88 -0.933)" fill="#fff"/>
        <path id="Trazado_876789" data-name="Trazado 876789" d="M283.717,58.508a2.9,2.9,0,1,0,2.9-2.9,2.9,2.9,0,0,0-2.9,2.9" transform="translate(-4.76 -0.933)" fill="#fff"/>
        <rect id="Rectángulo_413568" data-name="Rectángulo 413568" width="109.572" height="4.571" transform="translate(183.783 75.351)" fill="#cde1e8"/>
        <rect id="Rectángulo_413569" data-name="Rectángulo 413569" width="109.572" height="4.571" transform="translate(183.783 83.89)" fill="#cde1e8"/>
        <rect id="Rectángulo_413570" data-name="Rectángulo 413570" width="109.572" height="4.571" transform="translate(183.783 103.814)" fill="#cde1e8"/>
        <rect id="Rectángulo_413571" data-name="Rectángulo 413571" width="109.572" height="4.571" transform="translate(183.783 112.353)" fill="#cde1e8"/>
        <path id="Trazado_876790" data-name="Trazado 876790" d="M144,177.687s1.52,3.762,1.368,4.452c-.455,2.057-7.006,4.4-9.608,3.866-.364-.076-.862-.566-.417-1.511s3.883-3.042,3.148-4.569S144,177.687,144,177.687" transform="translate(-2.268 -2.981)" fill="#e8a32b"/>
        <path id="Trazado_876791" data-name="Trazado 876791" d="M141.045,149.558s19.1-5.91,22.385-8.028c4.833-3.114,3.822-11.149-1.729-14.749-3.818-2.476-35.179,13.832-34.9,21.488.256,6.944,14.242,1.289,14.242,1.289" transform="translate(-2.127 -2.123)" fill="#5b3c58"/>
        <path id="Trazado_876792" data-name="Trazado 876792" d="M135.38,179.619c-3.058-6.335-9.939-26.9-8.327-32.127,1.742-5.649,9.056-2.459,11.318,4.987,1.466,4.826,6.21,21.237,7.186,25.775.237,1.1-2.478,2.416-4.21,2.768-.042.009-5.083.428-5.967-1.4" transform="translate(-2.127 -2.426)" fill="#5b3c58"/>
        <path id="Trazado_876793" data-name="Trazado 876793" d="M139.681,180.731c-.112-.261-11.242-26.212-9.735-32.41,1.923-7.846,22.346-16.943,22.551-17.034l-.191-.43c-.851.376-20.873,9.305-22.817,17.353-1.544,6.35,9.3,31.634,9.76,32.708Z" transform="translate(-2.17 -2.195)" fill="#6c4967"/>
        <path id="Trazado_876794" data-name="Trazado 876794" d="M181.29,144.765s-6.339-14.517-8.353-18.275c-6.146-11.471-17.007-6.738-20.5-.172-2.4,4.514,20.2,35.582,28.092,34.628,7.153-.864.762-16.181.762-16.181" transform="translate(-2.554 -2.005)" fill="#6c4967"/>
        <path id="Trazado_876795" data-name="Trazado 876795" d="M202.4,135.478s2.6-2.814,3.249-2.962c1.938-.441,6.584,4.2,7.174,6.642.084.341-.136.965-1.121.966s-4.163-2.087-5.17-.846-4.132-3.8-4.132-3.8" transform="translate(-3.396 -2.223)" fill="#e8a32b"/>
        <path id="Trazado_876796" data-name="Trazado 876796" d="M207.521,141.729c-4.174,5.165-21.464,18.72-26.576,19.45-5.525.792-4.658-6.507.786-11.441,3.528-3.2,17.041-13.482,20.522-16.146.844-.647,3.061,1.141,4.06,2.477.025.033,2.415,4.167,1.208,5.659" transform="translate(-2.973 -2.239)" fill="#6c4967"/>
        <path id="Trazado_876797" data-name="Trazado 876797" d="M169.017,125.974c-.459,1.68-1.789,5.857-4.215,5.126-.324-.1-.235-.626.094-.527,2.013.608,3.207-3.277,3.595-4.693.089-.328.616-.238.526.094" transform="translate(-2.761 -2.108)" fill="#5b3c58"/>
        <path id="Trazado_876798" data-name="Trazado 876798" d="M205.362,135.322l-.331-.315c-.186.2-18.8,19.722-25.684,20.493-5.014.564-18.257-23.391-18.392-23.631l-.4.219c.548,1,13.527,24.46,18.842,23.865,7.045-.791,25.2-19.823,25.964-20.632" transform="translate(-2.694 -2.212)" fill="#5b3c58"/>
        <path id="Trazado_876799" data-name="Trazado 876799" d="M135.6,123.351c-.345.664-1.841,8.713-4.209,9.52-1.716.584-4.938-4.211-4.938-4.211s2.456-.311,2.96-6.995c.426-5.633,6.186,1.686,6.186,1.686" transform="translate(-2.121 -2.005)" fill="#cc8c71"/>
        <path id="Trazado_876800" data-name="Trazado 876800" d="M130.521,133.224c-4.029,1.007-16.355-.782-16.355-.782l1.763-2.1,14.1-2.1s4.517,3.971.489,4.982" transform="translate(-1.915 -2.151)" fill="#cc8c71"/>
        <path id="Trazado_876801" data-name="Trazado 876801" d="M116.436,129.886a3.86,3.86,0,0,1-.487-.778,4.9,4.9,0,0,0-1.219-1.164c-.252-.188-.559-.88-.948-.771-.638.178.187,1.189.285,1.468a.654.654,0,0,1-.156.745.817.817,0,0,1-.519.1,16.5,16.5,0,0,1-1.7-.234c-.294-.044-.587-.069-.883-.1a3.188,3.188,0,0,0-.723-.1.3.3,0,0,0-.254.388c.066.16.234.134.376.172.317.088.631.183.945.28.07.022.4.075.427.15.142.364-.738.232-.878.218a1.752,1.752,0,0,0-1.047.116.161.161,0,0,0-.094.1c-.013.076.07.13.141.158.42.165.889.174,1.3.349.068.029.143.075.149.147.027.293-.563.327-.755.356-.122.017-.271.051-.3.17a.2.2,0,0,0,.1.2.6.6,0,0,0,.226.078,5.766,5.766,0,0,0,.7.13c.114.008.451,0,.474.156a.108.108,0,0,1-.03.084.614.614,0,0,1-.3.144c-.106.034-.22.1-.232.214-.014.138.135.232.265.276a5.151,5.151,0,0,0,1.49.159q.788.021,1.574-.03c.985-.064,1.963-.337,2.95-.312a1.716,1.716,0,0,0,.443-.02,1.147,1.147,0,0,0,.652-.506,1.816,1.816,0,0,0,.263-1.536c-.051-.161-.132-.5-.295-.557a1.466,1.466,0,0,0-.476.043,3.686,3.686,0,0,1-.541.02,1.629,1.629,0,0,1-.929-.332" transform="translate(-1.838 -2.133)" fill="#cc8c71"/>
        <path id="Trazado_876802" data-name="Trazado 876802" d="M133.674,109.861c1.205-2.633,3.322-4.678,5.635-3.761,1.313.52,2.438,3.122,2.3,4.972-.263,3.555-2.5,11.644-6.373,16.407-1.418,1.745-7.132.748-6.584-3.065.72-5,3.324-10.845,5.021-14.554" transform="translate(-2.158 -1.776)" fill="#ef7bab"/>
        <path id="Trazado_876803" data-name="Trazado 876803" d="M134.782,111.245c-1.981-5.006,6.167-9.584,11.658-12.8,3.7-2.165,6.783-2.159,11.487,4,1.85,2.423,11.658,17.09,11.514,17.962-.827,5.008-21.12,14.437-23.476,10.244a85.9,85.9,0,0,1-11.182-19.411" transform="translate(-2.256 -1.63)" fill="#fa8fb8"/>
        <path id="Trazado_876804" data-name="Trazado 876804" d="M138.993,94.254s-3.711,5.611-3.074,5.739.938,1.348,1.66,2.109a5.97,5.97,0,0,1,1.162,3.745c.056,1.071,1.628.875,2.577.242,4.085-2.729,5-6.151,3.178-6.553-4.1-.9-5.5-5.282-5.5-5.282" transform="translate(-2.279 -1.581)" fill="#cc8c71"/>
        <path id="Trazado_876805" data-name="Trazado 876805" d="M137.58,102.095c-.722-.76-1.021-1.983-1.659-2.109s3.367-6.182,3.367-6.182a5.12,5.12,0,0,0,1.028,2.853,19.862,19.862,0,0,1-1.977,6.774,4.12,4.12,0,0,0-.759-1.337" transform="translate(-2.279 -1.574)" fill="#bf7c64"/>
        <path id="Trazado_876806" data-name="Trazado 876806" d="M128.841,93.385c-.481,3.208,2.667,9.579,6.853,9.983,2.3.222,4.853-4.905,3.976-9.429a8.307,8.307,0,0,0-4.686-4.483c-1.422-.585-5.643.594-6.143,3.929" transform="translate(-2.161 -1.498)" fill="#cc8b6e"/>
        <path id="Trazado_876807" data-name="Trazado 876807" d="M130.388,99.238c.293.294-2.442-3.326-.849-5.314.649-.808,1.242.129,2.156-.644.782-.66,1.53-4.263,4.94.9.163.249.6.3.88.394.345.113.492,1,.751,1.259s.25-1.259.479-1c.349.4.727,2.1,1.413,1.708.817-.462-.473-3.428-2.166-5.724-.435-.591-1.978-3.038-2.374-3.506-.841-1-6.767,2.079-8.766,4.041-1.181,1.159.734,2.457,1.325,3.853a12.025,12.025,0,0,0,2.21,4.03" transform="translate(-2.122 -1.462)" fill="#fedcd6"/>
        <path id="Trazado_876808" data-name="Trazado 876808" d="M137.42,95.8s.185-2.483,1.252-2.865,2,2.636.206,3.847-1.557-.264-1.458-.982" transform="translate(-2.304 -1.558)" fill="#cc8b6e"/>
        <path id="Trazado_876809" data-name="Trazado 876809" d="M135.442,96.707c.017-.051-.023.053-.031.071a1.015,1.015,0,0,1-.134.212.509.509,0,0,1-.715.053c-.155-.089-.283.169-.129.259a.851.851,0,0,0,1.288-.548c.059-.175-.221-.22-.279-.047" transform="translate(-2.254 -1.621)" fill="#1e100c"/>
        <path id="Trazado_876810" data-name="Trazado 876810" d="M132.479,98.057a.985.985,0,0,1-.071.318c-.132.321-.4.3-.676.181-.165-.072-.295.186-.129.259a.738.738,0,0,0,.963-.147,1.179,1.179,0,0,0,.2-.635c.008-.183-.277-.155-.285.026" transform="translate(-2.207 -1.643)" fill="#1e100c"/>
        <path id="Trazado_876811" data-name="Trazado 876811" d="M131.067,97.34a.86.86,0,0,1,1.144-.288c.2.094.327-.23.126-.324a1.191,1.191,0,0,0-1.553.409c-.126.185.156.389.282.2" transform="translate(-2.194 -1.621)" fill="#552b19"/>
        <path id="Trazado_876812" data-name="Trazado 876812" d="M133.929,96.219a.862.862,0,0,1,1.024-.588c.221.036.253-.31.032-.346a1.189,1.189,0,0,0-1.382.814c-.072.212.255.332.326.12" transform="translate(-2.241 -1.598)" fill="#552b19"/>
        <path id="Trazado_876813" data-name="Trazado 876813" d="M133.1,97.1a1.735,1.735,0,0,1,.631.732c.171.434-.1.9-.1,1.363.012.633.5.639,1.088.4.144-.059.084-.252-.059-.193-1.328.542-.5-1.009-.687-1.593a1.84,1.84,0,0,0-.718-.888c-.105-.075-.265.105-.159.18" transform="translate(-2.232 -1.626)" fill="#bf7c64"/>
        <path id="Trazado_876814" data-name="Trazado 876814" d="M136.744,100.673s-.049,1.2-1.033,1.087-.97-1.184-.97-1.184Z" transform="translate(-2.26 -1.687)" fill="#faffff"/>
        <path id="Trazado_876815" data-name="Trazado 876815" d="M137.335,97.957a.676.676,0,1,1-.861-.412.675.675,0,0,1,.861.412" transform="translate(-2.282 -1.636)" fill="#c1775d"/>
        <path id="Trazado_876816" data-name="Trazado 876816" d="M131.778,100.179a.684.684,0,1,1,.51.821.683.683,0,0,1-.51-.821" transform="translate(-2.21 -1.672)" fill="#c1775d"/>
        <path id="Trazado_876817" data-name="Trazado 876817" d="M142.4,115.367c-.645.459-5.948,7.326-8.571,6.941-1.9-.279-2.62-6.359-2.62-6.359s2.466.9,6.175-5.163c3.125-5.1,5.016,4.582,5.016,4.582" transform="translate(-2.201 -1.834)" fill="#cc8c71"/>
        <path id="Trazado_876818" data-name="Trazado 876818" d="M132.88,122.234c-4.287-1-15.042-8.646-15.042-8.646l2.678-1.128,14.312,4.84s2.338,5.929-1.948,4.934" transform="translate(-1.977 -1.887)" fill="#cc8c71"/>
        <path id="Trazado_876819" data-name="Trazado 876819" d="M121.219,112.26a4.134,4.134,0,0,1-.083-.969,5.214,5.214,0,0,0-.586-1.687c-.147-.3-.1-1.1-.522-1.185-.687-.141-.4,1.211-.44,1.523a.693.693,0,0,1-.508.626.87.87,0,0,1-.538-.156,17.727,17.727,0,0,1-1.49-1.042c-.256-.185-.519-.349-.786-.517a3.35,3.35,0,0,0-.636-.44.322.322,0,0,0-.427.244c-.015.183.156.239.271.344.257.235.507.477.756.721.054.054.337.263.328.348-.042.412-.808-.138-.933-.219a1.865,1.865,0,0,0-1.043-.4.174.174,0,0,0-.139.052c-.048.065,0,.156.056.217.316.359.754.594,1.061.961a.223.223,0,0,1,.07.21c-.117.29-.69.036-.884-.029-.123-.042-.281-.083-.366.015a.217.217,0,0,0-.01.24.632.632,0,0,0,.176.182,6.087,6.087,0,0,0,.6.464c.1.062.425.22.372.377a.118.118,0,0,1-.07.064.65.65,0,0,1-.349-.009.316.316,0,0,0-.322.09c-.08.123.015.283.117.388a5.427,5.427,0,0,0,1.327.871c.488.266.989.511,1.5.732.96.416,2.014.63,2.931,1.133a1.846,1.846,0,0,0,.428.2,1.218,1.218,0,0,0,.859-.162,1.923,1.923,0,0,0,.991-1.32c.029-.178.116-.536-.01-.669-.091-.1-.345-.139-.469-.189a4.032,4.032,0,0,1-.52-.243,1.731,1.731,0,0,1-.715-.763" transform="translate(-1.918 -1.818)" fill="#cc8c71"/>
        <path id="Trazado_876820" data-name="Trazado 876820" d="M147.024,101.756c2.409-1.9,5.395-2.8,7.132-.821.985,1.125.789,4.123-.235,5.8-1.97,3.224-7.993,9.768-13.947,12.388-2.181.96-7.084-2.744-4.724-6.074,3.1-4.37,8.381-8.618,11.774-11.293" transform="translate(-2.258 -1.675)" fill="#ef7bab"/>
      </g>
    </g>
  </g>
</svg>
