<svg xmlns="http://www.w3.org/2000/svg" xmlns:xlink="http://www.w3.org/1999/xlink" width="99.001" height="98.908" viewBox="0 0 99.001 98.908">
  <defs>
    <clipPath id="clip-path">
      <rect id="Rectángulo_413470" data-name="Rectángulo 413470" width="52.768" height="52.772" fill="#12263f"/>
    </clipPath>
  </defs>
  <g id="Grupo_1116004" data-name="Grupo 1116004" transform="translate(-731.999 -833)">
    <g id="Grupo_1115362" data-name="Grupo 1115362" transform="translate(345.332 -4504)">
      <rect id="Rectángulo_412780" data-name="Rectángulo 412780" width="93.637" height="93.545" rx="20" transform="translate(389.349 5339.695)" fill="#b0c2e5"/>
      <g id="Grupo_1114814" data-name="Grupo 1114814" transform="translate(386.667 5337)">
        <path id="Trazado_875775" data-name="Trazado 875775" d="M245.284,301.406A1.288,1.288,0,0,1,244,300.118v-3.863a6.445,6.445,0,0,1,6.438-6.438h30.644a9.024,9.024,0,0,0,9.013-9.013V250.216a6.445,6.445,0,0,1,6.438-6.438h3.863a1.288,1.288,0,1,1,0,2.575h-3.863a3.867,3.867,0,0,0-3.863,3.863V280.8a11.6,11.6,0,0,1-11.588,11.588H250.434a3.867,3.867,0,0,0-3.863,3.863v3.863a1.288,1.288,0,0,1-1.288,1.288" transform="translate(-202.679 -202.498)" fill="#12263f"/>
        <path id="Trazado_875777" data-name="Trazado 875777" d="M1.288,57.628A1.288,1.288,0,0,1,0,56.34V52.477a6.445,6.445,0,0,1,6.438-6.438H37.082A9.024,9.024,0,0,0,46.1,37.026V6.438A6.445,6.445,0,0,1,52.533,0H56.4a1.288,1.288,0,0,1,0,2.575H52.533a3.867,3.867,0,0,0-3.863,3.863V37.026A11.6,11.6,0,0,1,37.082,48.614H6.438a3.867,3.867,0,0,0-3.863,3.863V56.34a1.288,1.288,0,0,1-1.288,1.288" transform="translate(57.684 57.628) rotate(180)" fill="#12263f"/>
      </g>
    </g>
    <g id="Grupo_1115687" data-name="Grupo 1115687" transform="translate(757.232 856.066)">
      <path id="Trazado_876506" data-name="Trazado 876506" d="M92.179,36.2H65.006V26.044H92.179Zm-1.715-8.442H66.589v6.727H90.464Z" transform="translate(-56.431 -22.608)" fill="#12263f"/>
      <rect id="Rectángulo_413467" data-name="Rectángulo 413467" width="27.173" height="1.715" transform="translate(8.575 18.737)" fill="#12263f"/>
      <rect id="Rectángulo_413468" data-name="Rectángulo 413468" width="22.028" height="1.715" transform="translate(8.575 22.167)" fill="#12263f"/>
      <rect id="Rectángulo_413469" data-name="Rectángulo 413469" width="17.807" height="1.715" transform="translate(8.575 15.308)" fill="#12263f"/>
      <g id="Grupo_1115686" data-name="Grupo 1115686" transform="translate(0 0.001)">
        <g id="Grupo_1115685" data-name="Grupo 1115685" transform="translate(0 0)" clip-path="url(#clip-path)">
          <path id="Trazado_876507" data-name="Trazado 876507" d="M248.367,168.044v1.715h-3.232c-.323,0-.165-1.418-.2-1.715Z" transform="translate(-212.62 -145.878)" fill="#12263f"/>
          <path id="Trazado_876508" data-name="Trazado 876508" d="M0,2.842A3.65,3.65,0,0,1,3.1.007L35.819,0a3.5,3.5,0,0,1,3.344,3.12l.013,15.617a4.6,4.6,0,0,1,4.332,1.8,7.276,7.276,0,0,1,.681,1.561v3.3a1.323,1.323,0,0,0,.2.2h6.2a5.983,5.983,0,0,1,1.24.738,3.112,3.112,0,0,1,.8,3.145C49.683,36.24,47.822,44,44.78,50.655a3.045,3.045,0,0,1-2.763,2.117L2.473,52.736A3.106,3.106,0,0,1,0,50.065L0,19.2a4.481,4.481,0,0,1,5.143-3.893V12.075a1.324,1.324,0,0,0-.2-.2H0Zm5.144,7.321V3.237A1.812,1.812,0,0,0,3,1.751c-.421.086-1.283.823-1.283,1.222v7.189ZM10.092,25.6H37.264a1.324,1.324,0,0,0,.2-.2V3.105c0-.364-.88-1.385-1.253-1.385H6.332A4.7,4.7,0,0,1,6.86,3.105v27.37L8.332,26.87A3.81,3.81,0,0,1,10.092,25.6M5.145,17.021a3.048,3.048,0,0,0-2.959,1.064,6.137,6.137,0,0,0-.47.981v25.26l3.43-8.9ZM39.177,25.6h3.232a1.324,1.324,0,0,0,.2-.2V22.759a5.657,5.657,0,0,0-.6-1.378,3.073,3.073,0,0,0-2.829-.931ZM10.783,27.21c-.455.122-.925.269-1.086.761C7.029,35.243,4.2,42.48,1.7,49.8a1.344,1.344,0,0,0,1.129,1.256c13.2-.079,26.43.13,39.61-.106l.7-.751,7.916-21.509c.092-.976-.772-1.485-1.652-1.521Z" transform="translate(0 0)" fill="#12263f"/>
          <path id="Trazado_876509" data-name="Trazado 876509" d="M236.647,335.044l-2.572,5.144H222.006l2.7-5.144Zm-11.871,3.43h8.244a9.108,9.108,0,0,0,.8-1.446.237.237,0,0,0-.141-.269h-8.112Z" transform="translate(-192.722 -290.85)" fill="#12263f"/>
        </g>
      </g>
    </g>
  </g>
</svg>
