<svg xmlns="http://www.w3.org/2000/svg" xmlns:xlink="http://www.w3.org/1999/xlink" width="99" height="98.908" viewBox="0 0 99 98.908">
  <defs>
    <clipPath id="clip-path">
      <rect id="Rect치ngulo_413474" data-name="Rect치ngulo 413474" width="56.216" height="54.085" fill="#12263f"/>
    </clipPath>
  </defs>
  <g id="Grupo_1116008" data-name="Grupo 1116008" transform="translate(5767.21 10769.815)">
    <g id="Grupo_1115365" data-name="Grupo 1115365" transform="translate(-6153.878 -16106.815)">
      <rect id="Rect치ngulo_412780" data-name="Rect치ngulo 412780" width="93.637" height="93.545" rx="20" transform="translate(389.349 5339.695)" fill="#b0c2e5"/>
      <g id="Grupo_1114814" data-name="Grupo 1114814" transform="translate(386.667 5337)">
        <path id="Trazado_875775" data-name="Trazado 875775" d="M245.284,301.406A1.288,1.288,0,0,1,244,300.118v-3.863a6.445,6.445,0,0,1,6.438-6.438h30.644a9.024,9.024,0,0,0,9.013-9.013V250.216a6.445,6.445,0,0,1,6.438-6.438h3.863a1.288,1.288,0,1,1,0,2.575h-3.863a3.867,3.867,0,0,0-3.863,3.863V280.8a11.6,11.6,0,0,1-11.588,11.588H250.434a3.867,3.867,0,0,0-3.863,3.863v3.863a1.288,1.288,0,0,1-1.288,1.288" transform="translate(-202.679 -202.498)" fill="#12263f"/>
        <path id="Trazado_875777" data-name="Trazado 875777" d="M1.288,57.628A1.288,1.288,0,0,1,0,56.34V52.477a6.445,6.445,0,0,1,6.438-6.438H37.082A9.024,9.024,0,0,0,46.1,37.026V6.438A6.445,6.445,0,0,1,52.533,0H56.4a1.288,1.288,0,0,1,0,2.575H52.533a3.867,3.867,0,0,0-3.863,3.863V37.026A11.6,11.6,0,0,1,37.082,48.614H6.438a3.867,3.867,0,0,0-3.863,3.863V56.34a1.288,1.288,0,0,1-1.288,1.288" transform="translate(57.684 57.628) rotate(180)" fill="#12263f"/>
      </g>
    </g>
    <g id="Grupo_1115695" data-name="Grupo 1115695" transform="translate(-5746.319 -10747.404)">
      <g id="Grupo_1115694" data-name="Grupo 1115694" clip-path="url(#clip-path)">
        <path id="Trazado_876527" data-name="Trazado 876527" d="M2.247,268.482a1.124,1.124,0,1,1-1.123-1.123,1.123,1.123,0,0,1,1.123,1.123" transform="translate(0 -229.831)" fill="#12263f"/>
        <path id="Trazado_876528" data-name="Trazado 876528" d="M8.274,20.506A2.565,2.565,0,0,1,7.8,20c-.487-.929.237-1.658,1.168-1.744,2.449-.225,5.216.2,7.7-.02a23.088,23.088,0,0,1,12.569-7.994c-.024-.4.109-2.651,0-2.772-.03-.035-.617-.176-.869-.324A3.76,3.76,0,0,1,29.752.154,62.918,62.918,0,0,1,38.458.148a3.742,3.742,0,0,1,1.512,7c-.252.147-.839.289-.869.324-.107.122.03,2.376,0,2.773A22.28,22.28,0,0,1,53.707,42.5c-.481.881-1.449,2.89-2.627,1.6-.867-.953.135-1.682.57-2.53C62.152,21.079,37.024,2.31,20.695,17.2,4.309,32.152,21.54,59.132,42.268,50.148a35.258,35.258,0,0,1,3.348-1.722,1.159,1.159,0,0,1,.841,1.98A11.805,11.805,0,0,1,44.7,51.459,22.241,22.241,0,0,1,13.515,39.9L5.67,39.814a1.168,1.168,0,0,1-.062-2.324H12.7a21.087,21.087,0,0,1-.561-4.071c-1.109-.17-5.039.359-5.716-.319a1.138,1.138,0,0,1,.6-1.917c.741-.116,4.79.157,4.968-.016l.568-4.2H.975c-.757,0-1.255-1.929.03-2.216l12.232-.05,1.844-4.191ZM29.78,2.428a1.506,1.506,0,0,0,.119,2.91c2.594-.272,6.059.4,8.546,0a1.5,1.5,0,0,0,0-2.932Zm7.059,5.164H31.715A1.408,1.408,0,0,0,31.5,7.8V9.838a28.582,28.582,0,0,1,5.334,0Z" transform="translate(-0.184 0)" fill="#12263f"/>
        <path id="Trazado_876529" data-name="Trazado 876529" d="M155,122.926a17.036,17.036,0,1,1-17.036-17.036A17.036,17.036,0,0,1,155,122.926m-2.246,0a14.784,14.784,0,1,0-14.784,14.784,14.784,14.784,0,0,0,14.784-14.784" transform="translate(-103.954 -91.027)" fill="#12263f"/>
        <path id="Trazado_876530" data-name="Trazado 876530" d="M342.587,326.441a1.127,1.127,0,1,1-1.127-1.127,1.127,1.127,0,0,1,1.127,1.127" transform="translate(-292.562 -279.651)" fill="#12263f"/>
        <path id="Trazado_876531" data-name="Trazado 876531" d="M208.593,169.684c1.8-1.577,3.393-3.442,5.109-5.106a1.131,1.131,0,0,1,1.642,1.539l-5.467,5.476c1.5,3.371-2.513,6.669-5.406,4.147a3.5,3.5,0,0,1-1.11-3.218c.023-.277.281-.638.242-.835-.079-.4-2.279-2.032-2.533-2.651-.5-1.223.484-2.084,1.63-1.49.58.3,2.193,2.408,2.563,2.481a11.921,11.921,0,0,1,1.812-.259c.409.034.911.293,1.127.286.282-.01.259-.254.39-.369m-.664,3.488a1.178,1.178,0,1,0-1.178,1.178,1.178,1.178,0,0,0,1.178-1.178" transform="translate(-172.73 -141.266)" fill="#12263f"/>
        <path id="Trazado_876532" data-name="Trazado 876532" d="M153.769,219.165a1.131,1.131,0,0,1,.116,1.491c-.582.812-3.557.753-2.984-1.161.255-.854,2.317-.883,2.868-.33" transform="translate(-129.657 -188.082)" fill="#12263f"/>
        <path id="Trazado_876533" data-name="Trazado 876533" d="M311.643,218.884c.808-.181,2.36-.047,2.426,1.034.077,1.273-1.423,1.291-2.318,1.186a1.135,1.135,0,0,1-.108-2.219" transform="translate(-267.169 -188.102)" fill="#12263f"/>
        <path id="Trazado_876534" data-name="Trazado 876534" d="M234.885,295.372c1.8-.1,1.548,4.03-.335,3.222-1.155-.5-1.05-3.147.335-3.222" transform="translate(-200.946 -253.91)" fill="#12263f"/>
        <path id="Trazado_876535" data-name="Trazado 876535" d="M234.713,136.036c1.86-.428,1.774,2.44,1.02,2.984-1.775,1.282-2.6-2.621-1.02-2.984" transform="translate(-201.047 -116.904)" fill="#12263f"/>
      </g>
    </g>
  </g>
</svg>
