<svg xmlns="http://www.w3.org/2000/svg" xmlns:xlink="http://www.w3.org/1999/xlink" width="99" height="98.908" viewBox="0 0 99 98.908">
  <defs>
    <clipPath id="clip-path">
      <rect id="Rect치ngulo_413473" data-name="Rect치ngulo 413473" width="60.56" height="54.834" fill="#12263f"/>
    </clipPath>
  </defs>
  <g id="Grupo_1116007" data-name="Grupo 1116007" transform="translate(5996.21 10769.815)">
    <g id="Grupo_1115366" data-name="Grupo 1115366" transform="translate(-6382.878 -16106.815)">
      <rect id="Rect치ngulo_412780" data-name="Rect치ngulo 412780" width="93.637" height="93.545" rx="20" transform="translate(389.349 5339.695)" fill="#b0c2e5"/>
      <g id="Grupo_1114814" data-name="Grupo 1114814" transform="translate(386.667 5337)">
        <path id="Trazado_875775" data-name="Trazado 875775" d="M245.284,301.406A1.288,1.288,0,0,1,244,300.118v-3.863a6.445,6.445,0,0,1,6.438-6.438h30.644a9.024,9.024,0,0,0,9.013-9.013V250.216a6.445,6.445,0,0,1,6.438-6.438h3.863a1.288,1.288,0,1,1,0,2.575h-3.863a3.867,3.867,0,0,0-3.863,3.863V280.8a11.6,11.6,0,0,1-11.588,11.588H250.434a3.867,3.867,0,0,0-3.863,3.863v3.863a1.288,1.288,0,0,1-1.288,1.288" transform="translate(-202.679 -202.498)" fill="#12263f"/>
        <path id="Trazado_875777" data-name="Trazado 875777" d="M1.288,57.628A1.288,1.288,0,0,1,0,56.34V52.477a6.445,6.445,0,0,1,6.438-6.438H37.082A9.024,9.024,0,0,0,46.1,37.026V6.438A6.445,6.445,0,0,1,52.533,0H56.4a1.288,1.288,0,0,1,0,2.575H52.533a3.867,3.867,0,0,0-3.863,3.863V37.026A11.6,11.6,0,0,1,37.082,48.614H6.438a3.867,3.867,0,0,0-3.863,3.863V56.34a1.288,1.288,0,0,1-1.288,1.288" transform="translate(57.684 57.628) rotate(180)" fill="#12263f"/>
      </g>
    </g>
    <g id="Grupo_1115693" data-name="Grupo 1115693" transform="translate(-5976.99 -10747.778)">
      <g id="Grupo_1115692" data-name="Grupo 1115692" clip-path="url(#clip-path)">
        <path id="Trazado_876519" data-name="Trazado 876519" d="M112.333,318.628c-.75-.227-.353-1.908.757-1.666l30.593-.007c.676-.066,1.639.278,1.41,1.108a2.281,2.281,0,0,1-.508.564Z" transform="translate(-94.997 -268.949)" fill="#12263f"/>
        <path id="Trazado_876520" data-name="Trazado 876520" d="M112.465,280.149l8.443-.028a.841.841,0,0,1-.14,1.67l-8.18-.012a.842.842,0,0,1-.123-1.63" transform="translate(-94.946 -237.706)" fill="#12263f"/>
        <path id="Trazado_876521" data-name="Trazado 876521" d="M321.176,217.448c-.667-.458-1.407-1.709-2.173-2.175-.464-.868.074-1.783,1.063-1.328.462.213,1.335,1.71,1.865,1.57l4.3-4.383c1.023-.493,1.877.2,1.191,1.229l-5.148,5.147a.916.916,0,0,1-1.1-.06" transform="translate(-270.557 -179.025)" fill="#12263f"/>
        <path id="Trazado_876522" data-name="Trazado 876522" d="M53.978,27.421a8.621,8.621,0,0,1,3.631,1.669,7.842,7.842,0,0,1-2.172,13.493c-.5,4.168,1.816,11.248-4.027,12.25h-35.6a4.525,4.525,0,0,1-4.156-4.172l-.032-20.106C7.946,27.108,4.036,23.912.235,20.6L0,19.936,17.334,0l.827.249L24,5.272,34.671.383a.893.893,0,0,1,.909.164l3.353,7.321c1.838.118,3.727-.14,5.543.135l6.985,6.946.178.731-.007,11.742c.75.063,1.615-.087,2.347,0M11.243,11.106,22.253,6l-4.54-3.945-.306,0L1.969,19.926l9.686,8.252c-.235-2.885,1.921-4.664,4.7-4.62l-5.3-11.949a.974.974,0,0,1,.185-.5M24.527,24.544V8.57c0-.236.616-.681.833-.681H37.1L34.59,2.281,13.084,12.124l5.105,11.491c1.579.165,3.463-.245,4.975.249.248.081,1.291.763,1.364.68M43.3,9.554H26.193V26.285l3.862,3.709,1.056.458,15.142-.007c1.2-.888,2.145-2.186,3.713-2.571V16.216H45.2c-.7,0-1.893-1.331-1.893-2.044Zm5.451,5c-1.063-1-2.2-2.54-3.33-3.408-.153-.117-.191-.292-.455-.226v3.1a2.321,2.321,0,0,0,.379.53ZM45.423,32.115H30.66c-1.42,0-4.922-4.151-6.13-5.226-.949-.844-1.46-1.479-2.8-1.593a43.243,43.243,0,0,0-6.06.007,2.535,2.535,0,0,0-2.277,1.659l-.078,23.4a2.962,2.962,0,0,0,1.864,2.679c12.2.193,24.509.194,36.713,0a3.21,3.21,0,0,0,1.79-2.3c.384-2.248-.128-5.162.046-7.482-.086-.308-1.117-.063-1.566-.1a7.964,7.964,0,0,1-6.74-11.05M58.9,35.254a6.22,6.22,0,1,0-6.22,6.22,6.22,6.22,0,0,0,6.22-6.22" fill="#12263f"/>
        <path id="Trazado_876523" data-name="Trazado 876523" d="M207.238,117.1c.505.091.628.751.422,1.176-.23.474-.872.465-1.324.5-5.3.366-11.016-.287-16.359-.007-1.725-.194-1.118-1.666-.757-1.666Z" transform="translate(-160.225 -99.366)" fill="#12263f"/>
        <path id="Trazado_876524" data-name="Trazado 876524" d="M189.058,144.528a.915.915,0,0,1,.637-1.486l17.121.005c1.144.025,1.387,1.518.157,1.676-5.545-.363-11.646.456-17.124,0-.235-.02-.623-.026-.79-.193" transform="translate(-160.254 -121.382)" fill="#12263f"/>
        <path id="Trazado_876525" data-name="Trazado 876525" d="M188.977,169.438c.167-.168.555-.174.79-.194,5.473-.463,11.583.365,17.124,0,1.23.158.988,1.651-.157,1.676H189.77a.916.916,0,0,1-.793-1.482" transform="translate(-160.174 -143.495)" fill="#12263f"/>
        <path id="Trazado_876526" data-name="Trazado 876526" d="M189.467,90.084l11.181-.04a.841.841,0,0,1,0,1.681c-3.308.424-7.511-.339-10.918,0a.842.842,0,0,1-.263-1.642" transform="translate(-160.29 -76.41)" fill="#12263f"/>
      </g>
    </g>
  </g>
</svg>
