<svg xmlns="http://www.w3.org/2000/svg" width="122.693" height="123.276" viewBox="0 0 122.693 123.276">
  <g id="Grupo_1110248" data-name="Grupo 1110248" transform="translate(-907.897 -160.671)">
    <g id="Grupo_1110242" data-name="Grupo 1110242" transform="translate(910.356 163.13)">
      <rect id="Rectángulo_403659" data-name="Rectángulo 403659" width="31.179" height="31.179" rx="15.589" transform="translate(64.145 64.73)" fill="#d5c6ea"/>
      <rect id="Rectángulo_403660" data-name="Rectángulo 403660" width="31.179" height="31.179" rx="15.589" transform="translate(89.054 89.639)" fill="#d5c6ea"/>
      <g id="Grupo_1101100" data-name="Grupo 1101100" transform="translate(0 0)">
        <path id="Trazado_875762" data-name="Trazado 875762" d="M10,0H59.943a10,10,0,0,1,10,10V59.943a10,10,0,0,1-10,10H10a10,10,0,0,1-10-10V10A10,10,0,0,1,10,0Z" transform="translate(0)" fill="#d5c6ea"/>
        <g id="Grupo_1101099" data-name="Grupo 1101099" transform="translate(15.059 16.094)">
          <rect id="Rectángulo_403662" data-name="Rectángulo 403662" width="39.826" height="8.384" rx="4.192" fill="#fff"/>
          <rect id="Rectángulo_403663" data-name="Rectángulo 403663" width="39.826" height="8.384" rx="4.192" transform="translate(0 13.625)" fill="#fff"/>
          <rect id="Rectángulo_403664" data-name="Rectángulo 403664" width="39.826" height="8.384" rx="4.192" transform="translate(0 26.201)" fill="#fff"/>
        </g>
      </g>
    </g>
    <g id="Grupo_1110243" data-name="Grupo 1110243" transform="translate(907.897 160.671)">
      <g id="Rectángulo_403659-2" data-name="Rectángulo 403659" transform="translate(64.146 64.73)" fill="none" stroke="#253f72" stroke-width="2">
        <rect width="31.179" height="31.179" rx="15.589" stroke="none"/>
        <rect x="1" y="1" width="29.179" height="29.179" rx="14.589" fill="none"/>
      </g>
      <g id="Rectángulo_403660-2" data-name="Rectángulo 403660" transform="translate(89.055 89.639)" fill="none" stroke="#253f72" stroke-width="2">
        <rect width="31.179" height="31.179" rx="15.589" stroke="none"/>
        <rect x="1" y="1" width="29.179" height="29.179" rx="14.589" fill="none"/>
      </g>
      <g id="Grupo_1101100-2" data-name="Grupo 1101100" transform="translate(0 0)">
        <g id="Rectángulo_403658" data-name="Rectángulo 403658" transform="translate(0)" fill="none" stroke="#253f72" stroke-width="2">
          <rect width="69.943" height="69.943" rx="10" stroke="none"/>
          <rect x="1" y="1" width="67.943" height="67.943" rx="9" fill="none"/>
        </g>
      </g>
    </g>
  </g>
</svg>
