<svg xmlns="http://www.w3.org/2000/svg" xmlns:xlink="http://www.w3.org/1999/xlink" width="123.023" height="122.907" viewBox="0 0 123.023 122.907">
  <defs>
    <clipPath id="clip-path">
      <rect id="Rect치ngulo_413609" data-name="Rect치ngulo 413609" width="67.741" height="56.476" fill="#12263f"/>
    </clipPath>
  </defs>
  <g id="Grupo_1116048" data-name="Grupo 1116048" transform="translate(-3574.842 10112.167)">
    <g id="Grupo_1115418" data-name="Grupo 1115418" transform="translate(3188.175 -15449.167)">
      <rect id="Rect치ngulo_412780" data-name="Rect치ngulo 412780" width="116.357" height="116.243" rx="20" transform="translate(390 5340.349)" fill="#b0c2e5"/>
      <g id="Grupo_1114814" data-name="Grupo 1114814">
        <path id="Trazado_875775" data-name="Trazado 875775" d="M245.6,315.389a1.6,1.6,0,0,1-1.6-1.6v-4.8a8.009,8.009,0,0,1,8-8h38.08a11.213,11.213,0,0,0,11.2-11.2v-38.01a8.009,8.009,0,0,1,8-8h4.8a1.6,1.6,0,1,1,0,3.2h-4.8a4.806,4.806,0,0,0-4.8,4.8v38.01a14.417,14.417,0,0,1-14.4,14.4H252a4.806,4.806,0,0,0-4.8,4.8v4.8a1.6,1.6,0,0,1-1.6,1.6" transform="translate(194.014 5144.519)" fill="#12263f"/>
        <path id="Trazado_875777" data-name="Trazado 875777" d="M245.6,315.389a1.6,1.6,0,0,1-1.6-1.6v-4.8a8.009,8.009,0,0,1,8-8h38.08a11.213,11.213,0,0,0,11.2-11.2v-38.01a8.009,8.009,0,0,1,8-8h4.8a1.6,1.6,0,1,1,0,3.2h-4.8a4.806,4.806,0,0,0-4.8,4.8v38.01a14.417,14.417,0,0,1-14.4,14.4H252a4.806,4.806,0,0,0-4.8,4.8v4.8a1.6,1.6,0,0,1-1.6,1.6" transform="translate(702.344 5652.389) rotate(180)" fill="#12263f"/>
      </g>
    </g>
    <g id="Grupo_1115806" data-name="Grupo 1115806" transform="translate(3602.472 -10078.951)">
      <g id="Grupo_1115805" data-name="Grupo 1115805" clip-path="url(#clip-path)">
        <path id="Trazado_877031" data-name="Trazado 877031" d="M308.307,185.4c2.72-.392,4.409.915,2.684,3.467-1.745,2.582-4.227,4.981-5.993,7.592-1.336,1.083-2.185.707-3.224-.434-1.683-1.85-3.9-4.756-5.379-6.812-.6-.828-1.256-1.461-.9-2.6.42-1.339,2.1-1.293,3.231-1.209v-14.02c0-.352.711-.912,1.123-.967a51.164,51.164,0,0,1,7.487.02c.344.055.969.432.969.773Zm-2.264-12.714h-5.051v14.194c0,.785-2.054.575-2.528.61-.259.019-.5-.135-.431.259l5.485,6.879,5.659-7.051c-.822-.243-3.134.335-3.134-1.044Z" transform="translate(-243.949 -140.629)" fill="#12263f"/>
        <path id="Trazado_877032" data-name="Trazado 877032" d="M250.6,31.194c1.37-.089,3.046-.06,3.412,1.558.254,1.126-.856,2.185-1.5,3.053a68.218,68.218,0,0,1-5.28,6.65,1.943,1.943,0,0,1-2.727-.026l-6.63-8.521c-.65-2.345,1.381-2.956,3.322-2.713V17c0-.334.8-.588,1.121-.62a50.731,50.731,0,0,1,7.335,0c.283.038.949.4.949.619Zm-2.09,1.655V18.741a1.747,1.747,0,0,0-.261-.261h-4.7a1.748,1.748,0,0,0-.261.261V32.674c0,1.063-2.353.683-2.96.87.75.749,5.076,6.792,5.51,6.867s4.864-6.148,5.635-6.867c-.655-.212-2.708.185-2.96-.7" transform="translate(-196.339 -13.417)" fill="#12263f"/>
        <path id="Trazado_877033" data-name="Trazado 877033" d="M36.144,44.772c2.721-.367,4.43.877,2.684,3.467-1.733,2.571-4.242,4.984-5.993,7.592-1.336,1.083-2.185.708-3.224-.434a71.56,71.56,0,0,1-5.907-7.5c-.629-1.042-.713-2.138.431-2.853.66-.413,2.6-.121,2.6-.531V41.2a1.748,1.748,0,0,0-.261-.261H6.275a13.537,13.537,0,0,1-1.425-.491A7.843,7.843,0,0,1,.7,29.97C5.493,21.946,9.833,13.621,14.692,5.642c1.39-2.282,2.2-4.037,4.861-5.066A7.916,7.916,0,0,1,27.876,2.1c4.83,7.615,9.449,15.506,13.871,23.4,2.031,3.625,4.4,6.451,2.558,10.8a7.913,7.913,0,0,1-5.828,4.621c-.425.051-2.332-.13-2.332.28Zm-29-5.922H26.478c.365,0,.365-1.393,0-1.393H6.8a7.662,7.662,0,0,1-1.915-1.046,4.535,4.535,0,0,1-.989-4.993L18.655,5.773a4.327,4.327,0,0,1,7.358-.419L41.155,31.662c1.263,3.424-1.535,6.32-5.012,5.794v1.4A5.741,5.741,0,0,0,42.1,30.545L26.811,4.207a5.688,5.688,0,0,0-8.958.416L2.569,31.138A5.762,5.762,0,0,0,7.146,38.85m29-3.483c1.835.318,3.628-.922,3-2.913-5.085-8.78-10.05-17.654-15.3-26.322-1.71-.966-2.555-.3-3.512,1.141C15.157,15.06,11.084,24.211,5.983,32.114a2.091,2.091,0,0,0,.37,2.652,6.6,6.6,0,0,0,.967.6H26.478a1.748,1.748,0,0,0,.261-.261V30.4c0-.27.838-.579,1.128-.613a48.25,48.25,0,0,1,6.978,0c.434.04,1.3.255,1.3.792ZM33.88,32.058H28.829V46.252c0,.785-2.054.575-2.528.61-.259.019-.5-.135-.431.259L31.613,54l5.4-7.053c-.8-.269-1.79.122-2.573-.2-.207-.086-.562-.906-.562-1.017Z" transform="translate(0 0)" fill="#12263f"/>
        <path id="Trazado_877034" data-name="Trazado 877034" d="M116.234,80.72c1.41.965,2.259,1.84,1.876,3.7-.688,3.344-6.275,2.725-5.692-1.34.177-1.233,1.036-1.667,1.9-2.364-.889-.168-1.3-1.057-1.556-1.842l-.344-10.772c.305-1.822,1.833-2.409,3.54-2.177,3.15.429,2.076,4.371,2.011,6.508-.061,1.986.092,4.509-.182,6.436-.109.771-.707,1.77-1.552,1.846m-.348-12.543h-1.221l.35,10.626.537-.1c.253-3.469.353-7.02.334-10.522m.126,15.5a.736.736,0,1,0-.736.736.736.736,0,0,0,.736-.736" transform="translate(-92.804 -54.407)" fill="#12263f"/>
      </g>
    </g>
  </g>
</svg>
