<svg xmlns="http://www.w3.org/2000/svg" xmlns:xlink="http://www.w3.org/1999/xlink" width="99.001" height="98.908" viewBox="0 0 99.001 98.908">
  <defs>
    <clipPath id="clip-path">
      <rect id="Rect치ngulo_413649" data-name="Rect치ngulo 413649" width="53.203" height="53.206" fill="#12263f"/>
    </clipPath>
  </defs>
  <g id="Grupo_1116057" data-name="Grupo 1116057" transform="translate(-1190.999 -3612)">
    <g id="Grupo_1115444" data-name="Grupo 1115444" transform="translate(804.332 -1725)">
      <rect id="Rect치ngulo_412780" data-name="Rect치ngulo 412780" width="93.637" height="93.545" rx="20" transform="translate(389.349 5339.695)" fill="#b0c2e5"/>
      <g id="Grupo_1114814" data-name="Grupo 1114814" transform="translate(386.667 5337)">
        <path id="Trazado_875775" data-name="Trazado 875775" d="M245.284,301.406A1.288,1.288,0,0,1,244,300.118v-3.863a6.445,6.445,0,0,1,6.438-6.438h30.644a9.024,9.024,0,0,0,9.013-9.013V250.216a6.445,6.445,0,0,1,6.438-6.438h3.863a1.288,1.288,0,1,1,0,2.575h-3.863a3.867,3.867,0,0,0-3.863,3.863V280.8a11.6,11.6,0,0,1-11.588,11.588H250.434a3.867,3.867,0,0,0-3.863,3.863v3.863a1.288,1.288,0,0,1-1.288,1.288" transform="translate(-202.679 -202.498)" fill="#12263f"/>
        <path id="Trazado_875777" data-name="Trazado 875777" d="M1.288,57.628A1.288,1.288,0,0,1,0,56.34V52.477a6.445,6.445,0,0,1,6.438-6.438H37.082A9.024,9.024,0,0,0,46.1,37.026V6.438A6.445,6.445,0,0,1,52.533,0H56.4a1.288,1.288,0,0,1,0,2.575H52.533a3.867,3.867,0,0,0-3.863,3.863V37.026A11.6,11.6,0,0,1,37.082,48.614H6.438a3.867,3.867,0,0,0-3.863,3.863V56.34a1.288,1.288,0,0,1-1.288,1.288" transform="translate(57.684 57.628) rotate(180)" fill="#12263f"/>
      </g>
    </g>
    <g id="Grupo_1115845" data-name="Grupo 1115845" transform="translate(1213.398 3634.852)">
      <g id="Grupo_1115844" data-name="Grupo 1115844" clip-path="url(#clip-path)">
        <path id="Trazado_877299" data-name="Trazado 877299" d="M61.126,73.246c.146-.147.488-.153.694-.17h27.4a.739.739,0,0,1,0,1.476l-28-.072c-.371-.18-.338-.994-.1-1.232" transform="translate(-52.844 -63.359)" fill="#12263f"/>
        <path id="Trazado_877300" data-name="Trazado 877300" d="M79.655,139.376a1.8,1.8,0,0,1-.955.307c-5.485-.387-11.624.49-17.031,0-1.385-.126-1.649-1.3-.4-1.6l17.825-.007a.82.82,0,0,1,.556,1.3" transform="translate(-52.428 -119.715)" fill="#12263f"/>
        <path id="Trazado_877301" data-name="Trazado 877301" d="M61.235,115.381a1.016,1.016,0,0,1,.1-1.233l18.29-.072a.739.739,0,0,1,0,1.476h-17.7c-.206-.018-.547-.023-.694-.17" transform="translate(-52.953 -98.908)" fill="#12263f"/>
        <path id="Trazado_877302" data-name="Trazado 877302" d="M50,22.62h2.194c.24,0,1.108,1,1,1.393l0,25.53a4.016,4.016,0,0,1-3.783,3.663H3.792A4.008,4.008,0,0,1,0,49.416L0,25.608a1.742,1.742,0,0,1,1.133-1.393H3.2V17.368c0-.531,1.6-.809,1.6,0v6.847H27.729c1.224-1.5,2.092-3.313,3.349-4.761l14.57.006a1.593,1.593,0,0,1,1.146,1.513,42.966,42.966,0,0,1,.02,6.372c-.057.671-.206,1.5-1.105,1.236a1.921,1.921,0,0,1-.495-.443V20.891H31.984a3.266,3.266,0,0,0-.442.488c-.911,1.128-1.766,3.092-2.7,4.079-.093.1-.342.352-.446.352H1.6v24A2.948,2.948,0,0,0,3.4,51.6H45.878a5.959,5.959,0,0,1-.67-2.056l0-18.36a.805.805,0,0,1,1.306-.56,6.685,6.685,0,0,1,.3.7V48.414c.3.014,1.6.09,1.6-.332V9.789a1.334,1.334,0,0,0-.2-.2h-3.59a1.831,1.831,0,0,1-1-1V5a1.334,1.334,0,0,0-.2-.2H4.794v9.64c0,.588-1.439.972-1.6-.4-.338-2.906.251-6.458.011-9.435a2.078,2.078,0,0,1,1.255-1.4H6.389c-.035-1.314-.144-3,1.529-3.191L48.344.011A1.685,1.685,0,0,1,50,1.279ZM48.4,1.612H7.985v1.6h36.5L48.4,6.93ZM45.081,6V7.927a1.334,1.334,0,0,0,.2.2h1.928L46.271,7ZM51.6,24.215H50v24a4.441,4.441,0,0,1-.552,1.043,2.868,2.868,0,0,1-2.5.753,2.422,2.422,0,0,0,3.583,1.256A3.663,3.663,0,0,0,51.6,49.81Z" transform="translate(0 0)" fill="#12263f"/>
        <path id="Trazado_877303" data-name="Trazado 877303" d="M42.634,308.756c.621.111.837,1.41-.411,1.583a31.33,31.33,0,0,1-4.906.011,1.693,1.693,0,0,1-1.795-1.795,28.443,28.443,0,0,1,.033-4.75,1.577,1.577,0,0,1,1.287-1.5c3.652.2,8.067-.468,11.642-.059a1.636,1.636,0,0,1,1.466,1.06,36.616,36.616,0,0,1,.067,5.658,1.5,1.5,0,0,1-.813,1.175,8.815,8.815,0,0,1-3.454.159.826.826,0,0,1-.324-1.538h2.925a1.334,1.334,0,0,0,.2-.2v-4.521a1.334,1.334,0,0,0-.2-.2H37.117v4.92Z" transform="translate(-30.728 -261.937)" fill="#12263f"/>
      </g>
    </g>
  </g>
</svg>
