<svg xmlns="http://www.w3.org/2000/svg" xmlns:xlink="http://www.w3.org/1999/xlink" width="99" height="98.908" viewBox="0 0 99 98.908">
  <defs>
    <clipPath id="clip-path">
      <rect id="Rect치ngulo_413650" data-name="Rect치ngulo 413650" width="31.034" height="52.972" fill="#12263f"/>
    </clipPath>
  </defs>
  <g id="Grupo_1116058" data-name="Grupo 1116058" transform="translate(-8051.842 7918)">
    <g id="Grupo_1115445" data-name="Grupo 1115445" transform="translate(7665.175 -13255)">
      <rect id="Rect치ngulo_412780" data-name="Rect치ngulo 412780" width="93.637" height="93.545" rx="20" transform="translate(389.349 5339.695)" fill="#b0c2e5"/>
      <g id="Grupo_1114814" data-name="Grupo 1114814" transform="translate(386.667 5337)">
        <path id="Trazado_875775" data-name="Trazado 875775" d="M245.284,301.406A1.288,1.288,0,0,1,244,300.118v-3.863a6.445,6.445,0,0,1,6.438-6.438h30.644a9.024,9.024,0,0,0,9.013-9.013V250.216a6.445,6.445,0,0,1,6.438-6.438h3.863a1.288,1.288,0,1,1,0,2.575h-3.863a3.867,3.867,0,0,0-3.863,3.863V280.8a11.6,11.6,0,0,1-11.588,11.588H250.434a3.867,3.867,0,0,0-3.863,3.863v3.863a1.288,1.288,0,0,1-1.288,1.288" transform="translate(-202.679 -202.498)" fill="#12263f"/>
        <path id="Trazado_875777" data-name="Trazado 875777" d="M1.288,57.628A1.288,1.288,0,0,1,0,56.34V52.477a6.445,6.445,0,0,1,6.438-6.438H37.082A9.024,9.024,0,0,0,46.1,37.026V6.438A6.445,6.445,0,0,1,52.533,0H56.4a1.288,1.288,0,0,1,0,2.575H52.533a3.867,3.867,0,0,0-3.863,3.863V37.026A11.6,11.6,0,0,1,37.082,48.614H6.438a3.867,3.867,0,0,0-3.863,3.863V56.34a1.288,1.288,0,0,1-1.288,1.288" transform="translate(57.684 57.628) rotate(180)" fill="#12263f"/>
      </g>
    </g>
    <g id="Grupo_1115847" data-name="Grupo 1115847" transform="translate(8085.825 -7895.032)">
      <g id="Grupo_1115846" data-name="Grupo 1115846" clip-path="url(#clip-path)">
        <path id="Trazado_877304" data-name="Trazado 877304" d="M21,32.134h4.955c.052,0,.868.274.992.33A3.527,3.527,0,0,1,28.52,37.07a3.441,3.441,0,0,1,1.39,5.1c-.138.195-.828.778-.828.866,0,.046.249.3.309.463a3.7,3.7,0,0,1-.6,3.634c-.235.258-1,.655-1.043.815-.059.2.221.713.252,1.035a3.352,3.352,0,0,1-3.1,3.9c-5.85-.481-12.3,1.435-17.372-2.2a12.842,12.842,0,0,0-1.425-1.218c-1-.3-3.606.114-4.863-.027-.7-.078-1.137-.349-1.13-1.117.289-4.094-.362-8.662,0-12.7C.188,34.8.566,34.6,1.374,34.512c1.265-.14,3.85.274,4.863-.027a13.617,13.617,0,0,0,1.239-1.14,11.362,11.362,0,0,1,6.784-2.268L14.2,26.444a13.514,13.514,0,0,1-9.606-16.2c.2-.85.638-2.857,1.752-2.756,1.6.145.619,1.85.418,2.68C3.525,23.477,20.339,30.18,27.184,19.621c5.3-8.172-1.379-18.434-10.993-17.468-1.005.1-3.016,1-3.706.9A1.047,1.047,0,0,1,12.1,1.229C12.86.625,15.938.062,16.962.016c14.354-.654,19.526,18.741,6.947,25.315-.94.492-1.936.783-2.91,1.187Zm-2.114-5.286H16.373v5.286h2.511ZM6.925,36.627H2.3a1.326,1.326,0,0,0-.2.2V47.132a1.326,1.326,0,0,0,.2.2H6.793c.495,0,.852.729,1.137.977a9.874,9.874,0,0,0,4.958,2.442l12.346-.043a1.336,1.336,0,0,0,.177-2.305c-.581-.323-2.151-.182-1.686-1.579.493-1.479,3.655.236,3.88-1.816.208-1.9-2.716-.974-2.355-2.733.289-1.412,3.141-.05,3.242-2.034.126-2.5-4.515-.272-4.035-2.591.2-.984,1.3-.713,1.825-1.09a1.333,1.333,0,0,0-.467-2.3l-10.436,0c-1-.117-.946-.916-1.141-1.039-.4-.255-2.577.282-3.121.472a12.327,12.327,0,0,0-4.193,2.943" transform="translate(0 0)" fill="#12263f"/>
        <path id="Trazado_877305" data-name="Trazado 877305" d="M91.009,59.095a3.13,3.13,0,0,1,3.259,4.58,66.335,66.335,0,0,1-5.876,6.018c-2.578,1.816-5.023-.888-6.6-2.763-1.243-1.476-1.626-3.36.014-4.751,1.611-1.366,3.411-.726,4.8.575,1.3-.982,2.755-3.374,4.41-3.659m.263,2.108c-.92.2-3.382,3.716-4.317,4.011-1.567.495-1.929-2.148-3.584-1.6a1.05,1.05,0,0,0-.493,1.3c.169.556,2.641,2.451,3.071,3.139a1.184,1.184,0,0,0,1.006.066l5.391-5.311c.52-.845-.01-1.843-1.074-1.607" transform="translate(-70.046 -51.244)" fill="#12263f"/>
        <path id="Trazado_877306" data-name="Trazado 877306" d="M61.462,28.53a1.035,1.035,0,1,1-1.035-1.035,1.035,1.035,0,0,1,1.035,1.035" transform="translate(-51.544 -23.862)" fill="#12263f"/>
      </g>
    </g>
  </g>
</svg>
