<svg xmlns="http://www.w3.org/2000/svg" xmlns:xlink="http://www.w3.org/1999/xlink" width="99.001" height="98.908" viewBox="0 0 99.001 98.908">
  <defs>
    <clipPath id="clip-path">
      <rect id="Rect치ngulo_413151" data-name="Rect치ngulo 413151" width="61.41" height="53.116" fill="#12263f"/>
    </clipPath>
  </defs>
  <g id="Grupo_1115996" data-name="Grupo 1115996" transform="translate(8348.211 7690.815)">
    <g id="Grupo_1115347" data-name="Grupo 1115347" transform="translate(-8734.878 -13027.815)">
      <rect id="Rect치ngulo_412780" data-name="Rect치ngulo 412780" width="93.637" height="93.545" rx="20" transform="translate(389.349 5339.695)" fill="#b0c2e5"/>
      <g id="Grupo_1114814" data-name="Grupo 1114814" transform="translate(386.667 5337)">
        <path id="Trazado_875775" data-name="Trazado 875775" d="M245.284,301.406A1.288,1.288,0,0,1,244,300.118v-3.863a6.445,6.445,0,0,1,6.438-6.438h30.644a9.024,9.024,0,0,0,9.013-9.013V250.216a6.445,6.445,0,0,1,6.438-6.438h3.863a1.288,1.288,0,1,1,0,2.575h-3.863a3.867,3.867,0,0,0-3.863,3.863V280.8a11.6,11.6,0,0,1-11.588,11.588H250.434a3.867,3.867,0,0,0-3.863,3.863v3.863a1.288,1.288,0,0,1-1.288,1.288" transform="translate(-202.679 -202.498)" fill="#12263f"/>
        <path id="Trazado_875777" data-name="Trazado 875777" d="M1.288,57.628A1.288,1.288,0,0,1,0,56.34V52.477a6.445,6.445,0,0,1,6.438-6.438H37.082A9.024,9.024,0,0,0,46.1,37.026V6.438A6.445,6.445,0,0,1,52.533,0H56.4a1.288,1.288,0,0,1,0,2.575H52.533a3.867,3.867,0,0,0-3.863,3.863V37.026A11.6,11.6,0,0,1,37.082,48.614H6.438a3.867,3.867,0,0,0-3.863,3.863V56.34a1.288,1.288,0,0,1-1.288,1.288" transform="translate(57.684 57.628) rotate(180)" fill="#12263f"/>
      </g>
    </g>
    <g id="Grupo_1115594" data-name="Grupo 1115594" transform="translate(-8329.416 -7670)">
      <g id="Grupo_1115593" data-name="Grupo 1115593" clip-path="url(#clip-path)">
        <path id="Trazado_875998" data-name="Trazado 875998" d="M13.679,3.589A4.122,4.122,0,0,1,17.3,0L37.954.023A4.047,4.047,0,0,1,39.839.9c1.034.819,7.232,7.051,7.6,7.9a6.528,6.528,0,0,1,.152.845c.254.249,5.78-.191,7.085.2.98.3,2.728,1.915,2.728,2.949V44.013h2.224c.656,0,1.666,1.4,1.75,2.085.364,2.974-2.19,6.115-5.044,6.742-16.992.394-34.128.336-51.125.029-2.944-.54-5.758-4-5.113-7.023.125-.584,1.143-1.832,1.7-1.832H4.014V12.793c0-1.085,2.181-3.145,3.3-3.145h6.367c.164-1.918-.221-4.186,0-6.06M37.611,1.824H17.13c-.376,0-1.611,1.174-1.611,1.611V39.717H45.9V36.879c0-.63,1.841-.79,1.841.153v2.685h3.682V15.631H47.736V33.044a6.189,6.189,0,0,1-.345.65c-.431.419-1.5-.041-1.5-.343V10.185a1.54,1.54,0,0,0-.23-.23H40.6c-1.313,0-2.992-2.356-2.992-3.605Zm6.9,6.443L39.452,3.205V6.5c0,.7,1.218,1.764,1.918,1.764ZM13.679,11.489H7.312a2.847,2.847,0,0,0-1.457,1.457V44.013H55.56V12.947A2.848,2.848,0,0,0,54.1,11.489H47.736v2.3h3.912A2.045,2.045,0,0,1,53.154,15.2c.148,8.374.229,16.855-.041,25.215a1.7,1.7,0,0,1-1.321,1.134l-42.415-.06a1.84,1.84,0,0,1-1.221-1.694C8.506,34.231,7.69,28.1,8.15,22.606c.064-.758.329-1.55,1.276-1.272a2.22,2.22,0,0,1,.571.511V39.717h3.682V15.631H10v2.685a.972.972,0,0,1-1.844-.457c-.114-.985-.138-2.951.69-3.612a4.6,4.6,0,0,1,.924-.457h3.912Zm6.6,34.364H2.1c-.342,0-.227,1.154-.19,1.418A4.924,4.924,0,0,0,6.691,51.23l48.329-.009a4.925,4.925,0,0,0,4.487-3.949c.038-.264.153-1.418-.189-1.418H41.139c.23,1.924-.675,3.387-2.678,3.535-5.175.383-10.852-.269-16.078-.043a2.929,2.929,0,0,1-2.108-3.492m1.832,1.7h17.2v-1.7h-17.2Z" transform="translate(0)" fill="#12263f"/>
        <path id="Trazado_875999" data-name="Trazado 875999" d="M126.932,200.909l20.987-.036a.926.926,0,1,1,0,1.847H127.2a.918.918,0,0,1-.271-1.811" transform="translate(-106.855 -170.057)" fill="#12263f"/>
        <path id="Trazado_876000" data-name="Trazado 876000" d="M126.9,167.88l21.3-.037a.853.853,0,0,1,0,1.7H127.169a.866.866,0,0,1-.27-1.665" transform="translate(-106.978 -142.094)" fill="#12263f"/>
        <path id="Trazado_876001" data-name="Trazado 876001" d="M194.932,133.909l10.555-.036c1.3.115,1.368,1.687,0,1.847-3.172.371-7.036-.284-10.284,0a.918.918,0,0,1-.271-1.811" transform="translate(-164.423 -113.335)" fill="#12263f"/>
        <path id="Trazado_876002" data-name="Trazado 876002" d="M195.071,99.255c3.227.216,7.1-.4,10.25-.036,1.348.156,1.584,1.688.153,1.847l-10.585-.006c-1.037-.436-.839-1.491.183-1.805" transform="translate(-164.409 -83.898)" fill="#12263f"/>
        <path id="Trazado_876003" data-name="Trazado 876003" d="M132.066,99.828a.932.932,0,0,1-.5,1.491c-.409.073-1.287-.189-1.433.255-.248,1.582.261,3.854-.025,5.345a.878.878,0,0,1-1.543.321c-.443-.619.068-5.707-.141-5.918-.14-.141-1.781.373-2.088-.609-.211-.675.464-1.162,1.087-1.234a24.071,24.071,0,0,1,3.689,0,2.261,2.261,0,0,1,.953.35" transform="translate(-106.923 -84.157)" fill="#12263f"/>
      </g>
    </g>
  </g>
</svg>
