<svg id="Grupo_1116017" data-name="Grupo 1116017" xmlns="http://www.w3.org/2000/svg" xmlns:xlink="http://www.w3.org/1999/xlink" width="364.968" height="181.706" viewBox="0 0 364.968 181.706">
  <defs>
    <clipPath id="clip-path">
      <rect id="Rectángulo_413564" data-name="Rectángulo 413564" width="364.968" height="181.706" fill="none"/>
    </clipPath>
  </defs>
  <g id="Grupo_1115765" data-name="Grupo 1115765" clip-path="url(#clip-path)">
    <path id="Trazado_876609" data-name="Trazado 876609" d="M7.549,214.506s1.781-3.795-.775-5.808-7.434-4.957-6.118-6.274,2.556,1.781,4.414.93,1.162-11.075-1.085-13.94-4.1-4.569-2.478-6.506,3.1,4.027,5.266,2.788-3.795-9.6-2.4-13.863,5.111-3.64,4.724-.465-.543,9.913,1.394,12.391,6.893-6.118,6.893-1.471-4.569,8.209-4.8,14.56-.93,7.977,1.394,6.583,4.569.388,2.479,2.479-4.414,5.421-3.563,7.9Z" transform="translate(-0.119 -46.024)" fill="#4ca5a2"/>
    <path id="Trazado_876610" data-name="Trazado 876610" d="M8.162,214.657A9.815,9.815,0,0,0,5.43,203.918c-5.228-4.647-6.653-10.945-4.4-11.978s2.495,3.923,4.158,5.576S8.4,194,7.806,191.32s-4.753-6.815-2.138-9.81,2.613,3.2,4.039,4.854,4.159-4.441,3.566-7.435-1.308-9.4,1.663-8.054,3.089,8.054.475,11.875-4.515,6.919-3.921,9.294,1.783,2.272,3.446-.31,3.8-3.1,3.8.31-9.149,12.082-7.129,22.717Z" transform="translate(0 -46.536)" fill="#68bcbc"/>
    <path id="Trazado_876611" data-name="Trazado 876611" d="M13.5,220.467s1.394-7.279.232-13.32-1.007-10.455-.155-11.927" transform="translate(-3.518 -53.223)" fill="none" stroke="#4ca5a2" stroke-linecap="round" stroke-miterlimit="10" stroke-width="1.194"/>
    <path id="Trazado_876612" data-name="Trazado 876612" d="M17.495,244.112l1.114-11.875H3.326l1.113,11.875Z" transform="translate(-0.907 -63.315)" fill="#6097b2"/>
    <path id="Trazado_876613" data-name="Trazado 876613" d="M18.969,232.108l.281-2.995H1.915l.281,2.995Z" transform="translate(-0.522 -62.464)" fill="#8bbddb"/>
    <path id="Trazado_876614" data-name="Trazado 876614" d="M435.112,207.208c14.668,3.242,30.215-6.655,30.4-12.52s-14.073,6.313-16.14.343,15.51-8.367,15.758-14.676-15.542,8.589-16.761,4.557,14.011-13.574,11.748-18.213-11.466,11.682-14.088,9.483,8-17.4,1.6-18.573-5.287,12.818-7.52,15.662-2.1-13.453-5.908-12.2,2.717,16.944.139,19.057-6.417-11.823-10.743-8.607,6.829,12.11,5.764,16.259-8.3-8.248-12.186-4.967,5.645,21.681,17.936,24.4" transform="translate(-113.496 -42.95)" fill="#4ca5a2"/>
    <path id="Trazado_876615" data-name="Trazado 876615" d="M451.672,163.858s-6.647,26.669-14.774,51.081" transform="translate(-119.112 -44.673)" fill="none" stroke="#2c7c78" stroke-linecap="round" stroke-miterlimit="10" stroke-width="1.233"/>
    <path id="Trazado_876616" data-name="Trazado 876616" d="M462.91,190.091s-18.207,8.99-24.172,17.176c0,0,.221-14.584-9.073-24.565" transform="translate(-117.141 -49.81)" fill="none" stroke="#2c7c78" stroke-linecap="round" stroke-miterlimit="10" stroke-width="1.233"/>
    <path id="Trazado_876617" data-name="Trazado 876617" d="M462.136,175.333S448.557,188.29,444.3,197.975c0,0,1.106-17.514-1.723-26.769" transform="translate(-120.66 -46.676)" fill="none" stroke="#2c7c78" stroke-linecap="round" stroke-miterlimit="10" stroke-width="1.233"/>
    <path id="Trazado_876618" data-name="Trazado 876618" d="M462.818,206.788s-24.623,4.079-27.716,8.156c0,0-6.814-15.281-15.278-19.36" transform="translate(-114.457 -53.322)" fill="none" stroke="#2c7c78" stroke-linecap="round" stroke-miterlimit="10" stroke-width="1.233"/>
    <path id="Trazado_876619" data-name="Trazado 876619" d="M448.593,207.127c7.519-5.671,26.743-15.972,34.316-8.812,8.733,8.256-23.18,11.243-23.18,11.243s20.894-.193,21.191,9.317-23.525-2.558-23.525-2.558,12.767,6.05,8.354,9.613-21.855-11.607-26.336-8.353,4.027-6.562,9.181-10.449" transform="translate(-119.454 -53.401)" fill="#68bcbc"/>
    <path id="Trazado_876620" data-name="Trazado 876620" d="M441.773,217.405A70.9,70.9,0,0,1,467.8,203.522a56.057,56.057,0,0,1,10.713-1.891" transform="translate(-120.442 -54.971)" fill="none" stroke="#4ca5a2" stroke-linecap="round" stroke-miterlimit="10" stroke-width="1.233"/>
    <path id="Trazado_876621" data-name="Trazado 876621" d="M441.8,222.472c11.249-4.5,24.317-4.113,34.866,1.449" transform="translate(-120.449 -59.814)" fill="none" stroke="#4ca5a2" stroke-linecap="round" stroke-miterlimit="10" stroke-width="1.233"/>
    <path id="Trazado_876622" data-name="Trazado 876622" d="M441.881,223.82a35.785,35.785,0,0,1,20.527,6.134" transform="translate(-120.471 -61.016)" fill="none" stroke="#4ca5a2" stroke-linecap="round" stroke-miterlimit="10" stroke-width="1.233"/>
    <path id="Trazado_876623" data-name="Trazado 876623" d="M437.681,225.668c1.306-3.834,5.809-6.616,9.308-8.053,8.563-3.518,22.429-6.471,28.922,2.415a11.484,11.484,0,0,1,1.672,10c-1.889,6.116-8.717,8.9-14.534,9.74-7.777,1.123-18.76-.508-23.925-7.133a8.127,8.127,0,0,1-1.762-3.923,6.75,6.75,0,0,1,.318-3.045" transform="translate(-119.225 -58.389)" fill="#4ca5a2"/>
    <path id="Trazado_876624" data-name="Trazado 876624" d="M439.42,231.761s23.865-6.436,36.936-2.031" transform="translate(-119.8 -62.212)" fill="none" stroke="#2c7c78" stroke-linecap="round" stroke-miterlimit="10" stroke-width="1.233"/>
    <path id="Trazado_876625" data-name="Trazado 876625" d="M479.278,233.991s-6.173-7.456-9.669-7.789c0,0,4.972-4.878,8.753-5.975" transform="translate(-128.031 -60.041)" fill="none" stroke="#2c7c78" stroke-linecap="round" stroke-miterlimit="10" stroke-width="1.233"/>
    <path id="Trazado_876626" data-name="Trazado 876626" d="M466.716,216.382s-7.016,4.942-7.173,9.318c0,0,6.263,6.181,8.612,11.086" transform="translate(-125.286 -58.993)" fill="none" stroke="#2c7c78" stroke-linecap="round" stroke-miterlimit="10" stroke-width="1.233"/>
    <path id="Trazado_876627" data-name="Trazado 876627" d="M451.661,220.06s-2.707,5.341-2.291,8a65.065,65.065,0,0,1,6.04,10.227" transform="translate(-122.501 -59.995)" fill="none" stroke="#2c7c78" stroke-linecap="round" stroke-miterlimit="10" stroke-width="1.233"/>
    <path id="Trazado_876628" data-name="Trazado 876628" d="M270.219,201.773c-2.217-8.845-10.44-28.3-20.5-27.505-11.6.911,10.631,22.566,10.631,22.566s-15.627-12.849-21.633-5.864S258,203.346,258,203.346s-13.3-3.2-12.139,2.164,23.525,4.542,24.923,9.718.955-7.393-.564-13.456" transform="translate(-64.831 -47.504)" fill="#68bcbc"/>
    <path id="Trazado_876629" data-name="Trazado 876629" d="M276.4,214.809a68.658,68.658,0,0,0-11.174-26.289,54.276,54.276,0,0,0-6.922-7.939" transform="translate(-70.421 -49.232)" fill="none" stroke="#4ca5a2" stroke-linecap="round" stroke-miterlimit="10" stroke-width="1.194"/>
    <path id="Trazado_876630" data-name="Trazado 876630" d="M272.8,220.318c-5.742-10.228-15.822-17.884-27.153-20.108" transform="translate(-66.97 -54.584)" fill="none" stroke="#4ca5a2" stroke-linecap="round" stroke-miterlimit="10" stroke-width="1.194"/>
    <path id="Trazado_876631" data-name="Trazado 876631" d="M275.594,225.01a34.647,34.647,0,0,0-19.2-7.859" transform="translate(-69.902 -59.202)" fill="none" stroke="#4ca5a2" stroke-linecap="round" stroke-miterlimit="10" stroke-width="1.194"/>
    <path id="Trazado_876632" data-name="Trazado 876632" d="M273.12,226.435c-1.265-3.712-5.625-6.406-9.013-7.8-8.291-3.406-21.716-6.265-28,2.339a11.122,11.122,0,0,0-1.62,9.682c1.829,5.921,8.44,8.618,14.072,9.431,7.53,1.087,18.165-.493,23.164-6.907a7.868,7.868,0,0,0,1.706-3.8,6.536,6.536,0,0,0-.308-2.948" transform="translate(-63.8 -58.698)" fill="#4ca5a2"/>
    <path id="Trazado_876633" data-name="Trazado 876633" d="M272.823,232.335s-23.107-6.231-35.763-1.966" transform="translate(-64.63 -62.399)" fill="none" stroke="#2c7c78" stroke-linecap="round" stroke-miterlimit="10" stroke-width="1.194"/>
    <path id="Trazado_876634" data-name="Trazado 876634" d="M244.128,234.494s5.977-7.22,9.362-7.541c0,0-4.814-4.724-8.475-5.785" transform="translate(-66.557 -60.298)" fill="none" stroke="#2c7c78" stroke-linecap="round" stroke-miterlimit="10" stroke-width="1.194"/>
    <path id="Trazado_876635" data-name="Trazado 876635" d="M256.675,217.444s6.794,4.785,6.945,9.022c0,0-6.063,5.986-8.339,10.734" transform="translate(-69.598 -59.282)" fill="none" stroke="#2c7c78" stroke-linecap="round" stroke-miterlimit="10" stroke-width="1.194"/>
    <path id="Trazado_876636" data-name="Trazado 876636" d="M272.169,221.005s2.621,5.171,2.218,7.747a62.964,62.964,0,0,0-5.849,9.9" transform="translate(-73.212 -60.253)" fill="none" stroke="#2c7c78" stroke-linecap="round" stroke-miterlimit="10" stroke-width="1.194"/>
    <path id="Trazado_876637" data-name="Trazado 876637" d="M68.727,168.721l-20.155,4.653L43.009,149.26l8.73-2.013,11.425-2.639,1.375,5.954Z" transform="translate(-11.726 -39.425)" fill="#9bcfea"/>
    <path id="Trazado_876638" data-name="Trazado 876638" d="M67.811,150.561l-12.608.607-.192-3.922,11.425-2.64Z" transform="translate(-14.998 -39.425)" fill="#8bbddb"/>
    <path id="Trazado_876639" data-name="Trazado 876639" d="M214.964,31.9l-16.772,9.683L171.669,56.9l-18.42-31.907L196.544,0,210.8,24.683Z" transform="translate(-41.781 0)" fill="#9bcfea"/>
    <path id="Trazado_876640" data-name="Trazado 876640" d="M231.131,41.153,214.36,50.836l-1.809-15.185,14.417-1.716Z" transform="translate(-57.948 -9.252)" fill="#8bbddb"/>
    <path id="Trazado_876641" data-name="Trazado 876641" d="M315.126,89.5,252.815,96.91l-27.228,3.241-7.517-63.194,89.548-10.646,7.285,61.3Z" transform="translate(-59.453 -7.173)" fill="#9bcfea"/>
    <path id="Trazado_876642" data-name="Trazado 876642" d="M340.366,101.307l-28.9,5.535,11.568-30.3L337.4,81.62Z" transform="translate(-84.917 -20.868)" fill="#8bbddb"/>
    <rect id="Rectángulo_413560" data-name="Rectángulo 413560" width="26.361" height="31.543" transform="matrix(0.999, -0.048, 0.048, 0.999, 40.337, 77.963)" fill="#9bcfea"/>
    <rect id="Rectángulo_413561" data-name="Rectángulo 413561" width="43.07" height="33.868" transform="translate(58.202 56.123) rotate(-54.771)" fill="#9bcfea"/>
    <path id="Trazado_876643" data-name="Trazado 876643" d="M336.569,136.759h0a2.953,2.953,0,0,0-2.995-2.478H318.9a3.957,3.957,0,0,0-3.576,2.478,3.957,3.957,0,0,1-3.576,2.478h-9.422a3.949,3.949,0,0,0-3.818,3.417l-8.382,71.334a2.977,2.977,0,0,0,3.016,3.416H397.419a3.949,3.949,0,0,0,3.819-3.416l8.382-71.334a2.977,2.977,0,0,0-3.016-3.417h-67.04a2.953,2.953,0,0,1-2.995-2.478" transform="translate(-79.092 -36.609)" fill="#f2a668"/>
    <rect id="Rectángulo_413562" data-name="Rectángulo 413562" width="59.935" height="85.652" transform="translate(220.657 117.553) rotate(-71.894)" fill="#9bcfea"/>
    <path id="Trazado_876644" data-name="Trazado 876644" d="M274.191,148.052a2.676,2.676,0,0,0-2.827,3.2l12.32,66.716a4.161,4.161,0,0,0,4.007,3.2H391.967a2.676,2.676,0,0,0,2.827-3.2l-12.32-66.716a4.162,4.162,0,0,0-4.008-3.2Z" transform="translate(-73.969 -40.364)" fill="#ffb878"/>
    <path id="Trazado_876645" data-name="Trazado 876645" d="M113.994,204.117s-.391,5.146,9.974,6.965,8.183-42.37,8.183-42.37l-13.274,5.455Z" transform="translate(-31.078 -45.996)" fill="#b72a46"/>
    <path id="Trazado_876646" data-name="Trazado 876646" d="M111.97,159.872c-5.166,1.618-6.794,7.021-10.626,19.987,0,0-12.339,7.646-15.574,7.3l1.071,2.41s12.765-.446,16.938-2.542c3.283-1.65,7.31-9.975,8.95-14.3s-.758-12.855-.758-12.855" transform="translate(-23.383 -43.586)" fill="#ef6e4b"/>
    <path id="Trazado_876647" data-name="Trazado 876647" d="M115.68,160.445c-3.3.892-8.926,15.71-8.926,15.71a10.255,10.255,0,0,0,7.052,3.124c4.82.357,1.874-18.834,1.874-18.834" transform="translate(-29.105 -43.742)" fill="#ce364c"/>
    <path id="Trazado_876648" data-name="Trazado 876648" d="M101.6,217.105s-36.866-7.45-39.9,1.654,13.389,18.567,40.7,18.567,24.1-21.066,24.1-21.066Z" transform="translate(-16.724 -58.407)" fill="#0c476b"/>
    <path id="Trazado_876649" data-name="Trazado 876649" d="M113.161,223.427c2.639-2.189,28.57-5.629,28.57-5.629s.717,14.464-6.236,18.536-14.967,3.587-20.6,2.314c-11.115-2.51-4.369-13.031-1.729-15.22" transform="translate(-29.638 -59.379)" fill="#105e99"/>
    <path id="Trazado_876650" data-name="Trazado 876650" d="M143.191,202.531c.822-9.027,4.259-34.79,4.015-36.059-.776-4.013-7-9.414-15.268-9.828-.9-.046-1.759-.065-2.565-.052-6.6.072-10.217,1.939-12.7,5.4-.716,1-1.888,4.385-2.146,8.979a138.672,138.672,0,0,0,1.519,30.418c4.777,4.831,27.15,1.143,27.15,1.143" transform="translate(-31.161 -42.691)" fill="#f2a668"/>
    <path id="Trazado_876651" data-name="Trazado 876651" d="M123.408,164.15c-1.25,6.159-6.338,33.92-9.551,36.776,0,0-.447-13.925-.357-24.1s2.321-16.156,4.017-17.317,7.5-2.5,7.5-2.5Z" transform="translate(-30.94 -42.806)" fill="#f24052"/>
    <path id="Trazado_876652" data-name="Trazado 876652" d="M77.43,198.651v.931h6.537l.851-1.525a11.329,11.329,0,0,0-5.659-.095,4.808,4.808,0,0,0-1.3.644.325.325,0,0,0-.432.044" transform="translate(-21.11 -53.88)" fill="#ef6e4b"/>
    <path id="Trazado_876653" data-name="Trazado 876653" d="M85.478,198.7a2.061,2.061,0,0,1-1.908.954,8.019,8.019,0,0,0-1.9.007s-.249-.367.374-.514,1.619-.668,1.65-1.079l-1.743-.261a4.851,4.851,0,0,0-1.246.261c-.373.187-.467.841-.9,1.223s-.685.225-.685.225a5.619,5.619,0,0,1,.526-1.369,3.388,3.388,0,0,1,.439-.34,1.382,1.382,0,0,0-.965.521,5.036,5.036,0,0,0-.343.963c-.071.167-.343.47-.623.37,0,0,.249-1.145.343-1.593a12.351,12.351,0,0,1-.53,1.448c-.212.219-.373-.033-.28-1.189a2.241,2.241,0,0,0-.218.963s-.342.227-.373-.143-.094-1.079.654-1.079c0,0,.436-.858,1.09-.56a8.517,8.517,0,0,1,1.557-.671,4.177,4.177,0,0,1,1.246,0s5.05-.105,3.838,1.864" transform="translate(-21.014 -53.651)" fill="#ff8b66"/>
    <path id="Trazado_876654" data-name="Trazado 876654" d="M105.532,198.169c-.111,1.135-2.432,1.024-2.432,1.024s-1.317.214-2.01.24c0,0,.065.843-.311.895s-.545-1.349-.545-1.349-.687,1.459-.966,1.349-.22-1.569-.22-1.569-.81,0-.861.22a5.37,5.37,0,0,1-.338.843c-.168.343-.369.623-.53.512-.325-.22-.163-1.952-.163-1.952a3,3,0,0,0-.59.052c-.162.059-.545,1.3-1.083.545a2.93,2.93,0,0,1,1.083-2,9.8,9.8,0,0,1,3.455-1.024,12.139,12.139,0,0,1,4.091.434c.4.214,1.53.648,1.421,1.783" transform="translate(-26.032 -53.416)" fill="#ff8b66"/>
    <path id="Trazado_876655" data-name="Trazado 876655" d="M101.852,199.624s-.168-.884.273-1.043a8.672,8.672,0,0,1,1.253-.281,6.231,6.231,0,0,0-1.557.205c-.59.2-.381,1.89-.381,1.89Z" transform="translate(-27.646 -54.063)" fill="#ef6e4b"/>
    <path id="Trazado_876656" data-name="Trazado 876656" d="M100.909,197.752a1.715,1.715,0,0,0-.752.4,3.149,3.149,0,0,0-.22,1.1s-.81,0-.862.22a5.3,5.3,0,0,1-.337.842,4.9,4.9,0,0,1,.474-1.886c.37-.59,1.511-.674,1.7-.681" transform="translate(-26.919 -53.914)" fill="#ef6e4b"/>
    <path id="Trazado_876657" data-name="Trazado 876657" d="M98.593,197.743s-.921.564-1.031,1.135a3,3,0,0,0-.59.052,1.876,1.876,0,0,1,1.621-1.186" transform="translate(-26.438 -53.911)" fill="#ef6e4b"/>
    <path id="Trazado_876658" data-name="Trazado 876658" d="M107.625,199.009c-.111,1.135-2.432,1.024-2.432,1.024s-1.317.214-2.01.24c-.1-.324.116-.467.143-.732,0,0,.979.02,1.167-.162a2.415,2.415,0,0,0,1.322-.1c.4-.266,1.161.681,1.81-.266" transform="translate(-28.124 -54.256)" fill="#ef6e4b"/>
    <path id="Trazado_876659" data-name="Trazado 876659" d="M74.32,236.586s-10.176,0-12.675-.178-2.856,4.106,1.607,5.891,8.39,3.392,13.568.714Z" transform="translate(-16.308 -64.451)" fill="#8bbddb"/>
    <path id="Trazado_876660" data-name="Trazado 876660" d="M105.587,241.454s-.268-4.954,4.285-5.758c0,0,1.2-3.615,7.1,1.473,3.3,2.85,8.971,4.954,6.561,6.963s-11.515-1.741-17.942-2.678" transform="translate(-28.786 -63.919)" fill="#6097b2"/>
    <path id="Trazado_876661" data-name="Trazado 876661" d="M79.444,231.463s32.849-12.675,43.917-13.747,12.676,6.248,3.928,11.962-46.416,8.39-46.416,8.39-3.928-2.856-1.429-6.605" transform="translate(-21.432 -59.328)" fill="#105e99"/>
    <path id="Trazado_876662" data-name="Trazado 876662" d="M137.671,154.709c-3.08-1.473-9.685-.491-11.292.848a21.144,21.144,0,0,0-3.3,4.017l2.321-2.142.625,5.892s.535-8.57,12.5-5.445Z" transform="translate(-33.554 -41.978)" fill="#ce364c"/>
    <path id="Trazado_876663" data-name="Trazado 876663" d="M124.842,141.467a7.661,7.661,0,0,0,5.332,5.335c3.278.831,6.744-.775,7.307-2.992a13.441,13.441,0,0,0,.024-4.668c-.019-.147-.041-.3-.064-.457-.065-.457-.157-.912-.249-1.367-.685-3.086-2.041-5.967-3.972-6.17-6.722-.709-11.165,2.285-8.377,10.319" transform="translate(-33.805 -35.728)" fill="#ff8b66"/>
    <path id="Trazado_876664" data-name="Trazado 876664" d="M133.507,140.44c.117.458.418.776.672.711s.366-.489.249-.946-.418-.777-.672-.711-.366.489-.249.946" transform="translate(-36.385 -38.028)" fill="#1a4850"/>
    <path id="Trazado_876665" data-name="Trazado 876665" d="M138.935,138.3c.117.458.418.776.672.711s.366-.489.249-.947-.418-.776-.672-.711-.366.489-.249.946" transform="translate(-37.865 -37.445)" fill="#1a4850"/>
    <path id="Trazado_876666" data-name="Trazado 876666" d="M138.32,140.487s1.41,1.507,2.155,1.027.629,1.615-1.8,1.536a2.658,2.658,0,0,1-.356-2.563" transform="translate(-37.667 -38.301)" fill="#dd774e"/>
    <path id="Trazado_876667" data-name="Trazado 876667" d="M131.687,143.4a.9.9,0,1,0,.916-.653.805.805,0,0,0-.916.653" transform="translate(-35.902 -38.917)" fill="#ed7d66"/>
    <path id="Trazado_876668" data-name="Trazado 876668" d="M140.986,140.849a.784.784,0,0,0,1.067.188c-.07-.457-.155-.915-.255-1.37a1.063,1.063,0,0,0-.4.134.8.8,0,0,0-.408,1.047" transform="translate(-38.416 -38.078)" fill="#ed7d66"/>
    <path id="Trazado_876669" data-name="Trazado 876669" d="M132.015,137.516a.2.2,0,0,0,.083-.063,2.173,2.173,0,0,1,1.39-.7.191.191,0,0,0,.173-.206.189.189,0,0,0-.205-.173,2.548,2.548,0,0,0-1.663.847.19.19,0,0,0,.223.291" transform="translate(-35.921 -37.181)" fill="#b72a46"/>
    <path id="Trazado_876670" data-name="Trazado 876670" d="M126.509,136.4c1.169,3.427-.941,6.759-.941,6.759l1.241,2.876.142.982a31.123,31.123,0,0,1-3.163-2.682c-2.76-3.487-3.17-7.514-2.189-7.75,0,0,4.513-1.348,4.91-.185" transform="translate(-33.02 -37.058)" fill="#b72a46"/>
    <path id="Trazado_876671" data-name="Trazado 876671" d="M126.35,144.264s-1.74-1.222-2.731.055,1.83,3.624,3.14,3.172-.409-3.227-.409-3.227" transform="translate(-33.646 -39.187)" fill="#ff8b66"/>
    <path id="Trazado_876672" data-name="Trazado 876672" d="M139.677,145.32c-.29.468-1.781.758-2.232.737-.314-.015.231.648.815.625a1.332,1.332,0,0,0,1.417-1.362" transform="translate(-37.447 -39.619)" fill="#1a4850"/>
    <path id="Trazado_876673" data-name="Trazado 876673" d="M139.387,134.651a.19.19,0,0,0-.036-.364,2.542,2.542,0,0,0-1.8.514.19.19,0,0,0,.234.3,2.191,2.191,0,0,1,1.493-.439.191.191,0,0,0,.1-.01" transform="translate(-37.482 -36.604)" fill="#b72a46"/>
    <path id="Trazado_876674" data-name="Trazado 876674" d="M126.3,134.042a2.235,2.235,0,0,1,.885-2.191c1.146-.688,4.335-.437,4.335-.437l2.12-1.046s1.623-4.406-3.5-3.475l.862.625s-1.021-1.1-5.692,1.037-5.243,4.746-3.806,6.561,4.791-1.073,4.791-1.073" transform="translate(-32.938 -34.56)" fill="#b72a46"/>
    <path id="Trazado_876675" data-name="Trazado 876675" d="M136.352,150.765s-.082,4.048,1.525,5.7a7.932,7.932,0,0,1-8.293,1.338s.944-5.86-1.984-9.139a.837.837,0,0,0,.795-.857,6.6,6.6,0,0,0,7.957,2.958" transform="translate(-34.788 -40.297)" fill="#ef6e4b"/>
    <path id="Trazado_876676" data-name="Trazado 876676" d="M138.052,159.456a8.308,8.308,0,0,1-.514,5.267s-.535,29.813,2.053,39.9c0,0,6.516,3.124,10.444,3.124,0,0,.179-11.694.8-15.621s5.623-22.048,1.785-28.564a10.274,10.274,0,0,0-10.265-5.356Z" transform="translate(-37.485 -43.11)" fill="#f24052"/>
    <path id="Trazado_876677" data-name="Trazado 876677" d="M141.811,154.984a7.59,7.59,0,0,1-3.548,3.615,10.671,10.671,0,0,1,2.008,3.414s3.883-2.41,4.887-4.351c0,0-1.874-2.544-3.347-2.678" transform="translate(-37.695 -42.254)" fill="#ce364c"/>
    <path id="Trazado_876678" data-name="Trazado 876678" d="M150.581,163.137c-3.97-.872-12.613,18.223-11.425,22.4s4.538,5.863,6.807,2.372,6.807-13.757,7.347-17.754-2.729-7.015-2.729-7.015" transform="translate(-37.908 -44.469)" fill="#ff8b66"/>
    <path id="Trazado_876679" data-name="Trazado 876679" d="M131.468,189.015s4.609,3.963,3.363,7.8c0,0-5.394,4.62-27.71.425v-2.89s10.265-1.662,24.346-5.34" transform="translate(-29.205 -51.532)" fill="#ff8b66"/>
    <path id="Trazado_876680" data-name="Trazado 876680" d="M139.889,178.151s4.731-14.907,9.641-15.889,5.8,9.908,1.339,19.549c0,0-4.82-4.82-10.98-3.66" transform="translate(-38.138 -44.221)" fill="#ce364c"/>
    <path id="Trazado_876681" data-name="Trazado 876681" d="M102.2,201.989H79.512a.5.5,0,0,1-.5-.5v-.6H102.7v.6a.5.5,0,0,1-.5.5" transform="translate(-21.541 -54.769)" fill="#11393d"/>
    <path id="Trazado_876682" data-name="Trazado 876682" d="M88.889,201.989H66.205a.5.5,0,0,1-.5-.5v-.6H89.39v.6a.5.5,0,0,1-.5.5" transform="translate(-17.913 -54.769)" fill="#11393d"/>
    <path id="Trazado_876683" data-name="Trazado 876683" d="M86.363,193.814h-21.7a1.357,1.357,0,0,1-1.33-1.212L61.87,176.149a1.1,1.1,0,0,1,1.114-1.212h21.7a1.357,1.357,0,0,1,1.33,1.212L87.477,192.6a1.1,1.1,0,0,1-1.114,1.212" transform="translate(-16.866 -47.693)" fill="#11393d"/>
    <path id="Trazado_876684" data-name="Trazado 876684" d="M85.211,193.814h-21.7a1.357,1.357,0,0,1-1.33-1.212l-1.459-16.453a1.1,1.1,0,0,1,1.114-1.212h21.7a1.356,1.356,0,0,1,1.329,1.212L86.325,192.6a1.1,1.1,0,0,1-1.114,1.212" transform="translate(-16.552 -47.693)" fill="#164353"/>
    <path id="Trazado_876685" data-name="Trazado 876685" d="M51.729,236.137l5.006-31.544h50.58l5.006,31.544h1.627l-5.262-33.15H55.364L50.1,236.137Z" transform="translate(-13.659 -55.341)" fill="#bc8861"/>
    <path id="Trazado_876686" data-name="Trazado 876686" d="M29.639,236.137l5.006-31.544h50.58l5.007,31.544h1.626L86.6,202.987H33.275l-5.263,33.15Z" transform="translate(-7.637 -55.341)" fill="#f2a668"/>
    <rect id="Rectángulo_413563" data-name="Rectángulo 413563" width="72.705" height="2.142" transform="translate(24.583 147.111)" fill="#ffb878"/>
  </g>
</svg>
