<svg xmlns="http://www.w3.org/2000/svg" xmlns:xlink="http://www.w3.org/1999/xlink" width="99.001" height="98.908" viewBox="0 0 99.001 98.908">
  <defs>
    <clipPath id="clip-path">
      <rect id="Rect치ngulo_413573" data-name="Rect치ngulo 413573" width="46.506" height="46.548" fill="#12263f"/>
    </clipPath>
  </defs>
  <g id="Grupo_1116022" data-name="Grupo 1116022" transform="translate(-731.999 -5381)">
    <g id="Grupo_1115401" data-name="Grupo 1115401" transform="translate(345.332 44)">
      <rect id="Rect치ngulo_412780" data-name="Rect치ngulo 412780" width="93.637" height="93.545" rx="20" transform="translate(389.349 5339.695)" fill="#b0c2e5"/>
      <g id="Grupo_1114814" data-name="Grupo 1114814" transform="translate(386.667 5337)">
        <path id="Trazado_875775" data-name="Trazado 875775" d="M245.284,301.406A1.288,1.288,0,0,1,244,300.118v-3.863a6.445,6.445,0,0,1,6.438-6.438h30.644a9.024,9.024,0,0,0,9.013-9.013V250.216a6.445,6.445,0,0,1,6.438-6.438h3.863a1.288,1.288,0,1,1,0,2.575h-3.863a3.867,3.867,0,0,0-3.863,3.863V280.8a11.6,11.6,0,0,1-11.588,11.588H250.434a3.867,3.867,0,0,0-3.863,3.863v3.863a1.288,1.288,0,0,1-1.288,1.288" transform="translate(-202.679 -202.498)" fill="#12263f"/>
        <path id="Trazado_875777" data-name="Trazado 875777" d="M1.288,57.628A1.288,1.288,0,0,1,0,56.34V52.477a6.445,6.445,0,0,1,6.438-6.438H37.082A9.024,9.024,0,0,0,46.1,37.026V6.438A6.445,6.445,0,0,1,52.533,0H56.4a1.288,1.288,0,0,1,0,2.575H52.533a3.867,3.867,0,0,0-3.863,3.863V37.026A11.6,11.6,0,0,1,37.082,48.614H6.438a3.867,3.867,0,0,0-3.863,3.863V56.34a1.288,1.288,0,0,1-1.288,1.288" transform="translate(57.684 57.628) rotate(180)" fill="#12263f"/>
      </g>
    </g>
    <g id="Grupo_1115772" data-name="Grupo 1115772" transform="translate(758.247 5407.18)">
      <g id="Grupo_1115771" data-name="Grupo 1115771" clip-path="url(#clip-path)">
        <path id="Trazado_876821" data-name="Trazado 876821" d="M125.4,117.286l.12.311,8,8.006a1.684,1.684,0,0,1-.116,1.858l-6.454,6.449a1.642,1.642,0,0,1-1.926-.06l-7.873-7.884-.311-.121L111.75,133.6a1.6,1.6,0,0,1-2.59-.145L99.6,101.6a1.8,1.8,0,0,1,1.451-1.537c10.677,3.029,21.333,6.3,31.959,9.549a1.594,1.594,0,0,1,.211,2.531Zm3.1-5.832-24.938-7.445L111,128.947c1.782-2.2,3-4.862,4.918-6.929a1.418,1.418,0,0,1,1.784.164l8.265,8.245c.28.049,3.6-3.532,4.006-4.006l-8.3-8.329c-.643-.917-.335-1.621.438-2.293Z" transform="translate(-87.24 -87.646)" fill="#12263f"/>
        <path id="Trazado_876822" data-name="Trazado 876822" d="M1.4,99.419a29.85,29.85,0,0,1,5.128.024,1.573,1.573,0,0,1,.046,3.041,40.433,40.433,0,0,1-5.55-.019c-1.438-.325-1.4-2.747.376-3.046" transform="translate(0 -86.997)" fill="#12263f"/>
        <path id="Trazado_876823" data-name="Trazado 876823" d="M29.311,149.992a1.622,1.622,0,0,1,1.5,2.381l-3.66,3.66a1.565,1.565,0,0,1-2.137-2.137,44.358,44.358,0,0,1,3.517-3.556,2.031,2.031,0,0,1,.779-.348" transform="translate(-21.705 -131.374)" fill="#12263f"/>
        <path id="Trazado_876824" data-name="Trazado 876824" d="M100.406.007a1.585,1.585,0,0,1,1.644,1.277,38,38,0,0,1-.029,5.436,1.587,1.587,0,0,1-3.08-.589,28.906,28.906,0,0,1,.035-4.69,1.792,1.792,0,0,1,1.43-1.434" transform="translate(-86.597 0)" fill="#12263f"/>
        <path id="Trazado_876825" data-name="Trazado 876825" d="M26.4,25.011a1.641,1.641,0,0,1,1.084.348c1.156.812,2.377,2.613,3.519,3.553a1.567,1.567,0,0,1-2.14,2.14c-.893-1.126-2.878-2.454-3.608-3.588A1.6,1.6,0,0,1,26.4,25.011" transform="translate(-21.898 -21.902)" fill="#12263f"/>
        <path id="Trazado_876826" data-name="Trazado 876826" d="M154.311,24.992a1.622,1.622,0,0,1,1.5,2.381l-3.66,3.66a1.565,1.565,0,0,1-2.137-2.137,44.358,44.358,0,0,1,3.517-3.556,2.031,2.031,0,0,1,.779-.348" transform="translate(-131.196 -21.883)" fill="#12263f"/>
      </g>
    </g>
  </g>
</svg>
