<svg xmlns="http://www.w3.org/2000/svg" xmlns:xlink="http://www.w3.org/1999/xlink" width="99.001" height="98.908" viewBox="0 0 99.001 98.908">
  <defs>
    <clipPath id="clip-path">
      <rect id="Rect치ngulo_413471" data-name="Rect치ngulo 413471" width="57.883" height="57.981" fill="#12263f"/>
    </clipPath>
  </defs>
  <g id="Grupo_1116005" data-name="Grupo 1116005" transform="translate(-960.999 -833)">
    <g id="Grupo_1115363" data-name="Grupo 1115363" transform="translate(574.332 -4504)">
      <rect id="Rect치ngulo_412780" data-name="Rect치ngulo 412780" width="93.637" height="93.545" rx="20" transform="translate(389.349 5339.695)" fill="#b0c2e5"/>
      <g id="Grupo_1114814" data-name="Grupo 1114814" transform="translate(386.667 5337)">
        <path id="Trazado_875775" data-name="Trazado 875775" d="M245.284,301.406A1.288,1.288,0,0,1,244,300.118v-3.863a6.445,6.445,0,0,1,6.438-6.438h30.644a9.024,9.024,0,0,0,9.013-9.013V250.216a6.445,6.445,0,0,1,6.438-6.438h3.863a1.288,1.288,0,1,1,0,2.575h-3.863a3.867,3.867,0,0,0-3.863,3.863V280.8a11.6,11.6,0,0,1-11.588,11.588H250.434a3.867,3.867,0,0,0-3.863,3.863v3.863a1.288,1.288,0,0,1-1.288,1.288" transform="translate(-202.679 -202.498)" fill="#12263f"/>
        <path id="Trazado_875777" data-name="Trazado 875777" d="M1.288,57.628A1.288,1.288,0,0,1,0,56.34V52.477a6.445,6.445,0,0,1,6.438-6.438H37.082A9.024,9.024,0,0,0,46.1,37.026V6.438A6.445,6.445,0,0,1,52.533,0H56.4a1.288,1.288,0,0,1,0,2.575H52.533a3.867,3.867,0,0,0-3.863,3.863V37.026A11.6,11.6,0,0,1,37.082,48.614H6.438a3.867,3.867,0,0,0-3.863,3.863V56.34a1.288,1.288,0,0,1-1.288,1.288" transform="translate(57.684 57.628) rotate(180)" fill="#12263f"/>
      </g>
    </g>
    <g id="Grupo_1115689" data-name="Grupo 1115689" transform="translate(981.559 853.463)">
      <g id="Grupo_1115688" data-name="Grupo 1115688" clip-path="url(#clip-path)">
        <path id="Trazado_876510" data-name="Trazado 876510" d="M40.644,4.954a1.978,1.978,0,0,1-.484-.162,2.559,2.559,0,1,1,3.149-.431c-.29.3-.851.4-.928.809l-.008,5.777,4.934,1.607c.583.283.673.538.729,1.153.234,2.58-.193,5.5,0,8.122.033.735-1.085.94-1.469.441s.034-6.584-.123-7.839c-.021-.169.013-.309-.149-.43s-3-.875-3.554-1.08c-5.759-2.135-8.635-5.792-15.489-5.069-4.222.445-6.5,2.595-10.111,4.224a31.385,31.385,0,0,1-5.5,1.884l-.226.208c.164,5.149-.281,10.5-.025,15.625a19.949,19.949,0,0,0,1.343,6.476c.557,1.364,1.494,2.559,1.97,3.91-1.021,1.98-2.461-.937-2.951-1.915A20.092,20.092,0,0,1,9.8,31.241c-.071-1.118.19-2.764.006-3.771-.022-.12-.115-.362-.217-.362h-2.1a2.88,2.88,0,0,1-.223.571A2.557,2.557,0,0,1,3,24.862a2.619,2.619,0,0,1,4.054-.287,7.865,7.865,0,0,1,.436.8H9.8V20.809a1.453,1.453,0,0,0-.217-.217H4.953c-.128,0-.608,1.394-1.894,1.58-4.568.658-3.664-6.262.373-4.836,1.056.373,1.341,1.519,1.449,1.519H9.586a1.453,1.453,0,0,0,.217-.217V13.28a1.487,1.487,0,0,1,.621-.682,39.578,39.578,0,0,0,7.2-2.642c1.522-.756,2.924-1.781,4.487-2.463a17.073,17.073,0,0,1,13.7.043c1.649.731,3.126,1.935,4.825,2.487-.129-.685.171-4.821,0-5.068m1.671-2.378a.842.842,0,1,0-.842.842.842.842,0,0,0,.842-.842M3.332,19.715a.838.838,0,1,0-.838.838.838.838,0,0,0,.838-.838m2.628,6.567a.84.84,0,1,0-.84.84.84.84,0,0,0,.84-.84" transform="translate(0 0)" fill="#12263f"/>
        <path id="Trazado_876511" data-name="Trazado 876511" d="M91.834,72.249l-.018,14.385c.586,7.392,7.854,12.763,14.091,15.535,6.184-2.87,13.407-8.132,13.994-15.535l.009-14.309c-1.165-.5-2.377-.893-3.534-1.419-5.076-2.311-8.052-5.467-14.215-3.459a27.786,27.786,0,0,1-3.035,1.314.851.851,0,0,1-.726-1.31c.345-.707,4.365-1.993,5.25-2.134,5.985-.958,8.442,1.8,13.305,4,1.185.536,2.543.877,3.669,1.4.542.251.933.485,1.023,1.149-.459,10.277,2.354,18.193-5.941,25.927-1.99,1.855-6.853,5.385-9.409,6.084-.812.222-2.089-.541-2.853-.921C99.006,100.744,93.418,96.3,91.4,91.683,88.853,85.851,90.593,78,90.085,71.73c.165-1.057,2.513-1.522,3.465-1.893.728-.284,3.464-2.03,3.467-.288,0,.817-2.187,1.58-2.89,1.878-.748.317-1.525.562-2.292.821" transform="translate(-76.943 -55.69)" fill="#12263f"/>
        <path id="Trazado_876512" data-name="Trazado 876512" d="M110.165,197.679a1.978,1.978,0,0,1,.484.162,2.559,2.559,0,1,1-3.148.431c.29-.3.851-.4.928-.809-.234-1.788.314-4.4,0-6.079-.092-.485-1.587-1.469-2.026-1.884a23.576,23.576,0,0,1-1.8-1.814c-.4-.866.381-1.61,1.282-1.137.595.312,2.295,2.243,3.063,2.873a34.839,34.839,0,0,0,7.111,4.472,16.386,16.386,0,0,0,2.045.865c.571.092,3.353-1.32,4.041-1.688,6.415-3.429,12.611-9.17,13.512-16.75.248-2.088-.109-4.446.139-6.377a.824.824,0,0,1,.8-.8c1.307-.058.466,1.684,1.038,1.871a33.53,33.53,0,0,0,4.042.029c.814-.083.565-.287,1-.735.994-1.015,2.044-1.453,3.368-.612a2.54,2.54,0,0,1-1.76,4.656c-1.36-.171-1.736-1.552-2.212-1.7a30.136,30.136,0,0,0-4.543.036c-.262.183-.081,4.179-.28,4.86H139.7a3.4,3.4,0,0,1,.289-.652,2.544,2.544,0,0,1,4.131,2.972,2.592,2.592,0,0,1-3.767.43c-.247-.218-.678-1-.755-1.015a17.857,17.857,0,0,0-2.8.066c-1.823,6.6-7.747,11.908-13.6,15.07a28.4,28.4,0,0,1-4.342,2.028,2.251,2.251,0,0,1-.937.061,26.143,26.143,0,0,1-4.284-1.944c-1.015-.54-1.959-1.289-2.962-1.816-.174-.092-.271-.2-.51-.142.129.685-.171,4.82,0,5.068m35.362-25.847a.837.837,0,1,0-.837.837.837.837,0,0,0,.837-.837m-2.615,6.553a.843.843,0,1,0-.843.843.843.843,0,0,0,.843-.843m-32.733,21.671a.842.842,0,1,0-.842.842.842.842,0,0,0,.842-.842" transform="translate(-89.358 -144.653)" fill="#12263f"/>
        <path id="Trazado_876513" data-name="Trazado 876513" d="M163.436,138.521c1.224,1.193,1.3,2.816,1.21,4.437a2.2,2.2,0,0,1,2.283,1.554,48.111,48.111,0,0,1,.039,7.212,1.938,1.938,0,0,1-1.667,1.952c-3.058-.276-6.726.357-9.708,0a1.93,1.93,0,0,1-1.662-1.813,48.351,48.351,0,0,1,.009-7.23,2.177,2.177,0,0,1,2.307-1.675,6.151,6.151,0,0,1,.6-3.668,4.3,4.3,0,0,1,6.586-.769m-3.609.561c-1.657.343-2.175,2.267-1.924,3.741a23.872,23.872,0,0,0,5.014.072c.339-.237.027-1.817-.11-2.225a2.541,2.541,0,0,0-2.979-1.589m5.4,5.614h-9.556v7.385h9.556Z" transform="translate(-131.53 -117.443)" fill="#12263f"/>
        <path id="Trazado_876514" data-name="Trazado 876514" d="M184.173,190.126a2.547,2.547,0,0,1,2.848,3.716c-.355.748-1.111.878-1.288,1.174-.271.453.269,1.807-.88,1.879-1.206.075-.774-1.24-.954-1.784-.071-.216-.832-.549-1.114-.913a2.585,2.585,0,0,1,1.388-4.071m1.452,2.5a.833.833,0,1,0-.833.833.833.833,0,0,0,.833-.833" transform="translate(-155.876 -162.55)" fill="#12263f"/>
      </g>
    </g>
  </g>
</svg>
