<svg xmlns="http://www.w3.org/2000/svg" xmlns:xlink="http://www.w3.org/1999/xlink" width="123.023" height="122.907" viewBox="0 0 123.023 122.907">
  <defs>
    <clipPath id="clip-path">
      <rect id="Rect치ngulo_413610" data-name="Rect치ngulo 413610" width="58.569" height="67.985" fill="#12263f"/>
    </clipPath>
  </defs>
  <g id="Grupo_1116049" data-name="Grupo 1116049" transform="translate(-3222.842 9682.167)">
    <g id="Grupo_1115420" data-name="Grupo 1115420" transform="translate(2836.175 -15019.167)">
      <rect id="Rect치ngulo_412780" data-name="Rect치ngulo 412780" width="116.357" height="116.243" rx="20" transform="translate(390 5340.349)" fill="#b0c2e5"/>
      <g id="Grupo_1114814" data-name="Grupo 1114814">
        <path id="Trazado_875775" data-name="Trazado 875775" d="M245.6,315.389a1.6,1.6,0,0,1-1.6-1.6v-4.8a8.009,8.009,0,0,1,8-8h38.08a11.213,11.213,0,0,0,11.2-11.2v-38.01a8.009,8.009,0,0,1,8-8h4.8a1.6,1.6,0,1,1,0,3.2h-4.8a4.806,4.806,0,0,0-4.8,4.8v38.01a14.417,14.417,0,0,1-14.4,14.4H252a4.806,4.806,0,0,0-4.8,4.8v4.8a1.6,1.6,0,0,1-1.6,1.6" transform="translate(194.014 5144.519)" fill="#12263f"/>
        <path id="Trazado_875777" data-name="Trazado 875777" d="M245.6,315.389a1.6,1.6,0,0,1-1.6-1.6v-4.8a8.009,8.009,0,0,1,8-8h38.08a11.213,11.213,0,0,0,11.2-11.2v-38.01a8.009,8.009,0,0,1,8-8h4.8a1.6,1.6,0,1,1,0,3.2h-4.8a4.806,4.806,0,0,0-4.8,4.8v38.01a14.417,14.417,0,0,1-14.4,14.4H252a4.806,4.806,0,0,0-4.8,4.8v4.8a1.6,1.6,0,0,1-1.6,1.6" transform="translate(702.344 5652.389) rotate(180)" fill="#12263f"/>
      </g>
    </g>
    <g id="Grupo_1115808" data-name="Grupo 1115808" transform="translate(3255.069 -9654.705)">
      <g id="Grupo_1115807" data-name="Grupo 1115807" clip-path="url(#clip-path)">
        <path id="Trazado_877035" data-name="Trazado 877035" d="M12.333,52.861a3.308,3.308,0,0,1-.624-.132,40.641,40.641,0,0,1-5.4-5.122c-1.838-2.388.424-3.823,1.763-5.485a25.507,25.507,0,0,1-2.884-6.878C2.981,35.307.378,35.4.115,32.6A45.813,45.813,0,0,1,.16,25.509a3.261,3.261,0,0,1,1.7-1.859c.977-.32,2.015.036,2.918-.135.721-.137.543-.778.718-1.317a28.134,28.134,0,0,1,2.546-5.72c-1.517-1.448-3.374-3.209-1.819-5.426a45.339,45.339,0,0,1,4.492-4.5c2.608-2.118,3.841-.062,5.739,1.5,1.065-.509,2.084-1.122,3.174-1.579.648-.272,3.341-1.025,3.561-1.188.309-.229.133-1.84.187-2.357A2.9,2.9,0,0,1,26.318.107,45.077,45.077,0,0,1,32.6.114c2.716.3,2.678,2.972,2.7,5.1A31.869,31.869,0,0,1,42.13,8.059c1.827-1.494,3.1-3.6,5.652-1.586A41.664,41.664,0,0,1,52.107,10.8a2.965,2.965,0,0,1,.154,3.888c-.3.414-1.744,1.578-1.7,1.887a21.738,21.738,0,0,1,2.721,6.615c1.1.342,2.275.008,3.437.464a3.285,3.285,0,0,1,1.664,1.728,47.13,47.13,0,0,1,.08,7.383c-.3,2.626-3.019,2.553-5.066,2.481-.537,1.1-.582,4-2.144,3.894-1.67-.11-.33-2.531-.035-3.444.245-.759.216-2.313,1.228-2.5.819-.153,3.57.331,3.9-.343a50.214,50.214,0,0,0,0-7.126c-.47-.8-3.788.1-4.495-.594-.187-.182-1.325-4.149-1.669-4.946a23.93,23.93,0,0,0-1.854-3.4c-.676-1.539,3.042-3.024,2.55-4.233C50.017,11.84,46.863,8,46.133,7.78c-1.428-.435-2.645,2.612-3.866,2.606-.323,0-3.284-1.74-3.991-2.04-.894-.379-1.825-.685-2.749-.983a12.432,12.432,0,0,1-1.893-.481c-1.208-.762.489-4.516-1.2-4.74-1.967-.262-4.552.181-6.588.042-1.1.325.178,4.022-.9,4.7A33.5,33.5,0,0,0,20.31,8.346c-.714.3-3.663,2.038-3.991,2.04-1.221.006-2.438-3.04-3.866-2.606a47.5,47.5,0,0,0-4.8,4.88c-.3,1.069,3.293,2.679,2.6,4.12a23.931,23.931,0,0,0-1.854,3.4c-.343.8-1.482,4.763-1.668,4.946-.706.69-4.024-.2-4.495.594-.42.712.119,5.819-.049,7.006.265.9,3.219.241,4.086.493.779.227,1.374,3.429,1.734,4.372.373.98,2.28,4.162,2.3,4.672.051,1.265-2.968,2.559-2.621,3.774.292,1.021,3.916,3.948,4.808,4.888,1.065.33,2.4-2.179,3.229-2.558.922-.424,1.913.621,2.707,1.018.828.414,1.687.85,2.551,1.181.835.32,3.668.972,4.08,1.347,1.177,1.072-.969,4.452,1.591,4.684a36.572,36.572,0,0,0,5.738-.045c1.7-.375.122-3.725,1.127-4.64.412-.376,3.245-1.027,4.08-1.347.864-.332,1.722-.767,2.551-1.181.486-.243,1.261-.9,1.684-1.028,1.945-.6,2.9,3.552,4.672,2.3a44.687,44.687,0,0,0,4.077-4.062c1.4-1.939-3.01-2.966-2.207-4.753a.959.959,0,0,1,.828-.515c.482.025,2.9,2.4,3.226,2.9a2.844,2.844,0,0,1-.154,3.384,40.618,40.618,0,0,1-5.4,5.122,4.713,4.713,0,0,1-.624.132v5.088h4.664c.073,0,.59-.953.841-1.194,2.487-2.4,6.749,1.017,4.251,4.081a2.979,2.979,0,0,1-4.312.235c-.27-.262-.429-.763-.611-.915-.471-.394-4.435-.082-5.433-.164-.866-.072-1.327-.149-1.438-1.106-.225-1.946.2-4.256-.032-6.243-.425-.433-1.674-2.04-2.213-1.962-.345.05-1.769.789-1.819,1.252l.079,10.26A2.948,2.948,0,0,1,41.5,66.853c-2.312,3.008-7.114-.583-4.578-3.73.3-.367,1.356-.933,1.356-1.018V52.522l-3.031.87c-.08,1.323.192,3.168-.778,4.225-.361.393-1.189.613-1.281,1.094l-.035,8.615a1.063,1.063,0,0,1-1.621.42,8.557,8.557,0,0,1-.378-.893v-8.4H27.512a1.7,1.7,0,0,0-.254.254V62.1c0,.085,1.062.646,1.356,1.018a2.979,2.979,0,1,1-4.825.262c.347-.532,1.448-1.076,1.568-1.485a20.435,20.435,0,0,0,.007-3.329c-.1-.285-.954-.628-1.252-.953-1.032-1.129-.679-2.842-.778-4.225l-2.692-.87V64.988a1.217,1.217,0,0,1-.767.929c-1.241.244-3.853-.311-4.888.031-.3.1-.392.647-.62.907a2.971,2.971,0,1,1-.425-4.155c.372.294.934,1.356,1.018,1.356h3.646v-12.3a6.79,6.79,0,0,0-2.254-1.08,19.173,19.173,0,0,0-1.9,1.846c-.4.883.073,5-.085,6.36a1.1,1.1,0,0,1-.351.836c-.874.658-4.864.012-6.183.262-.529.1-.961,1.755-2.706,1.877-4.794.334-3.977-7.136.623-5.727,1.226.375,1.779,1.816,1.914,1.816h4.664c-.127-.667.168-4.9,0-5.088m-6.57,6.059a.969.969,0,1,0-.969.969.969.969,0,0,0,.969-.969m49,0a.969.969,0,1,0-.969.968.969.969,0,0,0,.969-.968M13.012,64.99a.958.958,0,1,0-.958.958.958.958,0,0,0,.958-.958M27.279,65a.969.969,0,1,0-.969.969A.97.97,0,0,0,27.279,65M40.194,65a.966.966,0,1,0-.966.966A.966.966,0,0,0,40.194,65" transform="translate(0 0)" fill="#12263f"/>
        <path id="Trazado_877036" data-name="Trazado 877036" d="M120.442,108.048c9.3-.054,14.527,10.975,8.454,18.086a11.033,11.033,0,0,1-17.862-1.477c-.482-.827-2.046-3.847-.588-4.262,1.42-.4,1.519,1.72,1.989,2.691,3.965,8.193,16.759,5.531,17.06-3.645.307-9.354-12.02-12.942-16.719-5.018-.367.619-1.06,2.768-1.268,2.972-.793.775-1.824.04-1.656-1.142.66-4.622,6.148-8.179,10.59-8.2" transform="translate(-91.205 -89.722)" fill="#12263f"/>
        <path id="Trazado_877037" data-name="Trazado 877037" d="M192.3,58.287l3.783,2.066c11.373,7.6,10.914,24.8-1.126,31.543-1.033.579-4.575,2.15-5.617,2.01a1.045,1.045,0,0,1-.528-1.71,37.2,37.2,0,0,1,3.532-1.216,16.579,16.579,0,0,0,7.845-23.369C198.5,64.623,195,61.38,191.7,60.323c-.11-.035-.287-.034-.25.081,1.483,1.34.133,3.8-1.163,2.011a32.383,32.383,0,0,1-1.589-2.989,1.375,1.375,0,0,1,.113-1.489c.146-.157,3.606-1.924,3.818-1.959,1.552-.255,1.467,2.3-.332,2.31" transform="translate(-156.56 -46.469)" fill="#12263f"/>
        <path id="Trazado_877038" data-name="Trazado 877038" d="M79.325,68.206c-.194.2-2.352.723-2.885.931A16.5,16.5,0,0,0,72.528,97.9a15.287,15.287,0,0,0,4.227,2.22c.261.059.271.023.235-.235-.1-.745-.861-1.6-.324-2.365a.95.95,0,0,1,1.432-.1,17.1,17.1,0,0,1,1.4,3.691c.138.852.073,1.2-.715,1.579a30.153,30.153,0,0,1-3.712,1.131c-1.4-.064-1.249-1.892.057-2.071a22.211,22.211,0,0,1-7.458-5.771A18.562,18.562,0,0,1,73.087,68.5c1.248-.707,4.5-2.2,5.85-1.942.738.143.784,1.253.388,1.651" transform="translate(-52.956 -55.242)" fill="#12263f"/>
        <path id="Trazado_877039" data-name="Trazado 877039" d="M142.734,156.047c-.474-1.053-3.6-3.138-2.774-4.287,1.236-1.71,2.937,2.074,3.635,1.951l5.713-5.661c1.127-.761,2.292.438,1.349,1.518l-6.52,6.538a1.291,1.291,0,0,1-1.4-.059" transform="translate(-116.107 -122.742)" fill="#12263f"/>
      </g>
    </g>
  </g>
</svg>
