<svg xmlns="http://www.w3.org/2000/svg" xmlns:xlink="http://www.w3.org/1999/xlink" width="123.023" height="122.908" viewBox="0 0 123.023 122.908">
  <defs>
    <clipPath id="clip-path">
      <rect id="Rect치ngulo_413606" data-name="Rect치ngulo 413606" width="48.109" height="64.156" fill="#12263f"/>
    </clipPath>
  </defs>
  <g id="Grupo_1116045" data-name="Grupo 1116045" transform="translate(-1089.663 -1570)">
    <g id="Grupo_1115416" data-name="Grupo 1115416" transform="translate(702.996 -3767)">
      <rect id="Rect치ngulo_412780" data-name="Rect치ngulo 412780" width="116.357" height="116.243" rx="20" transform="translate(390 5340.349)" fill="#b0c2e5"/>
      <g id="Grupo_1114814" data-name="Grupo 1114814">
        <path id="Trazado_875775" data-name="Trazado 875775" d="M245.6,315.389a1.6,1.6,0,0,1-1.6-1.6v-4.8a8.009,8.009,0,0,1,8-8h38.08a11.213,11.213,0,0,0,11.2-11.2v-38.01a8.009,8.009,0,0,1,8-8h4.8a1.6,1.6,0,1,1,0,3.2h-4.8a4.806,4.806,0,0,0-4.8,4.8v38.01a14.417,14.417,0,0,1-14.4,14.4H252a4.806,4.806,0,0,0-4.8,4.8v4.8a1.6,1.6,0,0,1-1.6,1.6" transform="translate(194.014 5144.519)" fill="#12263f"/>
        <path id="Trazado_875777" data-name="Trazado 875777" d="M245.6,315.389a1.6,1.6,0,0,1-1.6-1.6v-4.8a8.009,8.009,0,0,1,8-8h38.08a11.213,11.213,0,0,0,11.2-11.2v-38.01a8.009,8.009,0,0,1,8-8h4.8a1.6,1.6,0,1,1,0,3.2h-4.8a4.806,4.806,0,0,0-4.8,4.8v38.01a14.417,14.417,0,0,1-14.4,14.4H252a4.806,4.806,0,0,0-4.8,4.8v4.8a1.6,1.6,0,0,1-1.6,1.6" transform="translate(702.344 5652.389) rotate(180)" fill="#12263f"/>
      </g>
    </g>
    <g id="Grupo_1115800" data-name="Grupo 1115800" transform="translate(1127.946 1595.539)">
      <g id="Grupo_1115799" data-name="Grupo 1115799" clip-path="url(#clip-path)">
        <path id="Trazado_877013" data-name="Trazado 877013" d="M2.494,60.118A2.284,2.284,0,0,1,.968,58.279L.985,33.917C.571,33.409-.044,33.026,0,32.168V5.877C.3,3.616,2.454,4.041,4.17,4.035a4.942,4.942,0,0,1,9.27-1.326c.189.359.322,1.213.612,1.311l14.241.018c1,.119,1.324.945,1.593.978,3.771.454,8.563-.472,12.346-.016.647.078,1.839.843,1.839,1.526V9.009h2.483c.528,0,1.751,1.31,1.528,2L48,62.847A1.771,1.771,0,0,1,46.911,64c-13.283.291-26.63.034-39.937.13-.686.223-2-1-2-1.528V60.118c-.755-.092-1.769.127-2.483,0M11.867,4.042C10.479.813,6.243,1.467,5.933,5.078a73.629,73.629,0,0,0,.008,9.936,3.059,3.059,0,0,0,6.071.469,31.786,31.786,0,0,0-.068-4.87,1.187,1.187,0,0,0-1.2-.579c-1.573.484-.138,3.345-1.282,3.857-1.941.87-1.6-3.08-1.2-4.08,1.069-2.678,5.335-2.2,5.691.716.181,1.477.131,5.308-.454,6.6a5.02,5.02,0,0,1-8.522.93,6.635,6.635,0,0,1-.962-2.243V5.964H1.933V32.08H28.049V5.964H8.743c-.934,0-.77-1.923-.16-1.923ZM42.148,6.926H30.132V32.16a2.624,2.624,0,0,1-2,2H2.895V58.2H33.016v-7.13c0-.473.88-1.843,1.362-1.843h7.53a1.608,1.608,0,0,0,.24-.24V15.658c0-.48,1.746-1.111,1.931.312l-.047,33.936a3.846,3.846,0,0,1-.919,1.644,78.733,78.733,0,0,1-7.851,7.85,5.378,5.378,0,0,1-1.365.717H6.9V62.2H46.154V10.931c-.322.054-2.01-.074-2.084,0-.129.128.359,1.7-.634,2.018-.485.154-1.288-.2-1.288-.656Zm-1.442,44.22H35.1v5.608Z" transform="translate(0 0)" fill="#12263f"/>
        <path id="Trazado_877014" data-name="Trazado 877014" d="M88.32,231.263l21.751-.038c1.634.035,1.83,1.893.164,2.086h-21.8c-1.433-.157-1.626-1.778-.118-2.048" transform="translate(-73.291 -194.179)" fill="#12263f"/>
        <path id="Trazado_877015" data-name="Trazado 877015" d="M88.186,263.242l22.4-.036c1.415.055,1.236,1.773.005,1.934H88.465c-1.114-.242-1.334-1.325-.279-1.9" transform="translate(-73.482 -221.036)" fill="#12263f"/>
        <path id="Trazado_877016" data-name="Trazado 877016" d="M103.22,295.9a1.436,1.436,0,0,1-.833.208c-4.505.386-9.549-.308-14.113,0-1.231-.166-.964-1.827.16-1.938h14.115a1.027,1.027,0,0,1,.672,1.729" transform="translate(-73.45 -247.042)" fill="#12263f"/>
        <path id="Trazado_877017" data-name="Trazado 877017" d="M213.647,111.92c.867-.2,3.606-.234,3.186,1.25-.337,1.192-3.533.98-3.864.32a1.127,1.127,0,0,1,.678-1.57" transform="translate(-178.755 -93.905)" fill="#12263f"/>
        <path id="Trazado_877018" data-name="Trazado 877018" d="M213.65,174.931c.873-.192,3.6-.241,3.186,1.25-.282,1.007-2.452.952-3.231.65a.972.972,0,0,1,.046-1.9" transform="translate(-178.757 -146.823)" fill="#12263f"/>
        <path id="Trazado_877019" data-name="Trazado 877019" d="M44.666,230.989c1.042-.207,3.682-.183,2.846,1.566-.313.656-2.662.6-3.242.358-.923-.387-.72-1.7.4-1.924" transform="translate(-36.688 -193.906)" fill="#12263f"/>
        <path id="Trazado_877020" data-name="Trazado 877020" d="M213.209,82.6a1.529,1.529,0,0,1-.17-1.131c.329-1.1,4.952-.843,3.8.91-.39.594-3.276.576-3.63.221" transform="translate(-178.873 -67.864)" fill="#12263f"/>
        <path id="Trazado_877021" data-name="Trazado 877021" d="M216.585,143.923a1.044,1.044,0,0,1-.393,1.688c-.642.188-2.985.223-3.219-.562-.562-1.889,3.249-1.471,3.611-1.126" transform="translate(-178.804 -120.614)" fill="#12263f"/>
        <path id="Trazado_877022" data-name="Trazado 877022" d="M44.137,295.726a1.14,1.14,0,0,1,.4-1.69,13.111,13.111,0,0,1,2.526-.03c.94.176.921,1.683.3,1.892a9.137,9.137,0,0,1-3.22-.172" transform="translate(-36.878 -246.862)" fill="#12263f"/>
        <path id="Trazado_877023" data-name="Trazado 877023" d="M47.556,262.946a1.14,1.14,0,0,1-.4,1.69c-.613.176-2.989.2-3.221-.558-.585-1.906,3.3-1.452,3.617-1.132" transform="translate(-36.849 -220.574)" fill="#12263f"/>
        <path id="Trazado_877024" data-name="Trazado 877024" d="M37.865,144.214l16.64-.039a.971.971,0,0,1-.165,1.934l-16.033.005a1.009,1.009,0,0,1-.442-1.9" transform="translate(-31.335 -121.076)" fill="#12263f"/>
        <path id="Trazado_877025" data-name="Trazado 877025" d="M107.237,111.909a33.7,33.7,0,0,1,5.219,0,1.021,1.021,0,0,1-.142,2.033,30.6,30.6,0,0,1-5.077-.019,1.018,1.018,0,0,1,0-2.014" transform="translate(-89.328 -93.894)" fill="#12263f"/>
        <path id="Trazado_877026" data-name="Trazado 877026" d="M107.1,80.908a41.2,41.2,0,0,1,5.4-.023.975.975,0,0,1,.167,1.909,43.911,43.911,0,0,1-5.6,0c-.995-.191-.794-1.645.03-1.886" transform="translate(-89.357 -67.861)" fill="#12263f"/>
      </g>
    </g>
  </g>
</svg>
