<svg xmlns="http://www.w3.org/2000/svg" xmlns:xlink="http://www.w3.org/1999/xlink" width="99.001" height="98.908" viewBox="0 0 99.001 98.908">
  <defs>
    <clipPath id="clip-path">
      <rect id="Rect치ngulo_413150" data-name="Rect치ngulo 413150" width="43.765" height="56.102" fill="#12263f"/>
    </clipPath>
  </defs>
  <g id="Grupo_1115995" data-name="Grupo 1115995" transform="translate(-1190.71 -3933)">
    <g id="Grupo_1115346" data-name="Grupo 1115346" transform="translate(804.043 -1404)">
      <rect id="Rect치ngulo_412780" data-name="Rect치ngulo 412780" width="93.637" height="93.545" rx="20" transform="translate(389.349 5339.695)" fill="#b0c2e5"/>
      <g id="Grupo_1114814" data-name="Grupo 1114814" transform="translate(386.667 5337)">
        <path id="Trazado_875775" data-name="Trazado 875775" d="M245.284,301.406A1.288,1.288,0,0,1,244,300.118v-3.863a6.445,6.445,0,0,1,6.438-6.438h30.644a9.024,9.024,0,0,0,9.013-9.013V250.216a6.445,6.445,0,0,1,6.438-6.438h3.863a1.288,1.288,0,1,1,0,2.575h-3.863a3.867,3.867,0,0,0-3.863,3.863V280.8a11.6,11.6,0,0,1-11.588,11.588H250.434a3.867,3.867,0,0,0-3.863,3.863v3.863a1.288,1.288,0,0,1-1.288,1.288" transform="translate(-202.679 -202.498)" fill="#12263f"/>
        <path id="Trazado_875777" data-name="Trazado 875777" d="M1.288,57.628A1.288,1.288,0,0,1,0,56.34V52.477a6.445,6.445,0,0,1,6.438-6.438H37.082A9.024,9.024,0,0,0,46.1,37.026V6.438A6.445,6.445,0,0,1,52.533,0H56.4a1.288,1.288,0,0,1,0,2.575H52.533a3.867,3.867,0,0,0-3.863,3.863V37.026A11.6,11.6,0,0,1,37.082,48.614H6.438a3.867,3.867,0,0,0-3.863,3.863V56.34a1.288,1.288,0,0,1-1.288,1.288" transform="translate(57.684 57.628) rotate(180)" fill="#12263f"/>
      </g>
    </g>
    <g id="Grupo_1115592" data-name="Grupo 1115592" transform="translate(1217.828 3954.403)">
      <g id="Grupo_1115591" data-name="Grupo 1115591" clip-path="url(#clip-path)">
        <path id="Trazado_875991" data-name="Trazado 875991" d="M37.16,6.593h4c1.031,0,2.754,1.878,2.6,3.01V53.076A3.3,3.3,0,0,1,40.6,56.091H9.745c-1.081.161-3.15-1.433-3.15-2.459V49.006a1.407,1.407,0,0,0-.21-.21H2.459A3.621,3.621,0,0,1,.005,46.062L0,14.79a2.99,2.99,0,0,1,.5-1.458C4.478,9.585,8.2,5.06,12.257,1.461A4.989,4.989,0,0,1,14.441.068l19.7-.062c1.039-.1,3.016,1.469,3.016,2.452ZM15.288,2.247V14.515a3,3,0,0,1-.631.771H2.319a1.407,1.407,0,0,0-.21.21V45.641c0,.561.907,1.149,1.467,1.057,10.244-.082,20.521.139,30.744-.112a1.444,1.444,0,0,0,.743-1.36l0-41.654c.078-.374-.419-1.325-.778-1.325ZM13.045,13.183V3.93L3.791,13.183ZM34.707,48.8H8.909a1.407,1.407,0,0,0-.21.21v3.926c0,.337.724,1.086,1.185.918l31.07-.068c.515-.167.662-.911.7-1.4V10.162c.078-.374-.419-1.325-.778-1.325H37.16V46.342c0,.875-1.6,2.313-2.454,2.454" transform="translate(0 0)" fill="#12263f"/>
        <path id="Trazado_875992" data-name="Trazado 875992" d="M139.882,46.794a1.334,1.334,0,0,1,.861-.33c2.8-.262,6.005.221,8.849,0,.814.108.989.914,1.049,1.615a40.41,40.41,0,0,1,0,5.754c-.1.867-.308,1.258-1.186,1.338a64.084,64.084,0,0,1-8.706,0c-.577-.053-.88-.15-1.077-.746a41.485,41.485,0,0,1-.109-6.622,2.522,2.522,0,0,1,.323-1.01m8.511,1.922H141.8v4.346h6.59Z" transform="translate(-119.925 -39.88)" fill="#12263f"/>
        <path id="Trazado_875993" data-name="Trazado 875993" d="M47.778,281.057l21.839-.033a1.126,1.126,0,1,1,.143,2.246H47.881a1.111,1.111,0,0,1-.1-2.213" transform="translate(-40.238 -241.623)" fill="#12263f"/>
        <path id="Trazado_875994" data-name="Trazado 875994" d="M47.786,234.056l21.84-.032a1.126,1.126,0,1,1,.143,2.246H47.891a1.111,1.111,0,0,1-.1-2.214" transform="translate(-40.247 -201.212)" fill="#12263f"/>
        <path id="Trazado_875995" data-name="Trazado 875995" d="M47.885,187.055l21.559-.034c1.544.015,1.917,1.835.427,2.251l-22.023,0a1.107,1.107,0,0,1,.037-2.213" transform="translate(-40.205 -160.8)" fill="#12263f"/>
        <path id="Trazado_875996" data-name="Trazado 875996" d="M78.685,141.038l18.06-.032a1.061,1.061,0,0,1,0,2.108H79.073a1.079,1.079,0,0,1-.389-2.077" transform="translate(-67.083 -121.236)" fill="#12263f"/>
        <path id="Trazado_875997" data-name="Trazado 875997" d="M48.915,141.815a1.083,1.083,0,1,1-1.083-1.083,1.083,1.083,0,0,1,1.083,1.083" transform="translate(-40.195 -121.001)" fill="#12263f"/>
      </g>
    </g>
  </g>
</svg>
