<svg xmlns="http://www.w3.org/2000/svg" xmlns:xlink="http://www.w3.org/1999/xlink" width="123.023" height="122.908" viewBox="0 0 123.023 122.908">
  <defs>
    <clipPath id="clip-path">
      <rect id="Rect치ngulo_413604" data-name="Rect치ngulo 413604" width="73.185" height="62.336" fill="#12263f"/>
    </clipPath>
  </defs>
  <g id="Grupo_1116043" data-name="Grupo 1116043" transform="translate(-386.663 -1570)">
    <g id="Grupo_1115414" data-name="Grupo 1115414" transform="translate(-0.004 -3767)">
      <rect id="Rect치ngulo_412780" data-name="Rect치ngulo 412780" width="116.357" height="116.243" rx="20" transform="translate(390 5340.349)" fill="#b0c2e5"/>
      <g id="Grupo_1114814" data-name="Grupo 1114814">
        <path id="Trazado_875775" data-name="Trazado 875775" d="M245.6,315.389a1.6,1.6,0,0,1-1.6-1.6v-4.8a8.009,8.009,0,0,1,8-8h38.08a11.213,11.213,0,0,0,11.2-11.2v-38.01a8.009,8.009,0,0,1,8-8h4.8a1.6,1.6,0,1,1,0,3.2h-4.8a4.806,4.806,0,0,0-4.8,4.8v38.01a14.417,14.417,0,0,1-14.4,14.4H252a4.806,4.806,0,0,0-4.8,4.8v4.8a1.6,1.6,0,0,1-1.6,1.6" transform="translate(194.014 5144.519)" fill="#12263f"/>
        <path id="Trazado_875777" data-name="Trazado 875777" d="M245.6,315.389a1.6,1.6,0,0,1-1.6-1.6v-4.8a8.009,8.009,0,0,1,8-8h38.08a11.213,11.213,0,0,0,11.2-11.2v-38.01a8.009,8.009,0,0,1,8-8h4.8a1.6,1.6,0,1,1,0,3.2h-4.8a4.806,4.806,0,0,0-4.8,4.8v38.01a14.417,14.417,0,0,1-14.4,14.4H252a4.806,4.806,0,0,0-4.8,4.8v4.8a1.6,1.6,0,0,1-1.6,1.6" transform="translate(702.344 5652.389) rotate(180)" fill="#12263f"/>
      </g>
    </g>
    <g id="Grupo_1115796" data-name="Grupo 1115796" transform="translate(416 1597.286)">
      <g id="Grupo_1115795" data-name="Grupo 1115795" clip-path="url(#clip-path)">
        <path id="Trazado_876996" data-name="Trazado 876996" d="M82.624,128.924a17.309,17.309,0,0,1,12.43,3.5c3.174,2.551,3.811,4.059.546,6.929a17.051,17.051,0,0,1-21.225.631c-3.3-2.532-4.026-4.263-.644-7.2a17.152,17.152,0,0,1,8.892-3.862m-1.9,3.653a5.425,5.425,0,0,0,.576,7.589,6.2,6.2,0,0,0,6.273.263,5.337,5.337,0,0,0,.562-8.191c-1.3-1.173-3.528-1.238-5.205-1.007a6.168,6.168,0,0,0-2.206,1.346m-2.978,6.678a9.41,9.41,0,0,1,0-6.376,11.823,11.823,0,0,0-3.962,3.186c.14.769,3.594,3.529,3.964,3.19m13.667.183c.8-.192,4.013-2.773,4.013-3.371,0-.524-3.178-3.009-3.745-3.186s.161,1.315.222,1.6a8.226,8.226,0,0,1-.49,4.956" transform="translate(-58.491 -105.36)" fill="#12263f"/>
        <path id="Trazado_876997" data-name="Trazado 876997" d="M138.794,102.679c-1.988,2.09-3.4-3.7-.447-2.829.886.261.886,2.367.447,2.829" transform="translate(-111.756 -81.584)" fill="#12263f"/>
        <path id="Trazado_876998" data-name="Trazado 876998" d="M92.954,110.013c1.218-.351,2.568,1.495,1.611,2.348-1.469,1.309-3.5-1.8-1.611-2.348" transform="translate(-75.393 -89.933)" fill="#12263f"/>
        <path id="Trazado_876999" data-name="Trazado 876999" d="M179.86,112.382c-.94-.99,1.147-3.183,2.222-1.951,1.016,1.165-1.161,3.069-2.222,1.951" transform="translate(-146.896 -90.011)" fill="#12263f"/>
        <path id="Trazado_877000" data-name="Trazado 877000" d="M44.577,2.648A4.211,4.211,0,0,1,47.417.022L69.818,0a3.588,3.588,0,0,1,3.161,3.034c.629,4.961-.428,11.108.021,16.2-.284,2.09-1.92,3.186-3.921,3.367-4.7.426-9.989-.315-14.751.007a6.332,6.332,0,0,0-2.109,2.446c-.25,1.879.187,4.332.03,6.275a6.965,6.965,0,0,1,4.241,3.319c.862,1.618.414,1.815,1.847,3.255,1.13,1.135,3.79,3.418,4.542,4.568.909,1.391-.009,2.266.184,2.719l7.752,7.748a2.232,2.232,0,0,1,.225,2.05A53.174,53.174,0,0,1,66.873,59.2a1.727,1.727,0,0,1-2.158-.347c-.343-.264-3.008-2.9-3.1-3.1-.585-1.269.538-2.081,1.8-1.431.554.286,2.291,2.463,2.57,2.485l2.56-2.326.066-.424-7.36-7.411a12.411,12.411,0,0,1-2.627,2.566l-.009.251c.668.808,2.19,1.666,1.356,2.827-1.177,1.638-2.234-.873-2.951-1.063-.337-.089-.954.169-1.415.173-1.567.011-2.34-1.682-3.464-2.566a2.309,2.309,0,0,1-2,1.821H37.653l4.028,9.453c.262.228,4.963-.2,5.863.06.84.24.982,1.877.184,2.111L5.12,62.329a1.1,1.1,0,0,1-.456-2.117c1.1-.357,5.316.2,5.812-.11l4.22-9.445H2.033A2.455,2.455,0,0,1,.116,48.748l0-23.334C.3,23.27,2.307,24.5,2.307,24.876V43.005H44.395c-.239-.613-.66-1.063-.943-1.7-.916-2.056-1.533-7.347-.8-9.423a2.967,2.967,0,0,1,1.465-1.268h5.466c.056,0,.14.231.273.182V27.154c-4.351,1.609-2.567-2.951-3.131-4.794-.119-.389-2.152-1.578-2.152-2.585V13.489H2.307v7.2a1.132,1.132,0,0,1-2.189-.361,52.427,52.427,0,0,1,.041-7.617A3.263,3.263,0,0,1,1.851,11.12H44.577ZM48.95,21.6c.163.914-.119,2.222,0,3.188,1.456-1.1,3.237-4.2,5.054-4.511,4.826-.5,10.547.514,15.265-.04a1.733,1.733,0,0,0,1.551-1.91c-.333-4.642.418-9.836,0-14.41-.1-1.078-.437-1.6-1.554-1.727-6.69.469-14.191-.606-20.784,0-.916.084-1.6.383-1.73,1.369l.018,15.3c.194,1.227,1.961,1.534,2.176,2.743M44.759,32.984v4.464a12.335,12.335,0,0,0,.769,2.875c.709,1.566,2.655,3.279,4.434,2.691.6-.836,5.127-4.806,5.139-5.342a6.2,6.2,0,0,0-.97-2.49c-1.371-1.872-4.908-2.357-7.086-2.389-.811-.012-1.5.146-2.286.191M56.6,39.436l-5.393,5.393L55.6,49.219l5.393-5.393Zm-6.741,8.853c.314-1.3-.468-3.1-1.913-3.1H2.307v3.1Zm-36.8,11.843h4.555c.984-1.792,1.821-4.8,3.017-6.366a2.371,2.371,0,0,1,1.8-.931,54.024,54.024,0,0,1,7.488,0,2.291,2.291,0,0,1,.765.146c1.6.649,2.984,5.733,4.146,7.15h4.464l-4.457-9.488-17.469.043Zm19.131,0c-.549-.794-1.981-4.857-2.677-5.067a2.539,2.539,0,0,0-.5-.046,56.779,56.779,0,0,0-6.481.1,34.334,34.334,0,0,0-2.366,5.013Z" transform="translate(0 0.001)" fill="#12263f"/>
        <path id="Trazado_877001" data-name="Trazado 877001" d="M279.733,56.959a1.229,1.229,0,0,1,.946-1.966l13.485.013c1.567.769,1.173,2.171-.542,2.364-3.963.445-8.708-.336-12.758.005a2.684,2.684,0,0,1-1.132-.416" transform="translate(-228.549 -44.974)" fill="#12263f"/>
        <path id="Trazado_877002" data-name="Trazado 877002" d="M280.213,29.094l14.169-.035a1.114,1.114,0,0,1-.357,2.186c-4.2-.369-9.207.481-13.307,0-1.318-.155-1.664-1.5-.5-2.151" transform="translate(-228.583 -23.764)" fill="#12263f"/>
        <path id="Trazado_877003" data-name="Trazado 877003" d="M280.6,81.651a53.72,53.72,0,0,1,7.062-.034,1.124,1.124,0,0,1,0,2.177,55.808,55.808,0,0,1-7.1,0,1.11,1.11,0,0,1,.035-2.144" transform="translate(-228.788 -66.665)" fill="#12263f"/>
      </g>
    </g>
  </g>
</svg>
