<svg xmlns="http://www.w3.org/2000/svg" xmlns:xlink="http://www.w3.org/1999/xlink" width="99.001" height="98.908" viewBox="0 0 99.001 98.908">
  <defs>
    <clipPath id="clip-path">
      <rect id="Rect치ngulo_413576" data-name="Rect치ngulo 413576" width="45.435" height="55.952" fill="#12263f"/>
    </clipPath>
  </defs>
  <g id="Grupo_1116025" data-name="Grupo 1116025" transform="translate(1320.211 6252.815)">
    <g id="Grupo_1115404" data-name="Grupo 1115404" transform="translate(-1706.878 -11589.815)">
      <rect id="Rect치ngulo_412780" data-name="Rect치ngulo 412780" width="93.637" height="93.545" rx="20" transform="translate(389.349 5339.695)" fill="#b0c2e5"/>
      <g id="Grupo_1114814" data-name="Grupo 1114814" transform="translate(386.667 5337)">
        <path id="Trazado_875775" data-name="Trazado 875775" d="M245.284,301.406A1.288,1.288,0,0,1,244,300.118v-3.863a6.445,6.445,0,0,1,6.438-6.438h30.644a9.024,9.024,0,0,0,9.013-9.013V250.216a6.445,6.445,0,0,1,6.438-6.438h3.863a1.288,1.288,0,1,1,0,2.575h-3.863a3.867,3.867,0,0,0-3.863,3.863V280.8a11.6,11.6,0,0,1-11.588,11.588H250.434a3.867,3.867,0,0,0-3.863,3.863v3.863a1.288,1.288,0,0,1-1.288,1.288" transform="translate(-202.679 -202.498)" fill="#12263f"/>
        <path id="Trazado_875777" data-name="Trazado 875777" d="M1.288,57.628A1.288,1.288,0,0,1,0,56.34V52.477a6.445,6.445,0,0,1,6.438-6.438H37.082A9.024,9.024,0,0,0,46.1,37.026V6.438A6.445,6.445,0,0,1,52.533,0H56.4a1.288,1.288,0,0,1,0,2.575H52.533a3.867,3.867,0,0,0-3.863,3.863V37.026A11.6,11.6,0,0,1,37.082,48.614H6.438a3.867,3.867,0,0,0-3.863,3.863V56.34a1.288,1.288,0,0,1-1.288,1.288" transform="translate(57.684 57.628) rotate(180)" fill="#12263f"/>
      </g>
    </g>
    <g id="Grupo_1115778" data-name="Grupo 1115778" transform="translate(-1295.428 -6230.337)">
      <g id="Grupo_1115777" data-name="Grupo 1115777" clip-path="url(#clip-path)">
        <path id="Trazado_876837" data-name="Trazado 876837" d="M13.009,54.077a4.013,4.013,0,0,1-1.128,1.389,2.7,2.7,0,0,1-4.192-2.5V38.908a10.063,10.063,0,0,1-6.207-4.632A10.46,10.46,0,0,1,9.513,18.482L9.584.581l.524-.455C19.22-.1,28.39.046,37.522.053l.668.311L45.239,7.3c.391.427.077.954.072,1.455-.162,13.614.13,27.238.014,40.853l-.279.84-32.037.412c-.13.944.176,2.339,0,3.217M36.646,1.838H11.331V18.272c.422.345,1.163.25,1.71.388a9.9,9.9,0,0,0,1.851.527l24.893,0c1.319.216.691,1.81.288,1.81H17.485c.37.253,1.363,1.661,1.6,1.689l20.7,0c1.319.216.691,1.81.288,1.81H20a10.42,10.42,0,0,1-6.993,14.546v9.79H43.5v-40H37.275a1.366,1.366,0,0,1-.629-.629ZM42.1,7.013,38.464,3.377V7.013ZM19.178,28.867a8.673,8.673,0,1,0-8.673,8.673,8.673,8.673,0,0,0,8.673-8.673M11.191,39.321H9.512V53.378c0,.826,1.678.9,1.678.28Z" transform="translate(0 -0.001)" fill="#12263f"/>
        <path id="Trazado_876838" data-name="Trazado 876838" d="M142.119,287.286a1.383,1.383,0,0,1,.326.722,28.874,28.874,0,0,1,0,4.344c-.053.454-.19.759-.662.877l-23.474.037a.81.81,0,0,1-.758-.64,37.636,37.636,0,0,1,0-4.889.823.823,0,0,1,.656-.6L141.4,287.1a1.158,1.158,0,0,1,.723.188m-1.5,1.636H119.362v2.518h21.259Z" transform="translate(-101.038 -246.943)" fill="#12263f"/>
        <path id="Trazado_876839" data-name="Trazado 876839" d="M166.763,187.149l12.281-.033a1.077,1.077,0,0,1,1.053.905c-.244,3.339.3,7.074,0,10.363-.074.806-.256.977-1.049,1.049-3.777.345-8.068-.276-11.9,0-.915,0-1.114-.538-1.188-1.33a70.813,70.813,0,0,1,0-9.661c.055-.595.15-1.118.8-1.293m11.509,1.788h-10.35v8.672h10.35Z" transform="translate(-142.605 -160.945)" fill="#12263f"/>
        <path id="Trazado_876840" data-name="Trazado 876840" d="M97.553,87.149l25.428-.033a.918.918,0,0,1,.144,1.829H97.656a.919.919,0,0,1-.1-1.8" transform="translate(-83.326 -74.932)" fill="#12263f"/>
        <path id="Trazado_876841" data-name="Trazado 876841" d="M97.553,112.149l25.428-.033a.918.918,0,0,1,.144,1.829H97.656a.919.919,0,0,1-.1-1.8" transform="translate(-83.326 -96.435)" fill="#12263f"/>
        <path id="Trazado_876842" data-name="Trazado 876842" d="M97.553,37.353l13.6.043c.791.464.817,1.622-.2,1.752h-13.3a.919.919,0,0,1-.1-1.8" transform="translate(-83.326 -32.129)" fill="#12263f"/>
        <path id="Trazado_876843" data-name="Trazado 876843" d="M97.553,62.353l13.6.043c.791.464.817,1.622-.2,1.752h-13.3a.919.919,0,0,1-.1-1.8" transform="translate(-83.326 -53.632)" fill="#12263f"/>
        <path id="Trazado_876844" data-name="Trazado 876844" d="M39.033,163.3a7.012,7.012,0,1,1-7.012-7.012,7.012,7.012,0,0,1,7.012,7.012m-1.833,0a5.185,5.185,0,1,0-5.185,5.185,5.185,5.185,0,0,0,5.185-5.185" transform="translate(-21.511 -134.426)" fill="#12263f"/>
        <path id="Trazado_876845" data-name="Trazado 876845" d="M194.829,216.088a.976.976,0,0,1,.269-1.531c.919-.4,1.385.733,1.572.733.226,0,2.568-2.785,3.095-3.057.755-.389,1.745-.1,1.57.858-.126.691-3.556,3.584-4.21,4.333-.613.475-1.969-.872-2.295-1.336" transform="translate(-167.366 -182.404)" fill="#12263f"/>
      </g>
    </g>
  </g>
</svg>
