<svg xmlns="http://www.w3.org/2000/svg" xmlns:xlink="http://www.w3.org/1999/xlink" width="123.023" height="122.908" viewBox="0 0 123.023 122.908">
  <defs>
    <clipPath id="clip-path">
      <rect id="Rect치ngulo_413605" data-name="Rect치ngulo 413605" width="69.116" height="69.396" fill="#12263f"/>
    </clipPath>
  </defs>
  <g id="Grupo_1116044" data-name="Grupo 1116044" transform="translate(-737.663 -1570)">
    <g id="Grupo_1115415" data-name="Grupo 1115415" transform="translate(350.996 -3767)">
      <rect id="Rect치ngulo_412780" data-name="Rect치ngulo 412780" width="116.357" height="116.243" rx="20" transform="translate(390 5340.349)" fill="#b0c2e5"/>
      <g id="Grupo_1114814" data-name="Grupo 1114814">
        <path id="Trazado_875775" data-name="Trazado 875775" d="M245.6,315.389a1.6,1.6,0,0,1-1.6-1.6v-4.8a8.009,8.009,0,0,1,8-8h38.08a11.213,11.213,0,0,0,11.2-11.2v-38.01a8.009,8.009,0,0,1,8-8h4.8a1.6,1.6,0,1,1,0,3.2h-4.8a4.806,4.806,0,0,0-4.8,4.8v38.01a14.417,14.417,0,0,1-14.4,14.4H252a4.806,4.806,0,0,0-4.8,4.8v4.8a1.6,1.6,0,0,1-1.6,1.6" transform="translate(194.014 5144.519)" fill="#12263f"/>
        <path id="Trazado_875777" data-name="Trazado 875777" d="M245.6,315.389a1.6,1.6,0,0,1-1.6-1.6v-4.8a8.009,8.009,0,0,1,8-8h38.08a11.213,11.213,0,0,0,11.2-11.2v-38.01a8.009,8.009,0,0,1,8-8h4.8a1.6,1.6,0,1,1,0,3.2h-4.8a4.806,4.806,0,0,0-4.8,4.8v38.01a14.417,14.417,0,0,1-14.4,14.4H252a4.806,4.806,0,0,0-4.8,4.8v4.8a1.6,1.6,0,0,1-1.6,1.6" transform="translate(702.344 5652.389) rotate(180)" fill="#12263f"/>
      </g>
    </g>
    <g id="Grupo_1115798" data-name="Grupo 1115798" transform="translate(765.442 1596.756)">
      <g id="Grupo_1115797" data-name="Grupo 1115797" clip-path="url(#clip-path)">
        <path id="Trazado_877004" data-name="Trazado 877004" d="M191.944,82.331a1.424,1.424,0,0,1,1.842-.137c.915.657,1.076,4.759-1.388,3.978-1.134-.359-1.113-3.122-.454-3.842" transform="translate(-158.394 -67.763)" fill="#12263f"/>
        <path id="Trazado_877005" data-name="Trazado 877005" d="M297.631,193.117a1.424,1.424,0,0,1,.137,1.842c-.657.915-4.759,1.076-3.978-1.388.359-1.134,3.122-1.113,3.842-.454" transform="translate(-242.933 -159.365)" fill="#12263f"/>
        <path id="Trazado_877006" data-name="Trazado 877006" d="M81.757,192.691c.858-.191,3.116-.237,3.332.92.336,1.808-1.506,1.975-2.854,1.811-1.762-.214-1.968-2.4-.477-2.732" transform="translate(-66.805 -159.302)" fill="#12263f"/>
        <path id="Trazado_877007" data-name="Trazado 877007" d="M192.3,294.776c2.985-.893,2.448,5.579-.189,4.092-.978-.551-.922-3.759.189-4.092" transform="translate(-158.334 -243.761)" fill="#12263f"/>
        <path id="Trazado_877008" data-name="Trazado 877008" d="M248.791,10.066a1.348,1.348,0,1,1-1.349-1.349,1.349,1.349,0,0,1,1.349,1.349" transform="translate(-203.563 -7.21)" fill="#12263f"/>
        <path id="Trazado_877009" data-name="Trazado 877009" d="M60.111,15.9a11.428,11.428,0,0,1-.039,1.6,1.394,1.394,0,0,1-2.518.345c-.324-.629-.3-4.591-.217-5.5.087-.932.258-1.519,1.3-1.639A35.8,35.8,0,0,1,64,10.7c1,.122,1.288.877,1.113,1.817-.231,1.239-2.409.836-3.279,1.042a34.629,34.629,0,0,1,6.889,15.924c4.249,29.057-27.2,50.152-52.328,34.7C-5.931,50.455-5.347,17.514,17.478,4.633,22.863,1.594,32.757-1.109,38.819.461A1.331,1.331,0,0,1,38.9,3.069C21.967.961,6.055,12.347,3.159,29.2A31.888,31.888,0,0,0,41.932,65.726C63.936,60.577,73.811,34,60.111,15.9" transform="translate(0 0)" fill="#12263f"/>
        <path id="Trazado_877010" data-name="Trazado 877010" d="M94.825,94.517a1.351,1.351,0,1,1-1.351-1.351,1.351,1.351,0,0,1,1.351,1.351" transform="translate(-76.202 -77.064)" fill="#12263f"/>
        <path id="Trazado_877011" data-name="Trazado 877011" d="M56.7,62.854c.826,1.024-.5,2.436-.936,3.37-11.938,25.4,20.74,45.623,37.967,25.7,16.216-18.756-4.673-46.809-27.938-35.715-1.007.48-2.612,2.089-3.594.718-1.076-1.5,1.262-2.56,2.384-3.138C87.155,42.166,111.3,67.4,98.606,89.708c-13.319,23.4-49.792,12.6-48.074-14.718.186-2.964,1.965-9.9,4.058-12.015a1.4,1.4,0,0,1,2.11-.121" transform="translate(-41.75 -42.069)" fill="#12263f"/>
        <path id="Trazado_877012" data-name="Trazado 877012" d="M168.548,121.906c1.32-.317,2.123.558,1.677,1.852-2.913,3.341-6.248,6.325-9.334,9.518a5.353,5.353,0,0,1,.073,4.033c-2.021,4.954-9.549,3-8.944-2.378.047-.416.5-1.42.472-1.549-.094-.5-4.125-3.891-4.617-4.713-.714-1.538.4-2.658,1.944-1.944.821.493,4.215,4.524,4.713,4.617.146.027.912-.355,1.262-.414a4.919,4.919,0,0,1,3.009.414c3.332-3.052,6.263-6.573,9.746-9.437m-9.95,13.611a1.931,1.931,0,1,0-1.931,1.931,1.931,1.931,0,0,0,1.931-1.931" transform="translate(-122.136 -100.783)" fill="#12263f"/>
      </g>
    </g>
  </g>
</svg>
