<svg xmlns="http://www.w3.org/2000/svg" xmlns:xlink="http://www.w3.org/1999/xlink" width="99.001" height="98.908" viewBox="0 0 99.001 98.908">
  <defs>
    <clipPath id="clip-path">
      <rect id="Rect치ngulo_413472" data-name="Rect치ngulo 413472" width="40.79" height="48.359" fill="#12263f"/>
    </clipPath>
  </defs>
  <g id="Grupo_1116006" data-name="Grupo 1116006" transform="translate(-1190.999 -833)">
    <g id="Grupo_1115364" data-name="Grupo 1115364" transform="translate(804.332 -4504)">
      <rect id="Rect치ngulo_412780" data-name="Rect치ngulo 412780" width="93.637" height="93.545" rx="20" transform="translate(389.349 5339.695)" fill="#b0c2e5"/>
      <g id="Grupo_1114814" data-name="Grupo 1114814" transform="translate(386.667 5337)">
        <path id="Trazado_875775" data-name="Trazado 875775" d="M245.284,301.406A1.288,1.288,0,0,1,244,300.118v-3.863a6.445,6.445,0,0,1,6.438-6.438h30.644a9.024,9.024,0,0,0,9.013-9.013V250.216a6.445,6.445,0,0,1,6.438-6.438h3.863a1.288,1.288,0,1,1,0,2.575h-3.863a3.867,3.867,0,0,0-3.863,3.863V280.8a11.6,11.6,0,0,1-11.588,11.588H250.434a3.867,3.867,0,0,0-3.863,3.863v3.863a1.288,1.288,0,0,1-1.288,1.288" transform="translate(-202.679 -202.498)" fill="#12263f"/>
        <path id="Trazado_875777" data-name="Trazado 875777" d="M1.288,57.628A1.288,1.288,0,0,1,0,56.34V52.477a6.445,6.445,0,0,1,6.438-6.438H37.082A9.024,9.024,0,0,0,46.1,37.026V6.438A6.445,6.445,0,0,1,52.533,0H56.4a1.288,1.288,0,0,1,0,2.575H52.533a3.867,3.867,0,0,0-3.863,3.863V37.026A11.6,11.6,0,0,1,37.082,48.614H6.438a3.867,3.867,0,0,0-3.863,3.863V56.34a1.288,1.288,0,0,1-1.288,1.288" transform="translate(57.684 57.628) rotate(180)" fill="#12263f"/>
      </g>
    </g>
    <g id="Grupo_1115691" data-name="Grupo 1115691" transform="translate(1220.105 857)">
      <g id="Grupo_1115690" data-name="Grupo 1115690" clip-path="url(#clip-path)">
        <path id="Trazado_876515" data-name="Trazado 876515" d="M31.76,53.164c2.1.878,2.7,2.965,2.592,5.083a4.475,4.475,0,0,1,3.1,5.237c.5.339,1.051.492,1.551.872a4.415,4.415,0,0,1,.8,6.335c-3.791,3.634-7.306,7.573-11.1,11.195-1.377,1.314-2.479,2.278-4.491,2.457l-14.08-.055-.6-.363L.285,74.671a1.38,1.38,0,0,1,0-1.68l4.17-4.168c.263-5.914.043-11.938.111-17.894a2.328,2.328,0,0,1,1.222-1.557,5.86,5.86,0,0,1,8.673,2.423c.662,1.472.673,3.161,1.286,4.633L30.066,42.107a4.471,4.471,0,0,1,7.225,4.808c-.747,2.117-4.154,4.115-5.414,5.946-.07.1-.165.127-.117.3m-6.3,12.829a4.529,4.529,0,0,1-3.128-7.573L34.474,46.273a1.642,1.642,0,0,0-2.6-1.992L16.949,59.209c-.133.258.569.774.772,1.047a9.063,9.063,0,0,1,.688,9.951C17.8,71.3,16.5,73.326,15.041,72.242c-1.435-1.068.444-2.531.951-3.484a6.182,6.182,0,0,0-.726-7.013c-.389-.471-1.046-.916-1.391-1.389-1.037-1.423-1.183-5.581-1.994-7.432A3.022,3.022,0,0,0,7.369,51.8L7.342,69.655l-.235.49c-.39.5-3.662,3.473-3.617,3.73l7.489,7.5.654.192c3.858-.232,8.034.289,11.853,0a4,4,0,0,0,2.234-.787l6.643-6.65A4.7,4.7,0,0,1,29.7,70.215a4.463,4.463,0,0,1-4.237-4.222m4.093-10.381a2.194,2.194,0,0,0-.935.514,39.487,39.487,0,0,0-4.207,4.252,1.612,1.612,0,0,0,2.146,2.388,61.48,61.48,0,0,0,4.655-4.65,1.6,1.6,0,0,0-1.658-2.5m3.264,5.313a3.215,3.215,0,0,0-.938.516,33.656,33.656,0,0,0-3.386,3.5,1.628,1.628,0,0,0,2.227,2.226l3.805-3.807a1.665,1.665,0,0,0-1.707-2.437m3.017,5.439a11.845,11.845,0,0,0-3.172,3.11,1.615,1.615,0,0,0,2.474,1.87,26.318,26.318,0,0,0,2.676-2.762,1.63,1.63,0,0,0-1.978-2.219" transform="translate(0 -35.983)" fill="#12263f"/>
        <path id="Trazado_876516" data-name="Trazado 876516" d="M114.556.425a1.875,1.875,0,0,1,.4.986,40.584,40.584,0,0,1-.011,6.153,1.438,1.438,0,0,1-2.861.1,38.918,38.918,0,0,1-.015-6.241,1.47,1.47,0,0,1,2.483-1" transform="translate(-98.426 0.001)" fill="#12263f"/>
        <path id="Trazado_876517" data-name="Trazado 876517" d="M165.952,38.039c1.236-.285,2.306.682,1.789,1.907a14.459,14.459,0,0,1-2.071,2.16,1.427,1.427,0,0,1-2.045-1.8,11.02,11.02,0,0,1,2.328-2.263" transform="translate(-143.774 -33.398)" fill="#12263f"/>
        <path id="Trazado_876518" data-name="Trazado 876518" d="M51.61,38.056a1.82,1.82,0,0,1,1.168.11,23.276,23.276,0,0,1,1.994,1.994,1.424,1.424,0,0,1-1.963,1.962,21.878,21.878,0,0,1-1.994-1.993,1.484,1.484,0,0,1,.8-2.073" transform="translate(-44.538 -33.415)" fill="#12263f"/>
      </g>
    </g>
  </g>
</svg>
