<svg xmlns="http://www.w3.org/2000/svg" xmlns:xlink="http://www.w3.org/1999/xlink" width="99.001" height="98.908" viewBox="0 0 99.001 98.908">
  <defs>
    <clipPath id="clip-path">
      <rect id="Rect치ngulo_413651" data-name="Rect치ngulo 413651" width="52.838" height="50.644" fill="#12263f"/>
    </clipPath>
  </defs>
  <g id="Grupo_1116059" data-name="Grupo 1116059" transform="translate(-8281.842 7918)">
    <g id="Grupo_1115446" data-name="Grupo 1115446" transform="translate(7895.175 -13255)">
      <rect id="Rect치ngulo_412780" data-name="Rect치ngulo 412780" width="93.637" height="93.545" rx="20" transform="translate(389.349 5339.695)" fill="#b0c2e5"/>
      <g id="Grupo_1114814" data-name="Grupo 1114814" transform="translate(386.667 5337)">
        <path id="Trazado_875775" data-name="Trazado 875775" d="M245.284,301.406A1.288,1.288,0,0,1,244,300.118v-3.863a6.445,6.445,0,0,1,6.438-6.438h30.644a9.024,9.024,0,0,0,9.013-9.013V250.216a6.445,6.445,0,0,1,6.438-6.438h3.863a1.288,1.288,0,1,1,0,2.575h-3.863a3.867,3.867,0,0,0-3.863,3.863V280.8a11.6,11.6,0,0,1-11.588,11.588H250.434a3.867,3.867,0,0,0-3.863,3.863v3.863a1.288,1.288,0,0,1-1.288,1.288" transform="translate(-202.679 -202.498)" fill="#12263f"/>
        <path id="Trazado_875777" data-name="Trazado 875777" d="M1.288,57.628A1.288,1.288,0,0,1,0,56.34V52.477a6.445,6.445,0,0,1,6.438-6.438H37.082A9.024,9.024,0,0,0,46.1,37.026V6.438A6.445,6.445,0,0,1,52.533,0H56.4a1.288,1.288,0,0,1,0,2.575H52.533a3.867,3.867,0,0,0-3.863,3.863V37.026A11.6,11.6,0,0,1,37.082,48.614H6.438a3.867,3.867,0,0,0-3.863,3.863V56.34a1.288,1.288,0,0,1-1.288,1.288" transform="translate(57.684 57.628) rotate(180)" fill="#12263f"/>
      </g>
    </g>
    <g id="Grupo_1115849" data-name="Grupo 1115849" transform="translate(8310.343 -7893.868)">
      <g id="Grupo_1115848" data-name="Grupo 1115848" clip-path="url(#clip-path)">
        <path id="Trazado_877307" data-name="Trazado 877307" d="M39.508,49.071a2.077,2.077,0,0,1-1.838,1.566l-35.679.005A1.935,1.935,0,0,1,.116,49.25c-.155-15.939-.155-31.94,0-47.877A1.9,1.9,0,0,1,1.622.02L32.212,0a3.193,3.193,0,0,1,1.237.533A55.393,55.393,0,0,1,38.9,5.977a2.416,2.416,0,0,1,.616,1.562V22.654c.058.306,1.6,1.544,1.972,1.976A11.25,11.25,0,0,1,43.6,35.461c-.246.733-.7,1.412-.944,2.145a20.933,20.933,0,0,0,1.894,1.932c.564.257,1.455-.189,1.972.343,1.548,1.96,4.543,3.814,5.924,5.786a1.71,1.71,0,0,1,.061,2.1c-.162.247-1.91,2.106-2.17,2.324a1.854,1.854,0,0,1-2.525.069c-1.9-1.4-3.879-4.114-5.789-5.649-.568-.411-.169-1.5-.273-1.782-.069-.187-1.844-1.968-2.24-1.9Zm-7.9-47.314H1.793v47.11H37.738V41.923a11.535,11.535,0,0,1-8.915.132l-14.031.007a.935.935,0,0,1-.92-1.187,2.588,2.588,0,0,1,.515-.586H25.893a20.726,20.726,0,0,1-2.813-3.655l-8.666-.054c-.881-.173-.624-1.6-.026-1.6h8.1c-.136-.4-.193-1.923-.5-2.024l-7.461-.028a.816.816,0,0,1,.125-1.625c2.317-.253,5.043.2,7.4-.019a20.983,20.983,0,0,1,.836-3.657h-8.51a1.5,1.5,0,0,1-.578-.861c.033-.723.657-.859,1.254-.914,2.8-.259,5.988.2,8.828.008l1.457-1.909H14.388c-.538,0-.892-1.456,0-1.631H27.326a12.1,12.1,0,0,1,10.413-.548V7.884H32.9a1.755,1.755,0,0,1-1.293-1.293Zm4.9,4.357L33.381,2.983V6.114Zm5.95,25.753a9.325,9.325,0,1,0-9.325,9.325,9.325,9.325,0,0,0,9.325-9.325M41.5,39.074c-.158.027-.556.437-.436.669A21.143,21.143,0,0,0,42.7,41.25c.419.29.77-.374.69-.554A13.867,13.867,0,0,0,41.5,39.074m3.99,2.088-2.186,2.191,5.671,5.657,2.185-2.191Z" transform="translate(0 0.001)" fill="#12263f"/>
        <path id="Trazado_877308" data-name="Trazado 877308" d="M93.573,25.738a9.659,9.659,0,1,1-9.659-9.659,9.659,9.659,0,0,1,9.659,9.659m-1.714,0a7.946,7.946,0,1,0-7.946,7.946,7.946,7.946,0,0,0,7.946-7.946" transform="translate(-64.145 -13.89)" fill="#12263f"/>
        <path id="Trazado_877309" data-name="Trazado 877309" d="M101.833,323.039a1.205,1.205,0,0,1,.708-.177h18.8c.969.108,1.171,1.506.136,1.647H102.268c-.718.006-.89-1.037-.435-1.469" transform="translate(-87.751 -278.902)" fill="#12263f"/>
        <path id="Trazado_877310" data-name="Trazado 877310" d="M37.193,164.78c-.423-.422-.366-4.028-.31-4.807.058-.808.073-1.453,1.024-1.563a30.535,30.535,0,0,1,4.23,0c.869.06,1.207.066,1.294,1.021a32.93,32.93,0,0,1,0,4.779.771.771,0,0,1-.749.749,33.1,33.1,0,0,1-4.778,0c-.212-.018-.56-.023-.711-.174m4.6-4.6H38.659v3.132h2.927a1.366,1.366,0,0,0,.2-.2Z" transform="translate(-31.828 -136.777)" fill="#12263f"/>
        <path id="Trazado_877311" data-name="Trazado 877311" d="M43.241,297.548a2.014,2.014,0,0,1-.846.311,27.067,27.067,0,0,1-4.814-.095.922.922,0,0,1-.441-.24c-.366-.457-.333-4.139-.269-4.917.073-.868.14-1.218,1.021-1.293a33.116,33.116,0,0,1,4.778,0c.566.073.7.363.75.884a34.033,34.033,0,0,1,0,4.644,1.217,1.217,0,0,1-.177.708m-1.462-1.463v-2.927a1.366,1.366,0,0,0-.2-.2H38.852a1.366,1.366,0,0,0-.2.2v2.927Z" transform="translate(-31.816 -251.574)" fill="#12263f"/>
        <path id="Trazado_877312" data-name="Trazado 877312" d="M37.576,225.417a35.2,35.2,0,0,1,5.151-.037.771.771,0,0,1,.749.749,45.094,45.094,0,0,1-.078,5.246.814.814,0,0,1-.671.419,33.757,33.757,0,0,1-4.916,0c-.243-.024-.433.019-.615-.2-.388-.469-.392-5.419-.052-5.927a.693.693,0,0,1,.433-.248m1.127,4.735h3.132v-3.132H38.7Z" transform="translate(-31.872 -194.628)" fill="#12263f"/>
        <path id="Trazado_877313" data-name="Trazado 877313" d="M199.727,182.233a8.163,8.163,0,1,1-8.163-8.163,8.163,8.163,0,0,1,8.163,8.163m-1.708,0a6.45,6.45,0,1,0-6.45,6.45,6.45,6.45,0,0,0,6.45-6.45" transform="translate(-158.43 -150.369)" fill="#12263f"/>
        <path id="Trazado_877314" data-name="Trazado 877314" d="M132.746,43.941c1.284.81,2.027,2.481.747,3.673-2.411,2.245-5.34-2.283-1.972-3.607a1.81,1.81,0,0,1-1.22-1.232c-.367-2.336-.055-5.076-.268-7.47.292-2.076,3.557-2.159,4.066-.141-.083,2.036.016,4.245-.123,6.262-.065.946-.157,2.179-1.231,2.515m-.273-8.443h-.816l.272,6.806.272-.2Zm-.045,10.593a.363.363,0,1,0-.363.363.363.363,0,0,0,.363-.363" transform="translate(-112.299 -29.11)" fill="#12263f"/>
      </g>
    </g>
  </g>
</svg>
