<svg xmlns="http://www.w3.org/2000/svg" xmlns:xlink="http://www.w3.org/1999/xlink" width="123.023" height="122.907" viewBox="0 0 123.023 122.907">
  <defs>
    <clipPath id="clip-path">
      <rect id="Rect치ngulo_413608" data-name="Rect치ngulo 413608" width="67.354" height="67.392" fill="#12263f"/>
    </clipPath>
  </defs>
  <g id="Grupo_1116047" data-name="Grupo 1116047" transform="translate(-3222.842 10112.167)">
    <g id="Grupo_1115417" data-name="Grupo 1115417" transform="translate(2836.175 -15449.167)">
      <rect id="Rect치ngulo_412780" data-name="Rect치ngulo 412780" width="116.357" height="116.243" rx="20" transform="translate(390 5340.349)" fill="#b0c2e5"/>
      <g id="Grupo_1114814" data-name="Grupo 1114814">
        <path id="Trazado_875775" data-name="Trazado 875775" d="M245.6,315.389a1.6,1.6,0,0,1-1.6-1.6v-4.8a8.009,8.009,0,0,1,8-8h38.08a11.213,11.213,0,0,0,11.2-11.2v-38.01a8.009,8.009,0,0,1,8-8h4.8a1.6,1.6,0,1,1,0,3.2h-4.8a4.806,4.806,0,0,0-4.8,4.8v38.01a14.417,14.417,0,0,1-14.4,14.4H252a4.806,4.806,0,0,0-4.8,4.8v4.8a1.6,1.6,0,0,1-1.6,1.6" transform="translate(194.014 5144.519)" fill="#12263f"/>
        <path id="Trazado_875777" data-name="Trazado 875777" d="M245.6,315.389a1.6,1.6,0,0,1-1.6-1.6v-4.8a8.009,8.009,0,0,1,8-8h38.08a11.213,11.213,0,0,0,11.2-11.2v-38.01a8.009,8.009,0,0,1,8-8h4.8a1.6,1.6,0,1,1,0,3.2h-4.8a4.806,4.806,0,0,0-4.8,4.8v38.01a14.417,14.417,0,0,1-14.4,14.4H252a4.806,4.806,0,0,0-4.8,4.8v4.8a1.6,1.6,0,0,1-1.6,1.6" transform="translate(702.344 5652.389) rotate(180)" fill="#12263f"/>
      </g>
    </g>
    <g id="Grupo_1115804" data-name="Grupo 1115804" transform="translate(3250.677 -10084.41)">
      <g id="Grupo_1115803" data-name="Grupo 1115803" clip-path="url(#clip-path)">
        <path id="Trazado_877030" data-name="Trazado 877030" d="M3.62,26.109c1.428.556,3.768,2.636,5.093,2.991a9.533,9.533,0,0,0,3.167-.625c.147-.193.081-.324-.008-.514-.205-.435-1.5-1.368-1.909-1.964C8.6,24,8.547,20.961,8.75,18.61a7.682,7.682,0,0,1,7.92-6.647c-.152-.485-1.241-2.58-1.1-2.856l5.486-5.484a.4.4,0,0,1,.375-.053c.765.193,2.631,2.081,3.369,1.968.845-.129,2.83-1.524,3.916-1.653L29.475.018,37.789,0l.937,3.969c.95-.008,3.334,1.587,3.961,1.586.588,0,2.413-1.65,3.125-1.926.182-.07.3-.144.489-.006l5.486,5.484c.16.322-1,2.322-1.1,2.856a7.738,7.738,0,0,1,7.654,5.566c.653,2.267.45,6.334-.885,8.36-.439.666-1.759,1.625-1.97,2.072-.089.189-.155.321-.008.514.231.3,5.14,1.1,5.875,1.638.655-.107,3.027-1.815,3.4-1.815h2.61V44.042L47.986,53.805c-.324,1.551-.661,2.823-2.236,3.489-.276.117-1.234.273-1.276.324a5.165,5.165,0,0,1-.864,2.251,4.629,4.629,0,0,1-2.352.932c-.039.039-.05.774-.162,1.1a3.332,3.332,0,0,1-1.908,1.965c-.31.136-.767.076-.969.209-.184.121-.358,1.008-.522,1.33a3.409,3.409,0,0,1-4.737,1.579c-.389-.189-1.455-1.251-1.554-1.259a12.405,12.405,0,0,1-1.853.594,3.6,3.6,0,0,1-2.984-1.7,10.933,10.933,0,0,1-.49-1.614c-.275-.273-2.073-.183-2.876-1.755a8.212,8.212,0,0,1-.324-1.444c-.038-.046-.91-.179-1.154-.278A3.83,3.83,0,0,1,20,58.054c-.228-.406-.426-1.561-.491-1.614a5.045,5.045,0,0,1-1.91-.7c-1.2-.959-.894-1.931-1.441-2.6a17.086,17.086,0,0,0-3.193-1.773c.1,1.357-1.3.751-2.234.8L0,48.673V26.109ZM36.012,2.221h-4.67c-.3.194-.418,2.967-.863,3.431-.172.18-2.878.972-3.483,1.232-.547.235-1.849,1.115-2.2,1.185-.831.166-2.351-1.5-3.083-1.752-.146-.051-.155-.09-.325,0a32.906,32.906,0,0,0-3.323,3.376c.477.643.744,2.3,1.119,2.834.226.32,2.174,1.032,2.453,1.8,5.345-8.694,18.511-8.99,23.829-.166l.241-.006c.508-.728,1.888-1.1,2.359-1.684A11.477,11.477,0,0,0,49.17,9.7c-.054-.517-2.806-2.842-3.31-3.439C45.527,6.2,43.387,8.13,42.7,8.1c-.276-.014-1.955-1.043-2.461-1.261-.7-.3-3.3-.973-3.494-1.389-.25-.533-.5-3.073-.732-3.226m10.6,25.6c-.04-.07-.967-.728-1.231-1.038-2.118-2.477-2.357-5.994-1.683-9.1.109-.5.585-1.234.468-1.63-.446-1.508-3.316-3.978-4.7-4.742a11.851,11.851,0,0,0-13.273,1.158c-.719.583-3.156,3.076-3.081,3.924.025.287.459,1.017.556,1.454.676,3.058.394,6.5-1.687,8.932-.4.472-1.792,1.242-1.1,1.77A38.416,38.416,0,0,0,25,29.562a27.266,27.266,0,0,0,3.864-.936c.178-.049.332-.06.429-.248.132-.484-1.4-1.639-1.756-2.112-1.851-2.472-1.983-7.5-.632-10.207a7.571,7.571,0,0,1,12.9-.884c2,2.9,2.114,8.359-.073,11.186-.339.438-1.986,1.617-1.609,2.114a27.2,27.2,0,0,0,4.326,1.078,39.312,39.312,0,0,0,4.02-1,.64.64,0,0,0,.132-.732m-29.265,6.2v2.357a25.346,25.346,0,0,0,3.351-.69c.066-.076.014-1.574.093-2.012.2-1.123,1.082-1.812,1.268-2.437.1-.345-.095-.208-.252-.245-1.1-.255-2.19-.535-3.288-.774l0-3.49c3.787-1.618,4.189-7.762,1.851-10.638a5.329,5.329,0,0,0-9.433,3.019c-.207,2.771-.192,4.893,1.947,6.823.513.463,1.159.461,1.268,1.258a17.355,17.355,0,0,1-.083,2.965c-.246.351-2.025.244-2.283.83Zm27.278,4.8a31.43,31.43,0,0,0,0-3.873,5.51,5.51,0,0,0-.767-2.1c-1.308-1.692-5.954-1.787-7.915-2.693A16.476,16.476,0,0,1,35.9,26.9c.074-.244,1.579-1.219,1.985-1.72,1.715-2.119,1.668-6.791,0-8.92a5.377,5.377,0,0,0-9.58,2.544c-.3,2.613-.158,5.469,2.017,7.207.266.213,1.1.576,1.136.631a20.25,20.25,0,0,1-.047,3.519c-2.372,1.1-7.51.791-8.432,3.691-.658,2.071.55,1.11,1.857,1.016,3.815-.274,8.029,1.23,11.744,2.227,1.395.374,6.628,2.163,7.614,1.984.153-.028.379-.11.424-.256m2.021-5.052c.182,1.167-.134,2.74,0,3.957L58.429,31.5,53.284,30.16a16.475,16.475,0,0,1-.043-3.262c.077-.252,1.742-1.327,2.157-1.884,1.411-1.894,1.46-6.448.141-8.391a5.355,5.355,0,0,0-9.155.219c-1.275,2.255-1.12,6.764.756,8.684.4.4,1.667,1.022,1.7,1.335l-.014,3.456-3.534.676c.3.9,1.194,1.8,1.346,2.777M2.189,28.3V46.9A25.772,25.772,0,0,0,6.9,48.5l3.838-15.557c-.038-.2-.26-.307-.413-.414a65.284,65.284,0,0,0-7.007-4.105c-.235-.085-1.027-.235-1.132-.131m62.976,2.357-20.2,10.529c-3.98.536-8.017-3.08-11.906-1.635a47.679,47.679,0,0,0-6.172,3.089,1.6,1.6,0,0,0,.8,3c1.13-.078,4.184-2.739,5.646-3.115,2.118-.544,3.657.43,5.136,1.777,2.749,2.576,5.586,5.129,8.419,7.57L65.165,42.7ZM11.111,50.02,15.15,35.94c.086-1.036-1.641-1.274-2.272-1.914L8.932,49.108l-.008.237ZM31.151,37.9c-4.836-1.987-9.662-.024-14.484.921L13.652,49.157l3.428,1.884c1.5-2.368,5.185-4.962,7.308-1.751A7.37,7.37,0,0,1,24.946,51c.062.1,1.284.328,1.609.5,1.422.739,1.544,2.694,1.725,2.822a12.287,12.287,0,0,1,1.641.548c1.508.911,1.323,2.442,1.588,2.706.045.045.574.061.788.136,1.769.617,2.977,3.041,4.8,3.959,1.133.571,2.3-.056,1.882-1.377l-5.943-5.137,1.153-1.6c.322-.225,5.415,4.431,6.135,4.885,1.015.549,2.259-.059,1.959-1.271l-5.835-5.138c-.178-.241.87-1.607.955-1.656a.485.485,0,0,1,.48.065l6.025,4.926c2.445.071,1.909-1.842.381-2.911-2.862-2.068-5.383-5.265-8.17-7.321-2.087-1.54-4.606,1.1-6.537,2.048a3.739,3.739,0,1,1-3.87-6.4c.4-.257,5.631-2.648,5.441-2.892M21.168,50.052a28.258,28.258,0,0,0-2.558,2.5c-.557,1.3.685,2.258,1.922,1.417A16.183,16.183,0,0,0,22.6,51.829c.44-1.065-.255-2.133-1.436-1.778m3.543,3.2c-.929.156-4.052,3.031-2.475,4.086,1.108.742,2.934-1.141,3.5-2.038.635-1.011.184-2.251-1.023-2.048m3.025,3.372a11.389,11.389,0,0,0-2.61,2.452,1.226,1.226,0,0,0,1.644,1.638,26.934,26.934,0,0,0,2.4-2.481c.465-1.069-.346-1.849-1.435-1.608m3.369,3.2a15.5,15.5,0,0,0-2.73,2.5c-.526,1.142.589,2.092,1.762,1.593a29.665,29.665,0,0,0,2.272-2.272,1.225,1.225,0,0,0-1.3-1.821M34.44,62.48,33.01,64.23c2.042,2.4,4.293-.371,1.43-1.751" fill="#12263f"/>
      </g>
    </g>
  </g>
</svg>
