<svg xmlns="http://www.w3.org/2000/svg" xmlns:xlink="http://www.w3.org/1999/xlink" width="99.001" height="98.908" viewBox="0 0 99.001 98.908">
  <defs>
    <clipPath id="clip-path">
      <rect id="Rect치ngulo_413640" data-name="Rect치ngulo 413640" width="54.571" height="54.478" fill="#12263f"/>
    </clipPath>
  </defs>
  <g id="Grupo_1116053" data-name="Grupo 1116053" transform="translate(-3550.789 7561.815)">
    <g id="Grupo_1115430" data-name="Grupo 1115430" transform="translate(3164.122 -12898.815)">
      <rect id="Rect치ngulo_412780" data-name="Rect치ngulo 412780" width="93.637" height="93.545" rx="20" transform="translate(389.349 5339.695)" fill="#b0c2e5"/>
      <g id="Grupo_1114814" data-name="Grupo 1114814" transform="translate(386.667 5337)">
        <path id="Trazado_875775" data-name="Trazado 875775" d="M245.284,301.406A1.288,1.288,0,0,1,244,300.118v-3.863a6.445,6.445,0,0,1,6.438-6.438h30.644a9.024,9.024,0,0,0,9.013-9.013V250.216a6.445,6.445,0,0,1,6.438-6.438h3.863a1.288,1.288,0,1,1,0,2.575h-3.863a3.867,3.867,0,0,0-3.863,3.863V280.8a11.6,11.6,0,0,1-11.588,11.588H250.434a3.867,3.867,0,0,0-3.863,3.863v3.863a1.288,1.288,0,0,1-1.288,1.288" transform="translate(-202.679 -202.498)" fill="#12263f"/>
        <path id="Trazado_875777" data-name="Trazado 875777" d="M1.288,57.628A1.288,1.288,0,0,1,0,56.34V52.477a6.445,6.445,0,0,1,6.438-6.438H37.082A9.024,9.024,0,0,0,46.1,37.026V6.438A6.445,6.445,0,0,1,52.533,0H56.4a1.288,1.288,0,0,1,0,2.575H52.533a3.867,3.867,0,0,0-3.863,3.863V37.026A11.6,11.6,0,0,1,37.082,48.614H6.438a3.867,3.867,0,0,0-3.863,3.863V56.34a1.288,1.288,0,0,1-1.288,1.288" transform="translate(57.684 57.628) rotate(180)" fill="#12263f"/>
      </g>
    </g>
    <g id="Grupo_1115836" data-name="Grupo 1115836" transform="translate(3573.004 -7539.601)">
      <g id="Grupo_1115835" data-name="Grupo 1115835" clip-path="url(#clip-path)">
        <path id="Trazado_877137" data-name="Trazado 877137" d="M14.081,2.234A2.822,2.822,0,0,1,16.2,0H34.825c1.7.336,2.323,1.917,2.121,3.527a3.413,3.413,0,0,1,2.553.509,3.118,3.118,0,0,1,.986,1.736v6.465h6.737c1.234,0,3.743,2.087,3.743,3.335V45.72h2.11a1.916,1.916,0,0,1,1.421,1.3,17.252,17.252,0,0,1-.2,4.684,4.309,4.309,0,0,1-3.278,2.711,17.416,17.416,0,0,1-3.087-.014.824.824,0,0,1,.137-1.575c1.113-.245,2.453.285,3.567-.38a3.371,3.371,0,0,0,1.235-1.759v-3.2H33.408v2.246c0,.461-1.056,1.117-1.559,1.163-2.975.272-6.369-.209-9.39-.014-.353.041-1.3-.936-1.3-1.149V47.49H1.695v3.2a3.3,3.3,0,0,0,1.083,1.639c.419.293,2.2.731,2.457.471.085-.088-.232-1.695.894-1.768,1.224-.08.767,1.661.874,1.768a8.325,8.325,0,0,0,1.771,0c.093-.1-.248-1.669.894-1.766,1.167-.1.792,1.684.874,1.766.063.062,1.5-.047,1.771,0-.387-2.437,2.079-2.323,1.768,0l30.835-.007a.835.835,0,1,1,.273,1.646L3.547,54.416A4.263,4.263,0,0,1,.122,51.172,22.076,22.076,0,0,1,.09,46.906a2.159,2.159,0,0,1,1.4-1.186H3.6V15.572c0-1.247,2.509-3.335,3.743-3.335h6.737Zm21.1,1.293c-.03-.926.306-1.77-.882-1.909-5.611.39-11.9-.508-17.431,0-.7.064-1.015.251-1.021,1.021l0,22.875c.055,1.019.979.911,1.772.882V5.636c0-.647,1.169-2.11,1.837-2.11ZM19.38,29.937H38.724V5.152H19.38Zm-5.3-15.93H7.207a3.626,3.626,0,0,0-1.974,1.974V45.72H7V26.053c0-.756,1.769-1.1,1.769,0V45.72H45.794V17.41H40.485V29.319A2.749,2.749,0,0,1,38.1,31.564L19.88,31.55c-1.815-.241-2.47-1.833-2.26-3.524a3.053,3.053,0,0,1-3.109-1.178,5.167,5.167,0,0,1-.431-1.067V17.41H8.772v5.785c0,.635-1.6,1.095-1.772-.405a33.545,33.545,0,0,1,.036-5.415c.09-.535.869-1.6,1.4-1.6h5.648ZM49.332,45.72V15.981a3.626,3.626,0,0,0-1.974-1.974H40.485v1.769h5.648c.419,0,1.429,1.122,1.429,1.565V45.72ZM31.775,47.49H22.791v1.769h8.983Z" transform="translate(0)" fill="#12263f"/>
        <path id="Trazado_877138" data-name="Trazado 877138" d="M176.073,252.146a6.789,6.789,0,0,1,.99.3,1.788,1.788,0,0,1,.524,2.122,31.23,31.23,0,0,1-3.167,3.775c-1.081.693-1.747.189-2.513-.6a20.667,20.667,0,0,1-2.644-3.479,1.673,1.673,0,0,1,.712-1.859,9.339,9.339,0,0,1,.9-.257c.267-.309-.515-2.272.7-3.177a5.111,5.111,0,0,1,3.538-.152c1.586.761.656,2.978.959,3.329m-1.647-1.892H172.52v2.382c0,.539-1.09,1.238-1.633,1.224l2.652,3.064,2.519-3.064c-.542.014-1.633-.685-1.633-1.224Z" transform="translate(-146.19 -214.742)" fill="#12263f"/>
        <path id="Trazado_877139" data-name="Trazado 877139" d="M182.612,50.339a34.71,34.71,0,0,1,5.549-.032,1.924,1.924,0,0,1,1.694,1.436,13.4,13.4,0,0,1,0,2.434c-.16,1.037-1.032,1.363-1.96,1.443a34.88,34.88,0,0,1-4.9-.006,1.8,1.8,0,0,1-1.83-1.436,13.223,13.223,0,0,1,0-2.433,1.844,1.844,0,0,1,1.452-1.406m5.617,1.738h-5.444v1.769h5.444Z" transform="translate(-156.454 -43.378)" fill="#12263f"/>
        <path id="Trazado_877140" data-name="Trazado 877140" d="M155.979,128.926l14.265-.032c1.289.15,1.163,1.61-.275,1.772-4.179.469-9.205-.35-13.475,0-1.142-.022-1.7-1.233-.515-1.74" transform="translate(-134.18 -111.351)" fill="#12263f"/>
        <path id="Trazado_877141" data-name="Trazado 877141" d="M170.888,102.479c.5.555-.14,1.493-.845,1.465H156.29c-1.3-.153-1.532-1.64.134-1.778,4.319-.357,9.116.284,13.487,0a1.85,1.85,0,0,1,.977.314" transform="translate(-134.114 -88.164)" fill="#12263f"/>
        <path id="Trazado_877142" data-name="Trazado 877142" d="M169.054,154.926l10.726-.032a.825.825,0,0,1,.14,1.643H169.154a.816.816,0,0,1-.1-1.611" transform="translate(-145.485 -133.812)" fill="#12263f"/>
      </g>
    </g>
  </g>
</svg>
